<?xml version="1.0" encoding="utf-8" ?>
<svg xmlns="http://www.w3.org/2000/svg" xmlns:xlink="http://www.w3.org/1999/xlink" width="512" height="512">
	<path transform="scale(0.5 0.5)" d="M-0 -0L1024 0L1024 1024L-0 1024L0 -0Z"/>
	<path fill="#FDFDFA" transform="scale(0.5 0.5)" d="M755.033 115.75L756.5 116.054C757.707 117.273 757.685 117.258 757.831 118.971L756.75 119.938L754.5 119.909L753.782 119.066C753.964 117.391 753.92 117.106 755.033 115.75Z"/>
	<path fill="#FDFDFA" transform="scale(0.5 0.5)" d="M852.174 156.75L853.507 156.535C854.786 157.54 854.841 157.406 855.043 159L853.75 160.616L852.25 161.114L851.047 160.25C851.032 158.324 851.011 158.276 852.174 156.75Z"/>
	<path fill="#FDFDFA" transform="scale(0.5 0.5)" d="M894.382 785.25L896.25 784.988L897.395 786C897.45 787.6 897.49 787.951 896.75 789.347C895.835 789.328 894.914 789.087 894.015 788.916C893.379 787.337 893.854 786.827 894.382 785.25Z"/>
	<path fill="#FDFDFA" transform="scale(0.5 0.5)" d="M91.6426 404.75L93.25 404.329C94.545 405.084 94.7391 405.183 95.4255 406.5L94.3236 408.25C93.8523 408.552 93.2741 408.708 92.75 408.904L91.25 407.879C90.9263 406.274 90.933 406.226 91.6426 404.75Z"/>
	<path fill="#FDFDFA" transform="scale(0.5 0.5)" d="M192.485 72.75C193.675 72.829 194.279 73.4646 195.25 74.1166C195.353 75.4372 195.481 76.0652 194.75 77.2389C193.748 77.6001 193.292 77.6501 192.25 77.423C191.473 76.0067 191.371 75.3655 191.419 73.75L192.485 72.75Z"/>
	<path fill="#FDFDFA" transform="scale(0.5 0.5)" d="M435.886 23.25C436.56 23.0885 437.31 23.0566 438 22.9786C439.056 23.6907 439.414 24.0691 439.899 25.25L438.952 26.75L438.3 27.1246C437.102 27.6248 436.82 27.5899 435.75 27.0428C435.371 25.3096 435.298 25.0141 435.886 23.25Z"/>
	<path fill="#FDFDFA" transform="scale(0.5 0.5)" d="M214.548 910.25L215.214 910.192C216.532 910.401 216.736 911.116 217.284 912.16C217.022 913.931 217.166 913.885 215.75 914.948C214.083 914.348 213.843 914.294 212.708 912.82C213.112 911.143 213.115 911.23 214.548 910.25Z"/>
	<path fill="#FDFDFA" transform="scale(0.5 0.5)" d="M795.672 87.75C797.462 87.6625 797.393 87.5724 798.75 88.7239C798.854 90.2588 798.519 90.759 797.75 92.0163L796.25 92.426L794.624 91.25C794.532 89.2897 794.488 89.305 795.672 87.75Z"/>
	<path fill="#FDFDFA" transform="scale(0.5 0.5)" d="M127.547 203.75C128.48 203.399 128.787 203.464 129.75 203.577C130.975 204.733 131.215 204.766 131.481 206.5L130.25 207.518C129.515 207.729 128.755 207.817 128 207.938L126.876 207.051C126.551 205.459 126.876 205.183 127.547 203.75Z"/>
	<path fill="#FDFDFA" transform="scale(0.5 0.5)" d="M926.68 107.25L927.954 107.1C928.992 108.38 929.235 108.547 929.404 110.25L927.708 111.75L925.75 111.914L924.649 110.5C924.981 108.975 925.637 108.323 926.68 107.25Z"/>
	<path fill="#FDFDFA" transform="scale(0.5 0.5)" d="M781.924 27.75C783.567 27.9299 783.693 27.8984 784.905 29C784.876 30.888 784.891 30.9789 783.75 32.4724C782.118 32.3242 781.6 32.2444 780.476 31L780.668 28.75L781.924 27.75Z"/>
	<path fill="#FDFDFA" transform="scale(0.5 0.5)" d="M990.836 54.75C991.612 54.6012 991.988 54.6722 992.75 54.8105L993.917 56.5C993.516 58.0927 993.408 58.3189 992.25 59.4783C990.522 59.3848 990.429 59.3271 989.069 58.25L988.962 56.75L990.836 54.75Z"/>
	<path fill="#FDFDFA" transform="scale(0.5 0.5)" d="M66.1466 283.75L66.5377 283.721C68.2396 283.997 68.6381 284.596 69.75 285.745C69.525 287.484 69.5099 287.513 68.2675 288.75L66.9925 288.821C65.569 288.135 65.3152 288.092 64.5252 286.75C64.8562 285.345 65.1164 284.768 66.1466 283.75Z"/>
	<path fill="#FDFDFA" transform="scale(0.5 0.5)" d="M115.027 813.75C115.881 813.624 116.196 813.686 117.011 813.885C118.394 815.21 118.942 815.276 119.005 817.25L117.25 818.898L115.75 819.374C114.447 818.434 114.157 817.935 113.595 816.5C113.876 815.029 114.009 814.861 115.027 813.75Z"/>
	<path fill="#FDFDFA" transform="scale(0.5 0.5)" d="M169.419 40.75L170.245 40.6287C171.482 40.6816 172.143 41.6906 172.914 42.5C172.935 44.6234 172.542 44.7302 171.25 46.3237L170.093 46.3671C168.812 45.6794 168.351 45.2745 167.645 44C167.811 42.433 168.4 41.8449 169.419 40.75Z"/>
	<path fill="#FDFBDC" transform="scale(0.5 0.5)" d="M404.869 40.25L406.257 39.8128C407.942 40.2026 407.899 40.3539 408.963 41.75C408.875 43.6126 409.032 43.7996 407.732 45.25L406.249 45.5606C404.844 45.0167 404.683 44.6918 403.75 43.4786C403.538 41.6694 403.83 41.657 404.869 40.25Z"/>
	<path fill="#FDFDFA" transform="scale(0.5 0.5)" d="M33.4485 209.75L35 209.989C36.0787 210.813 36.6237 211.164 37.0768 212.5C36.6766 213.914 36.2095 214.483 35.25 215.539L33.5 215.54C32.2006 214.452 31.9901 214.359 31.5347 212.75C32.0358 211.076 31.9937 210.856 33.4485 209.75Z"/>
	<path fill="#FDFDFA" transform="scale(0.5 0.5)" d="M19.046 86.25L20.5 86.5008C21.9913 87.8431 21.8871 87.7382 22.0199 89.75C21.2449 91.132 21.2133 91.1384 19.75 91.755L18 91.517C16.5562 90.1623 16.6869 90.1092 16.5017 88.25C17.4058 86.8756 17.5036 86.8434 19.046 86.25Z"/>
	<path fill="#FDFDFA" transform="scale(0.5 0.5)" d="M1000.11 188.75L1001.75 188.423C1003.22 189.037 1003.39 189.238 1004.34 190.528C1004.39 192.455 1004.59 192.53 1003.25 194.05C1002.15 194.517 1001.38 194.229 1000.25 193.996C999.878 193.552 999.631 193.309 999.379 192.75C998.669 191.175 999.425 190.096 1000.11 188.75Z"/>
	<path fill="#FDFDFA" transform="scale(0.5 0.5)" d="M1007.65 121.25L1009.5 120.951C1010.9 121.77 1011.06 121.78 1011.7 123.25C1011.52 125.085 1011.63 125.331 1010.33 126.75L1008.75 127.031C1007.33 126.361 1007.15 126.357 1006.4 125C1006.5 123.103 1006.45 122.843 1007.65 121.25Z"/>
	<path fill="#FDFDFA" transform="scale(0.5 0.5)" d="M872.438 69.75L872.842 69.6096C874.508 69.1811 875.819 69.3698 877.25 70.2164C877.38 70.6694 877.507 71.0011 877.483 71.5C877.41 72.973 876.875 73.7763 875.816 74.75C874.343 75.0814 873.644 75.5115 872.25 74.8597L871.867 73.5C871.551 71.8217 871.538 71.1699 872.438 69.75Z"/>
	<path fill="#FDFDFA" transform="scale(0.5 0.5)" d="M399.038 79.25C400.168 78.9517 400.658 79.0856 401.75 79.4718C402.713 80.7045 402.825 81.2557 402.951 82.75C402.262 84.2068 402.137 84.2997 400.75 85.1332L399 85.3851C397.745 84.2155 397.641 83.8214 397.122 82.25C397.594 80.5125 397.507 80.3656 399.038 79.25Z"/>
	<path fill="#FDFDFA" transform="scale(0.5 0.5)" d="M916.459 894.75C916.909 894.641 917.544 894.454 918.003 894.503C919.681 894.682 920.089 895.558 920.975 896.75C920.854 898.575 920.639 898.814 919.633 900.25C918.808 900.531 918.113 900.574 917.25 900.646C915.978 899.945 915.584 899.559 914.949 898.25C915.079 896.234 915.089 896.238 916.459 894.75Z"/>
	<path fill="#FDFDFA" transform="scale(0.5 0.5)" d="M961.341 784.75C962.085 784.62 962.799 784.71 963.551 784.75C964.774 785.531 965.289 785.92 965.992 787.25C965.693 788.884 964.905 789.512 963.75 790.587C962.93 791.02 962.411 791 961.5 791.059C960.419 790.178 960.28 789.938 959.761 788.636C960.022 786.662 960.001 786.34 961.341 784.75Z"/>
	<path fill="#FDFDFA" transform="scale(0.5 0.5)" d="M186.827 199.25C187.596 199.127 188.345 199.213 189.121 199.25C190.592 200.362 190.772 200.539 191.436 202.25C190.949 203.925 190.997 204.141 189.548 205.25L187.25 205.484C185.857 204.42 185.579 203.924 185.062 202.25C185.469 200.571 185.562 200.429 186.827 199.25Z"/>
	<path fill="#FDFDFA" transform="scale(0.5 0.5)" d="M126.555 12.25L127.183 12.375C128.366 12.9082 130.538 14.6135 131.025 15.75C130.828 16.8011 130.707 17.806 130.101 18.715C129.59 19.4816 128.603 19.272 127.75 19.3636C126.982 18.8764 126.28 18.4086 125.428 18.079L123.19 17.25C124.631 15.8197 125.536 14.6442 126.342 12.7662L126.555 12.25Z"/>
	<path fill="#FDFDFA" transform="scale(0.5 0.5)" d="M602.634 67.75C603.386 67.6587 604.042 67.8009 604.75 68.0962C605.867 68.5623 607.041 69.6525 607.514 70.75C607.164 72.3548 606.716 72.9929 605.656 74.25C604.605 74.8453 604.518 74.7431 603.378 74.75C602.191 73.9676 601.677 73.5341 600.961 72.25C601.074 70.0527 601.494 69.565 602.634 67.75Z"/>
	<path fill="#FFE7D5" transform="scale(0.5 0.5)" d="M877.112 175.974L892.07 175.914C892.21 176.961 892.393 177.006 891.839 177.969L892.361 178.992L880.364 178.534C878.382 177.804 878.245 177.747 877.112 175.974Z"/>
	<path fill="#FDFDFA" transform="scale(0.5 0.5)" d="M85.9479 614.25C87.4045 614.093 87.7038 614.314 89.0535 614.944C90.0051 616.479 90.1442 617.193 90.1822 619C89.4275 620.57 89.3266 620.543 87.75 621.324C86.4915 621.496 85.9187 621.39 84.75 620.898C83.9604 619.789 83.1809 618.72 83.4563 617.25C83.7549 615.655 84.7764 615.174 85.9479 614.25Z"/>
	<path fill="#FDFBDC" transform="scale(0.5 0.5)" d="M990.19 335.75C991.432 335.296 992.709 335.52 994 335.617C995.137 336.45 995.877 336.748 996.126 338.25C996.431 340.09 995.644 341.007 994.492 342.25C992.989 342.811 991.792 342.593 990.25 342.399C989.214 341.363 988.271 340.652 988.409 339C988.547 337.343 989.116 336.914 990.19 335.75Z"/>
	<path fill="#FDFDFA" transform="scale(0.5 0.5)" d="M166.679 879.75C168.251 879.509 168.858 879.442 170.358 880.151C171.499 881.897 171.378 882.704 171.495 884.75C170.568 886.199 170.226 886.323 168.75 887.078C167.106 887.357 166.606 887.673 165.25 886.491C163.974 885.378 164.11 884.004 164.082 882.5C164.832 880.968 165.171 880.548 166.679 879.75Z"/>
	<path fill="#FDFDFA" transform="scale(0.5 0.5)" d="M865.913 901.621L870.856 905.395C869.723 906.961 869.113 908.079 868.817 910.01L868.75 910.507L867.25 911.329C866.135 910.965 865.777 910.339 865 909.498C863.955 909.428 863.188 909.398 862.25 908.907L861.687 906.75C863.837 905.898 864.788 903.533 865.913 901.621Z"/>
	<path fill="#FDFDFA" transform="scale(0.5 0.5)" d="M465.647 805.75C466.923 805.264 466.506 806.061 467.536 806.369C468.154 806.554 470.026 806.184 470.75 806.141C470.642 807.138 470.123 808.82 470.224 809.75C470.336 810.774 471.132 811.468 471.173 812.698C469.724 812.61 469.532 812.578 468.28 813.285C467.262 814.099 466.872 814.5 465.604 814.872L465.03 812.75C464.544 811.765 463.891 811.42 462.909 811.071L461.947 810.75L462.75 809.755L462.689 807.75L463.75 807.92C465.076 807.417 465.003 807.036 465.647 805.75Z"/>
	<path fill="#FDFDFA" transform="scale(0.5 0.5)" d="M812.59 135.75L812.848 135.734C815.596 136.405 814.485 137.568 815.357 139.654C816.457 140.113 817.253 140.33 818.055 141.25C817.504 141.664 815.923 142.572 815.61 143.087C814.996 144.097 815.496 144.416 814.5 145.472L812.25 144.012C811.025 144.192 809.963 144.819 808.705 144.986L809.422 142.25L807.25 139.467L807.388 138.824C808.608 138.707 809.897 138.672 811.05 138.229C811.845 137.924 812.227 136.51 812.59 135.75Z"/>
	<path fill="#FDFDFA" transform="scale(0.5 0.5)" d="M84.0991 176.75C84.3745 177.294 84.924 178.888 85.2957 179.25C85.8254 179.766 88.3393 179.938 89.327 180.63C88.2344 182.466 87.5965 184.028 87.1271 186.121C86.8972 187.146 86.0176 187.636 85.25 188.333L84.75 186.908C83.6528 186.091 82.6072 185.859 81.3076 185.537L80.75 185.402C79.8054 184.19 79.4418 184.082 79.5408 182.5C81.3649 180.972 82.4773 179.466 83.681 177.455L84.0991 176.75Z"/>
	<path fill="#FDFDFA" transform="scale(0.5 0.5)" d="M216.828 77.9661L219.5 82.3743L221.5 82.6062L222.111 83.5L221.652 85.5843C219.971 86.7195 219.447 87.5752 218.81 89.5033L218.632 90.0729L217.578 90.25C216.037 88.163 215.216 87.8071 212.641 87.3519L212.038 87.25L211.493 86.25L212.008 85C215.21 82.8458 215.406 81.423 216.828 77.9661Z"/>
	<path fill="#FDFDFA" transform="scale(0.5 0.5)" d="M387.895 867.25C389.706 867.23 388.972 868.008 390.25 868.659C390.808 868.943 393.01 868.817 393.75 868.86L394.007 869.75L392.368 872.25L393.06 873.74L393.323 874.25C391.52 874.974 391.602 875.344 390.75 877.015C389.648 877.301 388.82 877.619 387.685 877.344L387.644 875.25C386.305 874.412 385.202 873.606 384.072 872.5C384.394 871.348 385.228 870.832 386.111 870.102C386.746 869.578 386.006 868.822 386.16 867.75L387.895 867.25Z"/>
	<path fill="#FDFDFA" transform="scale(0.5 0.5)" d="M159.906 128.75C160.44 128.624 160.943 128.475 161.502 128.484C163.028 128.506 164.043 129.516 165.081 130.478C165.547 131.483 166.059 132.398 165.85 133.542C165.46 135.676 164.438 136.269 162.75 137.392L161.428 137.783C160.211 137.615 159.505 137.234 158.649 136.374C157.495 135.214 157.226 133.835 157.164 132.25C157.821 130.45 158.337 129.834 159.906 128.75Z"/>
	<path fill="#FDFDFA" transform="scale(0.5 0.5)" d="M929.014 978.25C931.525 977.68 930.221 979.361 931.75 980.401C932.286 980.766 934.14 980.956 934.855 981.122C934.187 982.263 933.295 983.24 932.448 984.25C932.428 985.597 932.596 986.907 931.75 988.036C930.385 988.53 930.141 988.702 928.75 988.38C928.529 987.206 928.663 987.179 927.786 986.25C926.681 986.629 925.856 986.814 924.685 986.827L925.525 984.25L924.103 982.25C924.319 980.196 925.844 981.293 927.25 980.415C927.784 980.082 928.578 978.786 929.014 978.25Z"/>
	<path fill="#FDFDFA" transform="scale(0.5 0.5)" d="M885.936 43.75L886.261 43.7764C887.573 44.1489 887.921 45.2792 888.596 46.3693C889.949 46.6269 890.995 46.8697 892.25 47.4729C892.488 48.6726 892.454 48.9018 892.071 50.0681C891.075 50.3847 890.209 50.7711 889.28 51.25C888.896 52.6037 888.604 53.4535 887.75 54.608C886.019 53.5733 885.295 52.7725 883.25 52.9313C882.52 51.5791 881.711 49.4575 881.935 47.9479C884.476 47.1376 884.718 45.9292 885.936 43.75Z"/>
	<path fill="#FCBF49" transform="scale(0.5 0.5)" d="M880.364 178.534L852.46 177.992C846.691 177.913 840.899 178.03 835.171 177.268L877.112 175.974C878.245 177.747 878.382 177.804 880.364 178.534Z"/>
	<path fill="#FDFBDC" transform="scale(0.5 0.5)" d="M301.378 55.75C304.63 55.75 303.447 58.526 305.5 59.4424C306.608 59.9369 307.209 59.3555 308.436 60.25C307.534 62.2928 305.007 63.3585 304.391 65.3979C304.076 66.4377 304.689 65.6264 303.75 66.5357L301.159 65.514L300.5 64.5364C299.886 64.9112 299.444 65.1176 298.75 65.37C297.856 64.3866 296.866 63.7434 296.75 62.3913L298.25 62.3148L297.189 60.25C299.852 58.8499 299.982 58.4541 301.378 55.75Z"/>
	<path fill="#FDFDFA" transform="scale(0.5 0.5)" d="M767.409 890.75L770 890.568L771.046 891.5C772.871 893.301 772.609 893.729 772.563 896.25L774.215 897.75L773.795 898.25C772.956 898.33 772.183 898.314 771.441 898.764C770.859 899.118 770.781 900.384 770.625 901.038L769.393 901.25L767.919 901.25L766.961 900.25C765.718 900.097 766.309 900.224 765.182 899.888L765.495 898.25C765.01 897.064 764.322 896.252 763.545 895.25L763.75 894.346C765.805 893.754 766.348 892.468 767.409 890.75Z"/>
	<path fill="#FDFDFA" transform="scale(0.5 0.5)" d="M85.0998 743.75L85.4907 743.765C86.3539 744.461 86.3178 744.476 87.3636 744.335L88.25 744.165L88.4163 744.723C89.3592 747.818 90.4095 747.87 93.0642 749.303C90.7661 751.251 89.8506 751.752 89.0136 754.75L88.204 755.458C85.4784 754.705 83.0708 752.676 81.0689 750.75C81.9153 748.309 83.6897 748.096 84.75 746.127C84.995 745.672 85.016 744.319 85.0998 743.75Z"/>
	<path fill="#FDFBDC" transform="scale(0.5 0.5)" d="M42.4613 38.6229L45.1203 42.3615C46.2902 42.5218 47.2377 42.563 48.25 43.2178C47.971 44.1093 48.1534 43.8606 47.6044 44.4986C46.9279 45.2846 45.5438 46.4764 45.25 47.4564C44.8151 48.9072 45.5856 50.1039 44.5078 51.3897L43.25 50.9333C41.3568 49.4223 40.4949 49.1739 38.1706 49.25C38.0478 48.1035 37.7302 47.1974 37.3176 46.1307C36.9216 45.1072 36.75 44.7345 36.75 43.6159L39 43.4847C40.716 42.7159 41.6085 40.2259 42.4613 38.6229Z"/>
	<path fill="#FDFDFA" transform="scale(0.5 0.5)" d="M719.074 56.75C721.146 57.4493 720.486 58.5651 721.75 59.9783C722.465 60.7782 724.249 61.4399 725.175 62.25L721.662 65.1572C721.483 66.3808 721.398 67.284 720.75 68.363L718.037 66.75C716.578 66.4018 715.863 66.477 714.429 66.9329L714 67.0761L713.414 66.75L714.724 63.25C714.225 62.0981 713.526 61.0627 712.86 60.0025L713.087 59.1838L716.25 59.9068C717.89 59.2375 718.158 58.231 719.074 56.75Z"/>
	<path fill="#FDFDFA" transform="scale(0.5 0.5)" d="M600.245 40.25C600.984 40.7285 601.671 42.1259 602.33 42.8464L602.935 43.5C602.183 47.4078 605.615 47.2094 606.315 50.25C605.407 50.7732 604.841 51.0788 603.775 51.2002L602.996 51.25L602 54.0197C600.603 53.9806 600.393 53.4827 599.371 52.6252L597.5 50.9463C596.073 50.1441 594.747 51.184 593.385 51.75L593.076 51.25L595.303 48.75C594.802 47.9625 594.385 47.3395 594.196 46.4128C593.954 45.2196 593.778 45.0047 594.5 43.9803L598 44.0053L600.245 40.25Z"/>
	<path fill="#FDFDFA" transform="scale(0.5 0.5)" d="M92.8051 238.75C94.9403 238.984 95.5024 241.665 97.25 242.54C98.3098 243.071 100.133 243.11 101.393 243.628C101.415 245.545 99.1895 245.98 98.5823 247.5C97.8573 249.315 99.0118 250.873 97.75 252.95L96.3923 252.617L91.0861 251.379L90.4329 249.75C89.0388 249.448 87.9325 249.24 86.75 248.378L86.8527 247.25C87.4678 246.321 87.93 245.589 88.8592 244.945C91.469 243.136 91.8642 242.5 92.6461 239.402L92.8051 238.75Z"/>
	<path fill="#FDFDFA" transform="scale(0.5 0.5)" d="M48.0831 757.561C49.6593 759.112 50.9286 760.592 53.184 761.048C54.0138 761.216 54.7646 761.483 55.5673 761.75C54.39 762.79 53.6272 763.62 52.8659 765L52.6702 769.56L51.75 770.1C50.7803 769.621 49.8146 769.062 48.7344 768.894L48.25 768.863C46.847 770.119 45.6067 770.567 43.75 770.665L41.9118 768.5C41.2346 767.377 41.5404 766.37 41.8357 765.189L41.9519 764.75L40.75 763.331L42.5 762.968C43.7813 760.528 45.9266 759.177 48.0831 757.561Z"/>
	<path fill="#FDFDFA" transform="scale(0.5 0.5)" d="M80.1022 879.75C82.7766 879.521 82.9862 882.998 84.5064 884.629C85.2109 885.385 86.2716 885.833 87.1906 886.272C88.0058 886.661 87.6417 886.326 88.1317 887.25C87.049 887.911 85.5991 888.826 84.8276 889.843C83.0805 892.147 83.375 893.973 80.75 895.948C79.618 895.186 79.7676 895.11 79.4892 893.75L79.1131 893.511L78.5 893.092C76.0065 891.421 74.0588 889.196 72.0064 887.027C76.1061 885.872 77.7407 883.082 80.1022 879.75Z"/>
	<path fill="#FDFBDC" transform="scale(0.5 0.5)" d="M212.396 137.25L213.17 137.119C215.673 138.024 217.433 140.104 219.472 141.75C222.059 143.838 224.745 145.664 227.189 147.937C225.424 149.505 222.403 149.969 220.32 151.219L219.465 151.75L218.989 152.25C217.928 153.848 218.171 154.887 218.25 156.675L217.175 156.312C214.5 155.172 212.598 154.825 209.714 154.533L212.396 137.25Z"/>
	<defs>
		<linearGradient id="gradient_0" gradientUnits="userSpaceOnUse" x1="949.86334" y1="172.925" x2="950.58667" y2="180.08005">
			<stop offset="0" stop-color="#FDEBD2"/>
			<stop offset="1" stop-color="#FFFFFB"/>
		</linearGradient>
	</defs>
	<path fill="url(#gradient_0)" transform="scale(0.5 0.5)" d="M915.508 175.505L973.954 175.76C983.899 175.947 994.383 175.634 1004.25 176.836C998.638 178.037 991.877 177.512 986.102 177.602L946.709 178.017C938.439 178.009 929.531 177.29 921.347 178.436L904.56 182.254L904.223 181.641C904.982 181.481 905.527 181.333 906.25 181C907.266 180.532 906.7 180.631 907.798 180.539C908.764 180.458 908.596 180.404 909.25 179.755L910.25 180L910.75 179.255L912 179.255C913.123 178.506 913.627 179.008 914.745 178.25C914.823 177.403 914.853 176.728 915.243 175.952L915.508 175.505Z"/>
	<path fill="#FDE89F" transform="scale(0.5 0.5)" d="M736.843 513.594C751.744 512.463 767.023 508.818 781.753 506.133C788.129 504.971 795.018 503.156 801.5 503.446L802.25 504.34C801.304 505.948 800.433 506.222 798.651 506.685L742.469 517.217C741.99 516.417 741.793 516.249 740.915 515.848C739.543 515.222 738.366 514.423 736.943 513.885L736.843 513.594Z"/>
	<path fill="#FCBF49" transform="scale(0.5 0.5)" d="M837.927 851.175C841.251 850.197 844.818 850.418 848.25 850.28L874.813 850.407C886.055 850.424 897.693 849.796 908.886 850.578C912.97 850.863 917.098 851.524 921.125 852.25C922.967 852.582 925.401 852.806 927.044 853.694L927.643 854.038C924.964 854.84 921.728 854.642 918.947 854.745L900.063 855.062L871.053 855.154C865.394 855.149 859.563 855.373 853.933 854.882C848.317 854.393 843.263 852.868 837.927 851.175Z"/>
	<path fill="#F77F00" transform="scale(0.5 0.5)" d="M448.132 628.61C456.853 628.444 466.32 624.916 474.89 623.151C477.676 622.577 480.862 622.605 483.543 621.789C486.394 620.921 488.424 618.51 491.25 617.731L491.922 618.946L489.971 624.642L450.645 632.675L402.712 642.486C399.07 643.204 389.665 646.45 386.49 645.25L387.2 641.852L448.132 628.61Z"/>
	<path fill="#FDFBDC" transform="scale(0.5 0.5)" d="M876.255 502.945C879.274 506.186 882.347 509.354 886.029 511.855C899.262 520.841 915.836 523.182 931.419 523.739L958.634 524.578C935.945 532.109 912.501 531.247 890.906 520.428L875.534 511.32L873.103 508.723L873.646 507.811C874.765 506.189 875.496 504.779 876.255 502.945Z"/>
	<path fill="#F77F00" transform="scale(0.5 0.5)" d="M335.673 628.079C337.164 634.669 332.787 645.55 330.146 651.677C332.288 652.476 334.492 651.752 336.738 651.429L362.819 645.98C365.895 645.392 369.13 645.399 372.166 644.731C376.011 643.887 379.853 642.237 383.67 641.144C383.542 642.87 383.676 644.673 382.502 646.053C377.094 648.316 369.968 648.785 364.161 650.028C360.576 650.795 356.282 652.357 352.724 652.482L329.92 657.213L328.441 657.93L326.926 658.015L326.786 658.132C323.985 660.171 322.922 663.031 320.917 665.75C315.864 672.601 305.39 679.891 296.75 680.833C295.163 681.006 293.433 681.241 292.198 680.19L295.269 679.356C297.461 678.858 299.632 677.396 301.568 676.266C311.117 670.688 317.316 663.928 323.191 654.585C327.577 646.674 330.295 638.027 332.324 629.237L335.673 628.079Z"/>
	<path fill="#FDFBDC" transform="scale(0.5 0.5)" d="M932.934 436.828C936.388 432.815 942.868 427.997 948.272 427.554C954.715 427.027 961.686 426.969 968 428.374C970.744 428.985 975.301 430.774 978 430.453L978.174 429.938C976.872 428.937 975.454 428.435 974.164 427.484C974.194 425.644 974.656 424.682 975.557 423.095L976.349 423.25C977.793 425.414 980.519 428.361 980.75 430.947C987.021 435.479 993.279 439.496 999.291 444.479C1002.25 446.931 1005.65 449.766 1007.7 453.055C1009.24 455.538 1009.84 458.237 1010.39 461.071L993.314 460.998C993.509 458.094 993.099 455.482 992.281 452.706C990.467 446.552 985.757 441.505 980.201 438.421C973.484 438.238 968.425 439.085 962.119 441.395C960.618 441.152 959.044 440.752 957.662 440.122L956.848 440.088C954.059 439.783 950.96 439.678 948.25 439.006C946.286 438.519 944.404 437.563 942.414 437.207C939.354 436.661 936.087 437.268 932.934 436.828Z"/>
	<path fill="#FCBF49" transform="scale(0.5 0.5)" d="M957.662 440.122C959.576 439.861 959.692 438.697 961.157 437.75C962.05 437.173 965.25 436.932 966.43 436.734C968.712 436.35 972.838 435.159 975.086 435.472C976.687 435.695 978.908 437.497 980.201 438.421C973.484 438.238 968.425 439.085 962.119 441.395C960.618 441.152 959.044 440.752 957.662 440.122Z"/>
	<path fill="#F77F00" transform="scale(0.5 0.5)" d="M745.593 566.65L751.641 568.99L678.57 585.297L494.984 624.41L497.272 619.254L674.481 582.164L710.405 574.606L727.75 570.493C730.217 569.822 732.653 568.832 735.172 568.382C736.834 568.084 738.552 568.01 740.219 568.303C741.988 568.614 743.601 569.082 745.25 568.266L745.593 566.65Z"/>
	<defs>
		<linearGradient id="gradient_1" gradientUnits="userSpaceOnUse" x1="886.30383" y1="834.99994" x2="886.19781" y2="852.23682">
			<stop offset="0" stop-color="#FBF8D5"/>
			<stop offset="1" stop-color="#FDFFF5"/>
		</linearGradient>
	</defs>
	<path fill="url(#gradient_1)" transform="scale(0.5 0.5)" d="M793.688 836.903C794.117 835.871 794.076 835.659 795 834.948C797.618 836.674 798.936 834.743 801.442 835.487L802 835.744L802.762 835.048C802.773 834.139 802.668 833.497 802.482 832.617C809.881 835.868 816.374 837.4 824.236 839.022C828.128 839.825 831.926 841.17 835.864 841.684C846.386 843.058 857.364 842.75 867.956 842.706L907.19 843.062C913.776 845.625 919.972 847.857 927 848.963C934.712 850.176 943.394 849.401 951.244 849.524L990.25 851.255C984.964 852.436 979.035 852.349 973.615 852.613L927.643 854.038L927.044 853.694C925.401 852.806 922.967 852.582 921.125 852.25C917.098 851.524 912.97 850.863 908.886 850.578C897.693 849.796 886.055 850.424 874.813 850.407L848.25 850.28C844.818 850.418 841.251 850.197 837.927 851.175L793.688 836.903Z"/>
	<path fill="#003049" transform="scale(0.5 0.5)" d="M832.9 405.099C832.135 402.889 832.119 398.274 832.628 395.979C833.257 393.144 834.74 390.201 835.788 387.477L845.483 364.922C854.9 366.685 865.589 367.795 874.284 372.016C878.059 373.848 881.374 376.403 885.051 378.389C887.681 379.81 890.562 380.452 893.206 381.897C884.374 384.125 876.11 387.334 867.629 390.591L832.9 405.099Z"/>
	<path fill="#D62828" transform="scale(0.5 0.5)" d="M335.673 628.079C340.868 626.526 346.424 626.038 351.75 625.021L386.464 618.392L383.67 641.144C379.853 642.237 376.011 643.887 372.166 644.731C369.13 645.399 365.895 645.392 362.819 645.98L336.738 651.429C334.492 651.752 332.288 652.476 330.146 651.677C332.787 645.55 337.164 634.669 335.673 628.079Z"/>
	<path fill="#D62828" transform="scale(0.5 0.5)" d="M124.788 312.916C128.709 312.237 133 312.514 136.982 312.484L157.623 312.531C156.222 314.492 154.272 316.091 153.807 318.5C153.611 319.517 153.38 320.455 153.285 321.492L131.629 321.421L114.032 321.413C106.063 321.263 97.8271 320.205 89.997 322.026C87.7255 322.554 85.9054 323.089 84.1991 324.76C85.2904 326.282 86.3459 327.714 88.0398 328.604C90.7973 330.054 94.6137 330.332 97.6535 330.984C100.78 331.653 103.784 332.743 106.945 333.282L129.724 336.585C133.592 336.655 137.909 336.7 141.642 337.75C141.634 338.853 141.523 339.107 141.061 340.061L140.25 341.8C136.986 342.889 130.295 342.097 126.818 341.658C106.29 341.204 84.8287 336.252 64.7488 332.117C62.5804 331.671 59.211 330.009 58.0976 328.01C57.3547 326.676 57.8436 325.765 58.1562 324.386L81.2299 319.787C89.0305 318.346 96.5513 315.524 104.388 314.129C111.046 312.943 118.044 313.068 124.788 312.916Z"/>
	<path fill="#F77F00" transform="scale(0.5 0.5)" d="M1010.39 461.071C1010.08 465.01 1007.3 469.711 1005.12 472.966C1000.66 479.611 992.648 483.726 985.804 487.426C983.497 488.673 980.875 490.451 978.28 490.886C975.758 491.309 973.258 490.544 970.75 490.315C958.592 489.205 943.115 486.488 932.916 479.384C928.753 476.486 926.696 473.507 925.893 468.485C924.303 458.541 926.829 444.996 932.934 436.828C936.087 437.268 939.354 436.661 942.414 437.207C944.404 437.563 946.286 438.519 948.25 439.006C950.96 439.678 954.059 439.783 956.848 440.088L957.662 440.122C959.044 440.752 960.618 441.152 962.119 441.395L947.036 449.409C942.714 455.882 942.073 462.359 943.431 469.966C944.087 473.639 947.356 478.994 950.5 481.083C956.595 485.133 970.599 487.34 977.507 485.671C982.746 484.405 986.025 480.364 988.588 475.844C990.398 472.651 991.411 469.177 992.29 465.638C992.566 464.527 992.78 461.817 993.314 460.998L1010.39 461.071Z"/>
	<path fill="#FCBF49" transform="scale(0.5 0.5)" d="M767.325 718.705L875.424 719.029C874.239 723.046 873.028 726.694 871.031 730.389L841.625 730.403L764.618 730.237C755.503 730.119 746.06 730.833 737 729.994C735.082 729.816 734.016 729.552 732.613 728.25L732.97 727.789C734.596 726.162 738.75 725.223 741.01 724.544C749.647 721.949 758.308 719.476 767.325 718.705Z"/>
	<path fill="#FDFBDC" transform="scale(0.5 0.5)" d="M874.977 415.785L875.393 415.708C879.249 414.943 882.849 413.261 886.695 412.457C891.051 411.546 895.569 411.237 899.973 410.591C908.758 409.301 917.292 408.025 926.222 408.532C934.462 408.999 942.998 410.837 951.049 412.622C957.793 414.117 965.819 415.648 971.884 419.052C962.509 420.173 952.605 416.488 943.375 418.654C935.821 420.427 928.681 424.428 921.482 427.3C919.953 427.91 917.033 429.48 915.395 429.334C910.224 428.873 890.325 421.118 887.549 422.122C887.116 422.279 885.853 423.824 885.489 424.194C883.043 426.685 880.74 429.264 878.582 432.009C873.955 437.892 870.337 445.142 868.263 452.319C863.486 453.118 858.292 452.472 853.602 451.422C858.105 438.404 863.563 424.349 874.977 415.785Z"/>
	<path fill="#F77F00" transform="scale(0.5 0.5)" d="M755.135 531.146L794.273 523.489L825.5 517.164C837.179 514.805 849.049 511.444 861.04 513.382C866.198 514.215 870.921 516.706 875.61 518.897L888.939 524.424C885.637 524.406 882.172 524.216 878.913 524.774L765.142 542.966L756.682 543.517C757.99 542.124 758.925 540.304 760.055 538.75L759.191 535.031L755.135 531.146Z"/>
	<path fill="#FDE89F" transform="scale(0.5 0.5)" d="M759.191 535.031L759.497 535.445C760.455 536.774 760.899 537.679 761.25 539.276C763.026 539.727 763.487 539.933 764.433 541.537L765.142 542.966L756.682 543.517C757.99 542.124 758.925 540.304 760.055 538.75L759.191 535.031Z"/>
	<defs>
		<linearGradient id="gradient_2" gradientUnits="userSpaceOnUse" x1="875.52563" y1="388.09232" x2="886.80157" y2="419.77728">
			<stop offset="0" stop-color="#FEFDDC"/>
			<stop offset="1" stop-color="#FCFCFB"/>
		</linearGradient>
	</defs>
	<path fill="url(#gradient_2)" transform="scale(0.5 0.5)" d="M893.206 381.897L900.946 379.812C903.129 379.229 905.963 379.708 908.218 379.881L927.095 381.887L964.75 385.535C972.666 386.3 981.003 386.72 988.767 388.335C981.298 389.434 973.51 388.933 966 388.599L940.144 387.889C930.919 387.358 922.2 386.681 913.055 388.567L897.424 393.943C894.003 394.825 890.603 396.724 887.273 397.986L861.621 407.59L811.5 426.54L793.547 433.148C791.175 434.148 789.176 435.459 787.298 437.231L786.654 437.325C789.414 431.154 795.803 424.393 801.344 420.556C804.688 418.24 808.897 416.494 812.529 414.621L832.9 405.099L867.629 390.591C876.11 387.334 884.374 384.125 893.206 381.897Z"/>
	<path transform="scale(0.5 0.5)" d="M962.119 441.395C968.425 439.085 973.484 438.238 980.201 438.421C985.757 441.505 990.467 446.552 992.281 452.706C993.099 455.482 993.509 458.094 993.314 460.998C992.78 461.817 992.566 464.527 992.29 465.638C991.411 469.177 990.398 472.651 988.588 475.844C986.025 480.364 982.746 484.405 977.507 485.671C970.599 487.34 956.595 485.133 950.5 481.083C947.356 478.994 944.087 473.639 943.431 469.966C942.073 462.359 942.714 455.882 947.036 449.409L962.119 441.395Z"/>
	<path fill="#D62828" transform="scale(0.5 0.5)" d="M390.391 617.473L495.002 597.331L493.289 610.226C492.88 613.055 492.025 616.109 491.922 618.946L491.25 617.731C488.424 618.51 486.394 620.921 483.543 621.789C480.862 622.605 477.676 622.577 474.89 623.151C466.32 624.916 456.853 628.444 448.132 628.61L387.2 641.852C388.404 637.887 388.73 633.476 389.226 629.374C389.7 625.456 390.4 621.42 390.391 617.473Z"/>
	<path fill="#FDFBDC" transform="scale(0.5 0.5)" d="M496.782 643.68C499.541 643.303 502.352 643.485 505.13 643.543C509.479 645.946 513.461 649.361 517.493 652.278C522.836 656.143 530.882 660.697 534.455 666.25C534.22 666.523 534.068 666.9 533.75 667.07C530.449 668.838 523.074 668.633 519.25 669.001L499.935 671.244C475.607 674.336 451.457 680.332 427.637 686.048L418 688.526C412.92 689.83 406.238 686.218 401.516 684.447C398.373 683.268 395.214 682.352 392.118 681.023C399.967 674.422 408.268 670.149 417.486 665.771C435.364 657.281 453.845 651.099 473.25 647.102C481.004 645.505 488.93 644.655 496.782 643.68Z"/>
	<path fill="#FDFBDC" transform="scale(0.5 0.5)" d="M793.688 836.903C790.43 836.294 787.266 835.155 784.065 834.296L757.578 826.255L697.985 807.082L633 786.989L585.688 771.485L532.303 754.217L494.484 741.789C479.262 735.991 462.263 729.505 449.141 719.702L449.557 716.077C450.209 712.51 453.983 709.17 456.795 707.167C461.849 712.589 468.318 716.417 474.75 719.992C489.508 728.194 504.708 733.459 520.306 739.658L540.254 748.021L656.5 786.435L694.837 798.722C700.154 800.438 705.88 803.039 711.281 804.177L712.285 804.374L745.589 814.871C746.851 814.479 746.922 814.087 747.739 813.099C754.121 814.343 760.696 817.013 766.811 819.229L780.513 823.66C783.971 824.826 787.487 826.327 791.072 827.017L790.217 829.144C791.867 829.614 793.561 830.155 795.25 830.459C797.529 830.87 800.863 830.355 802.554 832.293L802.482 832.617C802.668 833.497 802.773 834.139 802.762 835.048L802 835.744L801.442 835.487C798.936 834.743 797.618 836.674 795 834.948C794.076 835.659 794.117 835.871 793.688 836.903Z"/>
	<path fill="#371102" transform="scale(0.5 0.5)" d="M747.739 813.099C754.121 814.343 760.696 817.013 766.811 819.229L780.513 823.66C783.971 824.826 787.487 826.327 791.072 827.017L790.217 829.144C788.637 828.214 786.049 827.651 784.279 827.076L768.68 822.492L745.589 814.871C746.851 814.479 746.922 814.087 747.739 813.099Z"/>
	<path fill="#FDFBDC" transform="scale(0.5 0.5)" d="M163.871 302.704L188.717 303.415C189.57 303.504 189.211 303.481 190.217 303.411C193.895 303.338 197.734 303.578 201.306 304.5C203.999 305.196 206.523 306.448 209.25 306.994C212.409 307.626 215.683 307.318 218.77 308.451L283.012 308.985C294.695 308.982 307.135 308.135 318.732 309.579L316.871 314.334L316.604 316.041C315.173 316.284 312.932 316.357 311.664 316.964L260.25 320.02C252.803 321.604 244.306 321.023 236.697 321.288L153.285 321.492C153.38 320.455 153.611 319.517 153.807 318.5C154.272 316.091 156.222 314.492 157.623 312.531L136.982 312.484C133 312.514 128.709 312.237 124.788 312.916C118.044 313.068 111.046 312.943 104.388 314.129C96.5513 315.524 89.0305 318.346 81.2299 319.787L58.1562 324.386C54.8194 324.639 51.2103 324.052 47.8573 323.827C41.0108 323.366 34.1473 323.114 27.4219 321.679C34.4523 317.426 43.2692 315.16 51.2095 313.282C68.0651 309.294 84.5427 307.483 101.75 305.852L131.559 303.314C138.869 302.977 146.284 303.385 153.6 303.54C156.552 303.602 161.355 304.27 163.871 302.704Z"/>
	<path fill="#FCBF49" transform="scale(0.5 0.5)" d="M190.217 303.411C193.895 303.338 197.734 303.578 201.306 304.5C203.999 305.196 206.523 306.448 209.25 306.994C212.409 307.626 215.683 307.318 218.77 308.451C214.545 309.429 209.907 308.847 205.578 308.882L192.25 309.421C191.894 306.571 191.989 305.687 190.217 303.411Z"/>
	<path fill="#FCBF49" transform="scale(0.5 0.5)" d="M157.623 312.531L189.251 312.473L259.807 314.511C266.04 314.211 272.341 314.782 278.58 314.962L297.5 314.92C301.324 314.917 305.603 315.406 309.363 314.813C311.826 314.425 314.378 314.271 316.871 314.334L316.604 316.041C315.173 316.284 312.932 316.357 311.664 316.964L260.25 320.02C252.803 321.604 244.306 321.023 236.697 321.288L153.285 321.492C153.38 320.455 153.611 319.517 153.807 318.5C154.272 316.091 156.222 314.492 157.623 312.531Z"/>
	<path fill="#FCBF49" transform="scale(0.5 0.5)" d="M896.456 660.235C909.806 655.807 924.19 656.4 938.092 656.351C943.637 656.332 950.259 655.771 955.599 657.307L956.418 657.536C962.132 659.228 969.034 663.288 973.085 667.691C974.985 670.16 976.456 672.49 977.507 675.465C977.573 678.998 977.389 681.853 975.82 685.128C972.61 691.828 966.158 695.587 959.414 697.948C950.611 701.03 941.365 700.448 932.202 700.502C922.452 700.559 912.22 700.817 902.64 698.775C898.87 697.972 895.391 696.399 891.938 694.717C887.242 692.427 882.404 688.855 880.801 683.671C879.49 679.432 879.758 674.932 881.879 671.003C884.657 665.856 891.005 662.008 896.456 660.235Z"/>
	<path fill="#FDE89F" transform="scale(0.5 0.5)" d="M973.085 667.691C974.985 670.16 976.456 672.49 977.507 675.465L976.269 676.233C973.85 675.769 971.888 672.447 970.359 670.513C970.942 670.227 970.649 670.345 971.405 670.118L971.997 669.945L973.085 667.691Z"/>
	<defs>
		<linearGradient id="gradient_3" gradientUnits="userSpaceOnUse" x1="935.86627" y1="666.146" x2="936.67963" y2="656.13361">
			<stop offset="0" stop-color="#FBFBE4"/>
			<stop offset="1" stop-color="#FEFEFC"/>
		</linearGradient>
	</defs>
	<path fill="url(#gradient_3)" transform="scale(0.5 0.5)" d="M896.456 660.235C909.806 655.807 924.19 656.4 938.092 656.351C943.637 656.332 950.259 655.771 955.599 657.307L956.418 657.536C962.132 659.228 969.034 663.288 973.085 667.691L971.997 669.945L971.405 670.118C970.649 670.345 970.942 670.227 970.359 670.513C965.338 665.987 956.92 662.543 950.25 661.618C946.26 661.065 941.652 661.537 937.585 661.521L905.807 661.286C903.117 661.199 898.784 661.648 896.456 660.235Z"/>
	<path fill="#D62828" transform="scale(0.5 0.5)" d="M498.829 596.915L560.459 583.993L627.862 569.494L696.447 554.648C703.806 553.274 711.606 551.183 719.046 550.624L718.694 552.382C721.898 556.909 727.753 558.702 732.636 560.866L745.593 566.65L745.25 568.266C743.601 569.082 741.988 568.614 740.219 568.303C738.552 568.01 736.834 568.084 735.172 568.382C732.653 568.832 730.217 569.822 727.75 570.493L710.405 574.606L674.481 582.164L497.272 619.254C497.934 611.853 499.833 604.353 498.829 596.915Z"/>
	<path fill="#D62828" transform="scale(0.5 0.5)" d="M913.055 388.567C922.2 386.681 930.919 387.358 940.144 387.889C935.209 387.959 930.299 387.892 925.433 388.802L914.743 391.345C902.404 395.135 890.198 401.796 880.376 410.124C878.658 411.58 876.271 413.227 875.207 415.234L874.977 415.785C863.563 424.349 858.105 438.404 853.602 451.422C858.292 452.472 863.486 453.118 868.263 452.319C866.073 463.551 864.798 473.516 867.639 484.833C868.339 487.622 869.588 490.207 870.282 492.984L876.255 502.945C875.496 504.779 874.765 506.189 873.646 507.811L873.103 508.723L875.534 511.32L855.112 505.375L823.424 493.25C815.987 490.222 808.757 487.525 801.805 483.426C793.149 478.322 786.103 473.307 783.581 463.085C781.645 455.235 782.363 444.327 786.654 437.325L787.298 437.231C789.176 435.459 791.175 434.148 793.547 433.148L811.5 426.54L861.621 407.59L887.273 397.986C890.603 396.724 894.003 394.825 897.424 393.943L913.055 388.567Z"/>
	<path fill="#FDE89F" transform="scale(0.5 0.5)" d="M870.282 492.984L876.255 502.945C875.496 504.779 874.765 506.189 873.646 507.811L873.103 508.723C870.024 506.529 866.98 501.613 864.604 498.572C865.086 497.912 864.763 498.289 865.67 497.534L867 497.755C868.366 496.845 869.384 497.665 870.75 496.755C870.683 496.023 870.639 495.42 870.351 494.733C870.065 494.053 870.206 493.715 870.282 492.984Z"/>
	<path fill="#FCBF49" transform="scale(0.5 0.5)" d="M864.604 498.572C863.952 498.344 862.289 495.864 861.789 495.209C853.065 483.81 850.231 471.189 852.33 457.05L852.457 456.25C852.72 454.544 852.982 453.038 853.602 451.422C858.292 452.472 863.486 453.118 868.263 452.319C866.073 463.551 864.798 473.516 867.639 484.833C868.339 487.622 869.588 490.207 870.282 492.984C870.206 493.715 870.065 494.053 870.351 494.733C870.639 495.42 870.683 496.023 870.75 496.755C869.384 497.665 868.366 496.845 867 497.755L865.67 497.534C864.763 498.289 865.086 497.912 864.604 498.572Z"/>
	<path fill="#003049" transform="scale(0.5 0.5)" d="M378.966 553.03L379.129 551.11C385.173 547.879 393.22 548.406 399.75 546.946C401.477 546.559 403.117 545.834 404.84 545.421L417.722 542.983L447.674 535.75C457.784 533.414 467.824 532.191 477.804 529.076C482.132 536.671 486.982 544.425 489.839 552.729C491.485 557.513 492.097 563.499 494.196 567.961C495.26 569.089 495.543 570.221 495.54 571.75C495.538 572.393 495.513 572.414 495.408 572.951L494.612 573.534C493.304 578.673 495.495 586.03 495.416 591.466L495.002 597.331L390.391 617.473C389.568 615.722 390.056 613.558 390.411 611.735C390.983 608.595 391.305 599.484 389.99 596.726C389.367 595.193 389.336 593.304 389.152 591.652C389.236 582.863 386.62 573.959 384.532 565.5C383.443 561.091 380.892 557.106 378.966 553.03Z"/>
	<path fill="#FDFDFA" transform="scale(0.5 0.5)" d="M494.196 567.961C495.26 569.089 495.543 570.221 495.54 571.75C495.538 572.393 495.513 572.414 495.408 572.951L494.612 573.534L389.99 596.726C389.367 595.193 389.336 593.304 389.152 591.652L494.196 567.961Z"/>
	<path fill="#003049" transform="scale(0.5 0.5)" d="M389.99 596.726L494.612 573.534C493.304 578.673 495.495 586.03 495.416 591.466L495.002 597.331L390.391 617.473C389.568 615.722 390.056 613.558 390.411 611.735C390.983 608.595 391.305 599.484 389.99 596.726Z"/>
	<path fill="#FDFBDC" transform="scale(0.5 0.5)" d="M390.411 611.735L495.416 591.466L495.002 597.331L390.391 617.473C389.568 615.722 390.056 613.558 390.411 611.735Z"/>
	<path fill="#003049" transform="scale(0.5 0.5)" d="M511.074 563.919L551.25 554.996L583.5 547.046L641.628 534.223L705 520.01C715.452 517.775 726.329 514.979 736.943 513.885C738.366 514.423 739.543 515.222 740.915 515.848C741.793 516.249 741.99 516.417 742.469 517.217C741.086 517.688 739.61 518.039 738.474 518.993C741.579 522.72 744.879 528.206 747.001 532.586L755.135 531.146L759.191 535.031L760.055 538.75C758.925 540.304 757.99 542.124 756.682 543.517L743 543.711C735.211 543.803 725.821 543.476 719.998 549.585L719.046 550.624C711.606 551.183 703.806 553.274 696.447 554.648L627.862 569.494L560.459 583.993L498.829 596.915L498.241 590.375C498.73 584.749 497.535 578.436 497.439 572.717L494.898 568.219L511.074 563.919Z"/>
	<path fill="#FDFDFA" transform="scale(0.5 0.5)" d="M511.074 563.919L551.25 554.996L583.5 547.046L641.628 534.223L705 520.01C715.452 517.775 726.329 514.979 736.943 513.885C738.366 514.423 739.543 515.222 740.915 515.848C741.793 516.249 741.99 516.417 742.469 517.217C741.086 517.688 739.61 518.039 738.474 518.993C736.863 520.402 685.748 530.268 680.215 531.548L547.009 561.196L522.126 567.367C519.414 568.006 516.615 568.242 513.904 568.905C508.413 570.248 503.101 572.116 497.439 572.717L494.898 568.219L511.074 563.919Z"/>
	<path fill="#FDFBDC" transform="scale(0.5 0.5)" d="M755.135 531.146L759.191 535.031L760.055 538.75C758.925 540.304 757.99 542.124 756.682 543.517L743 543.711C735.211 543.803 725.821 543.476 719.998 549.585L719.046 550.624C711.606 551.183 703.806 553.274 696.447 554.648L627.862 569.494L560.459 583.993L498.829 596.915L498.241 590.375L566.575 576.458L660 555.872L716.047 544.018C722.793 542.498 728.195 539.223 734.437 536.508C738.468 534.754 742.705 533.488 747.001 532.586L755.135 531.146Z"/>
	<path fill="#FCBF49" transform="scale(0.5 0.5)" d="M773.458 599.061L917.135 544.231C915.977 551.908 915.778 559.796 914.996 567.532C912.962 587.647 910.676 607.131 906.255 626.919C904.71 633.834 903.694 640.491 900.688 646.959L899.957 646.868C889.371 645.596 878.357 646.455 867.695 646.362L797.496 646.089C788.154 646.015 778.571 646.517 769.267 645.926L754.274 646.828L704.279 648.486C693.811 648.868 682.851 649.715 672.403 648.629C663.578 647.712 655.395 645.355 647.061 642.43C657.896 639.646 668.202 634.426 678.938 631.109C710.801 621.266 743.129 613.337 773.458 599.061Z"/>
	<path fill="#FDFBDC" transform="scale(0.5 0.5)" d="M773.458 599.061C775.573 600.751 777.577 600.593 780.187 600.306C783.101 599.986 786.008 599.578 788.79 598.641C792.939 597.244 797.489 596.684 801.749 595.637C819.066 591.379 836.821 588.395 854.406 585.488C857.429 584.988 860.342 583.985 863.368 583.537L877.188 581.911L869.799 628.71L823.012 628.477L769 629.12L753.073 630.568C738.124 631.78 722.626 633.306 708.411 638.171L720.25 639.974L760.126 643.305C761.675 643.492 767.493 643.592 768.431 644.541L769.267 645.926L754.274 646.828L704.279 648.486C693.811 648.868 682.851 649.715 672.403 648.629C663.578 647.712 655.395 645.355 647.061 642.43C657.896 639.646 668.202 634.426 678.938 631.109C710.801 621.266 743.129 613.337 773.458 599.061Z"/>
	<path fill="#003049" transform="scale(0.5 0.5)" d="M904.56 182.254L921.347 178.436L921.1 178.855C919.33 181.833 917.1 184.43 915.449 187.5C911.995 193.92 909.625 200.54 906.684 207.166L894.999 231.75C891.278 239.75 888.187 247.944 884.035 255.763C882.412 258.486 879.933 261.977 879.169 265.004L819.49 392L819.047 392.797C815.353 399.179 807.914 404.735 802.75 409.997L784.647 429.246C782.794 431.234 781.143 433.386 779.424 435.488C779.027 435.973 778.443 436.922 777.901 437.145L777.535 437.592C774.45 441.472 773.804 446.289 772.209 450.853L695.374 450.777C694.39 450.523 694.256 450.399 693.542 449.738C690.889 444.954 686.334 442.055 683.279 437.69L682.507 436.965C681.548 435.749 679.671 434.495 678.476 433.442C673.696 429.229 668.963 426.145 663.666 422.635C673.682 418.164 683.659 413.639 694.081 410.164C712.168 404.131 730.557 399.055 748.255 391.949C752.693 390.167 758.292 388.247 762.208 385.549C766.459 382.621 769.619 374.925 772.281 370.438L784.671 350.155L854.186 244.907L871.209 219.175C876.486 210.842 881.485 201.506 887.902 194.035C892.336 188.872 898.366 184.95 904.56 182.254Z"/>
	<path fill="#FDFBDC" transform="scale(0.5 0.5)" d="M683.279 437.69C686.423 438.221 689.586 437.634 692.75 437.562L710.946 437.439L753.916 437.49C761.787 437.497 770.087 437.986 777.901 437.145L777.535 437.592C774.45 441.472 773.804 446.289 772.209 450.853L695.374 450.777C694.39 450.523 694.256 450.399 693.542 449.738C690.889 444.954 686.334 442.055 683.279 437.69Z"/>
	<path fill="#003049" transform="scale(0.5 0.5)" d="M929.162 184.626C934.47 184.079 940.12 185.243 945.468 185.445C953.759 185.758 962.406 184.996 970.602 186.244C972.882 188.442 974.181 190.402 975.75 193.116C976.951 195.195 977.477 196.473 977.541 198.864C977.74 206.259 976.884 213.546 976.576 220.911L974.465 270.939L971.541 330.467C971.053 339.242 971.135 348.273 970.006 356.974L893.919 359.538L875.59 359.596L864.817 360.365C860.806 360.493 856.504 360.118 852.557 360.792L847.026 361.746C848.615 358.187 850.792 354.946 852.449 351.419L868.73 315.934L883.752 281.702L908.55 227.829L915.009 212.793C917.158 207.091 918.64 199.507 921.884 194.47C923.487 191.981 924.206 189.329 925.529 186.75C926.424 185.005 927.413 185.06 929.162 184.626Z"/>
	<path fill="#D62828" transform="scale(0.5 0.5)" d="M313.25 153.375C349.707 130.37 392.862 114.343 435.005 105.645C457.299 101.044 480.404 99.2456 503.126 98.9144C539.647 98.3821 575.125 101.646 610.51 110.982C627.758 115.533 644.463 121.737 660.999 128.332L692.593 142.746C698.108 145.566 703.673 148.201 708.855 151.61L708.125 153.752C703.595 155.096 696.776 154.466 692.022 154.502L648 154.166L612.208 154.671L516.5 154.559L362 154.562L332.07 154.548C326.524 154.54 320.027 155.186 314.688 153.747L313.787 153.522L313.25 153.375Z"/>
	<path fill="#003049" transform="scale(0.5 0.5)" d="M693.542 449.738C694.256 450.399 694.39 450.523 695.374 450.777L694.75 451.446L710.75 475.999C713.034 479.198 715.671 482.1 717.859 485.378L730.887 505.25C732.255 507.398 733.158 509.807 734.62 511.911C735.299 512.888 735.713 513.264 736.843 513.594L736.943 513.885C726.329 514.979 715.452 517.775 705 520.01L641.628 534.223L583.5 547.046L551.25 554.996L511.074 563.919C503.297 542.711 496.375 518.59 476.007 505.863L519.221 493.556C528.317 490.401 537.844 488.459 547.138 486.001L583.731 475.75L593.466 473.588L669.5 453.869C677.094 452.213 685.777 449.83 693.542 449.738Z"/>
	<path fill="#FCBF49" transform="scale(0.5 0.5)" d="M112.363 633.98C116.5 633.048 121.09 633.459 125.333 633.45L148.75 633.425L190.509 633.444C196.115 633.511 202.425 633.113 207.961 633.891C210.619 634.264 212.953 635.591 215.455 636.447L237.178 643.361C237.428 640.904 238.266 639.351 239.524 637.288C240.737 637.842 241.594 637.87 242.09 639.171C242.452 640.12 242.552 640.922 242.591 641.94L243.5 643.402L244.162 643.143C244.02 642.151 243.996 641.804 244.25 640.799C246.133 642.107 246.794 645.79 247.66 647.875C249.001 651.106 250.548 654.704 252.423 657.664C258.095 666.622 265.288 674.485 274.24 680.198C281.82 685.035 289.219 687.411 297.589 690.318L326.256 699.856L401.163 723.901C409.271 726.664 418.373 728.614 426.001 732.601L152.469 730.587C148.873 725.023 145.895 718.94 142.779 713.097C129.526 688.249 119.112 661.318 112.363 633.98Z"/>
	<path fill="#FDE89F" transform="scale(0.5 0.5)" d="M239.524 637.288C240.737 637.842 241.594 637.87 242.09 639.171C242.452 640.12 242.552 640.922 242.591 641.94L242.492 644C240.818 644.831 238.912 643.902 237.178 643.361C237.428 640.904 238.266 639.351 239.524 637.288Z"/>
	<path fill="#D62828" transform="scale(0.5 0.5)" d="M477.729 695.908C485.004 692.075 491.338 690.485 499.29 688.639C512.15 685.653 525.288 684.243 538.435 683.188L555.378 681.707C573.502 680.759 591.833 681.127 609.929 682.351C617.374 682.854 626.462 682.828 633.605 685.053C638.648 686.623 642.869 690.537 647.259 693.391L684 717.988L729 745.94L778.262 773.25L876.5 827.398L887.25 832.487L907.19 843.062L867.956 842.706C857.364 842.75 846.386 843.058 835.864 841.684C831.926 841.17 828.128 839.825 824.236 839.022C816.374 837.4 809.881 835.868 802.482 832.617L802.554 832.293C800.863 830.355 797.529 830.87 795.25 830.459C793.561 830.155 791.867 829.614 790.217 829.144L791.072 827.017C787.487 826.327 783.971 824.826 780.513 823.66L766.811 819.229C760.696 817.013 754.121 814.343 747.739 813.099L713.886 801.901L572.289 755.196L528.45 738.75L496.803 725.692C483.824 720.002 470.905 713.799 459.679 705.04C464.915 700.888 471.419 697.972 477.729 695.908Z"/>
	<path fill="#FDFBDC" transform="scale(0.5 0.5)" d="M477.729 695.908C481.866 700.428 486.674 703.744 491.699 707.206C507.288 717.944 525.255 725.762 542.709 732.982C549.509 735.795 556.56 737.82 563.502 740.224L605.542 754.734L771.108 810.493L835.768 832.954C832.936 833.351 829.718 833.011 826.849 832.938C818.271 832.718 810.067 832.085 801.681 830.065C798.054 829.191 794.784 827.61 791.072 827.017C787.487 826.327 783.971 824.826 780.513 823.66L766.811 819.229C760.696 817.013 754.121 814.343 747.739 813.099L713.886 801.901L572.289 755.196L528.45 738.75L496.803 725.692C483.824 720.002 470.905 713.799 459.679 705.04C464.915 700.888 471.419 697.972 477.729 695.908Z"/>
	<path fill="#F77F00" transform="scale(0.5 0.5)" d="M708.855 151.61L736.721 168.576C761.817 185.079 785.204 204.804 805.868 226.62L826.894 250.432C829.674 253.826 832.029 258.159 835.171 261.133C833.278 264.852 830.725 268.248 828.43 271.728L816.665 289.348L802.141 311.473C797.466 318.37 792.297 324.959 787.981 332.093C784.335 330.78 779.044 331.641 775.166 331.579L717.044 331.962L707 331.534L647.456 331.58L493.216 331.904L351.988 331.565L351.55 331.624L317.302 331.76L290.5 332.349L265.642 331.649C260.903 331.576 256.172 332.149 251.432 331.895C249.014 331.765 245.477 331.9 243.682 330.344L244.707 329.029L283.78 324.932C289.738 323.991 295.312 322.677 301.15 321.174C304.727 320.252 309.022 319.691 311.664 316.964C312.932 316.357 315.173 316.284 316.604 316.041L316.871 314.334L318.732 309.579C307.135 308.135 294.695 308.982 283.012 308.985L218.77 308.451C215.683 307.318 212.409 307.626 209.25 306.994C206.523 306.448 203.999 305.196 201.306 304.5C197.734 303.578 193.895 303.338 190.217 303.411C189.211 303.481 189.57 303.504 188.717 303.415L163.871 302.704C169.672 295.849 174.65 288.335 179.842 281.021L200.75 252.773C225.068 221.491 254.737 192.877 287.106 170.008L313.25 153.375L313.787 153.522L314.688 153.747C320.027 155.186 326.524 154.54 332.07 154.548L362 154.562L516.5 154.559L612.208 154.671L648 154.166L692.022 154.502C696.776 154.466 703.595 155.096 708.125 153.752L708.855 151.61Z"/>
	<path fill="#D62828" transform="scale(0.5 0.5)" d="M316.604 316.041L571.701 317.75L571.471 318.262L519.259 317.946C510.885 317.926 501.134 316.535 492.947 318.528C491.1 318.978 488.958 318.767 487.047 318.769L475.584 318.778C474.102 318.794 472.813 319.299 471.295 319.317C471.942 320.192 471.827 320.465 472.983 320.63C474.024 320.778 474.107 320.725 475 320.377C476.903 319.638 478.494 319.731 480.5 319.755L481.25 320.255L482.655 320.393L482.457 320.933L477.462 321.1L478.106 321.158C480.174 321.395 481.527 322.335 483.5 321.255C485.096 320.381 487.406 321.338 488.5 320.255C489.136 320.32 489.643 320.387 490.249 320.594C490.877 320.809 491.347 320.778 492 320.75L492.42 320.502C493.933 321.989 497.258 321.454 499.377 321.434C513.358 321.303 527.005 320.253 541 321.032C546.094 321.316 550.744 320.866 555.862 321.781L539.645 322.146C536.282 322.291 532.971 322.944 529.562 323.034L512.96 323.438C510.277 323.527 507.412 323.404 504.781 323.963L345.39 326.027L283.78 324.932C289.738 323.991 295.312 322.677 301.15 321.174C304.727 320.252 309.022 319.691 311.664 316.964C312.932 316.357 315.173 316.284 316.604 316.041Z"/>
	<path fill="#FDFBDC" transform="scale(0.5 0.5)" d="M892.07 175.914L915.508 175.505L915.243 175.952C914.853 176.728 914.823 177.403 914.745 178.25C913.627 179.008 913.123 178.506 912 179.255L910.75 179.255L910.25 180L909.25 179.755C908.596 180.404 908.764 180.458 907.798 180.539C906.7 180.631 907.266 180.532 906.25 181C905.527 181.333 904.982 181.481 904.223 181.641L904.56 182.254C898.366 184.95 892.336 188.872 887.902 194.035C881.485 201.506 876.486 210.842 871.209 219.175L854.186 244.907L784.671 350.155L772.281 370.438C769.619 374.925 766.459 382.621 762.208 385.549C758.292 388.247 752.693 390.167 748.255 391.949C730.557 399.055 712.168 404.131 694.081 410.164C683.659 413.639 673.682 418.164 663.666 422.635C668.963 426.145 673.696 429.229 678.476 433.442C679.671 434.495 681.548 435.749 682.507 436.965L683.279 437.69C686.334 442.055 690.889 444.954 693.542 449.738C685.777 449.83 677.094 452.213 669.5 453.869L593.466 473.588L583.731 475.75L547.138 486.001C537.844 488.459 528.317 490.401 519.221 493.556L476.007 505.863C472.59 506.754 469.111 507.651 465.613 508.14C465.135 508.207 463.257 508.597 462.891 508.482C461.845 508.155 459.603 505.849 458.571 505.101C457.434 504.276 456.224 503.375 454.835 503.042L454.047 502.884C456.298 504.828 459.321 506.344 461.273 508.522L472.596 522.779C474.304 524.869 475.814 527.25 477.804 529.076C467.824 532.191 457.784 533.414 447.674 535.75L417.722 542.983L404.84 545.421C403.117 545.834 401.477 546.559 399.75 546.946C393.22 548.406 385.173 547.879 379.129 551.11L378.966 553.03L378 552.126L377.715 552.812L377.922 553.243C380.164 558.011 383.034 564.506 382.749 569.846C384.033 578.322 386.992 587.341 386.572 595.961L386.292 598.296C386.68 602.759 386.343 607.567 387.019 611.948C387.178 613.772 387.651 616.865 386.464 618.392L351.75 625.021C346.424 626.038 340.868 626.526 335.673 628.079L332.324 629.237C333.493 622.017 334.459 614.831 334.362 607.5C334.132 590.103 328.348 570.608 318.165 556.41C311.987 547.795 301.245 538.121 290.219 536.701C288.505 536.48 286.447 537.027 284.75 537.349C275.306 539.145 266.782 543.892 259.57 550.205C253.062 555.902 247.29 564.446 243.668 572.284C242.242 575.37 241.288 578.62 239.748 581.659L240.276 581.466C246.464 579.257 253.124 577.694 259.488 576.005C266.184 574.229 273.327 572.059 280.269 571.793C284.423 574.564 284.995 575.308 285.969 580.223C286.487 582.837 287.557 585.554 285.873 587.9C283.999 590.512 278.664 591.358 275.75 592.275C261.189 596.86 246.152 600.19 231.209 603.34L210.994 607.75C208.018 608.499 204.644 609.118 201.843 610.323C199.498 611.333 197.749 613.238 196.014 615.046C198.941 615.338 202.81 615.372 205.539 616.438C208.318 617.523 211.136 620.774 213.326 622.782C221.191 629.992 229.059 634.73 239.524 637.288C238.266 639.351 237.428 640.904 237.178 643.361L215.455 636.447C212.953 635.591 210.619 634.264 207.961 633.891C202.425 633.113 196.115 633.511 190.509 633.444L148.75 633.425L125.333 633.45C121.09 633.459 116.5 633.048 112.363 633.98L105.376 600.306C100.333 568.081 99.3087 534.376 101.414 501.836L104.787 468.509L106.954 451.97L118.844 403.078C124.67 386.908 130.441 370.964 137.681 355.334C139.738 350.894 141.532 346.298 144.07 342.106C162.256 341.873 179.708 340.054 197.512 336.236C203.479 334.956 209.06 332.359 215.066 331.372C224.645 329.797 235.02 329.457 244.707 329.029L243.682 330.344C245.477 331.9 249.014 331.765 251.432 331.895C256.172 332.149 260.903 331.576 265.642 331.649L290.5 332.349L317.302 331.76L351.55 331.624L351.988 331.565L493.216 331.904L647.456 331.58L707 331.534L717.044 331.962L775.166 331.579C779.044 331.641 784.335 330.78 787.981 332.093C792.297 324.959 797.466 318.37 802.141 311.473L816.665 289.348L828.43 271.728C830.725 268.248 833.278 264.852 835.171 261.133C836.863 258.374 838.916 255.893 840.706 253.203L856.716 228.766L868.16 211.395C872.128 205.131 875.846 198.718 880.237 192.729C882.903 189.093 886.428 186.329 889.068 182.827L889.65 182.028L890.222 182.4C891.473 182.158 891.894 181.04 892.634 180.04L892.361 178.992L891.839 177.969C892.393 177.006 892.21 176.961 892.07 175.914Z"/>
	<path fill="#003049" transform="scale(0.5 0.5)" d="M387.019 611.948L345.261 619.498L345.195 618.578C345.339 614.791 345.125 611.24 344.835 607.45L386.292 598.296C386.68 602.759 386.343 607.567 387.019 611.948Z"/>
	<path fill="#003049" transform="scale(0.5 0.5)" d="M343.436 577.054C346.781 577.243 350.107 576.246 353.378 575.656L371.339 572.069C375.196 571.252 378.946 571.001 382.749 569.846C384.033 578.322 386.992 587.341 386.572 595.961C386.332 594.806 386.372 593.795 385.5 592.965L347.652 601.324C347.591 596.569 346.494 591.894 345.618 587.237C345.006 583.983 344.661 580.777 343.626 577.614L343.436 577.054Z"/>
	<path fill="#D62828" transform="scale(0.5 0.5)" d="M341.615 497.711L389.433 498.366C379.104 503.344 368.045 506.123 357.232 509.747L315.871 524.071L300.828 528.871C298.817 529.495 296.382 530.503 294.305 530.527C290.681 530.568 291.024 527.569 289.831 525.096C288.193 521.701 285.605 519.39 283.075 516.682L273.518 506.411C278.538 504.19 284.155 503.583 289.512 502.675C294.35 501.855 299.113 500.754 303.997 500.187L341.615 497.711Z"/>
	<path fill="#D62828" transform="scale(0.5 0.5)" d="M106.954 451.97C114.835 451.282 122.768 451.483 130.672 451.49L165.226 451.525L278.5 451.761L335.802 451.361L466.621 451.506L531.274 451.59C533.777 451.634 537.373 451.383 539.532 452.798L508.493 462.542C501.576 464.534 494.094 466.988 486.938 467.801C472.324 469.461 456.991 468.718 442.273 468.678L370.552 468.552L104.787 468.509L106.954 451.97Z"/>
	<path fill="#D62828" transform="scale(0.5 0.5)" d="M439.14 499.901C442.975 498.794 446.85 497.47 450.766 496.704C452.666 496.332 454.625 496.424 456.5 496.013C459.019 495.462 461.448 494.437 463.968 493.822L490.418 487.33L662.211 441.79L672.5 439.093C675.963 438.041 678.822 436.808 682.507 436.965L683.279 437.69C686.334 442.055 690.889 444.954 693.542 449.738C685.777 449.83 677.094 452.213 669.5 453.869L593.466 473.588L583.731 475.75L547.138 486.001C537.844 488.459 528.317 490.401 519.221 493.556L476.007 505.863C472.59 506.754 469.111 507.651 465.613 508.14C465.135 508.207 463.257 508.597 462.891 508.482C461.845 508.155 459.603 505.849 458.571 505.101C457.434 504.276 456.224 503.375 454.835 503.042L454.047 502.884C456.298 504.828 459.321 506.344 461.273 508.522L472.596 522.779C474.304 524.869 475.814 527.25 477.804 529.076C467.824 532.191 457.784 533.414 447.674 535.75L417.722 542.983L404.84 545.421C403.117 545.834 401.477 546.559 399.75 546.946C393.22 548.406 385.173 547.879 379.129 551.11L378.966 553.03L378 552.126L377.715 552.812L377.922 553.243C380.164 558.011 383.034 564.506 382.749 569.846C378.946 571.001 375.196 571.252 371.339 572.069L353.378 575.656C350.107 576.246 346.781 577.243 343.436 577.054L338.718 563.521C336.728 558.41 333.896 554.017 330.785 549.525C328.818 546.685 326.77 543.595 324.018 541.456C322.093 539.96 319.918 538.997 317.699 538.034C324.742 535.41 332.416 533.551 339.665 531.477L353.758 527.002C356.625 526.174 359.681 525.815 362.5 524.895C364.812 524.14 366.931 522.927 369.29 522.272C381.989 518.747 394.481 515.606 406.393 509.784C408.533 508.326 411.963 507.554 414.451 506.834L429.514 502.555L439.14 499.901Z"/>
	<path fill="#FDFBDC" transform="scale(0.5 0.5)" d="M434.358 505.257L449.988 500.07L454.047 502.884C456.298 504.828 459.321 506.344 461.273 508.522L426.96 517.378C422.6 518.483 417.097 521.043 412.648 520.766L407.572 513.25C408.097 512.283 407.792 512.677 408.427 512.021L431.212 506.065C432.287 505.929 433.319 505.562 434.358 505.257Z"/>
	<path fill="#FDFBDC" transform="scale(0.5 0.5)" d="M360.887 532.121C362.027 532.006 363.277 532.131 364.428 532.15L367.109 534.915C369.871 538.186 372.292 542.124 374.72 545.668C375.402 546.663 377.002 548.772 377.184 549.957C377.301 550.722 377.033 551.946 376.972 552.75L347.876 558.617L343.5 559.465C340.594 558.041 338.825 552.655 337.063 550.015C334.794 546.616 332.222 544.04 330.503 540.251C335.443 538.035 340.476 537.303 345.703 536.085L360.887 532.121Z"/>
	<path fill="#F77F00" transform="scale(0.5 0.5)" d="M118.844 403.078C124.853 402.482 130.876 402.976 136.9 403.007L169.497 403.107L193.525 402.973L210.85 403.47L234.66 402.663L263.422 403.033L403.255 402.905L593.002 402.731L620.909 402.937L647.292 402.715L673 402.993C677.947 403.03 683.078 403.399 688 402.882L689.919 403.946C686.727 404.964 683.995 406.571 681 408.02C673.566 411.616 665.99 415.448 658.23 418.271C651.288 420.796 643.888 422.382 636.793 424.468L584.488 439.442C569.546 443.717 554.779 449.687 539.532 452.798C537.373 451.383 533.777 451.634 531.274 451.59L466.621 451.506L335.802 451.361L278.5 451.761L165.226 451.525L130.672 451.49C122.768 451.483 114.835 451.282 106.954 451.97L118.844 403.078Z"/>
	<path fill="#D62828" transform="scale(0.5 0.5)" d="M118.844 403.078C124.67 386.908 130.441 370.964 137.681 355.334C139.738 350.894 141.532 346.298 144.07 342.106C162.256 341.873 179.708 340.054 197.512 336.236C203.479 334.956 209.06 332.359 215.066 331.372C224.645 329.797 235.02 329.457 244.707 329.029L243.682 330.344C245.477 331.9 249.014 331.765 251.432 331.895C256.172 332.149 260.903 331.576 265.642 331.649L290.5 332.349L317.302 331.76L351.55 331.624L351.988 331.565L493.216 331.904L647.456 331.58L707 331.534L717.044 331.962L775.166 331.579C779.044 331.641 784.335 330.78 787.981 332.093L773.081 351.75C768.068 358.685 763.416 365.921 757.562 372.239C745.038 385.757 728.187 390.69 711.344 396.461L689.919 403.946L688 402.882C683.078 403.399 677.947 403.03 673 402.993L647.292 402.715L620.909 402.937L593.002 402.731L403.255 402.905L263.422 403.033L234.66 402.663L210.85 403.47L193.525 402.973L169.497 403.107L136.9 403.007C130.876 402.976 124.853 402.482 118.844 403.078Z"/>
</svg>
