<?xml version="1.0" encoding="utf-8" ?>
<svg xmlns="http://www.w3.org/2000/svg" xmlns:xlink="http://www.w3.org/1999/xlink" width="512" height="512">
	<path transform="scale(0.5 0.5)" d="M-0 -0L1024 0L1024 1024L-0 1024L0 -0Z"/>
	<path fill="white" transform="scale(0.5 0.5)" d="M649.178 892.75L649.355 892.716C651.041 892.527 651.324 892.424 652.75 893.412C653.044 894.905 652.865 895.093 652.25 896.513L651.625 896.914C650.053 897.014 650.044 896.851 648.75 895.908C648.463 894.301 648.469 894.219 649.178 892.75Z"/>
	<path fill="white" transform="scale(0.5 0.5)" d="M876.138 235.25L877.274 235.101C878.64 235.704 878.718 235.706 879.442 237C879.059 238.685 879.144 238.678 877.75 239.676C876.877 239.81 877.285 239.812 876.273 239.636C875.147 239.44 875.264 239.143 874.652 238.25C874.886 236.524 874.907 236.482 876.138 235.25Z"/>
	<path fill="white" transform="scale(0.5 0.5)" d="M330.89 923.75L331.329 923.635C333.191 923.427 333.331 923.624 334.75 924.737C334.955 926.331 334.571 926.555 333.75 927.887L332.851 928.259C331.364 928.069 331.334 927.922 330.25 926.856C330.069 925.26 330.115 925.164 330.89 923.75Z"/>
	<path fill="white" transform="scale(0.5 0.5)" d="M103.268 277.25L104.712 277.054L105.632 277.941C106.091 279.8 105.985 280.025 105.399 281.75L104.25 282.221C102.822 281.716 102.164 281.546 101.26 280.25C101.621 278.48 101.958 278.405 103.268 277.25Z"/>
	<path fill="white" transform="scale(0.5 0.5)" d="M218.743 149.75C219.558 149.725 220.206 150.008 220.977 150.25L221.623 151.5C221.374 153.577 221.146 153.473 219.616 154.75L218.47 154.725C217.392 153.713 216.958 153.445 216.522 152C217.166 150.464 217.248 150.526 218.743 149.75Z"/>
	<path fill="white" transform="scale(0.5 0.5)" d="M187.846 877.75L188.537 877.556C190.174 877.338 190.557 877.76 191.839 878.656C191.99 880.504 191.752 880.568 190.75 882.037C189.748 882.517 189.334 882.471 188.25 882.454L187.336 881.25C187.076 879.538 187.141 879.34 187.846 877.75Z"/>
	<path fill="#B50C02" transform="scale(0.5 0.5)" d="M820.435 936.25L821.296 935.913C822.624 935.663 823.291 936.426 824.25 937.161C824.565 939.095 824.246 939.161 823.232 940.75L821.75 941.446C820.475 940.894 820.315 940.632 819.478 939.5C819.499 937.781 819.422 937.609 820.435 936.25Z"/>
	<path fill="white" transform="scale(0.5 0.5)" d="M812.043 96.75C812.593 96.5231 813.001 96.4407 813.599 96.4482C815.174 96.4677 815.186 96.456 816.332 97.5928C816.429 99.4315 816.354 99.6407 815.448 101.25L814.487 101.863C812.819 101.835 812.866 101.617 811.633 100.449C811.35 98.6683 811.359 98.4136 812.043 96.75Z"/>
	<path fill="white" transform="scale(0.5 0.5)" d="M531.131 976.75C531.552 976.748 532.101 976.718 532.5 976.857C533.798 977.309 534.155 978.015 534.794 979.111C534.53 980.703 534.341 980.978 533.328 982.25C532.663 982.48 531.942 982.561 531.25 982.687L530.126 981.888C529.336 980.321 529.46 979.409 529.687 977.75L531.131 976.75Z"/>
	<path fill="white" transform="scale(0.5 0.5)" d="M948.833 756.25C950.66 756.077 950.708 756.042 952.25 757.02C952.427 757.867 952.667 758.661 952.457 759.521C952.116 760.917 951.659 760.994 950.518 761.75L948.996 761.901C947.703 761.054 947.515 760.879 946.828 759.5C947.225 757.577 947.447 757.514 948.833 756.25Z"/>
	<path fill="white" transform="scale(0.5 0.5)" d="M26.4009 316.75C26.9381 316.738 27.5271 316.692 28.0525 316.84C29.4472 317.236 30.1516 318.375 30.8797 319.5C30.4062 321.124 29.9822 321.569 28.75 322.625C28.1678 322.731 27.5754 322.734 27 322.559C25.6821 322.158 25.1053 321.131 24.5465 320C24.9909 318.275 25.2358 317.995 26.4009 316.75Z"/>
	<path fill="white" transform="scale(0.5 0.5)" d="M60.7103 240.75L62.75 240.616C63.9794 241.369 64.3175 241.49 64.9675 242.75C64.6873 244.36 64.298 244.943 63.25 246.199C62.3731 246.529 61.6768 246.471 60.75 246.479C59.7436 245.686 59.4015 245.187 58.9232 244C59.1086 241.977 59.2921 242.058 60.7103 240.75Z"/>
	<path fill="white" transform="scale(0.5 0.5)" d="M917.867 103.25L919.75 103.004C921.101 104.052 921.396 104.641 921.976 106.25C921.625 107.974 921.467 108.161 920.25 109.447C919.516 109.505 918.817 109.421 918.085 109.362C916.877 108.305 916.329 108.097 915.96 106.5C916.294 104.854 916.648 104.405 917.867 103.25Z"/>
	<path fill="white" transform="scale(0.5 0.5)" d="M965.819 319.25L967.254 319C968.956 319.538 969.614 319.976 970.865 321.25C970.941 321.937 971.095 322.797 971.013 323.5C970.826 325.104 969.968 325.56 968.75 326.44L966.25 326.406C964.85 325.367 964.332 324.846 963.632 323.25C963.971 321.372 964.523 320.628 965.819 319.25Z"/>
	<path fill="white" transform="scale(0.5 0.5)" d="M105.557 102.75C106.681 102.61 106.967 102.717 108 103.079C109.216 104.242 109.747 104.958 110.25 106.573C109.894 108.707 109.837 108.795 108.233 110.25L107.986 110.307C106.417 110.571 105.642 110.852 104.312 109.75C103.063 108.714 103.018 106.97 103.05 105.5C103.862 103.877 104.012 103.697 105.557 102.75Z"/>
	<path fill="white" transform="scale(0.5 0.5)" d="M55.4091 352.25C57.0824 352.012 57.8907 351.94 59.25 353.097C60.2382 353.939 60.6237 355.239 60.4708 356.5C60.2632 358.213 58.969 359.347 57.75 360.413L57.25 360.489C55.702 360.614 54.7186 360.62 53.5209 359.491C52.2855 358.328 52.485 356.769 52.4672 355.25C53.1346 353.758 54.1227 353.155 55.4091 352.25Z"/>
	<path fill="#F54503" transform="scale(0.5 0.5)" d="M807.272 743.116C807.428 741.24 807.235 739.578 808.626 738.129C810.474 736.205 813.07 736.217 815.526 736.229C815.997 738.205 816.152 740.189 816.336 742.206C813.696 743.518 811.308 743.901 808.423 744.316L807.272 743.116Z"/>
	<path fill="white" transform="scale(0.5 0.5)" d="M146.323 106.75C147.528 106.458 148.525 106.51 149.75 106.539C150.426 107.158 151.17 107.78 151.644 108.58C152.216 109.544 152.48 111.163 152.037 112.25C151.411 113.785 150.61 113.947 149.25 114.619C147.417 114.846 147.116 114.953 145.38 114.123C144.381 112.806 143.746 111.724 143.967 110C144.187 108.288 145.104 107.773 146.323 106.75Z"/>
	<path fill="white" transform="scale(0.5 0.5)" d="M720.097 116.25C720.542 116.117 720.773 116.025 721.272 116C722.674 115.93 724.032 116.457 724.963 117.522C725.982 118.69 726.301 120.236 725.984 121.75C725.655 123.319 724.554 123.919 723.359 124.75L721.813 124.99C720.151 125.155 719.323 124.36 718.154 123.358C717.516 122.072 716.985 120.713 717.431 119.25C717.949 117.553 718.754 117.219 720.097 116.25Z"/>
	<path fill="white" transform="scale(0.5 0.5)" d="M953.023 833.25C953.597 833.106 953.864 833.007 954.504 833.019C956.29 833.051 957.164 833.958 958.366 835.077C958.84 836.335 959.132 837.217 958.821 838.561C958.378 840.481 957.283 841.055 955.75 842.037C955.202 842.177 954.342 842.46 953.75 842.432C952.275 842.362 951.568 841.703 950.581 840.75C949.902 839.33 949.586 837.819 950.017 836.25C950.47 834.601 951.697 834.072 953.023 833.25Z"/>
	<path fill="white" transform="scale(0.5 0.5)" d="M31.2754 793.25C31.8279 793.062 32.1367 792.927 32.7516 792.868C34.2374 792.725 35.8409 793.603 36.7794 794.721C38.0951 796.288 37.9679 797.605 37.9326 799.5C37.0938 801.159 36.4471 801.777 34.8736 802.75C34.2722 802.974 33.9248 803.14 33.25 803.21C31.7776 803.362 30.3788 802.574 29.435 801.508C28.3327 800.262 28.1046 797.801 28.4903 796.25C28.8987 794.608 30.0015 794.163 31.2754 793.25Z"/>
	<path fill="white" transform="scale(0.5 0.5)" d="M264.224 123.75C266.178 126.814 268.93 127.07 272.268 128.105C269.879 130.667 268.635 133.57 266.472 136.25L265.506 136.473C264.458 135.993 264.167 135.171 263.659 134.2L263.428 133.75C261.245 133.208 259.988 132.68 258.646 130.75C260.987 128.934 263.332 127.212 264.113 124.227L264.224 123.75Z"/>
	<path fill="white" transform="scale(0.5 0.5)" d="M25.1591 260.75L25.6102 260.875C27.2484 264.15 29.3004 264.614 32.5149 265.857C30.8281 267.594 28.659 269.329 28.6668 271.933C28.6696 272.879 28.7544 272.84 28.2773 273.75C27.2434 273.097 26.9343 273.229 25.75 273.183C25.0972 273.691 24.5039 274.028 23.75 274.368L23.4876 273.25C22.7612 269.538 21.3933 268.239 18.6444 265.829C19.387 265.163 19.0316 265.325 19.9577 265.078L21.6667 264.629C23.4901 264.062 24.1144 262.814 24.9393 261.194L25.1591 260.75Z"/>
	<path fill="white" transform="scale(0.5 0.5)" d="M854.676 182.75C855.173 186.992 858.386 188.879 861.415 191.52C860.267 192.483 859.476 193.267 858.627 194.5L859.25 196.362L857.5 195.958C855.999 196.801 855.182 198.776 854.348 200.25L853.611 198.5C852.124 194.888 849.048 192.883 845.935 190.773L848.216 189.976C851.67 188.655 852.917 186.674 854.371 183.443L854.676 182.75Z"/>
	<path fill="#D62828" transform="scale(0.5 0.5)" d="M597.902 590.541L597.791 590.438C596.692 588.861 596.346 587.7 596.472 585.75C596.572 584.194 597.207 583.577 598.25 582.565C611.182 581.59 624.648 582.427 637.641 582.471L649.133 582.523C651.359 582.537 653.809 582.261 655.923 583.028C652.374 584.125 648.882 584.2 645.194 584.13C643.183 584.091 640.739 583.681 638.857 584.463L614.25 584.478L604.323 584.161C602.617 584.082 600.52 583.658 599 584.525C597.742 586.688 597.955 588.131 597.902 590.541Z"/>
	<path fill="#084F82" transform="scale(0.5 0.5)" d="M674.333 715.504C677.745 715.525 680.94 715.674 684.301 716.285L689.922 723.09C676.897 724.406 663.049 723.475 649.969 722.983C654.393 721.942 659.002 722.46 663.503 722.343C664.182 722.325 664.796 722.221 665.477 722.288L667.5 722.437C670.924 722.539 672.853 722.557 675.451 720.148C675.721 718.778 675.85 718.202 675.287 716.86L674.333 715.504Z"/>
	<path fill="#084F82" transform="scale(0.5 0.5)" d="M933.789 457.914L934.75 459.907L1000.08 461.75L1000.25 462.258L963 463.491C955.817 463.625 948.781 463.611 941.617 464.25C939.439 464.444 937.009 464.393 934.903 464.97L934.529 465.125L934.348 461.624L934.018 460.442L933.789 457.914Z"/>
	<path fill="white" transform="scale(0.5 0.5)" d="M924.892 216.25C927.125 217.724 928.319 220.808 930.197 222.736C931.652 224.23 934.441 225.298 936.307 226.249C932.231 227.992 930.208 228.567 928.448 232.83C928.011 233.888 927.63 234.794 926.981 235.75L926.629 235.131L926.148 234.243C925.164 232.547 923.495 231.811 921.665 231.36C920.602 231.098 919.743 230.853 918.75 230.356C917.979 228.894 918.33 228.342 918.617 226.75L915.336 224.25L916.773 223.787C920.852 222.405 922.75 220.757 924.584 216.913L924.892 216.25Z"/>
	<path fill="#003049" transform="scale(0.5 0.5)" d="M323.009 649.531L372.435 649.073L373.111 649.175C378.681 649.967 384.483 649.443 390.101 649.501C391.847 649.519 394.468 649.306 396.089 649.911C394.006 649.968 392.461 649.979 390.5 650.54C388.224 651.191 383.732 650.539 381.27 650.517L354.276 650.642C350.62 650.667 346.578 650.118 342.983 650.572L327.367 650.571L327.332 650.655L248.815 652.138C260.953 649.607 274.144 650.094 286.5 649.828L323.009 649.531Z"/>
	<path fill="#F77F00" transform="scale(0.5 0.5)" d="M655.923 583.028C657.183 584.037 658.019 584.642 658.535 586.25C658.427 588.1 658.224 589.192 657.318 590.819C654.141 592.078 649.447 591.512 645.961 591.556L613.92 591.448L603.612 591.401C601.966 591.397 600.036 591.623 598.499 591.039L597.902 590.541C597.955 588.131 597.742 586.688 599 584.525C600.52 583.658 602.617 584.082 604.323 584.161L614.25 584.478L638.857 584.463C640.739 583.681 643.183 584.091 645.194 584.13C648.882 584.2 652.374 584.125 655.923 583.028Z"/>
	<path fill="#0281B4" transform="scale(0.5 0.5)" d="M743.284 605.719L747.404 605.763C743.596 607.44 739.961 609.246 737.01 612.25C734.644 614.66 732.926 617.033 730.009 618.865C726.804 619.082 723.855 618.758 720.676 618.671C717.984 618.596 714.933 618.865 712.36 617.996L699.206 614.027L688.662 609.884C698.442 607.629 708.146 607.334 718.135 606.915L743.284 605.719Z"/>
	<path fill="white" transform="scale(0.5 0.5)" d="M405.348 732.083C408.969 728.833 415.171 727.498 419.655 725.717C427.854 722.461 436.217 719.582 444.848 717.721C447.262 717.201 449.973 716.415 452.439 716.273C456.46 716.043 460.63 716.388 464.661 716.451L484.614 716.475C490.482 716.47 495.81 716.85 501.531 715.115C499.76 717.437 498.076 720.002 495.841 721.898L469.871 722.538C463.545 722.589 457.033 722.402 450.75 723.177C447.2 723.615 443.757 724.779 440.25 725.472L423.037 728.513L405.348 732.083Z"/>
	<path fill="#025F87" transform="scale(0.5 0.5)" d="M675.287 716.86C675.85 718.202 675.721 718.778 675.451 720.148C672.853 722.557 670.924 722.539 667.5 722.437L665.477 722.288C664.796 722.221 664.182 722.325 663.503 722.343C659.002 722.46 654.393 721.942 649.969 722.983C645.519 723.521 640.321 722.936 635.794 722.894L539.118 722.853C533.185 723.055 525.805 723.693 520.042 722.496C521.874 722.478 524.578 722.762 526.13 721.697L526.577 721.379C528.62 720.03 533.104 720.197 535.49 720.7C539.27 721.498 544.33 721.831 548.044 720.575C549.214 720.18 550.306 719.357 551.531 719.241L556.576 718.925L674.467 718.378L675.287 716.86Z"/>
	<path fill="#084F82" transform="scale(0.5 0.5)" d="M539.118 722.853C541.705 721.599 547.76 722.347 550.766 722.331L564.854 721.805C568.97 721.713 573.274 722.095 577.25 721.337C581.138 720.596 585.678 721.396 589.64 721.339C597.295 721.231 605.064 720.25 612.71 720.742C616.196 720.966 619.566 722.001 623 722.266C626.988 722.575 632.052 721.558 635.794 722.894L539.118 722.853Z"/>
	<path fill="white" transform="scale(0.5 0.5)" d="M520.042 722.496C519.033 720.549 519.447 716.673 519.412 714.461L532.594 715.423L674.333 715.504L675.287 716.86L674.467 718.378L556.576 718.925L551.531 719.241C550.306 719.357 549.214 720.18 548.044 720.575C544.33 721.831 539.27 721.498 535.49 720.7C533.104 720.197 528.62 720.03 526.577 721.379L526.13 721.697C524.578 722.762 521.874 722.478 520.042 722.496Z"/>
	<path fill="#0281B4" transform="scale(0.5 0.5)" d="M520.042 722.496C519.033 720.549 519.447 716.673 519.412 714.461L532.594 715.423C528.662 715.631 524.135 715.435 520.416 716.75L520.25 717.918C522.784 719.794 551.115 718.19 556.576 718.925L551.531 719.241C550.306 719.357 549.214 720.18 548.044 720.575C544.33 721.831 539.27 721.498 535.49 720.7C533.104 720.197 528.62 720.03 526.577 721.379L526.13 721.697C524.578 722.762 521.874 722.478 520.042 722.496Z"/>
	<path fill="#D62828" transform="scale(0.5 0.5)" d="M808.423 744.316C806.863 745.54 783.506 744.62 779.25 744.59L738.235 744.979L704 744.501C700.873 744.505 697.739 745.117 694.588 745.142L678.72 744.721L639.5 744.723L552.58 745.017L524.134 745.435C521.631 745.398 519.887 745.378 518.063 743.5L518.55 742.677C525.666 742.047 533.06 742.471 540.205 742.504L581.701 742.658L656.75 742.767L733.879 742.387L789.069 742.535L800.203 742.566C802.556 742.537 805.076 742.161 807.272 743.116L808.423 744.316Z"/>
	<path fill="#F54503" transform="scale(0.5 0.5)" d="M937.523 579.535L978.847 579.438L991.296 579.552C993.264 579.569 995.607 579.871 997.493 579.394L1000.88 579.75C1001.83 581.413 1001.82 587.7 1001.28 589.715C1000.97 590.891 1000.13 591.553 999.206 592.228C990.577 593.314 980.986 592.383 972.25 592.38C961.9 592.377 950.974 593.334 940.71 592.085C939.888 588.882 939.205 582.697 937.073 580.402L937.523 579.535Z"/>
	<path fill="#003049" transform="scale(0.5 0.5)" d="M834.157 624.668C832.111 621.894 829.451 618.471 826.09 617.251C823.439 616.289 818.992 617.683 816.085 617.745L779.927 617.513C778.504 617.504 772.529 618.004 771.529 617.461C770.833 617.084 768.531 612.845 767.682 611.948C764.979 609.091 761.607 607.47 758.175 605.692L781.482 604.671L796.121 604.425L815.431 602.972C818.567 602.811 821.916 602.378 825.004 603.05C825.719 604.871 826.529 605.09 828.079 606.243C830.169 607.799 832.169 609.388 833.297 611.794C834.619 614.614 834.446 621.468 834.157 624.668Z"/>
	<path fill="#FFD005" transform="scale(0.5 0.5)" d="M935.952 564.438L939.63 564.417C946.916 564.493 998.706 563.848 1000.25 564.97C1002.22 568.077 1001.39 573.147 1001.23 576.75C1000.18 577.522 1000.74 577.266 999.582 577.571L997.758 578.473L997.493 579.394C995.607 579.871 993.264 579.569 991.296 579.552L978.847 579.438L937.523 579.535L937.299 578.915C935.719 574.42 936.971 569.145 935.952 564.438Z"/>
	<path fill="#520003" transform="scale(0.5 0.5)" d="M937.299 578.915L937.748 577.814L999.582 577.571L997.758 578.473L997.493 579.394C995.607 579.871 993.264 579.569 991.296 579.552L978.847 579.438L937.523 579.535L937.299 578.915Z"/>
	<path fill="#F54503" transform="scale(0.5 0.5)" d="M455.743 647.187L456.098 645.766C466.465 644.102 477.6 645.012 488.09 644.924L562.573 644.979L669.031 645.469L703.105 645.867C709.268 645.97 715.624 645.749 721.75 646.399C722.77 647.65 722.714 648.925 722.969 650.5C722.73 650.68 722.536 650.949 722.25 651.039C721.637 651.231 719.836 651.025 719.118 651.021L712.059 651.01L673.792 651.061L519.396 651.134L468.741 650.89L457.75 650.456C456.413 649.38 456.219 648.762 455.743 647.187Z"/>
	<path fill="#D62828" transform="scale(0.5 0.5)" d="M825.004 603.05C831.695 601.679 838.786 601.735 845.593 601.317L881 599.19L916.75 596.958C923.526 596.463 930.37 595.295 937.172 595.562C935.551 604.88 932.945 613.841 930.456 622.947C926.308 638.122 921.852 652.841 915.913 667.444C914.792 670.201 913.86 673.513 912.401 676.061C904.181 674.563 895.078 675.343 886.75 675.329L838.393 675.406L793.717 675.147C789.912 675.219 784.579 674.732 781.006 675.948L780.251 674.985C778.831 673.38 775.784 670.021 773.709 669.407C772.318 668.997 768.815 669.449 767.246 669.418L719 669.484L546.77 669.28L497.464 669.014L405.43 669.479L326.29 669.566C310.788 669.68 294.706 670.794 279.261 669.561C274.279 669.685 268.572 670.112 263.645 669.51C258.816 668.921 253.99 667.148 249.396 665.622L321.691 665.111L364.195 665.022L373.819 665.409L490.25 665.343L539.963 665.057L681.604 664.943L793.705 664.747L814.5 664.629C817.641 664.645 821.138 665.296 824.214 664.803C827.234 664.32 829.702 662.451 831.454 660.017C832.857 658.069 834.07 655.852 834.515 653.469C835.049 650.612 834.75 647.269 834.769 644.334C834.813 637.864 835.15 631.065 834.157 624.668C834.446 621.468 834.619 614.614 833.297 611.794C832.169 609.388 830.169 607.799 828.079 606.243C826.529 605.09 825.719 604.871 825.004 603.05Z"/>
	<defs>
		<linearGradient id="gradient_0" gradientUnits="userSpaceOnUse" x1="426.13306" y1="689.85315" x2="444.04578" y2="588.66309">
			<stop offset="0" stop-color="#044E72"/>
			<stop offset="1" stop-color="#00698F"/>
		</linearGradient>
	</defs>
	<path fill="url(#gradient_0)" transform="scale(0.5 0.5)" d="M159.501 665.498L159.159 664.926L159.486 663.955C165.927 660.141 171.709 655.681 177.961 651.607C187.398 645.458 197.602 639.715 208 635.381C216.474 631.849 225.362 629.323 234.078 626.462C236.827 625.559 239.883 625.312 242.5 624.061C245.887 622.443 249.007 619.311 252.053 617.087C258.507 612.375 265.972 608.076 273.442 605.208C282.722 601.646 292.512 597.543 302.183 595.25C305.065 594.567 308.049 594.09 311 593.855C312.923 593.701 315.383 593.856 317.176 593.13L317.862 592.832C329.311 593.204 340.744 593.213 352.13 594.698C361.578 595.93 371.444 598.479 380.47 601.454C386.847 603.557 393.062 606.514 399.271 609.078C401.277 609.907 404.628 611.66 406.73 611.861C407.604 611.944 411.788 609.378 413.096 609.029C415.972 608.262 419.264 608.285 422.234 608.202L516.924 607.984L549.542 607.979C556.156 607.98 562.934 607.687 569.516 608.356C571.089 608.516 572.24 609.002 573.676 609.613C577.853 611.391 582.617 612.363 587.063 613.233C597.753 615.219 608.21 618.949 618.577 622.158L653.465 632.688C661.705 635.223 669.113 637.765 677.659 639.264C672.708 639.506 667.901 639.152 662.967 639.073L628.994 638.566L586.064 638.998L510.313 638.523L483.671 638.509C476.018 638.459 467.659 637.686 460.191 639.498C457.907 640.052 457.112 641.668 455.617 643.394C455.277 643.787 455.072 644.373 454.589 644.566C454.319 644.674 452.506 644.4 452.187 644.376L444.684 643.996L401.649 643.994L356.556 644.042L342.922 644.482L293.5 644.52L272.75 645.791C268.5 645.983 264.191 645.767 259.954 646.111L235.202 648.499L216.75 649.772L198.183 651.724C195.466 651.966 193.655 652.746 190.897 651.919L190.398 652.099C186.891 653.32 183.206 653.749 179.698 654.915C176.57 655.955 172.901 657.242 170.021 658.835C166.389 660.843 163.087 663.4 159.501 665.498Z"/>
	<path fill="white" transform="scale(0.5 0.5)" d="M159.501 665.498L159.159 664.926L159.486 663.955C165.927 660.141 171.709 655.681 177.961 651.607C187.398 645.458 197.602 639.715 208 635.381C216.474 631.849 225.362 629.323 234.078 626.462C236.827 625.559 239.883 625.312 242.5 624.061C245.887 622.443 249.007 619.311 252.053 617.087C258.507 612.375 265.972 608.076 273.442 605.208C282.722 601.646 292.512 597.543 302.183 595.25C305.065 594.567 308.049 594.09 311 593.855C312.923 593.701 315.383 593.856 317.176 593.13L317.862 592.832C329.311 593.204 340.744 593.213 352.13 594.698C361.578 595.93 371.444 598.479 380.47 601.454C386.847 603.557 393.062 606.514 399.271 609.078C401.277 609.907 404.628 611.66 406.73 611.861C407.604 611.944 411.788 609.378 413.096 609.029C415.972 608.262 419.264 608.285 422.234 608.202L516.924 607.984L549.542 607.979C556.156 607.98 562.934 607.687 569.516 608.356C571.089 608.516 572.24 609.002 573.676 609.613C577.853 611.391 582.617 612.363 587.063 613.233L586.75 614.291C578.875 615.768 570.368 615.432 562.37 615.44L522.534 615.205L444.336 615.398L418.75 615.494C413.365 615.488 407.895 615.74 402.559 614.924L401.735 616.224L400.53 616.207L370.121 624.785C355.613 628.505 340.842 631.831 325.994 633.825L304.396 635.722C299.363 636.133 294.014 636.706 288.977 636.322L274.894 634.588C273.778 634.446 271.622 633.815 270.654 633.972C266.779 635.524 262.359 635.756 258.252 636.327L241.006 638.821C229.027 640.484 216.505 643.838 204.926 647.262C200.21 648.657 195.337 649.773 190.897 651.919L190.398 652.099C186.891 653.32 183.206 653.749 179.698 654.915C176.57 655.955 172.901 657.242 170.021 658.835C166.389 660.843 163.087 663.4 159.501 665.498Z"/>
	<path fill="#003049" transform="scale(0.5 0.5)" d="M302.243 603.516C316.506 600.015 332.992 600.362 347.6 601.328C351.45 601.582 355.932 601.511 359.495 603.065L360.25 601.168L360.885 601.25L361.55 602.403C369.88 604.259 378.68 605.868 386.767 608.594C392.132 610.403 397.107 613.391 402.559 614.924L401.735 616.224L400.53 616.207L399.804 615.375C397.381 614.613 394.959 614.709 392.475 614.31C390.085 613.926 387.794 613.045 385.406 612.705C383.481 612.431 381.502 612.629 379.566 612.43L359.117 610.578C343.053 610.722 327.66 611.223 311.75 613.499C307.5 614.107 303.18 614.442 298.981 615.36C293.032 616.48 286.831 618.593 280.862 619.186L280.124 619.336C276.418 620.794 272.084 621.976 268.123 622.396C264.701 622.76 261.183 622.378 257.75 622.613C256.269 622.714 254.9 623.103 253.392 623.154L269.11 614.564L288.442 606.685C289.685 605.919 290.89 605.121 292.25 604.576C293.29 605.649 294.265 606.673 295.5 607.531L296.75 606.555C297.502 606.812 297.943 606.952 298.75 606.97L299.25 604.698C300.369 603.745 300.768 603.761 302.243 603.516Z"/>
	<defs>
		<linearGradient id="gradient_1" gradientUnits="userSpaceOnUse" x1="325.70135" y1="605.90808" x2="327.79865" y2="598.09192">
			<stop offset="0" stop-color="#016279"/>
			<stop offset="1" stop-color="#00769C"/>
		</linearGradient>
	</defs>
	<path fill="url(#gradient_1)" transform="scale(0.5 0.5)" d="M302.243 603.516C316.506 600.015 332.992 600.362 347.6 601.328C351.45 601.582 355.932 601.511 359.495 603.065L359.588 607.191C359.002 607.164 358.545 607.09 357.997 606.877C356.048 606.12 354.04 605.602 351.956 605.405C346.085 604.85 339.682 605.812 333.693 605.566C325.786 605.241 317.865 603.986 310.002 603.842L310.252 603.375C309.53 603.288 308.915 603.28 308.193 603.388C306.112 603.699 304.339 603.694 302.243 603.516Z"/>
	<path transform="scale(0.5 0.5)" d="M359.117 610.578L379.566 612.43C381.502 612.629 383.481 612.431 385.406 612.705C387.794 613.045 390.085 613.926 392.475 614.31C394.959 614.709 397.381 614.613 399.804 615.375L400.53 616.207L370.121 624.785C355.613 628.505 340.842 631.831 325.994 633.825L304.396 635.722C299.363 636.133 294.014 636.706 288.977 636.322L274.894 634.588C273.778 634.446 271.622 633.815 270.654 633.972C265.044 632.91 259.429 631.011 254.086 629.009C251.653 628.098 248.987 627.294 246.789 625.916C248.975 624.831 251.064 623.913 253.392 623.154C254.9 623.103 256.269 622.714 257.75 622.613C261.183 622.378 264.701 622.76 268.123 622.396C272.084 621.976 276.418 620.794 280.124 619.336L280.862 619.186C286.831 618.593 293.032 616.48 298.981 615.36C303.18 614.442 307.5 614.107 311.75 613.499C327.66 611.223 343.053 610.722 359.117 610.578Z"/>
	<path fill="#FCBF49" transform="scale(0.5 0.5)" d="M110.212 676.076C117.875 673.625 127.544 675.3 135.557 675.381L167.24 675.275C177.406 679.77 187.563 684.351 198.25 687.497C217.315 693.108 236.857 696.049 256.489 698.757C305.43 705.508 355.292 707.518 404.649 708.252L460.522 708.482C466.965 708.662 516.75 707.97 518 708.6C518.378 708.79 518.597 709.2 518.895 709.5L518.75 710.98C517.133 712.043 514.164 711.88 512.25 712.217C508.636 712.854 504.952 713.779 501.531 715.115C495.81 716.85 490.482 716.47 484.614 716.475L464.661 716.451C460.63 716.388 456.46 716.043 452.439 716.273C449.973 716.415 447.262 717.201 444.848 717.721C436.217 719.582 427.854 722.461 419.655 725.717C415.171 727.498 408.969 728.833 405.348 732.083L388.159 737.395L423.1 749.446C428.657 751.37 435.348 754.782 441.119 755.459C448.029 756.269 455.16 756.016 462.11 756.031L495.483 756.07L614.612 755.907L758.498 755.933L793.412 755.874C802.47 755.857 813.516 756.593 822.25 754.175L823.5 752.779C820.676 750.099 817.226 746.051 816.336 742.206C816.152 740.189 815.997 738.205 815.526 736.229L816.282 727.908C816.571 723.328 818.944 719.471 819.744 714.966C818.813 714.294 818.003 713.673 816.849 713.476C810.393 712.374 802.869 713.032 796.301 713.017L764.806 712.767C757.699 712.69 750.481 712.854 743.409 712.147L752.415 710.906C758.217 709.629 765.741 707.003 769.457 702.126C772.976 697.507 774.144 689.304 776.379 683.844C777.522 681.054 779.372 678.476 781.006 675.948C784.579 674.732 789.912 675.219 793.717 675.147L838.393 675.406L886.75 675.329C895.078 675.343 904.181 674.563 912.401 676.061C905.336 693.327 896.862 710.017 887.803 726.312C873.293 752.408 857.548 776.244 836.89 797.975C832.311 802.792 827.431 808.882 821.762 812.402L735.728 780.117C728.553 780.996 720.348 785.882 713.764 788.841L664.186 812.091L546.344 868.591L515.334 883.814C514.306 884.283 512.406 885.357 511.327 885.497C508.784 885.828 472.582 866.892 467.533 864.411L345.893 805.508L306.12 786.591C301.548 784.571 296.95 782.222 292.25 780.554C291.472 780.277 290.115 779.738 289.324 779.781C288.348 779.834 286.794 780.553 285.834 780.853L275.747 784.365L226.674 801.203C217.554 804.596 208.465 807.671 199.674 811.903C178.055 790.761 160.153 767.13 144.209 741.537L136.016 728.885C126.054 711.871 117.753 694.277 110.212 676.076Z"/>
	<path transform="scale(0.5 0.5)" d="M837.074 729.035C838.851 729.095 840.684 729.055 842.414 729.488L842.468 741.968L838.506 744.308C836.621 740.651 837.254 733.194 837.074 729.035Z"/>
	<path fill="#B50C02" transform="scale(0.5 0.5)" d="M819.744 714.966L836.001 723.922C838.19 725.274 840.447 726.467 842.214 728.37L842.414 729.488C840.684 729.055 838.851 729.095 837.074 729.035C835.754 728.871 834.565 728.276 833.193 728.121C827.572 727.485 821.921 727.711 816.282 727.908C816.571 723.328 818.944 719.471 819.744 714.966Z"/>
	<path fill="#D62828" transform="scale(0.5 0.5)" d="M816.282 727.908C821.921 727.711 827.572 727.485 833.193 728.121C834.565 728.276 835.754 728.871 837.074 729.035C837.254 733.194 836.621 740.651 838.506 744.308C834.5 748.547 828.851 750.767 823.5 752.779C820.676 750.099 817.226 746.051 816.336 742.206C816.152 740.189 815.997 738.205 815.526 736.229L816.282 727.908Z"/>
	<path fill="#003049" transform="scale(0.5 0.5)" d="M583.171 110.475C586.599 109.601 589.663 111.2 593.063 111.609C604.985 113.043 615.875 116.07 627.446 119.138L638.845 121.904C651.121 125.479 663.231 130.062 675.109 134.73C692.917 141.728 710.38 149.468 726.872 159.249C753.686 175.152 779.952 193.371 803.003 214.441C812.63 223.241 822.392 233.018 830.869 242.921L837.94 251.92C853.25 270.238 867.911 289.628 879.961 310.279C888.447 324.824 895.686 340.127 902.279 355.581L913.221 381.792L918.294 397.718L928.942 433.922C929.46 435.991 930.257 438.271 930.025 440.412C929.422 439.752 928.783 439.077 928.047 438.559C926.773 437.663 924.044 438.021 922.5 438.021L891.887 437.614L757.201 437.486L611.305 438.026L523.017 437.777L504.751 437.787C499.99 437.733 495.249 437.471 490.517 438.11C491.006 436.194 492.991 433.727 494.116 432.021L507.821 412.583L554.199 346.695L565.62 329.558L579.25 310.905L590.19 294.516C594.922 287.596 600.456 280.654 603.575 272.841C606.75 266.284 611.703 258.969 616.216 253.245C619.616 248.932 623.687 244.621 626.474 239.907C628.517 236.45 629.627 232.353 630.662 228.502C635.358 211.046 634.219 191.955 629.598 174.607C622.981 149.762 605.669 123.524 583.171 110.475Z"/>
	<path fill="#F77F00" transform="scale(0.5 0.5)" d="M312.93 149.527C324.058 143.464 335.838 138.611 347.592 133.933L369.639 125.451C400.127 115.205 432.086 109.019 464.058 105.909C485.482 103.825 506.67 102.925 528.188 104.047C546.685 105.012 564.901 107.603 583.171 110.475C605.669 123.524 622.981 149.762 629.598 174.607C634.219 191.955 635.358 211.046 630.662 228.502C629.627 232.353 628.517 236.45 626.474 239.907C623.687 244.621 619.616 248.932 616.216 253.245C611.703 258.969 606.75 266.284 603.575 272.841C600.456 280.654 594.922 287.596 590.19 294.516L579.25 310.905L565.62 329.558L554.199 346.695L507.821 412.583L494.116 432.021C492.991 433.727 491.006 436.194 490.517 438.11L488.057 441.682C486.554 443.705 485.872 445.196 483.5 446.204C476.651 446.662 469.711 446.456 462.844 446.465L428.693 446.509L328.155 446.113L283.846 445.561C276.664 445.436 268.877 445.812 261.814 444.685C258.357 444.133 255.159 442.781 251.917 441.517C244.245 438.525 236.893 434.705 229.625 430.828C228.342 430.143 227.424 429.64 225.933 429.534C220.895 429.175 215.599 429.512 210.528 429.514L179.082 429.537L149.16 429.466C142.411 429.44 135.646 429.207 128.913 429.77C126.629 430.022 124.122 430.171 121.927 430.857C116.735 432.481 111.775 435.159 106.547 436.899C103.873 437.789 100.28 438.176 97.4618 437.853C95.6733 436.311 94.02 434.837 92.5368 432.981L92.3248 430.49L103.124 395.339L106.483 384C112.558 364.466 122.168 344.906 132.012 327C173.268 251.957 236.894 189.005 312.93 149.527Z"/>
	<path fill="#D62828" transform="scale(0.5 0.5)" d="M103.124 395.339L103.495 396.041C104.086 397.285 103.739 398.893 103.611 400.213C103.268 403.759 102.899 407.333 102.853 410.898C102.842 411.722 102.674 413.284 102.902 414.006C103.715 416.576 107.702 418.316 109.992 419.284C114.306 421.109 126.467 424.481 128.421 428.739L128.709 429.326L128.913 429.77C126.629 430.022 124.122 430.171 121.927 430.857C116.735 432.481 111.775 435.159 106.547 436.899C103.873 437.789 100.28 438.176 97.4618 437.853C95.6733 436.311 94.02 434.837 92.5368 432.981L92.3248 430.49L103.124 395.339Z"/>
	<path fill="#FCBF49" transform="scale(0.5 0.5)" d="M312.93 149.527C324.058 143.464 335.838 138.611 347.592 133.933L369.639 125.451C400.127 115.205 432.086 109.019 464.058 105.909C485.482 103.825 506.67 102.925 528.188 104.047C546.685 105.012 564.901 107.603 583.171 110.475C605.669 123.524 622.981 149.762 629.598 174.607C634.219 191.955 635.358 211.046 630.662 228.502C629.627 232.353 628.517 236.45 626.474 239.907C623.687 244.621 619.616 248.932 616.216 253.245C611.703 258.969 606.75 266.284 603.575 272.841L599.05 258.986L594.736 249.295L588.825 238.64L578.219 224.441C574.425 219.526 570.253 216.364 565.5 212.43C552.774 201.896 539.722 194.07 525.377 185.998C518.05 181.874 510.244 179.288 502.38 176.413C481.643 168.831 460.615 162.614 438.807 158.893L420.951 156.685C417.43 156.271 410.727 154.456 407.52 155.48L406.774 155.75C404.319 156.331 399.563 155.562 396.875 155.508C387.973 155.329 378.962 154.983 370.072 155.591C363.517 156.04 356.735 157.075 350.25 158.171L337.367 160.526C336.19 160.723 334.126 161.289 333.004 161.135C331.555 160.936 329.182 159.237 327.88 158.481L312.93 149.527Z"/>
	<path fill="#FFD005" transform="scale(0.5 0.5)" d="M578.219 224.441C580.933 222.773 584.594 222.322 587.691 223.177C589.32 223.627 589.956 224.178 590.729 225.654C591.898 227.889 591.643 232.303 590.931 234.691C590.504 236.126 589.676 237.425 588.825 238.64L578.219 224.441Z"/>
	<path fill="#003049" transform="scale(0.5 0.5)" d="M128.913 429.77C135.646 429.207 142.411 429.44 149.16 429.466L179.082 429.537L210.528 429.514C215.599 429.512 220.895 429.175 225.933 429.534C227.424 429.64 228.342 430.143 229.625 430.828C236.893 434.705 244.245 438.525 251.917 441.517C255.159 442.781 258.357 444.133 261.814 444.685C268.877 445.812 276.664 445.436 283.846 445.561L328.155 446.113L428.693 446.509L462.844 446.465C469.711 446.456 476.651 446.662 483.5 446.204C485.872 445.196 486.554 443.705 488.057 441.682L490.517 438.11C495.249 437.471 499.99 437.733 504.751 437.787L523.017 437.777L611.305 438.026L757.201 437.486L891.887 437.614L922.5 438.021C924.044 438.021 926.773 437.663 928.047 438.559C928.783 439.077 929.422 439.752 930.025 440.412L930.131 441.912C930.415 442.876 930.786 443.394 931.426 444.163C936.083 445.014 941.259 444.526 946 444.642L969 445.459C975.982 445.597 983.013 445.381 989.954 446.25L989.75 446.763L947.426 447.47L935.364 447.504C934.476 447.505 932.782 447.242 932.07 447.732C931.622 448.733 931.256 449.705 930.582 450.578L930.755 452.021L931.328 452.364C932.31 452.961 933.729 453.551 934.045 454.75L934.376 456.526L933.789 457.914L934.018 460.442L934.348 461.624L934.529 465.125L934.903 464.97L934.87 469.253C938.881 490.679 939.653 512.705 939.625 534.456C939.613 544.391 939.056 554.506 939.63 564.417L935.952 564.438C936.971 569.145 935.719 574.42 937.299 578.915L937.523 579.535L937.073 580.402L708.127 582.319L707.867 581.943C698.999 569.557 672.187 562.715 658 560.506C630.339 556.198 599.715 555.353 575.999 572.714C570.881 576.46 568.58 579.409 567.436 585.747L434.589 574.779C414.153 572.894 393.132 568.913 372.593 570.106C357.508 570.983 341.806 574.438 328.687 582.206C326.032 584.379 318.33 589.703 317.862 592.832L317.176 593.13C315.383 593.856 312.923 593.701 311 593.855C308.049 594.09 305.065 594.567 302.183 595.25C292.512 597.543 282.722 601.646 273.442 605.208C265.972 608.076 258.507 612.375 252.053 617.087C249.007 619.311 245.887 622.443 242.5 624.061C239.883 625.312 236.827 625.559 234.078 626.462C225.362 629.323 216.474 631.849 208 635.381C197.602 639.715 187.398 645.458 177.961 651.607C171.709 655.681 165.927 660.141 159.486 663.955L159.159 664.926L159.501 665.498C159.477 667.821 161.016 669.714 162.58 671.319L167.24 675.275L135.557 675.381C127.544 675.3 117.875 673.625 110.212 676.076C108.585 672.977 107.486 669.327 106.193 666.059L96.7286 639.131C84.0877 598.036 78.0463 554.856 80.5362 511.866L84.4551 473.94C84.3731 470.753 85.3299 467.575 86.116 464.51C82.8686 463.813 79.0789 463.983 75.7476 463.848L52.4045 463.523L18.9336 462.328C25.0945 460.96 31.9547 461.597 38.2613 461.262L85.2866 459.027C87.0346 450.786 86.4163 439.593 91.1566 432.464C83.1795 432.96 74.9955 432.446 66.9927 432.434C63.5782 432.429 56.2222 433.29 53.3038 431.75L92.3248 430.49L92.5368 432.981C94.02 434.837 95.6733 436.311 97.4618 437.853C100.28 438.176 103.873 437.789 106.547 436.899C111.775 435.159 116.735 432.481 121.927 430.857C124.122 430.171 126.629 430.022 128.913 429.77Z"/>
	<path fill="#21BEF4" transform="scale(0.5 0.5)" d="M288.333 460.052L329.172 460.016C323.925 462.172 317.918 460.675 312.5 461.629C309.879 462.091 306.27 461.881 303.614 461.56L296.998 461.138C294.008 461.184 291.243 460.748 288.333 460.052Z"/>
	<path fill="#22BEEF" transform="scale(0.5 0.5)" d="M215.771 460.013L241.234 459.976L241.322 460.654C241.405 461.442 241.362 462.043 241.25 462.817C244.606 464.824 262.181 461.839 263.862 463.814L220.722 463.946L217.039 463.125L219.25 463C219.181 462.361 219.144 461.803 219.197 461.159L219.252 460.625C218.011 460.579 216.969 460.307 215.771 460.013Z"/>
	<path fill="#21BEF4" transform="scale(0.5 0.5)" d="M587.477 446.987L659.433 446.916L660.753 447.625L660.288 447.667C659.155 447.777 658.703 447.77 657.699 448.389L632.36 449.08L611.908 448.963C608.55 448.948 604.827 448.617 601.512 449.034C597.987 449.04 589.228 450.01 586.586 447.863L587.477 446.987Z"/>
	<defs>
		<linearGradient id="gradient_2" gradientUnits="userSpaceOnUse" x1="267.32257" y1="453.53067" x2="261.73315" y2="469.31198">
			<stop offset="0" stop-color="#21C5FD"/>
			<stop offset="1" stop-color="#30DEFF"/>
		</linearGradient>
	</defs>
	<path fill="url(#gradient_2)" transform="scale(0.5 0.5)" d="M241.234 459.976L274.019 459.977C278.558 459.977 283.874 459.427 288.333 460.052C291.243 460.748 294.008 461.184 296.998 461.138L303.614 461.56C302.406 461.65 302.05 461.654 301 462.255L300.53 462.454C299.941 462.723 299.618 463.057 299.17 463.509L263.862 463.814C262.181 461.839 244.606 464.824 241.25 462.817C241.362 462.043 241.405 461.442 241.322 460.654L241.234 459.976Z"/>
	<defs>
		<linearGradient id="gradient_3" gradientUnits="userSpaceOnUse" x1="639.90759" y1="454.32877" x2="640.80951" y2="442.92569">
			<stop offset="0" stop-color="#058AC4"/>
			<stop offset="1" stop-color="#3AAED7"/>
		</linearGradient>
	</defs>
	<path fill="url(#gradient_3)" transform="scale(0.5 0.5)" d="M659.341 446.514L677.798 446.716C680.755 446.738 684.137 446.443 687.041 446.912L686.479 446.973L672.064 447.25C673.687 447.655 675.342 448.088 677 448.313C679.145 448.603 687.724 447.969 688.544 448.909L683.459 449.106C686.157 449.399 688.027 448.703 690.246 450.465L654.354 450.754C643.343 452.18 631.587 450.656 620.5 450.601C610.605 450.551 600.465 451.751 590.616 450.548C591.312 450.133 591.708 450.034 592.533 449.9L593.5 449.755C596.113 449.221 598.838 449.229 601.512 449.034C604.827 448.617 608.55 448.948 611.908 448.963L632.36 449.08L657.699 448.389C658.703 447.77 659.155 447.777 660.288 447.667L660.753 447.625L659.433 446.916L659.341 446.514Z"/>
	<path fill="#22BEEF" transform="scale(0.5 0.5)" d="M483.566 446.535L587.477 446.987L586.586 447.863C589.228 450.01 597.987 449.04 601.512 449.034C598.838 449.229 596.113 449.221 593.5 449.755L592.533 449.9C591.708 450.034 591.312 450.133 590.616 450.548L510.479 450.963L497.157 450.839C495.93 450.845 493.797 450.578 492.65 450.915C491.326 450.809 487.245 450.947 486.277 450.407C485.443 449.943 484.13 448.255 483.409 447.532L483.566 446.535Z"/>
	<path fill="#22BEEF" transform="scale(0.5 0.5)" d="M329.172 460.016L434.795 460.067C436.128 460.344 437.358 460.618 438.644 461.059C443.235 462.634 449.165 460.478 454 462.031C454.991 462.35 454.487 462.236 455.495 462.245C456.517 462.255 456.966 462.584 457.852 463.02L458.215 463.172L456.886 464.204L299.17 463.509C299.618 463.057 299.941 462.723 300.53 462.454L301 462.255C302.05 461.654 302.406 461.65 303.614 461.56C306.27 461.881 309.879 462.091 312.5 461.629C317.918 460.675 323.925 462.172 329.172 460.016Z"/>
	<path fill="#21BEF4" transform="scale(0.5 0.5)" d="M93.0751 460.005C106.258 458.754 120.077 459.579 133.315 459.852L154.777 459.601L181.263 459.941L207.764 459.822C210.098 459.856 213.55 459.459 215.771 460.013C216.969 460.307 218.011 460.579 219.252 460.625L219.197 461.159C219.144 461.803 219.181 462.361 219.25 463L217.039 463.125L220.722 463.946L90.6009 464.486L86.755 463.75L86.8665 462.25C88.2451 460.503 90.9337 460.421 93.0751 460.005Z"/>
	<path fill="#21BEF4" transform="scale(0.5 0.5)" d="M687.041 446.912L736.25 446.845L881.715 447.031L919.184 447.192C923.047 447.24 928.508 446.379 932.07 447.732C931.622 448.733 931.256 449.705 930.582 450.578C927.651 451.437 924.403 451.02 921.376 450.939L904.75 450.549L872.809 450.884L825.15 450.877L690.246 450.465C688.027 448.703 686.157 449.399 683.459 449.106L688.544 448.909C687.724 447.969 679.145 448.603 677 448.313C675.342 448.088 673.687 447.655 672.064 447.25L686.479 446.973L687.041 446.912Z"/>
	<path fill="#22BEEF" transform="scale(0.5 0.5)" d="M825.15 450.877C825.954 450.109 825.471 450.291 826.481 450.303C830.044 450.343 833.165 449.167 836.706 449.081C847.097 448.828 857.654 449.681 868 448.446C868.859 449.016 869.213 449.326 869.644 450.269C870.824 450.376 871.686 450.444 872.809 450.884L825.15 450.877Z"/>
	<path fill="#21BEF4" transform="scale(0.5 0.5)" d="M490.517 438.11C495.249 437.471 499.99 437.733 504.751 437.787L523.017 437.777L611.305 438.026L757.201 437.486L891.887 437.614L922.5 438.021C924.044 438.021 926.773 437.663 928.047 438.559C928.783 439.077 929.422 439.752 930.025 440.412L930.131 441.912C929.833 442.154 929.605 442.53 929.236 442.639C928.674 442.804 927.239 442.51 926.553 442.471L919 442.143L882.479 441.849L706.25 442.23L691.158 441.737L660.26 442.037L620.356 442.04L535.594 442.022C519.952 442.073 503.547 443.956 488.057 441.682L490.517 438.11Z"/>
	<defs>
		<linearGradient id="gradient_4" gradientUnits="userSpaceOnUse" x1="684.7674" y1="455.06073" x2="684.73535" y2="465.54623">
			<stop offset="0" stop-color="#007CB1"/>
			<stop offset="1" stop-color="#14C3EF"/>
		</linearGradient>
	</defs>
	<path fill="url(#gradient_4)" transform="scale(0.5 0.5)" d="M492.103 456.604L884.312 456.134L912.515 456.157C919.775 456.105 927.149 455.755 934.376 456.526L933.789 457.914L934.018 460.442L934.348 461.624L934.529 465.125C930.906 465.735 927.056 465.491 923.391 465.509L904.326 465.567C894.206 465.583 883.355 466.406 873.318 465.464L456.886 464.204L458.215 463.172L457.852 463.02C456.966 462.584 456.517 462.255 455.495 462.245C454.487 462.236 454.991 462.35 454 462.031C449.165 460.478 443.235 462.634 438.644 461.059C437.358 460.618 436.128 460.344 434.795 460.067L477.334 458.955L492.103 456.604Z"/>
	<path fill="#0281B4" transform="scale(0.5 0.5)" d="M884.312 456.134L912.515 456.157C919.775 456.105 927.149 455.755 934.376 456.526L933.789 457.914L934.018 460.442C928.569 460.434 922.893 460.735 917.5 459.89C912.186 459.057 906.622 459.441 901.25 459.39L872.005 458.838L872.25 458.5C871.585 458.161 871.893 458.264 871.095 458.105L870.503 457.998L870.503 457.502C871.329 456.978 871.67 456.871 872.672 456.883C876.04 456.924 880.13 457.367 883.359 456.43L884.312 456.134Z"/>
	<path fill="#21BEF4" transform="scale(0.5 0.5)" d="M873.318 465.464L871.747 464.274C866.289 464.229 860.542 463.821 855.138 464.62L854.511 464.723C852.991 463.625 851.649 464.383 850.002 464.027C844.9 462.924 839.356 464.004 834.026 463.959C835.863 463.255 837.687 462.52 839.623 462.132L840.25 462.013C843.304 461.408 846.859 461.287 849.96 461.629C855.644 462.255 860.862 461.458 866.495 461.413L878.604 461.893L908.751 461.501L927.303 461.054C929.577 461.042 932.279 460.639 934.348 461.624L934.529 465.125C930.906 465.735 927.056 465.491 923.391 465.509L904.326 465.567C894.206 465.583 883.355 466.406 873.318 465.464Z"/>
	<path fill="#D62828" transform="scale(0.5 0.5)" d="M830.466 509.233L934.87 469.253C938.881 490.679 939.653 512.705 939.625 534.456C939.613 544.391 939.056 554.506 939.63 564.417L935.952 564.438L824.024 559.6L830.466 509.233Z"/>
	<path fill="white" transform="scale(0.5 0.5)" d="M404.022 560.422L469.75 560.436L564.518 560.134L583.117 560.149C586.216 560.164 590.294 560.664 593.156 559.57C603.107 555.767 614.124 553.538 624.736 552.738C630.012 552.341 635.444 551.998 640.732 552.153C644.009 552.249 651.858 554.028 654.472 552.626C657.478 551.013 660.207 548.906 663.048 547.026L683.183 533.281L743.339 492.389L767.478 475.855C771.618 473.091 777.419 468.449 782.411 467.539C787.231 466.661 792.706 467.032 797.619 466.989L826.188 466.962C828.547 466.99 833.009 466.397 835 467.082C835.384 467.215 835.68 467.527 836.02 467.75C835.969 470.083 835.971 470.482 834.686 472.401C834.424 476.01 834.839 479.663 834.411 483.234C833.363 491.979 831.355 500.422 830.466 509.233L824.024 559.6L935.952 564.438C936.971 569.145 935.719 574.42 937.299 578.915L937.523 579.535L937.073 580.402L708.127 582.319L707.867 581.943C698.999 569.557 672.187 562.715 658 560.506C630.339 556.198 599.715 555.353 575.999 572.714C570.881 576.46 568.58 579.409 567.436 585.747L434.589 574.779C414.153 572.894 393.132 568.913 372.593 570.106C357.508 570.983 341.806 574.438 328.687 582.206C329.135 581.036 328.84 581.433 329.698 580.586C349.815 560.745 377.639 559.873 404.022 560.422Z"/>
	<path transform="scale(0.5 0.5)" d="M824.024 559.6L663.654 556.157L664.144 555.516C666.725 552.856 670.498 550.933 673.671 549.073L684.515 542.151L720.536 516.899L743 501.496L765.919 484.651C771.021 480.897 776.688 475.765 782.757 473.806C788.961 471.803 797.96 472.54 804.5 472.511L834.686 472.401C834.424 476.01 834.839 479.663 834.411 483.234C833.363 491.979 831.355 500.422 830.466 509.233L824.024 559.6Z"/>
	<path fill="#F77F00" transform="scale(0.5 0.5)" d="M760.397 509.585C763.814 509.623 765.162 510.409 768.002 512.25C767.935 513.41 768.022 514.229 767.25 515.164L765.625 515.104C763.23 515.102 758.756 515.625 757.074 514L757.061 511.75C758.076 510.369 758.775 510.077 760.397 509.585Z"/>
	<path fill="#D62828" transform="scale(0.5 0.5)" d="M84.4551 473.94L465.752 474.549L404.022 560.422C377.639 559.873 349.815 560.745 329.698 580.586C328.84 581.433 329.135 581.036 328.687 582.206C326.032 584.379 318.33 589.703 317.862 592.832L317.176 593.13C315.383 593.856 312.923 593.701 311 593.855C308.049 594.09 305.065 594.567 302.183 595.25C292.512 597.543 282.722 601.646 273.442 605.208C265.972 608.076 258.507 612.375 252.053 617.087C249.007 619.311 245.887 622.443 242.5 624.061C239.883 625.312 236.827 625.559 234.078 626.462C225.362 629.323 216.474 631.849 208 635.381C197.602 639.715 187.398 645.458 177.961 651.607C171.709 655.681 165.927 660.141 159.486 663.955L159.159 664.926L159.501 665.498C159.477 667.821 161.016 669.714 162.58 671.319L167.24 675.275L135.557 675.381C127.544 675.3 117.875 673.625 110.212 676.076C108.585 672.977 107.486 669.327 106.193 666.059L96.7286 639.131C84.0877 598.036 78.0463 554.856 80.5362 511.866L84.4551 473.94Z"/>
</svg>
