<?xml version="1.0" encoding="utf-8" ?>
<svg xmlns="http://www.w3.org/2000/svg" xmlns:xlink="http://www.w3.org/1999/xlink" width="512" height="512">
	<path transform="scale(0.5 0.5)" d="M-0 -0L1024 0L1024 1024L-0 1024L0 -0Z"/>
	<path fill="#FEFFFE" transform="scale(0.5 0.5)" d="M249.554 53.75L251.75 54.1462C252.329 55.523 252.062 55.9461 251.75 57.3736C250.591 57.4726 250.023 57.2367 248.978 56.75C248.868 55.3243 248.952 55.055 249.554 53.75Z"/>
	<path fill="#FEFFFE" transform="scale(0.5 0.5)" d="M116.226 71.25L117.022 71.3349C118.19 71.7043 118.428 72.2331 118.848 73.25L117.75 74.8158L116.14 75.2896C114.935 74.0025 115.15 73.7186 115.094 72.0156L116.226 71.25Z"/>
	<path fill="#FEFFFE" transform="scale(0.5 0.5)" d="M127.916 23.75C128.739 23.5891 129.659 23.6138 130.5 23.5652L131.344 24.5L130.75 26.7718L129.492 27.5086L128.377 27.1306C127.572 25.5261 127.557 25.5064 127.916 23.75Z"/>
	<path fill="#FEFFFE" transform="scale(0.5 0.5)" d="M184.094 136.25L186 135.805L186.999 136.5C187.15 138.221 186.82 138.804 186.011 140.25L184.792 140.349C183.576 139.329 183.49 139.28 183.106 137.75L184.094 136.25Z"/>
	<path fill="#FEFFFE" transform="scale(0.5 0.5)" d="M193.993 96.25L194.595 96.0441C196.135 95.7819 196.397 96.0957 197.552 96.9875C198.247 98.6797 198.306 98.6551 197.75 100.385C196.705 101.142 195.989 101.035 194.75 101.036L193.75 99.8994C193.466 98.3933 193.467 97.7528 193.993 96.25Z"/>
	<path fill="#FEFFFE" transform="scale(0.5 0.5)" d="M151.223 66.75C152.153 66.5264 151.697 66.5701 152.849 66.6521C154.117 66.7422 153.966 66.9774 154.75 67.8799C154.969 69.5908 155.13 69.8067 154.25 71.3706L153.5 71.5124C151.779 71.714 151.297 71.3096 150.006 70.25C150.032 68.3117 150.021 68.2643 151.223 66.75Z"/>
	<path fill="#FEFFFE" transform="scale(0.5 0.5)" d="M879.56 69.75L880.121 69.5959C881.95 69.3823 882.138 69.9714 883.33 71.1322C883.315 72.8388 883.09 73.1314 882.25 74.5473L881.219 75.0539C879.516 74.8279 879.556 74.7747 878.386 73.5C878.473 71.6317 878.426 71.341 879.56 69.75Z"/>
	<path fill="#FEFFFE" transform="scale(0.5 0.5)" d="M881.992 32.25C882.731 32.0839 883.495 32.1449 884.25 32.141C885.414 33.1755 885.975 33.4999 886.482 35C886.064 36.6107 885.907 36.8752 884.75 38.0735L883.609 38.2644C881.83 37.6411 881.644 37.3855 880.492 36C880.594 33.9176 880.485 33.8764 881.992 32.25Z"/>
	<path fill="#FEFFFE" transform="scale(0.5 0.5)" d="M837.216 109.25C838.246 111.43 838.576 113.899 839.056 116.25C840.109 117.469 840.962 118.194 842.365 118.995L842.791 119.233C841.185 120.3 839.89 121.153 838.852 122.81C838.382 123.561 838.747 123.036 838 123.998L836.75 122.94C834.825 121.149 832.429 120.394 829.931 119.836L829.21 119.682C831.034 118.996 833.537 118.464 835.087 117.348C836.974 115.989 837.01 111.417 837.216 109.25Z"/>
	<path fill="#F7DEB4" transform="scale(0.5 0.5)" d="M399.903 848.108C408.157 848.001 417.164 849.759 425.205 851.555C429.627 852.543 433.831 853.217 438.117 854.812L436.852 856.836C431.496 854.258 425.225 853.457 419.395 852.481L395.967 849.12C397.391 848.97 398.697 848.965 399.903 848.108Z"/>
	<defs>
		<linearGradient id="gradient_0" gradientUnits="userSpaceOnUse" x1="595.59351" y1="893.05005" x2="587.04608" y2="908.30823">
			<stop offset="0" stop-color="#DEA372"/>
			<stop offset="1" stop-color="#EAE191"/>
		</linearGradient>
	</defs>
	<path fill="url(#gradient_0)" transform="scale(0.5 0.5)" d="M609.379 899.232C610.048 900.159 610.16 900.884 610.342 902C608.071 903.538 575.736 901.965 569.809 902.01L570.189 900.769L575.258 900.084L609.379 899.232Z"/>
	<path fill="#F0E4C6" transform="scale(0.5 0.5)" d="M548.7 855.04C551.456 854.141 554.235 853.026 557.047 852.328C560.097 851.572 563.389 851.42 566.5 850.967L588.974 848.079C594.858 847.428 600.982 846.274 606.892 846.143L606.858 847.085C605.369 847.121 603.908 847.101 602.461 847.49C601.297 847.803 600.257 847.86 599.062 847.906L598.75 848.755C600.459 849.034 600.787 848.204 602.156 848.316C604.042 848.47 605.461 848.39 607.254 847.769L607.641 848.004C608.181 848.307 608.674 848.455 609.264 848.619L579.114 851.993L565.009 853.448C559.727 853.97 555.217 854.213 550.328 856.492L548.7 855.04Z"/>
	<path fill="#FCBF49" transform="scale(0.5 0.5)" d="M416.8 900.682L454.234 899.935C460.319 899.918 468.907 898.858 474.665 900.857L474.886 901.359L474.655 901.922L417.721 903.01L396.446 902.734C400.975 899.955 409.209 900.653 414.447 900.496L416.8 900.682Z"/>
	<path fill="#FEFFFE" transform="scale(0.5 0.5)" d="M640.723 902.25L641.368 902.013C642.884 901.666 645.218 901.968 646.798 901.979L665.5 902.778L700.265 904.579C703.549 904.774 710.308 904.392 713.091 905.961L713.25 907.62C708.511 908.458 702.182 907.503 697.312 907.298L654.547 905.076C650.848 904.832 644.578 905.297 641.25 903.984L640.723 902.25Z"/>
	<path fill="#F7DEB4" transform="scale(0.5 0.5)" d="M307.523 861.046C305.258 861.521 302.707 861.298 300.386 861.298L287.25 861.301L230.872 861.038C217.885 861.011 204.461 861.781 191.558 860.34L191.134 859.633C191.949 859.003 192.456 858.651 193.503 858.498C195.363 858.225 197.592 858.804 199.5 858.837L216.71 858.52L286.792 859.142C292.897 859.058 299.545 858.509 305.593 859.177C306.973 859.329 308.715 859.443 309.814 860.335C308.954 860.934 308.571 861.051 307.523 861.046Z"/>
	<path fill="#FEFFFE" transform="scale(0.5 0.5)" d="M286.792 859.142C292.897 859.058 299.545 858.509 305.593 859.177C306.973 859.329 308.715 859.443 309.814 860.335C308.954 860.934 308.571 861.051 307.523 861.046C304.339 860.656 300.848 860.906 297.631 860.888L280.511 860.76L280.752 860.375L280.354 859.853C282.41 859.79 284.359 859.735 286.373 859.249L286.792 859.142Z"/>
	<defs>
		<linearGradient id="gradient_1" gradientUnits="userSpaceOnUse" x1="350.66016" y1="824.2901" x2="345.63083" y2="846.13202">
			<stop offset="0" stop-color="#F4ECD7"/>
			<stop offset="1" stop-color="#FEFCFB"/>
		</linearGradient>
	</defs>
	<path fill="url(#gradient_1)" transform="scale(0.5 0.5)" d="M315.326 810.776L314.786 810.178C318.752 811.649 323.423 822.92 325.284 826.981C326.968 830.655 327.919 833.841 331.336 836.25C338.958 837.663 347.035 836.955 354.75 838.309C361.224 839.445 366.651 842.48 372.869 844.105C381.612 846.389 390.97 846.731 399.903 848.108C398.697 848.965 397.391 848.97 395.967 849.12C387.645 848.089 379.138 847.873 370.86 846.573C364.738 845.612 358.694 843.591 352.518 842.972C341.806 841.897 330.805 842.653 320.15 841.288C318.111 841.026 316.522 840.418 314.75 839.395L314.588 838.75C317.221 838.646 319.906 838.635 322.495 838.105C323.81 837.836 323.722 837.86 324.454 836.75C323.892 832.748 322.116 828.686 320.731 824.902C319.062 820.343 317.537 815.584 315.514 811.176L315.326 810.776Z"/>
	<path fill="#F8EFEA" transform="scale(0.5 0.5)" d="M606.892 846.143C617.61 843.949 628.987 843.524 639.86 842.225L763.279 828.85C767.694 828.546 772.846 827.029 777.132 827.933C774.385 828.9 771.296 830.601 768.541 831.228C763.388 832.403 757.653 832.604 752.384 833.257L714.08 837.838L609.264 848.619C608.674 848.455 608.181 848.307 607.641 848.004L607.254 847.769C605.461 848.39 604.042 848.47 602.156 848.316C600.787 848.204 600.459 849.034 598.75 848.755L599.062 847.906C600.257 847.86 601.297 847.803 602.461 847.49C603.908 847.101 605.369 847.121 606.858 847.085L606.892 846.143Z"/>
	<path fill="#F77F00" transform="scale(0.5 0.5)" d="M438.117 854.812C446.28 857.631 456.403 855.889 464.967 855.996L529.007 856.169C531.219 856.154 548.384 854.817 548.7 855.04L550.328 856.492C548.235 858.495 547.006 859.599 546.75 862.674L546.094 862.125C543.827 860.419 532.941 860.389 530.118 861.08C529.066 861.338 528.053 862.074 527.162 862.671L527.065 863.367C533.747 864.471 540.273 864.685 547.034 864.395C548.343 867.013 550.037 871.028 552.987 872.126C556.823 873.554 562.489 873.291 566.632 873.606L582.705 875.176L582.9 875.795C584.393 880.21 587.557 883.512 590.895 886.625L591.465 887.193C594.58 890.088 609.347 888.72 609.506 890.705C609.738 893.606 608.623 896.139 609.379 899.232L575.258 900.084L570.189 900.769L569.809 902.01C564.846 902.664 558.826 902.01 553.765 901.96C552.385 901.986 543.274 901.407 542.886 902C541.972 903.393 543.234 904.362 541.5 905.802C534.526 905.961 482.742 906.774 480.25 905.345C480.116 904.089 480.132 903.003 479.25 902.014L474.655 901.922L474.886 901.359L474.665 900.857C468.907 898.858 460.319 899.918 454.234 899.935L416.8 900.682L414.447 900.496C414.451 899.622 414.324 892.404 414.478 892.24C414.571 892.141 430.025 889.191 432.25 888.418C434.649 887.585 437.26 886.492 439.25 884.914C441.143 883.413 443.537 879.737 445.605 878.837C448.573 877.547 455.071 878.062 458.379 878.027C463.915 877.967 497.873 878.297 500.5 876.894C500.872 876.695 501.097 876.298 501.396 876C501.236 875.719 501.155 875.374 500.916 875.157C500.913 875.155 499.747 875.053 499.7 875.049C493.794 874.546 487.804 874.328 481.878 874.547C479.828 874.623 476.35 875.246 474.56 874.536C472.798 873.838 470.165 874.103 468.25 874.083L455.394 873.954C451.352 873.907 446.037 874.455 442.85 871.533L443.069 870.75C445.207 870.21 447.348 869.89 448.92 868.25C446.502 863.015 441.447 859.951 436.852 856.836L438.117 854.812Z"/>
	<path fill="#FCBF49" transform="scale(0.5 0.5)" d="M553.765 901.96L552.059 901.311L552.142 900.75L575.258 900.084L570.189 900.769L569.809 902.01C564.846 902.664 558.826 902.01 553.765 901.96Z"/>
	<path fill="#F77F00" transform="scale(0.5 0.5)" d="M483.346 911.175L537.94 911.073C542.446 911.239 546.583 912.946 551 913.672L574.336 916.783L607.447 920.525L620.25 921.707C622.358 921.868 624.852 921.685 626.884 922.229C627.656 922.435 628.272 923.334 628.829 923.896C636.141 931.26 643.626 938.121 653.25 942.363C657.356 944.172 661.83 945.451 666.178 946.528C669.284 947.297 678.41 947.861 680.296 949.877L679.949 950.387C678.798 951.716 676.546 952.592 674.964 953.367C670.123 955.739 665.074 957.535 660.001 959.341L636.484 967.345C596.966 978.908 555.404 984.16 514.375 985.576C496.103 985.515 477.746 985.313 459.555 983.366C424.96 979.663 390.706 971.63 357.678 960.82C347.606 957.523 337.942 953.624 328.19 949.493C324.442 947.906 320.445 946.647 316.899 944.654C327.556 944.473 338.498 944.162 348.89 941.637C357.953 939.435 364.9 935.761 372.041 929.774C374.598 927.63 377.058 925.605 378.763 922.691L379.048 922.179L483.346 911.175Z"/>
	<path fill="#01ADF3" transform="scale(0.5 0.5)" d="M423.263 55.9757C438.75 52.5944 454.806 50.7564 470.606 49.5428C482.673 48.616 494.629 47.625 506.75 47.5744L549.813 49.5097C564.473 50.5666 579.225 51.7669 593.703 54.3797C621.917 59.4711 649.287 68.1054 676.073 78.1853C687.165 82.3596 698.278 86.4292 708.986 91.5476L720.003 97.2953C730.225 102.39 740.527 107.561 750.149 113.742C766.652 124.34 783.052 134.909 798.63 146.853C823.494 165.917 847.232 188.11 867.572 211.986C870.057 214.903 872.1 218.174 874.569 221.115L892.204 242.728L899.25 253.121C902.105 257.153 905.324 261.008 907.978 265.171C920.814 285.309 932.273 306.724 942.86 328.107C938.884 329.363 930.354 324.027 926.288 322.5L850 292.496L824.546 281.107C819.591 278.781 814.738 276.022 809.651 274.015C808.642 273.617 806.167 272.503 805.144 272.533C804.602 272.549 802.747 273.695 802.195 273.962L793.66 277.914C788.302 276.943 783.972 274.931 779.019 272.862L769.868 269.29L743.427 256.48L696.93 234.729C687.193 230.188 676.895 225.716 667.547 220.445C660.448 216.442 653.812 211.339 647.123 206.691L615.389 185.783L554 150.505L484.402 106.039L466.75 92.5078L443.925 74.3948L423.263 55.9757Z"/>
	<path fill="#BCC5D0" transform="scale(0.5 0.5)" d="M743.983 157.25L745.205 157.142C746.48 158.2 746.79 158.657 747.243 160.25C746.58 161.559 746.098 161.449 744.75 161.917C743.784 161.992 743.33 161.948 742.456 161.522C741.77 160.051 741.47 159.757 741.75 158.112L743.983 157.25Z"/>
	<path fill="#003049" transform="scale(0.5 0.5)" d="M246.605 131.927C256.344 123.02 268.384 116.355 279.752 109.786L291.949 102.399C323.973 84.9653 358.11 72.7627 393.074 62.75C402.996 59.9085 413.36 58.9924 423.263 55.9757L443.925 74.3948L466.75 92.5078L484.402 106.039L554 150.505L615.389 185.783L647.123 206.691C653.812 211.339 660.448 216.442 667.547 220.445C676.895 225.716 687.193 230.188 696.93 234.729L743.427 256.48L769.868 269.29L779.019 272.862C783.972 274.931 788.302 276.943 793.66 277.914L802.195 273.962C802.747 273.695 804.602 272.549 805.144 272.533C806.167 272.503 808.642 273.617 809.651 274.015C814.738 276.022 819.591 278.781 824.546 281.107L850 292.496L926.288 322.5C930.354 324.027 938.884 329.363 942.86 328.107C947.729 335.771 950.339 346.15 953.445 354.671C954.626 357.911 956.251 360.988 957.322 364.259C958.771 368.685 959.334 373.774 961.399 377.93C963.765 382.791 965.041 388.319 966.516 393.513C969.822 405.152 973.049 417.35 974.732 429.335L943.96 432.829L880 440.617L848.155 444.663C841.964 445.434 835.523 446.515 829.288 446.574C825.16 446.784 820.981 446.928 816.883 447.478C814.027 447.861 811.279 448.571 808.393 448.838L724.763 458.891L715.344 459.723L607.277 472.292L579 475.1C574.967 475.431 566.532 475.019 563.365 477.289C558.72 477.304 553.855 477.112 549.236 477.617C542.701 478.332 536.859 480.254 530.675 482.279C528.964 481.483 526.967 481.269 525.128 480.864L510.364 478.324L458.523 469.412C446.926 467.718 434.923 467.01 423.469 464.572C414.405 462.643 405.671 459.826 396.81 457.216L372.728 451.185L346.582 442.932L322.423 436.775L307.15 432.14L246.161 413.419C238.346 410.622 230.845 406.928 223.143 403.831C217.211 401.445 210.692 398.887 205.242 395.55C197.544 390.837 190.482 383.95 184.155 377.56C174.503 367.811 166.052 357.43 158.475 346C156.404 342.875 154.008 339.868 152.195 336.596C150.997 334.433 150.181 332.036 149.053 329.822C141.798 315.578 135.955 300.798 131.936 285.28C130.505 279.751 129.609 273.95 128.873 268.291L127.615 256.757C127.423 255.163 127.39 253.147 126.706 251.68L126.398 251.061L166.309 201.816C168.803 198.888 172.147 196.803 174.782 194.003C192.215 175.485 211.571 158.567 231.836 143.2L246.605 131.927Z"/>
	<path fill="#C1FAFF" transform="scale(0.5 0.5)" d="M891.069 326.75C892.462 326.9 892.731 327.252 893.855 328.128C893.941 329.662 893.877 329.564 892.873 330.75C891.577 331.05 891.587 331.118 890.421 330.505C890.007 328.691 890.341 328.404 891.069 326.75Z"/>
	<path fill="#FEFFFE" transform="scale(0.5 0.5)" d="M514.309 233.75L515.754 233.495C516.953 234.198 517.384 234.228 517.893 235.5L516.127 237.75C515.51 238.088 515.124 238.143 514.44 238.25L513.106 237C513.02 235.224 513.3 235.135 514.309 233.75Z"/>
	<path fill="#FEFFFE" transform="scale(0.5 0.5)" d="M764.447 291.75C765.264 291.631 765.965 291.73 766.75 292.028C767.863 292.45 768.528 293.204 768.97 294.25L767.75 296.055C767.343 296.197 766.929 296.367 766.492 296.398C765.374 296.475 764.525 295.97 763.631 295.39C763.518 293.584 763.592 293.351 764.447 291.75Z"/>
	<path fill="#FEFFFE" transform="scale(0.5 0.5)" d="M396.154 174.75L397.75 174.864C399.324 175.997 399.582 177.018 400.401 178.75L399.75 179.857C398.243 180.249 397.648 179.974 396.25 179.448C394.912 177.845 395.036 177.73 394.998 175.75L396.154 174.75Z"/>
	<path fill="#FEFFFE" transform="scale(0.5 0.5)" d="M449.218 112.25C450.214 111.985 450.579 112.07 451.568 112.25C452.609 113.06 453.542 113.811 453.702 115.25C453.894 116.973 453.003 117.588 451.99 118.75C450.577 119.046 450.004 119.327 448.75 118.368C447.807 117.647 447.41 116.396 447.444 115.25C447.485 113.887 448.337 113.148 449.218 112.25Z"/>
	<path fill="#FEFFFE" transform="scale(0.5 0.5)" d="M333.412 137.75C334.289 137.66 335.026 137.617 335.899 137.791C338.546 138.318 340.311 139.256 341.75 141.55C342.041 142.962 342.087 143.969 341.612 145.358C340.895 147.455 339.71 148.556 337.75 149.476C336.39 149.593 334.905 149.778 333.57 149.412C331.897 148.954 330.184 147.425 329.444 145.862C328.886 144.684 328.849 143.256 329.331 142.044C330.138 140.014 331.51 138.709 333.412 137.75Z"/>
	<path fill="#D62828" transform="scale(0.5 0.5)" d="M246.605 131.927C252.319 136.763 258.277 141.765 264.5 145.928C275.753 153.456 287.741 159.379 299.404 166.139L309 172.09L332.032 183.925L404.556 220.829L471.746 254.621L510.936 272.692L532.516 283.226L573.89 301.57L631.69 327.369L644.329 332.185L682.89 348.603L730 366.992L756.668 376.44L788 387.987L807.25 394.281L819.108 398.893L869.795 415.684C895.347 408.63 920.826 397.972 944.71 386.549L961.399 377.93C963.765 382.791 965.041 388.319 966.516 393.513C969.822 405.152 973.049 417.35 974.732 429.335L943.96 432.829L880 440.617L848.155 444.663C841.964 445.434 835.523 446.515 829.288 446.574C829.036 445.597 829.167 444.727 829.067 443.75C828.578 438.997 821.724 437.535 818.271 434.831C817.593 434.3 817.083 433.928 816.281 433.605C815.315 433.215 815.703 433.461 814.967 432.881C812.993 431.324 807.488 432.33 804.75 432.079C802.461 431.868 800.162 431.31 797.915 430.823C780.897 427.135 764.228 422.013 747.518 417.173L734.679 413.907L709.467 406.153L692.25 401.515L607.352 375.826L546.907 358.459L510.05 345.488C502.869 342.796 495.925 339.608 488.401 337.915C483.606 336.836 478.603 336.346 473.74 335.635L445.72 331.578L401 324.956L386.239 322.087L367.98 319.871L343.403 315.705C334.504 314.269 325.26 313.148 316.5 311.001C300.252 307.019 283.861 300.732 268.475 294.168C242.723 283.182 217.293 268.823 196.991 249.337C190.853 243.446 184.903 237.257 180.121 230.19C174.354 221.667 170.121 211.322 166.309 201.816C168.803 198.888 172.147 196.803 174.782 194.003C192.215 175.485 211.571 158.567 231.836 143.2L246.605 131.927Z"/>
	<path fill="#F7DEB4" transform="scale(0.5 0.5)" d="M498.031 280.75L499.219 280.613C500.393 281.673 500.611 281.724 500.916 283.25L499.75 284.518L497.75 284.455C497.064 283.577 496.803 283.187 496.75 282.064L498.031 280.75Z"/>
	<path fill="#F7DEB4" transform="scale(0.5 0.5)" d="M449.523 291.75L450.767 291.586C452.269 292.545 452.258 292.558 452.827 294.25L451.906 295.75C450.428 296.013 450.063 296.327 448.75 295.517C448.558 293.654 448.747 293.374 449.523 291.75Z"/>
	<path fill="#FEEEEE" transform="scale(0.5 0.5)" d="M268.572 235.25C270.536 234.958 270.435 235.136 271.947 236.25L272.005 238.25L270.84 239.25C269.515 239.501 268.987 239.445 267.75 238.905C267.441 237.347 267.966 236.691 268.572 235.25Z"/>
	<path fill="#FEFFFE" transform="scale(0.5 0.5)" d="M275.077 172.75C276.271 172.505 277.538 172.464 278.75 172.634C280.677 172.904 282.214 174.058 283.383 175.565C284.58 177.108 285.105 179.495 284.77 181.409C284.301 184.093 282.374 185.451 280.257 186.88C278.577 187.123 277.186 187.133 275.5 186.958C274.095 186.126 272.934 185.351 271.968 184.006C270.665 182.192 269.959 180.16 270.423 177.906C270.898 175.599 273.154 173.868 275.077 172.75Z"/>
	<path fill="#F77F00" transform="scale(0.5 0.5)" d="M166.309 201.816C170.121 211.322 174.354 221.667 180.121 230.19C184.903 237.257 190.853 243.446 196.991 249.337C217.293 268.823 242.723 283.182 268.475 294.168C283.861 300.732 300.252 307.019 316.5 311.001C325.26 313.148 334.504 314.269 343.403 315.705L367.98 319.871L386.239 322.087L401 324.956L445.72 331.578L473.74 335.635C478.603 336.346 483.606 336.836 488.401 337.915C495.925 339.608 502.869 342.796 510.05 345.488L546.907 358.459L607.352 375.826L692.25 401.515L709.467 406.153L734.679 413.907L747.518 417.173C764.228 422.013 780.897 427.135 797.915 430.823C800.162 431.31 802.461 431.868 804.75 432.079C807.488 432.33 812.993 431.324 814.967 432.881C815.703 433.461 815.315 433.215 816.281 433.605C817.083 433.928 817.593 434.3 818.271 434.831C821.724 437.535 828.578 438.997 829.067 443.75C829.167 444.727 829.036 445.597 829.288 446.574C825.16 446.784 820.981 446.928 816.883 447.478C814.027 447.861 811.279 448.571 808.393 448.838L724.763 458.891L715.344 459.723L607.277 472.292L579 475.1C574.967 475.431 566.532 475.019 563.365 477.289C558.72 477.304 553.855 477.112 549.236 477.617C542.701 478.332 536.859 480.254 530.675 482.279C528.964 481.483 526.967 481.269 525.128 480.864L510.364 478.324L458.523 469.412C446.926 467.718 434.923 467.01 423.469 464.572C414.405 462.643 405.671 459.826 396.81 457.216L372.728 451.185L346.582 442.932L322.423 436.775L307.15 432.14L246.161 413.419C238.346 410.622 230.845 406.928 223.143 403.831C217.211 401.445 210.692 398.887 205.242 395.55C197.544 390.837 190.482 383.95 184.155 377.56C174.503 367.811 166.052 357.43 158.475 346C156.404 342.875 154.008 339.868 152.195 336.596C150.997 334.433 150.181 332.036 149.053 329.822C141.798 315.578 135.955 300.798 131.936 285.28C130.505 279.751 129.609 273.95 128.873 268.291L127.615 256.757C127.423 255.163 127.39 253.147 126.706 251.68L126.398 251.061L166.309 201.816Z"/>
	<path transform="scale(0.5 0.5)" d="M126.398 251.061L126.706 251.68C127.39 253.147 127.423 255.163 127.615 256.757L128.873 268.291C129.609 273.95 130.505 279.751 131.936 285.28C135.955 300.798 141.798 315.578 149.053 329.822C150.181 332.036 150.997 334.433 152.195 336.596C154.008 339.868 156.404 342.875 158.475 346C166.052 357.43 174.503 367.811 184.155 377.56C190.482 383.95 197.544 390.837 205.242 395.55C210.692 398.887 217.211 401.445 223.143 403.831C230.845 406.928 238.346 410.622 246.161 413.419L307.15 432.14L322.423 436.775L346.582 442.932L372.728 451.185L396.81 457.216C405.671 459.826 414.405 462.643 423.469 464.572C434.923 467.01 446.926 467.718 458.523 469.412L510.364 478.324L525.128 480.864C526.967 481.269 528.964 481.483 530.675 482.279C536.859 480.254 542.701 478.332 549.236 477.617C553.855 477.112 558.72 477.304 563.365 477.289C566.532 475.019 574.967 475.431 579 475.1L607.277 472.292L715.344 459.723L724.763 458.891L808.393 448.838C811.279 448.571 814.027 447.861 816.883 447.478C820.981 446.928 825.16 446.784 829.288 446.574C835.523 446.515 841.964 445.434 848.155 444.663L880 440.617L943.96 432.829L974.732 429.335L982.977 500.497C984.168 525.288 982.033 549.518 978.711 574.052C977.685 581.633 976.962 589.245 975.294 596.72C973.582 608.044 970.477 618.979 967.483 630C964.079 642.529 960.902 655.147 956.624 667.426C954.41 673.781 951.491 679.78 948.988 686L938.863 709.659C934.216 719.622 929.22 730.14 923.516 739.549L915.475 754.248C901.673 777.596 886.406 799.868 868.379 820.156C862.272 827.03 856.363 833.714 849.174 839.504L848.662 839.114C837.124 830.55 820.672 825.729 806.453 825.124C802.612 824.96 798.707 825.372 794.867 825.584C791.683 825.76 788.218 825.653 785.095 826.212C782.434 826.689 779.82 827.694 777.132 827.933C772.846 827.029 767.694 828.546 763.279 828.85L639.86 842.225C628.987 843.524 617.61 843.949 606.892 846.143C600.982 846.274 594.858 847.428 588.974 848.079L566.5 850.967C563.389 851.42 560.097 851.572 557.047 852.328C554.235 853.026 551.456 854.141 548.7 855.04C548.384 854.817 531.219 856.154 529.007 856.169L464.967 855.996C456.403 855.889 446.28 857.631 438.117 854.812C433.831 853.217 429.627 852.543 425.205 851.555C417.164 849.759 408.157 848.001 399.903 848.108C390.97 846.731 381.612 846.389 372.869 844.105C366.651 842.48 361.224 839.445 354.75 838.309C347.035 836.955 338.958 837.663 331.336 836.25C327.919 833.841 326.968 830.655 325.284 826.981C323.423 822.92 318.752 811.649 314.786 810.178L315.326 810.776C311.453 811.096 306.903 810.382 302.976 810.169C303.444 819.83 303.538 829.779 305.428 839.265C300.781 840.364 296.321 842.161 291.738 843.498C285.095 845.435 274.889 846.605 269.356 850.913C268.454 851.616 267.422 852.688 266.964 853.75C266.492 854.847 266.762 855.692 265.75 856.572C257.862 855.942 250.325 856.413 242.446 856.473L206.57 856.538C202.17 856.541 194.791 857.465 190.661 856.18C185.768 854.658 180.191 847.618 176.481 843.922C166.406 833.889 156.357 823.348 147.385 812.319C135.909 798.211 125.714 783.347 115.884 768.071C109.773 758.573 103.6 749.012 98.4624 738.938C91.2391 727.436 85.4953 714.872 80.0018 702.482L66.5032 670.596C59.4739 651.513 54.487 632.159 50.2274 612.303C47.4974 599.577 44.8799 586.251 44.0627 573.239C42.9641 567.164 42.7794 560.764 42.3579 554.601L40.9048 521.521C40.1633 448.422 57.8738 375.222 90.8729 310.089C96.0071 299.955 101.179 289.704 107.093 280L126.398 251.061Z"/>
	<path fill="#01ADF3" transform="scale(0.5 0.5)" d="M627.532 622.805L615.768 621.163C613.901 620.915 611.179 620.923 609.535 620L609.75 619.118C614.068 617.392 623.615 620.119 628.211 621.035L627.532 622.805Z"/>
	<path fill="#FEFFFE" transform="scale(0.5 0.5)" d="M805.657 655.748L822.153 660.663L823.027 662.202L822.526 662.736L805.62 657.874C805.496 657.005 805.455 656.626 805.657 655.748Z"/>
	<path fill="#138AA2" transform="scale(0.5 0.5)" d="M628.211 621.035L648.66 623.921L645.122 624.264L644.952 625.357L627.532 622.805L628.211 621.035Z"/>
	<path fill="#F7DEB4" transform="scale(0.5 0.5)" d="M770.03 644.685L785.361 649.168C785.033 650.003 784.816 650.67 784.741 651.567L767.9 646.768L770.03 644.685Z"/>
	<path fill="#F0E4C6" transform="scale(0.5 0.5)" d="M785.361 649.168L805.657 655.748C805.455 656.626 805.496 657.005 805.62 657.874L784.741 651.567C784.816 650.67 785.033 650.003 785.361 649.168Z"/>
	<path fill="#01ADF3" transform="scale(0.5 0.5)" d="M648.66 623.921L678.25 628.999L694.649 631.687C697.408 632.127 700.651 632.304 703.25 633.308L703 633.858L644.952 625.357L645.122 624.264L648.66 623.921Z"/>
	<path fill="#F77F00" transform="scale(0.5 0.5)" d="M499.891 688.25C500.76 688.048 500.631 688.038 501.396 687.979C503.693 687.802 505.262 688.017 506.981 689.651C508.505 691.099 508.416 692.3 508.467 694.25C507.472 696.168 506.436 697.239 504.75 698.577C503.763 699.005 504.086 698.975 502.96 698.994C500.482 699.037 498.447 697.248 496.884 695.542C496.392 694.304 496.139 693.386 496.42 692.047C496.816 690.157 498.369 689.213 499.891 688.25Z"/>
	<path fill="#F77F00" transform="scale(0.5 0.5)" d="M557.51 691.75C558.778 691.323 560.837 691.079 562.134 691.512C564.629 692.344 566.242 695.476 567.443 697.641C566.05 699.259 564.779 700.563 562.997 701.75C561.901 702.127 561.046 702.417 559.875 702.254C557.721 701.955 555.751 700.545 554.543 698.75C553.9 697.794 553.804 696.751 554.03 695.644C554.409 693.797 556.034 692.708 557.51 691.75Z"/>
	<path fill="#F0E4C6" transform="scale(0.5 0.5)" d="M709.678 628.576L721.021 630.61C721.967 630.785 724.102 631.419 724.961 631.249L770.03 644.685L767.9 646.768L709.727 630.171L709.678 628.576Z"/>
	<path fill="#138AA2" transform="scale(0.5 0.5)" d="M471.566 588.874C473.462 589.14 475.106 589.44 476.897 590.128L476.918 590.862L475.693 591.023C471.567 591.253 466.77 590.244 462.643 589.8L426.095 585.428L383.564 580.25C379.733 579.739 375.805 579.601 372 578.939C370.991 578.764 370.169 578.446 369.403 577.75C375.302 577.53 381.789 578.762 387.672 579.343L430.947 584.055L445.936 586.039L471.566 588.874Z"/>
	<path fill="#D62828" transform="scale(0.5 0.5)" d="M725.62 706.75C727.624 706.043 730.055 706.302 732.154 706.334L748.051 707.087L791.907 709.665C792.398 711.194 791.885 712.21 791.505 713.75L790.703 714.455L725.25 711.346C724.723 709.915 725.331 708.203 725.62 706.75Z"/>
	<path fill="#D62828" transform="scale(0.5 0.5)" d="M236.221 616.25L304.75 632.632C304.04 633.456 303.883 634.275 303.626 635.301L303.517 635.75C303.315 636.396 303.128 636.701 302.75 637.245C287.262 635.306 271.93 630.017 256.803 626.219L241.687 622.746C239.628 622.2 237.314 621.775 235.618 620.435C235.47 618.777 235.299 617.742 236.221 616.25Z"/>
	<path fill="#FEFFFE" transform="scale(0.5 0.5)" d="M374.719 700.39L414.185 704.984C418.92 705.605 424.357 705.639 428.885 707.068C430.242 707.496 430.894 707.999 431.824 709.058C431.881 710.677 432.259 712.961 431.396 714.352C427.023 714.661 422.108 713.271 417.719 712.775L375.369 707.937L374.755 707.837L374.149 706.75C374.114 704.497 374.086 702.585 374.719 700.39Z"/>
	<path fill="#FEFFFE" transform="scale(0.5 0.5)" d="M667.943 749.573L598.232 746.502L599.147 744.572C600.311 742 601.567 740.576 603.557 738.646L659.801 742.624L668.631 742.99C668.541 745.152 668.645 747.514 667.943 749.573Z"/>
	<path fill="#FEFFFE" transform="scale(0.5 0.5)" d="M615.436 601.144L709.678 628.576L709.727 630.171L610.749 615.798L615.436 601.144Z"/>
	<defs>
		<linearGradient id="gradient_2" gradientUnits="userSpaceOnUse" x1="312.42026" y1="624.25043" x2="370.7897" y2="515.47198">
			<stop offset="0" stop-color="#F8F1D6"/>
			<stop offset="1" stop-color="white"/>
		</linearGradient>
	</defs>
	<path fill="url(#gradient_2)" transform="scale(0.5 0.5)" d="M201.621 563.173C219.337 562.034 237.261 563.874 254.942 564.753C264.768 565.241 274.964 564.749 284.679 566.399L346.36 568.942C351.876 569.083 357.764 570.308 363.162 569.414C371.639 568.008 381.488 569.225 390.144 569.227L426.477 568.603C437.833 568.818 449.037 570.126 460.344 570.973C466.173 571.409 473.818 570.967 479.086 573.476L478.012 586.448L472.163 585.87L444.253 582.566L427.824 580.931L275.237 568.553L202.457 565.212L201.621 563.173Z"/>
	<path fill="#FEFFFE" transform="scale(0.5 0.5)" d="M591.932 684.055L590.854 683.653C590.405 681.626 592.193 678.894 592.668 676.853C593.412 673.66 593.829 670.305 594.381 667.07L672.809 674.969L747.245 682.018L834.663 691.738C850.993 693.953 868.128 694.719 884.184 698.295C885.188 699.583 885.307 699.472 885.109 701.068C884.929 701.788 884.498 703.005 883.798 703.341C882.388 704.018 879.818 703.643 878.25 703.564L861.25 702.315L805.668 698.529L685.328 690.283L649.431 688.747L619.017 685.761L602.441 684.821C598.976 684.67 595.33 684.772 591.932 684.055Z"/>
	<path fill="#12B5F5" transform="scale(0.5 0.5)" d="M668.729 679.029C670.103 678.919 671.403 678.725 672.75 679.111L673.5 678.689C676.447 678.799 679.264 679.627 682.124 679.741C687.699 679.962 692.945 678.832 698.5 679.688C700.462 679.991 701.782 679.577 703.75 680.245L705.003 680.413L706.5 680.745L707.503 680.94L710.232 681.577C711.273 681.824 712.508 682.052 713.582 682.04L714.267 682.803L713 683.255L715.028 683.397L714.919 684.248C705.031 683.879 695.126 682.316 685.333 681.089C679.768 680.392 674.211 680.297 668.729 679.029Z"/>
	<path fill="#01ADF3" transform="scale(0.5 0.5)" d="M591.932 684.055L590.854 683.653C590.405 681.626 592.193 678.894 592.668 676.853C593.412 673.66 593.829 670.305 594.381 667.07L672.809 674.969C673.814 676.246 674.372 676.758 676.019 676.96L677.233 677.08C679.749 677.327 682.204 677.986 684.75 678.009C689.882 678.057 694.469 677.98 699.608 678.517C701.855 678.751 703.911 678.71 706.036 679.525C707.923 680.25 710.619 679.316 712 680.755L713.484 681.89L713.582 682.04C712.508 682.052 711.273 681.824 710.232 681.577L707.503 680.94L706.5 680.745L705.003 680.413L703.75 680.245C701.782 679.577 700.462 679.991 698.5 679.688C692.945 678.832 687.699 679.962 682.124 679.741C679.264 679.627 676.447 678.799 673.5 678.689L672.75 679.111C671.403 678.725 670.103 678.919 668.729 679.029L595.309 671.578L591.932 684.055Z"/>
	<defs>
		<linearGradient id="gradient_3" gradientUnits="userSpaceOnUse" x1="789.93317" y1="680.80804" x2="789.60059" y2="694.77606">
			<stop offset="0" stop-color="#0797E4"/>
			<stop offset="1" stop-color="#13C1EF"/>
		</linearGradient>
	</defs>
	<path fill="url(#gradient_3)" transform="scale(0.5 0.5)" d="M672.809 674.969L747.245 682.018L834.663 691.738C850.993 693.953 868.128 694.719 884.184 698.295C885.188 699.583 885.307 699.472 885.109 701.068L884.595 699.761L714.919 684.248L715.028 683.397L713 683.255L714.267 682.803L713.582 682.04L713.484 681.89L712 680.755C710.619 679.316 707.923 680.25 706.036 679.525C703.911 678.71 701.855 678.751 699.608 678.517C694.469 677.98 689.882 678.057 684.75 678.009C682.204 677.986 679.749 677.327 677.233 677.08L676.019 676.96C674.372 676.758 673.814 676.246 672.809 674.969Z"/>
	<path fill="#FEFFFE" transform="scale(0.5 0.5)" d="M167.075 585.074C168.663 583.381 169.221 583.498 171.538 583.422C177.22 583.235 182.781 585.071 188.341 586.104L209.545 589.781L221.893 591.354L244.5 595.571L259 597.938C260.007 598.141 262.516 598.392 263.314 598.929L305.562 606.923C308.274 607.456 312.826 607.671 315.198 608.83L336.781 612.449L471.599 634.75C471.674 639.222 472.821 646.146 471.594 650.435L471 651.873L468.53 651.771L454.458 650.577C450.714 650.35 446.829 650.384 443.121 649.836C435.602 648.725 428.111 646.535 420.703 644.809L370.001 632.836L244.82 604.998L217.995 599.323L198.468 594.644L174.77 589.858C171.775 589.283 168.453 589.453 165.595 588.435C165.662 586.898 166.242 586.342 167.075 585.074Z"/>
	<path fill="#C1FAFF" transform="scale(0.5 0.5)" d="M469.549 641.022C470.59 643.585 471.341 647.687 471.594 650.435L471 651.873L468.53 651.771L470.353 651L469.849 649.25C468.066 647.549 465.865 646.732 463.647 645.734C465.593 645.072 467.709 644.512 469.503 643.5L469.549 641.022Z"/>
	<path fill="#12B5F5" transform="scale(0.5 0.5)" d="M315.198 608.83L336.781 612.449L337.427 613.039C338.188 613.711 338.754 613.88 339.76 614.047L340.255 614.5C339.932 615.298 340.16 615.133 339.25 615.5L338.255 615.75L340.984 616.537L340.75 617L337.5 617.25L338.612 617.682L338.454 618.224L314.09 613.689L314.042 613.519L314.47 612.837L314.25 612.527L313.75 612L314.5 611.378L315.5 611.5L316.5 610.5C316.083 609.874 315.695 609.385 315.198 608.83Z"/>
	<path fill="#01ADF3" transform="scale(0.5 0.5)" d="M263.314 598.929L305.562 606.923C308.274 607.456 312.826 607.671 315.198 608.83C315.695 609.385 316.083 609.874 316.5 610.5L315.5 611.5L314.5 611.378L313.75 612L314.25 612.527L314.47 612.837L314.042 613.519L314.09 613.689L264.872 603.901C265.691 603.622 266.376 603.382 267.254 603.363L268 603.378L269.5 603.378L271.25 603.5C274.445 602.87 270.168 603.284 272.867 603.039C273.763 602.958 273.319 603.181 274 602.5L273.355 601.85C270.355 601.495 265.564 600.858 263.314 598.929Z"/>
	<path fill="#12B5F5" transform="scale(0.5 0.5)" d="M167.075 585.074C168.663 583.381 169.221 583.498 171.538 583.422C177.22 583.235 182.781 585.071 188.341 586.104L209.545 589.781L221.893 591.354L244.5 595.571L259 597.938C260.007 598.141 262.516 598.392 263.314 598.929C265.564 600.858 270.355 601.495 273.355 601.85L274 602.5C273.319 603.181 273.763 602.958 272.867 603.039C270.168 603.284 274.445 602.87 271.25 603.5L269.5 603.378L268 603.378L267.254 603.363C266.376 603.382 265.691 603.622 264.872 603.901C262.715 603.806 260.123 602.68 257.928 602.247L234.005 597.521L201.75 591.351C190.12 589.056 178.906 586.296 167.075 585.074Z"/>
	<path fill="#01ADF3" transform="scale(0.5 0.5)" d="M336.781 612.449L471.599 634.75C471.674 639.222 472.821 646.146 471.594 650.435C471.341 647.687 470.59 643.585 469.549 641.022C469.383 640.807 468.722 640.079 468.5 639.981C467.622 639.593 465.323 639.628 464.25 639.492L451.66 637.665L418.661 631.364L386.052 626.867L338.454 618.224L338.612 617.682L337.5 617.25L340.75 617L340.984 616.537L338.255 615.75L339.25 615.5C340.16 615.133 339.932 615.298 340.255 614.5L339.76 614.047C338.754 613.88 338.188 613.711 337.427 613.039L336.781 612.449Z"/>
	<path fill="#FEFFFE" transform="scale(0.5 0.5)" d="M530.675 482.279C536.859 480.254 542.701 478.332 549.236 477.617C553.855 477.112 558.72 477.304 563.365 477.289C570.878 478.119 578.29 480.942 585.441 483.276L585.797 484.107C586.905 486.426 591.644 488.816 593.712 490.512C596.62 492.896 599.338 495.411 601.753 498.301C605.014 502.202 606.929 506.545 609.59 510.81C618.908 525.747 624.794 543.202 623.954 560.945C623.524 570.05 621.768 579.52 620.75 588.624L618.791 588.552C619.856 578.86 619.808 569.707 616.807 560.332C611.647 544.209 602.607 530.493 587.179 522.648C573.228 515.554 556.153 515.38 541.484 520.213C518.788 527.689 502.847 545.104 492.267 565.864C490.912 553.708 489.429 542.88 490.717 530.639C490.936 530.431 491.345 528.626 491.47 528.217C492.143 526.022 492.952 523.909 493.896 521.817C498.453 511.717 505.862 499.576 514.491 492.441C519.411 488.372 525.128 485.38 530.675 482.279Z"/>
	<path transform="scale(0.5 0.5)" d="M554.355 482.2C563.082 481.887 572.273 482.7 580.25 486.624C589.199 491.027 598.573 499.841 601.869 509.26C589.273 502.34 577.377 498.689 563.125 497.025C544.96 496.656 529.312 500.009 513.041 508.146L518.125 500.435C526.573 489.827 541.162 483.612 554.355 482.2Z"/>
	<path fill="#F77F00" transform="scale(0.5 0.5)" d="M724.961 631.249C731.327 625.874 738.692 622.023 742.263 614.002C742.732 612.948 743.167 612.297 744.195 611.71C748.119 609.47 764.516 611.126 769.969 611.069C771.412 611.054 773.819 610.455 775.089 610.717C778.136 611.345 781.002 614.992 783.829 615.425C795.269 617.178 806.85 615.131 818.25 614.664L887.163 609.837C896.096 608.995 905.377 608.784 914.204 607.252L950.094 601.06C958.768 599.426 966.329 596.611 975.294 596.72C973.582 608.044 970.477 618.979 967.483 630C964.079 642.529 960.902 655.147 956.624 667.426C954.41 673.781 951.491 679.78 948.988 686L938.863 709.659C934.216 719.622 929.22 730.14 923.516 739.549L882.399 740.067L829.25 739.624L808.501 739.942C804.582 740.037 800.476 740.457 796.59 739.928L801.799 731.284C802.092 730.756 803.136 728.279 803.516 728.007C804.707 727.155 809.996 727.522 811.75 727.496L860.576 728.459C867.53 728.596 874.966 729.482 881.836 728.318C884.778 727.82 887.236 726.606 889.625 724.856C893.679 721.887 896.889 717.852 897.511 712.692C898.72 702.65 891.108 696.944 885.616 689.766L885.282 689.323C880.992 685.332 876.232 679.898 871.17 676.989C868.026 675.183 863.993 674.225 860.54 673.164C856.484 672.522 852.7 671.024 848.741 670C839.944 667.723 831.156 665.632 822.526 662.736L823.027 662.202L822.153 660.663L805.657 655.748L785.361 649.168L770.03 644.685L724.961 631.249Z"/>
	<path fill="#FEEEEE" transform="scale(0.5 0.5)" d="M861.453 671.078C872.336 673.578 878.757 679.619 885.236 688.337L885.282 689.323C880.992 685.332 876.232 679.898 871.17 676.989C868.026 675.183 863.993 674.225 860.54 673.164C860.739 672.298 861.008 671.833 861.453 671.078Z"/>
	<path fill="#F8EFEA" transform="scale(0.5 0.5)" d="M822.153 660.663C829.802 662.668 838.263 666.078 846.086 666.541C851.342 666.853 855.849 670.728 861.453 671.078C861.008 671.833 860.739 672.298 860.54 673.164C856.484 672.522 852.7 671.024 848.741 670C839.944 667.723 831.156 665.632 822.526 662.736L823.027 662.202L822.153 660.663Z"/>
	<path fill="#F77F00" transform="scale(0.5 0.5)" d="M44.0627 573.239L68.4205 586.22C71.1317 587.5 74.1906 588.093 76.9691 589.24C96.0194 597.105 115.452 603.702 135.75 607.514C140.852 608.472 146.087 608.847 151.242 609.467L152.463 608.888C154.703 611.603 156.724 614.012 159.908 615.685C166.763 619.287 175.522 620.614 183 622.385L213.633 629.509C215.286 629.885 220.58 630.525 221.769 631.43C221.844 631.487 222.295 633.332 222.337 633.486C223.12 636.361 223.816 639.202 224.295 642.143C224.909 645.909 224.766 652.578 228.222 654.946C231.344 657.086 236.822 657.472 240.47 658.334L259.344 663.186L351.558 689.873L366.698 693.804C367.986 694.093 373.638 695.006 374.25 695.989C374.999 697.191 374.838 699.054 374.719 700.39C374.086 702.585 374.114 704.497 374.149 706.75L374.755 707.837L375.369 707.937L378.027 740.37C375.286 740.989 371.669 740.386 368.826 740.272L355.009 740.039L276.277 739.587L258.831 740.007L136.5 739.674L112.928 739.625C108.295 739.623 102.964 740.123 98.4624 738.938C91.2391 727.436 85.4953 714.872 80.0018 702.482L66.5032 670.596C59.4739 651.513 54.487 632.159 50.2274 612.303C47.4974 599.577 44.8799 586.251 44.0627 573.239Z"/>
	<path fill="#FCBF49" transform="scale(0.5 0.5)" d="M974.732 429.335L982.977 500.497C984.168 525.288 982.033 549.518 978.711 574.052C977.685 581.633 976.962 589.245 975.294 596.72C966.329 596.611 958.768 599.426 950.094 601.06L914.204 607.252C905.377 608.784 896.096 608.995 887.163 609.837L818.25 614.664C806.85 615.131 795.269 617.178 783.829 615.425C781.002 614.992 778.136 611.345 775.089 610.717C773.819 610.455 771.412 611.054 769.969 611.069C764.516 611.126 748.119 609.47 744.195 611.71C743.167 612.297 742.732 612.948 742.263 614.002C738.692 622.023 731.327 625.874 724.961 631.249C724.102 631.419 721.967 630.785 721.021 630.61L709.678 628.576L615.436 601.144C617.205 597.17 617.896 592.771 618.791 588.552L620.75 588.624C621.768 579.52 623.524 570.05 623.954 560.945C624.794 543.202 618.908 525.747 609.59 510.81C606.929 506.545 605.014 502.202 601.753 498.301C599.338 495.411 596.62 492.896 593.712 490.512C591.644 488.816 586.905 486.426 585.797 484.107L585.441 483.276C578.29 480.942 570.878 478.119 563.365 477.289C566.532 475.019 574.967 475.431 579 475.1L607.277 472.292L715.344 459.723L724.763 458.891L808.393 448.838C811.279 448.571 814.027 447.861 816.883 447.478C820.981 446.928 825.16 446.784 829.288 446.574C835.523 446.515 841.964 445.434 848.155 444.663L880 440.617L943.96 432.829L974.732 429.335Z"/>
	<path fill="#003049" transform="scale(0.5 0.5)" d="M974.732 429.335L982.977 500.497C976.273 501.614 968.584 501.151 961.768 501.4L905.906 502.521C815.319 502.966 725.127 499.067 635 489.983L612.797 487.585C603.596 486.712 594.262 486.189 585.441 483.276C578.29 480.942 570.878 478.119 563.365 477.289C566.532 475.019 574.967 475.431 579 475.1L607.277 472.292L715.344 459.723L724.763 458.891L808.393 448.838C811.279 448.571 814.027 447.861 816.883 447.478C820.981 446.928 825.16 446.784 829.288 446.574C835.523 446.515 841.964 445.434 848.155 444.663L880 440.617L943.96 432.829L974.732 429.335Z"/>
	<path fill="#FEFFFE" transform="scale(0.5 0.5)" d="M830.338 465.75C831.464 465.627 832.338 465.733 833.25 466.51C834.488 467.565 834.552 468.484 834.574 470C833.611 471.524 833.44 471.764 831.75 472.629L830.673 472.801C829.108 471.31 828.354 470.872 827.773 468.75C828.309 467.164 829.039 466.671 830.338 465.75Z"/>
	<path fill="#FEFFFE" transform="scale(0.5 0.5)" d="M794.424 473.099C795.437 473.227 796.651 473.32 797.597 473.706C798.81 474.201 800.441 475.744 800.928 476.982C801.537 478.535 801.766 480.21 801.007 481.75C800.047 483.7 798.716 484.324 796.75 485.047L794.75 485.01C793.095 484.683 790.849 482.443 790.061 480.973C789.166 479.302 789.369 477.458 789.985 475.75C791.36 474.144 792.403 473.661 794.424 473.099Z"/>
	<path fill="#D62828" transform="scale(0.5 0.5)" d="M98.4624 738.938C102.964 740.123 108.295 739.623 112.928 739.625L136.5 739.674L258.831 740.007L276.277 739.587L355.009 740.039L368.826 740.272C371.669 740.386 375.286 740.989 378.027 740.37C378.442 743.096 378.654 746.948 380.932 748.808C381.784 749.504 382.67 749.798 383.75 749.948C388.038 750.544 392.547 750.487 396.875 750.792C406.85 751.497 417.192 752.335 427.046 753.986C428.117 754.165 430.005 754.539 430.713 755.422C432.207 757.289 432.603 762.396 433.646 764.948C433.769 765.249 434.293 766.682 434.493 766.858C434.777 767.109 437.233 767.341 437.795 767.413L483.746 771.187L492.245 772.144C492.499 772.184 493.909 772.347 494.042 772.443C494.149 772.52 494.795 775.735 494.87 776.069L498.159 792.985C499.249 799.127 500.217 808.636 504.75 813.255C506.786 815.33 508.98 815.713 511.75 815.422C519.335 810.876 522.726 799.28 526.569 791.813C528.853 787.376 531.546 783.113 533.631 778.585L582.15 781.019C587.583 769.062 591.232 755.504 598.956 744.842L589.23 781.44C598.265 783.177 607.759 783.088 616.926 783.546L651.24 785.24C653.453 782.336 654.904 778.766 656.483 775.485L665.477 755.513C666.217 753.864 666.938 750.872 667.943 749.573C668.645 747.514 668.541 745.152 668.631 742.99L659.801 742.624L789.68 745.494C793.082 745.298 794.485 742.255 796.59 739.928C800.476 740.457 804.582 740.037 808.501 739.942L829.25 739.624L882.399 740.067L923.516 739.549L915.475 754.248C901.673 777.596 886.406 799.868 868.379 820.156C862.272 827.03 856.363 833.714 849.174 839.504L848.662 839.114C837.124 830.55 820.672 825.729 806.453 825.124C802.612 824.96 798.707 825.372 794.867 825.584C791.683 825.76 788.218 825.653 785.095 826.212C782.434 826.689 779.82 827.694 777.132 827.933C772.846 827.029 767.694 828.546 763.279 828.85L639.86 842.225C628.987 843.524 617.61 843.949 606.892 846.143C600.982 846.274 594.858 847.428 588.974 848.079L566.5 850.967C563.389 851.42 560.097 851.572 557.047 852.328C554.235 853.026 551.456 854.141 548.7 855.04C548.384 854.817 531.219 856.154 529.007 856.169L464.967 855.996C456.403 855.889 446.28 857.631 438.117 854.812C433.831 853.217 429.627 852.543 425.205 851.555C417.164 849.759 408.157 848.001 399.903 848.108C390.97 846.731 381.612 846.389 372.869 844.105C366.651 842.48 361.224 839.445 354.75 838.309C347.035 836.955 338.958 837.663 331.336 836.25C327.919 833.841 326.968 830.655 325.284 826.981C323.423 822.92 318.752 811.649 314.786 810.178L315.326 810.776C311.453 811.096 306.903 810.382 302.976 810.169C303.444 819.83 303.538 829.779 305.428 839.265C300.781 840.364 296.321 842.161 291.738 843.498C285.095 845.435 274.889 846.605 269.356 850.913C268.454 851.616 267.422 852.688 266.964 853.75C266.492 854.847 266.762 855.692 265.75 856.572C257.862 855.942 250.325 856.413 242.446 856.473L206.57 856.538C202.17 856.541 194.791 857.465 190.661 856.18C185.768 854.658 180.191 847.618 176.481 843.922C166.406 833.889 156.357 823.348 147.385 812.319C135.909 798.211 125.714 783.347 115.884 768.071C109.773 758.573 103.6 749.012 98.4624 738.938Z"/>
	<path fill="#FCBF49" transform="scale(0.5 0.5)" d="M126.398 251.061L126.706 251.68C127.39 253.147 127.423 255.163 127.615 256.757L128.873 268.291C129.609 273.95 130.505 279.751 131.936 285.28C135.955 300.798 141.798 315.578 149.053 329.822C150.181 332.036 150.997 334.433 152.195 336.596C154.008 339.868 156.404 342.875 158.475 346C166.052 357.43 174.503 367.811 184.155 377.56C190.482 383.95 197.544 390.837 205.242 395.55C210.692 398.887 217.211 401.445 223.143 403.831C230.845 406.928 238.346 410.622 246.161 413.419L307.15 432.14L322.423 436.775L346.582 442.932L372.728 451.185L396.81 457.216C405.671 459.826 414.405 462.643 423.469 464.572C434.923 467.01 446.926 467.718 458.523 469.412L510.364 478.324L525.128 480.864C526.967 481.269 528.964 481.483 530.675 482.279C525.128 485.38 519.411 488.372 514.491 492.441C505.862 499.576 498.453 511.717 493.896 521.817C492.952 523.909 492.143 526.022 491.47 528.217C491.345 528.626 490.936 530.431 490.717 530.639C488.554 531.57 486.184 537.429 485.265 539.708C482.453 546.678 481.021 554.405 480.372 561.869C480.055 565.522 480.174 570 479.086 573.476C473.818 570.967 466.173 571.409 460.344 570.973C449.037 570.126 437.833 568.818 426.477 568.603L390.144 569.227C381.488 569.225 371.639 568.008 363.162 569.414C357.764 570.308 351.876 569.083 346.36 568.942L284.679 566.399C274.964 564.749 264.768 565.241 254.942 564.753C237.261 563.874 219.337 562.034 201.621 563.173L202.457 565.212L160.435 577.336C155.76 579.739 150.711 582.474 149.072 587.843C147.023 594.556 148.02 601.108 151.444 607.131L152.463 608.888L151.242 609.467C146.087 608.847 140.852 608.472 135.75 607.514C115.452 603.702 96.0194 597.105 76.9691 589.24C74.1906 588.093 71.1317 587.5 68.4205 586.22L44.0627 573.239C42.9641 567.164 42.7794 560.764 42.3579 554.601L40.9048 521.521C40.1633 448.422 57.8738 375.222 90.8729 310.089C96.0071 299.955 101.179 289.704 107.093 280L126.398 251.061Z"/>
	<path fill="#FEFFFE" transform="scale(0.5 0.5)" d="M160.435 577.336L159.987 576.5C161.562 575.004 164.321 574.082 166.326 573.231C177.441 568.509 189.824 565.606 201.621 563.173L202.457 565.212L160.435 577.336Z"/>
</svg>
