<?xml version="1.0" encoding="utf-8" ?>
<svg xmlns="http://www.w3.org/2000/svg" xmlns:xlink="http://www.w3.org/1999/xlink" width="512" height="512">
	<path transform="scale(0.5 0.5)" d="M-0 -0L1024 0L1024 1024L-0 1024L0 -0Z"/>
	<path fill="#FDFDF9" transform="scale(0.5 0.5)" d="M57.1719 333.25C58.1546 333.089 58.3233 333.086 59.25 333.44C59.5979 334.915 59.4958 334.864 58.75 336.206C57.9296 336.405 57.8059 336.253 57.0317 336L56.4794 334.75L57.1719 333.25Z"/>
	<path fill="#FDFDF9" transform="scale(0.5 0.5)" d="M164.832 773.25C166.125 773.101 166.187 773.045 167.292 773.707L167.569 775.25L166.75 776.398L165.559 776.421C164.371 775.632 164.354 775.6 163.888 774.25L164.832 773.25Z"/>
	<path fill="#F77F00" transform="scale(0.5 0.5)" d="M620.644 504.068L621.302 503.496C622.368 503.736 622.943 503.784 624.003 503.502C624.534 502.804 624.829 502.119 625.195 501.326C625.079 503.561 625.305 505.237 624.033 507.151C622.669 506.519 621.667 505.166 620.644 504.068Z"/>
	<path fill="#EEF0E1" transform="scale(0.5 0.5)" d="M422.885 436.344L427.425 440.113L427.051 442.769L421.289 438.096L422.885 436.344Z"/>
	<path fill="#FBFED6" transform="scale(0.5 0.5)" d="M60.5408 653.75L61.4918 653.643C62.8944 654.239 62.9698 654.329 63.7883 655.619C63.4473 657.013 63.2799 657.169 62.25 658.187C61.6882 658.328 61.1043 658.333 60.5277 658.377C59.3522 657.039 59.256 657.012 59.1383 655.25L60.5408 653.75Z"/>
	<path fill="#FDFDF9" transform="scale(0.5 0.5)" d="M158.131 40.75C159.773 40.6999 160 40.7589 161.43 41.5677C162.138 42.9374 162.16 43.2031 162.083 44.75L160.75 45.5271L159.25 45.5597C157.643 45.452 157.239 44.9888 156.215 43.8171C156.582 42.0506 156.867 41.9422 158.131 40.75Z"/>
	<path fill="#FDFDF9" transform="scale(0.5 0.5)" d="M754.326 125.75L756.5 125.48C758.028 126.439 758.133 126.607 758.896 128.25C758.515 129.868 758.441 130.042 757.25 131.194L755.75 131.496C754.227 130.936 754.12 130.769 753.143 129.455C753.06 127.368 753.175 127.348 754.326 125.75Z"/>
	<path fill="#E6EDE7" transform="scale(0.5 0.5)" d="M427.425 440.113L439.571 449.563C439.256 450.388 438.931 451.131 438.771 451.998L427.051 442.769L427.425 440.113Z"/>
	<path fill="#FDFDF9" transform="scale(0.5 0.5)" d="M101.299 394.25C102.82 393.926 103.055 393.907 104.519 394.413C105.397 395.463 106.034 396.027 106.022 397.5C106.008 399.08 104.824 400.031 103.75 400.979C102.756 401.233 102.248 401.139 101.25 401C99.9846 399.688 99.1899 399.013 99.4764 397C99.6812 395.561 100.293 395.187 101.299 394.25Z"/>
	<path fill="#EEF0E1" transform="scale(0.5 0.5)" d="M439.571 449.563L451.063 458.251C452.226 459.205 454.208 460.47 455.081 461.617L454.24 463.918L438.771 451.998C438.931 451.131 439.256 450.388 439.571 449.563Z"/>
	<path fill="#003049" transform="scale(0.5 0.5)" d="M663.581 620.27C672.887 624.027 681.399 630.269 689.004 636.75L688.217 636.863C686.164 636.867 683.22 634.735 681.51 633.75C674.809 629.893 669.108 625.701 663.581 620.27Z"/>
	<path fill="#EEF0E1" transform="scale(0.5 0.5)" d="M562.598 546.11L570.538 552.18C576.691 556.578 583.326 561.486 588.222 567.26C578.693 562.77 570.001 554.741 561.631 548.351L562.598 546.11Z"/>
	<path fill="#FDFDF9" transform="scale(0.5 0.5)" d="M931.086 254.25C931.614 254.121 931.635 254.084 932.271 254.109C933.761 254.167 935.551 255.03 936.429 256.25C937.327 257.498 937.374 259.07 936.888 260.5C936.371 262.022 935.098 262.855 933.75 263.542L931.5 263.597C930.197 263.367 928.904 262.098 928.25 260.979C927.493 259.683 927.483 258.125 928.002 256.75C928.539 255.326 929.813 254.852 931.086 254.25Z"/>
	<path fill="#EEF0E1" transform="scale(0.5 0.5)" d="M699.418 481.125C705.566 484.264 710.883 489.259 716.447 493.317C718.275 494.65 720.604 495.606 722.288 497.039L721.027 498.511L719.25 499.302L698.456 482.86C698.964 482.253 699.133 481.849 699.418 481.125Z"/>
	<path fill="#003049" transform="scale(0.5 0.5)" d="M178.225 248.25L178.62 248.121C179.878 247.861 181.505 248.315 182.75 248.552C188.052 249.564 191.547 251.547 196 254.528C198.855 256.439 201.239 258.836 203.721 261.196C194.818 258.48 185.935 253.466 178.225 248.25Z"/>
	<path fill="#FDFDF9" transform="scale(0.5 0.5)" d="M248.978 96.25C249.479 96.121 249.976 95.9615 250.504 95.9785C251.945 96.0251 254.034 97.4243 254.783 98.6746C255.495 99.8634 255.73 101.294 255.378 102.652C254.841 104.722 253.54 105.398 251.789 106.25C251.293 106.318 251.18 106.356 250.624 106.308C248.805 106.15 247.488 105.163 246.389 103.771C245.557 102.717 245.44 101.805 245.612 100.5C245.886 98.4274 247.38 97.3225 248.978 96.25Z"/>
	<path fill="#D62828" transform="scale(0.5 0.5)" d="M242.775 209.006C243.446 208.623 244.175 208.626 244.932 208.523C248.73 208.696 251.885 209.381 255.475 210.52C256.113 211.305 256.64 212.045 257.131 212.929L257.121 212.986C255.055 215.936 252.848 216.515 249.997 218.416L249.732 217.856L247.303 217.331L246.542 217.13C245.509 216.4 244.449 215.659 243.64 214.676C242.19 212.913 242.495 211.104 242.775 209.006Z"/>
	<path fill="#B4666A" transform="scale(0.5 0.5)" d="M242.775 209.006C243.446 208.623 244.175 208.626 244.932 208.523L246.495 209.057C246.669 210.163 246.686 212.626 246.327 213.75C246.288 213.874 245.666 214.665 245.655 214.75C245.57 215.396 246.746 216.218 246.542 217.13C245.509 216.4 244.449 215.659 243.64 214.676C242.19 212.913 242.495 211.104 242.775 209.006Z"/>
	<path fill="#FDFDF9" transform="scale(0.5 0.5)" d="M644.07 449.266C645.859 447.06 651.159 444.261 653.731 442.813C657.045 440.947 659.537 441.264 663.019 442.229C664.031 443.322 665.108 444.258 665.473 445.75C664.642 448.151 660.809 451.571 659.151 453.761L658.797 453.102C657.449 450.64 656.51 449.066 653.711 448.198C649.702 446.953 647.789 447.928 644.07 449.266Z"/>
	<path fill="#003049" transform="scale(0.5 0.5)" d="M722.288 497.039L722.461 497.224C725.189 500.438 728.749 501.843 732.144 504.163L739.795 508.908C742.935 511.799 744.958 513.595 745.267 518.124L745.288 519.041L721.064 501.937C720.753 500.274 721.516 500.987 722.024 499.5L721.027 498.511L722.288 497.039Z"/>
	<path fill="#005D88" transform="scale(0.5 0.5)" d="M692.122 600.485C693.657 601.088 695.072 601.694 696.494 602.532L697.574 602.224C698.176 602.202 698.802 601.989 699.38 602.16C700.545 602.504 703.028 604.848 704.086 605.633L718.549 616.28C721.687 618.507 724.994 620.458 728.301 622.421C728.439 624.345 728.571 626.192 728.414 628.117L697.362 603.774L697 603.42C696.198 603.743 695.619 603.878 694.75 603.625C693.213 603.177 692.833 601.77 692.122 600.485Z"/>
	<path fill="#E7EAE8" transform="scale(0.5 0.5)" d="M511.366 508.811L513.065 507.646L535.123 524.616L543.943 531.2L552.075 538.034C552.501 538.381 553.959 539.326 554.092 539.689L561.01 544.835C561.291 545.054 562.452 545.809 562.598 546.11L561.631 548.351L555.396 543.454C548.506 539.088 541.127 533.034 535.201 527.412L511.366 508.811Z"/>
	<path fill="#01648F" transform="scale(0.5 0.5)" d="M251.413 286.706C255.174 287.223 258.586 289.267 261.932 290.962C272.611 296.374 282.381 303.126 292.553 309.381C294.956 310.859 298.646 313.715 301.489 313.908L300.353 315C300.994 317.13 303.332 318.212 303.488 320L302.928 320.515C302.127 321.32 301.759 322.027 301.236 323.016L280.69 308.627L261.047 293.37C257.948 291.014 254.285 289.278 251.413 286.706Z"/>
	<path fill="#003049" transform="scale(0.5 0.5)" d="M121.652 289.001L63.9174 218.889C66.9002 220.645 70.1921 222.264 72.75 224.611C84.8485 235.714 93.7046 248.898 103.876 261.611C110.914 270.407 119.041 279.153 125.148 288.584L138.481 305.905C145.375 312.177 151.328 319.696 157.328 326.798C161.74 332.022 166.593 337.121 170.026 343.065C163.83 337.239 158.456 330.255 152.7 323.962C150.054 321.07 138.351 310.28 137.726 307.576L121.652 289.001Z"/>
	<path fill="#FDFDF9" transform="scale(0.5 0.5)" d="M257.121 212.986C261.247 217.046 266.471 220.11 270.833 224.031L296.3 245.059L310.842 256.099C312.938 257.741 315.689 259.527 317.331 261.597L317.341 262.318C314.624 261.63 311.22 260.601 308.79 259.227C306.305 257.822 304.042 255.914 301.66 254.326L286.09 244.353L260.502 227.582C256.835 225.073 252.797 222.788 249.554 219.741L249.997 218.416C252.848 216.515 255.055 215.936 257.121 212.986Z"/>
	<path fill="#003049" transform="scale(0.5 0.5)" d="M635.64 472.516C636.951 473.528 638.262 474.506 639.435 475.68C641.205 476.12 643.609 477.127 645.349 476.506C646.601 478.697 647.396 480.918 648.152 483.314C648.656 483.845 648.939 485.171 649.189 485.862C652.709 495.587 651.604 506.898 651.136 517.056L649.925 544.622L644.972 537.932C647.85 520.463 642.047 501.031 638.315 484.035C637.512 480.378 635.535 476.198 635.64 472.516Z"/>
	<path fill="#01648F" transform="scale(0.5 0.5)" d="M639.435 475.68C641.205 476.12 643.609 477.127 645.349 476.506C646.601 478.697 647.396 480.918 648.152 483.314L647.213 483.234C644.452 480.877 641.58 478.638 639.435 475.68Z"/>
	<path fill="#D62828" transform="scale(0.5 0.5)" d="M164.915 297.624L188.555 317.612L183.538 328.75C182.958 330.223 182.746 331.778 182.155 333.25C173.934 325.855 164.926 319.916 157.092 311.947C158.987 306.476 161.622 302.356 164.915 297.624Z"/>
	<path fill="#FDFDF9" transform="scale(0.5 0.5)" d="M692.122 600.485L692.005 599.743C690.409 594.608 682.205 590.033 677.731 587.315C676.193 586.382 674.132 585.529 672.883 584.249C667.902 579.151 665.142 572.867 658.667 569.047C651.928 565.072 645.855 566.34 638.757 568.25C638.444 567.193 638.463 567.246 638.947 566.25C642.376 565.018 646.966 563.234 650.565 562.997C660.167 562.365 665.907 570.11 672.491 575.498L672.91 575.836C678.555 577.326 685.451 583.778 690.389 587.091L708.495 598.108C712.223 600.628 715.63 603.779 719.029 606.726C722.058 609.353 725.299 612.029 727.383 615.5L727.339 617.547C727.033 619.868 727.293 620.271 728.301 622.421C724.994 620.458 721.687 618.507 718.549 616.28L704.086 605.633C703.028 604.848 700.545 602.504 699.38 602.16C698.802 601.989 698.176 602.202 697.574 602.224L696.494 602.532C695.072 601.694 693.657 601.088 692.122 600.485Z"/>
	<path fill="#003049" transform="scale(0.5 0.5)" d="M697.574 602.224L696.197 595.683L727.339 617.547C727.033 619.868 727.293 620.271 728.301 622.421C724.994 620.458 721.687 618.507 718.549 616.28L704.086 605.633C703.028 604.848 700.545 602.504 699.38 602.16C698.802 601.989 698.176 602.202 697.574 602.224Z"/>
	<path fill="#FDFDF9" transform="scale(0.5 0.5)" d="M152.764 156.893C146.253 153.976 139.961 149.126 133.924 145.264L83.6927 111.934L55.1046 92.75C45.4602 86.4866 35.1704 80.6831 26.4899 73.1232C29.9826 74.4585 33.1951 76.7873 36.4747 78.5934L65.258 94.9036L135.75 137.01L155.157 148.978L156.657 150.172L157.755 153C157.046 153.957 156.695 154.193 155.75 154.8L152.764 156.893Z"/>
	<path fill="#F74A04" transform="scale(0.5 0.5)" d="M620.644 504.068C619.968 503.775 618.906 502.449 618.356 501.916L610.988 494.837C603.373 487.596 595.252 480.985 588.128 473.23C590.275 470.246 591.933 467.555 592.94 463.959L593.182 463.064C594.985 456.573 594.356 448.983 594.01 442.296L619.798 468.462L625.146 474.273C625.328 474.475 626.434 475.537 626.502 475.781C626.631 476.24 626.359 477.763 626.316 478.259L625.727 485.55L625.195 501.326C624.829 502.119 624.534 502.804 624.003 503.502C622.943 503.784 622.368 503.736 621.302 503.496L620.644 504.068Z"/>
	<defs>
		<linearGradient id="gradient_0" gradientUnits="userSpaceOnUse" x1="560.52649" y1="443.17853" x2="612.57141" y2="414.56436">
			<stop offset="0" stop-color="#001D3B"/>
			<stop offset="1" stop-color="#1499C1"/>
		</linearGradient>
	</defs>
	<path fill="url(#gradient_0)" transform="scale(0.5 0.5)" d="M544.579 372.086C553.961 379.644 561.971 389.417 569.874 398.481C572.267 401.227 574.378 404.213 576.903 406.846C585.633 415.949 597.113 424.09 604.129 434.587C615.329 448.38 627.06 462.311 641.75 472.443L642.499 472.25L642.798 468.74C642.677 472.095 644.033 473.62 645.349 476.506C643.609 477.127 641.205 476.12 639.435 475.68C638.262 474.506 636.951 473.528 635.64 472.516C632.601 467.919 628.253 463.672 624.401 459.755L604.72 440.733C601.924 438.999 599.528 436.533 597.093 434.329C592.572 430.238 588.316 426.223 584.173 421.744C585.479 429.591 586.4 437.048 586.46 445.017C586.483 448.093 586.657 451.319 586.098 454.351L582.938 468.874C578.969 466.198 574.334 463.662 570.751 460.536C570.738 460.524 569.547 459.474 569.542 459.458C569.417 459.078 571.358 448.198 571.428 446.5C571.762 438.388 571.292 430.146 569.674 422.175C568.169 414.759 565.382 407.497 562.544 400.5C560.498 395.454 558.673 390.653 555.45 386.204C552.205 381.724 546.505 377.167 544.579 372.086Z"/>
	<path fill="#003049" transform="scale(0.5 0.5)" d="M163.109 261.72L209.927 299.916L208 300.956C202.685 303.7 196.069 310.574 192.942 315.691L192.593 316.277L162.273 292.05C160.838 290.771 159.217 290.331 157.725 289.215L152.012 285.204L150.96 284.546L150.522 284.245C150.487 285.051 150.899 285.272 151.375 285.893C150.03 285.616 148.278 283.309 147.253 282.291C151.349 274.172 156.961 268.278 163.109 261.72Z"/>
	<path fill="#FDFDF9" transform="scale(0.5 0.5)" d="M195.131 247.078C193.728 245.699 192.469 244.551 191.63 242.75L191.632 241.531L192.271 241.082C192.932 240.591 193.266 240.252 193.722 239.592L193.922 237.978C197.423 237.035 213.03 243.778 217.006 245.205L278.733 267.827C286.471 277.151 292.97 289.535 297.153 300.85C298.747 305.159 299.763 309.642 301.489 313.908C298.646 313.715 294.956 310.859 292.553 309.381C282.381 303.126 272.611 296.374 261.932 290.962C258.586 289.267 255.174 287.223 251.413 286.706L250.638 286.274C247.169 284.158 243.619 282.139 240.368 279.694C228.277 270.606 217.211 260.835 204.521 252.451C201.594 250.517 198.569 247.948 195.131 247.078Z"/>
	<path fill="#F77F00" transform="scale(0.5 0.5)" d="M155.157 148.978C175.944 146.933 196.18 147.92 214.482 159.213C217.984 160.685 221.19 162.67 224.5 164.516C243.542 175.141 258.03 188.649 266.308 209.188L270.833 224.031C266.471 220.11 261.247 217.046 257.121 212.986L257.131 212.929C256.64 212.045 256.113 211.305 255.475 210.52C251.885 209.381 248.73 208.696 244.932 208.523C244.175 208.626 243.446 208.623 242.775 209.006C241.343 210.656 241.544 211.877 241.35 213.958L240.75 214.094C229.066 208.14 218.04 200.237 207.051 193.08L171.052 169.216C167.799 167.583 163.634 165.928 161.692 162.689L160.335 161.794C157.652 160.528 155.302 158.453 152.764 156.893L155.75 154.8C156.695 154.193 157.046 153.957 157.755 153L156.657 150.172L155.157 148.978Z"/>
	<path fill="#FBFED6" transform="scale(0.5 0.5)" d="M156.657 150.172C159.377 152.387 161.938 154.186 165.262 155.433L166.701 157.25C165.918 158.908 163.937 159.752 162.523 160.951C161.849 161.522 161.17 161.606 160.335 161.794C157.652 160.528 155.302 158.453 152.764 156.893L155.75 154.8C156.695 154.193 157.046 153.957 157.755 153L156.657 150.172Z"/>
	<path fill="#E7EAE8" transform="scale(0.5 0.5)" d="M161.692 162.689C163.488 161.155 165.241 160.261 167.383 159.325L178.166 164.436C177.388 165.378 177.374 165.787 176.151 166.041C174.787 166.324 175.665 166.072 174.5 166.745L173.765 167.105C172.618 167.679 171.923 168.288 171.052 169.216C167.799 167.583 163.634 165.928 161.692 162.689Z"/>
	<path fill="#D62828" transform="scale(0.5 0.5)" d="M155.157 148.978C175.944 146.933 196.18 147.92 214.482 159.213C211.008 159.824 207.467 156.468 204.375 155.125C202.992 154.525 202.235 154.104 200.84 154.661L200.25 160.5L201.5 160.877L202.25 161L203.5 161.377C205.407 161.739 207.355 162.585 209.314 162.23L207.701 160.338L208 159.755C209.236 160.253 210.275 160.908 211.387 161.626C211.76 162.95 212.703 163.36 213.75 164.202C211.948 164.652 209.984 163.469 208.25 162.994C206.213 162.436 204.044 162.128 201.966 161.717L181.971 158.148C178.723 157.648 173.446 157.898 170.632 156.38C168.416 155.184 167.641 154.835 165.262 155.433C161.938 154.186 159.377 152.387 156.657 150.172L155.157 148.978Z"/>
	<path fill="#FDFDF9" transform="scale(0.5 0.5)" d="M178.166 164.436L178.891 163.983C176.301 162.804 173.203 161.781 171.397 159.479C180.207 162.089 188.988 166.865 196.895 171.517C211.842 180.311 225.609 190.507 239.986 200.134C242.007 201.487 244.059 202.932 246.192 204.103C249.986 206.185 252.861 206.569 255.475 210.52C251.885 209.381 248.73 208.696 244.932 208.523C244.175 208.626 243.446 208.623 242.775 209.006C241.343 210.656 241.544 211.877 241.35 213.958L240.75 214.094C229.066 208.14 218.04 200.237 207.051 193.08L171.052 169.216C171.923 168.288 172.618 167.679 173.765 167.105L174.5 166.745C175.665 166.072 174.787 166.324 176.151 166.041C177.374 165.787 177.388 165.378 178.166 164.436Z"/>
	<path fill="#D62828" transform="scale(0.5 0.5)" d="M512.424 119.441C489.833 123.479 467.203 128.215 445.426 135.544C426.586 141.885 408.8 149.985 390.865 158.428L371.75 168.275C367.014 170.885 362.899 172.928 358.619 176.345C358.64 174.879 359.715 172.654 360.205 171.222C364.312 159.231 370.284 148.312 378.081 138.3C399.195 111.189 439.687 98.8601 472.5 108.529C477.865 110.11 483.722 111.89 488.861 114.1C492.427 115.634 496.051 118.171 499.732 119.244C500.856 119.572 501.979 119.435 503.117 119.273L510.829 118.119L512.424 119.441Z"/>
	<path fill="#003049" transform="scale(0.5 0.5)" d="M210.311 300.848L280.661 357.798C269.11 363.562 260.346 373.952 252.495 383.955L250.325 388.219C235.697 379.066 222.548 366.685 209.12 355.874L193.417 343.432C191.232 341.615 188.635 339.771 186.982 337.432L186.631 336.904C185.956 335.916 185.567 335.193 185.456 333.969C185.07 329.716 188.446 323.291 191.053 319.953C191.489 319.394 191.911 318.905 192.224 318.265C193.38 315.907 195.576 314.043 197.392 312.165C201.5 307.917 205.308 304.063 210.311 300.848Z"/>
	<path fill="#FDFDF9" transform="scale(0.5 0.5)" d="M317.67 287.917L317.677 287.881L305.757 271.136L319.624 276.773L348.84 296.536C353.182 299.458 357.715 302.094 361.75 305.463C364.114 307.436 366.054 309.974 368.339 312.071L382.52 323.883C384.676 325.627 387.27 328.124 389.844 329.147C391.148 329.665 393.445 329.179 394.885 329.069L409.769 327.981L426.156 327.901C442.803 328.252 461.009 330.664 476.841 335.95L499.5 344.642C510.118 348.317 520.682 351.558 530.951 356.212C542.91 361.632 555.115 369.319 565.776 377.025L581.748 389.296C596.159 401.253 609.522 415.174 620.834 430.091L630.242 443.606L635.128 451.828C635.831 453.042 636.562 454.732 637.558 455.69L642.798 468.74L642.499 472.25L641.75 472.443C627.06 462.311 615.329 448.38 604.129 434.587C597.113 424.09 585.633 415.949 576.903 406.846C574.378 404.213 572.267 401.227 569.874 398.481C561.971 389.417 553.961 379.644 544.579 372.086C533.905 361.435 519.94 355.135 506.178 349.437C509.239 351.916 512.589 353.892 515.708 356.266C523.545 362.232 531.86 370.167 537.903 377.949C540.184 379.859 541.953 382.524 543.759 384.876C554.19 398.457 560.305 414.348 561.824 431.373L562.016 441.534C560.533 433.762 559.217 426.073 556.72 418.519C553.252 408.025 546.96 397.203 540.185 388.483C537.778 385.384 534.923 382.644 532.403 379.634C526.751 374.583 521.192 369.584 514.991 365.201C503.827 357.31 491.309 351.15 478.512 346.385C458.016 338.755 436.775 336.556 415.085 336.928C411.423 336.991 406.333 336.355 403.015 337.89L401.478 338.252L421.302 356.77C425.899 361.27 432.578 366.318 434.876 372.392C434.026 372.379 433.536 372.255 432.75 371.86C429.843 370.399 427.087 367.535 424.235 365.765C418.78 362.379 412.942 359.758 407.75 355.908L365.273 322.38L339.179 303.685C332.089 298.468 325.052 292.666 317.67 287.917Z"/>
	<defs>
		<linearGradient id="gradient_1" gradientUnits="userSpaceOnUse" x1="382.04266" y1="491.56546" x2="440.15393" y2="341.92838">
			<stop offset="0" stop-color="#022C35"/>
			<stop offset="1" stop-color="#025183"/>
		</linearGradient>
	</defs>
	<path fill="url(#gradient_1)" transform="scale(0.5 0.5)" d="M195.131 247.078C198.569 247.948 201.594 250.517 204.521 252.451C217.211 260.835 228.277 270.606 240.368 279.694C243.619 282.139 247.169 284.158 250.638 286.274L250.25 287.303L277.536 309.21C287.34 314.423 295.268 322.261 303.932 329.061L354.804 369.156L369.215 379.921L380.859 389.939L439.464 436.874L462.108 455.968L479.177 468.784L492.75 480.332L520.594 502.083L545.273 522.277L585.208 552.97L607.529 569.905C614.239 575.004 623.58 580.741 628.035 587.937L607.472 572.063C603.038 568.62 596.708 563.328 591.216 561.959C586 560.659 577.121 549.822 572.25 550.123L570.538 552.18L562.598 546.11C562.452 545.809 561.291 545.054 561.01 544.835L554.092 539.689C553.959 539.326 552.501 538.381 552.075 538.034L543.943 531.2L535.123 524.616L513.065 507.646L511.366 508.811L487.944 490.567L475.809 481.092L469.101 475.669L459.325 467.76L454.24 463.918L455.081 461.617C454.208 460.47 452.226 459.205 451.063 458.251L439.571 449.563L427.425 440.113L422.885 436.344L421.289 438.096C419.639 436.782 417.794 435.514 416.458 433.873C411.201 430.546 406.051 426.12 401.209 422.178L381.551 406.239L356.071 386.026L348.234 379.938L344.418 376.764L342.333 375.005L338.443 371.88L327.904 363.57L298.594 339.822C294.948 336.694 290.672 333.831 287.391 330.352C284.667 328.654 282.264 326.163 279.844 324.048L270.017 315.65L258.715 305.593C258.271 305.526 257.347 304.652 256.942 304.338L249.244 297.893L228.949 280.669L209.375 261.724C204.565 256.955 199.539 252.22 195.131 247.078Z"/>
	<path fill="#B8E2E3" transform="scale(0.5 0.5)" d="M344.335 373.276L347.412 375.812C346.393 376.282 345.519 376.553 344.418 376.764L342.333 375.005L344.335 373.276Z"/>
	<path fill="#C5E0D7" transform="scale(0.5 0.5)" d="M339.738 369.627L344.335 373.276L342.333 375.005L338.443 371.88L339.249 371.342C339.859 370.87 339.682 370.332 339.738 369.627Z"/>
	<path fill="#C5E0D7" transform="scale(0.5 0.5)" d="M347.412 375.812L352.384 379.853C350.422 379.408 350.12 379.133 348.234 379.938L344.418 376.764C345.519 376.553 346.393 376.282 347.412 375.812Z"/>
	<path fill="#E7EAE8" transform="scale(0.5 0.5)" d="M455.081 461.617C456.461 462.703 460.334 465.117 461.136 466.479L459.325 467.76L454.24 463.918L455.081 461.617Z"/>
	<path fill="#FDFDF9" transform="scale(0.5 0.5)" d="M469.101 475.669C469.329 474.847 469.648 474.322 470.082 473.597L477.48 479.392L475.809 481.092L469.101 475.669Z"/>
	<path fill="#E6EDE7" transform="scale(0.5 0.5)" d="M348.234 379.938C350.12 379.133 350.422 379.408 352.384 379.853L357.67 384.185C357.193 385.127 356.871 385.375 356.071 386.026L348.234 379.938Z"/>
	<path fill="#B8E2E3" transform="scale(0.5 0.5)" d="M258.715 305.593L259.82 305.25C264.418 307.763 268.562 311.517 272.715 314.718L270.771 314.791L270.017 315.65L258.715 305.593Z"/>
	<path fill="#E6EDE7" transform="scale(0.5 0.5)" d="M459.325 467.76L461.136 466.479L468.418 472.151C468.751 472.423 469.975 473.288 470.082 473.597C469.648 474.322 469.329 474.847 469.101 475.669L459.325 467.76Z"/>
	<path fill="#EEF0E1" transform="scale(0.5 0.5)" d="M330.923 362.776L339.738 369.627C339.682 370.332 339.859 370.87 339.249 371.342L338.443 371.88L327.904 363.57L330.923 362.776Z"/>
	<path fill="#E6EDE7" transform="scale(0.5 0.5)" d="M477.48 479.392L489.531 488.966L487.944 490.567L475.809 481.092L477.48 479.392Z"/>
	<path fill="#EEF0E1" transform="scale(0.5 0.5)" d="M489.531 488.966L508.843 504.145C509.711 504.851 512.634 506.768 513.065 507.646L511.366 508.811L487.944 490.567L489.531 488.966Z"/>
	<path fill="#E7EAE8" transform="scale(0.5 0.5)" d="M356.071 386.026C356.871 385.375 357.193 385.127 357.67 384.185C363.659 388.426 369.203 393.106 374.873 397.754C377.358 399.792 380.659 401.949 382.58 404.511L381.746 404.824C381.721 405.193 381.782 405.958 381.551 406.239L356.071 386.026Z"/>
	<defs>
		<linearGradient id="gradient_2" gradientUnits="userSpaceOnUse" x1="276.19507" y1="330.18475" x2="293.73553" y2="323.14236">
			<stop offset="0" stop-color="#DEF1ED"/>
			<stop offset="1" stop-color="#FFF5F8"/>
		</linearGradient>
	</defs>
	<path fill="url(#gradient_2)" transform="scale(0.5 0.5)" d="M270.017 315.65L270.771 314.791L272.715 314.718L276.646 317.646C279.671 320.238 283.629 322.951 286.062 326.07L300.497 338.206L298.594 339.822C294.948 336.694 290.672 333.831 287.391 330.352C284.667 328.654 282.264 326.163 279.844 324.048L270.017 315.65Z"/>
	<path fill="#E6EDE7" transform="scale(0.5 0.5)" d="M300.497 338.206L330.923 362.776L327.904 363.57L298.594 339.822L300.497 338.206Z"/>
	<path fill="#E6EDE7" transform="scale(0.5 0.5)" d="M381.551 406.239C381.782 405.958 381.721 405.193 381.746 404.824L382.58 404.511L402.914 420.163C407.928 423.987 413.592 427.75 418.073 432.186L422.885 436.344L421.289 438.096C419.639 436.782 417.794 435.514 416.458 433.873C411.201 430.546 406.051 426.12 401.209 422.178L381.551 406.239Z"/>
	<path fill="#F77F00" transform="scale(0.5 0.5)" d="M403.015 337.89C406.333 336.355 411.423 336.991 415.085 336.928C436.775 336.556 458.016 338.755 478.512 346.385C491.309 351.15 503.827 357.31 514.991 365.201C521.192 369.584 526.751 374.583 532.403 379.634C534.923 382.644 537.778 385.384 540.185 388.483C546.96 397.203 553.252 408.025 556.72 418.519C559.217 426.073 560.533 433.762 562.016 441.534C562.47 454.542 556.46 469.519 548.16 479.45C547.538 478.961 547.079 478.484 546.549 477.901C543.052 475.549 540.175 472.413 537.188 469.464L522.502 455.3L481.382 418.867C471.952 410.712 462.099 402.997 453.112 394.343L445.156 386.106C441.516 382.383 438.159 379.381 436.126 374.458L435.493 373L434.876 372.392C432.578 366.318 425.899 361.27 421.302 356.77L401.478 338.252L403.015 337.89Z"/>
	<path transform="scale(0.5 0.5)" d="M403.015 337.89C411.312 338.1 419.124 343.341 426.1 347.307C435.421 352.607 444.97 357.968 453.722 364.169C462.268 370.225 470.462 377.251 478.549 383.907L521.837 420.008L544.48 438.824C548.496 442.106 553.038 445.035 556.6 448.801C557.763 450.032 558.805 451.311 559.722 452.739C555.688 461.711 552.777 470.103 546.549 477.901C543.052 475.549 540.175 472.413 537.188 469.464L522.502 455.3L481.382 418.867C471.952 410.712 462.099 402.997 453.112 394.343L445.156 386.106C441.516 382.383 438.159 379.381 436.126 374.458L435.493 373L434.876 372.392C432.578 366.318 425.899 361.27 421.302 356.77L401.478 338.252L403.015 337.89Z"/>
	<path fill="#003049" transform="scale(0.5 0.5)" d="M317.67 287.917C325.052 292.666 332.089 298.468 339.179 303.685L365.273 322.38L407.75 355.908C412.942 359.758 418.78 362.379 424.235 365.765C427.087 367.535 429.843 370.399 432.75 371.86C433.536 372.255 434.026 372.379 434.876 372.392L435.493 373L436.126 374.458C438.159 379.381 441.516 382.383 445.156 386.106L453.112 394.343C462.099 402.997 471.952 410.712 481.382 418.867L522.502 455.3L537.188 469.464C540.175 472.413 543.052 475.549 546.549 477.901C547.079 478.484 547.538 478.961 548.16 479.45L563.423 496.568L576.491 509.155L615.521 546.855L623.944 554.75C625.624 556.475 627.094 558.441 628.887 560.051C630.851 561.814 634.614 563.352 636.122 565.171C636.842 566.038 636.929 569.626 637.074 570.896C636.096 572.909 635.146 574.856 633.878 576.71C629.187 573.822 624.94 570.483 620.48 567.268L593 546.042C588.472 542.312 584.288 538.724 579.475 535.334C576.892 532.979 574.247 530.65 571.295 528.761L565.65 524.906L447.148 428.429L306.827 319.25L305.531 319.545C306.031 320.614 305.833 320.636 306.943 321.189C310.405 322.914 313.751 326.127 316.815 328.496L338.454 345.552C342.399 348.694 346.652 351.014 350.684 353.899C353.357 355.811 355.834 358.519 358.448 360.611L379.735 377.29L388.56 385.274C390.654 387.055 393.303 388.176 395.49 389.945L424.638 413.807L453.241 436.088C455.866 438.23 458.116 440.796 460.755 442.916L489.566 465.445L544.529 509.853L564.871 526.374C568.727 529.741 572.73 533.425 577.336 535.754C580.128 538.252 582.91 540.791 585.935 543.009C587.969 544.5 590.254 545.628 592.247 547.167L602.078 555.396L610.368 561.484C613.972 564.361 617.181 567.593 620.605 570.666C623.065 572.872 628.384 576.819 629.25 580.081C629.559 581.245 629.346 582.186 628.75 583.171L301.236 323.016C301.759 322.027 302.127 321.32 302.928 320.515L303.488 320C303.332 318.212 300.994 317.13 300.353 315L301.489 313.908L304.289 316.423C305.346 317.015 306.286 317.768 307.25 318.498L310.5 317.452C314.704 315.859 316.516 313.441 318.331 309.466C321.764 301.947 320.411 295.281 317.67 287.917Z"/>
	<path fill="#FDFDF9" transform="scale(0.5 0.5)" d="M998.267 942.919C999.602 945.7 1000.51 948.439 1001.38 951.393C987.861 941.196 975.072 929.564 962.25 918.491L913.128 876.685L888.693 856.21C883.082 851.467 877.053 845.591 870.787 841.833C869.915 841.311 869.179 840.95 868.641 840.048C865.807 835.288 859.703 830.833 855.463 827.217L821.121 799.367L583.766 613.091L551.461 589.107L530.033 572.25L510.287 557.401L536 570.053L544.438 574.891C547.497 575.177 550.325 576.167 553.325 576.818L579.428 583.744C588.941 586.546 597.903 588.03 606.652 593.029C610.418 595.181 613.557 598.331 616.866 601.114L640.5 621.506L656.024 634.415C659.588 637.28 663.571 639.616 667.217 642.386C673.836 647.415 720.48 684.575 725.814 682L725.251 681.483C724.466 680.726 724.735 681.061 724.25 680.082C726.917 679.7 730.305 681.474 732.993 681.995C733.415 681.712 733.672 681.382 734.003 681C732.345 677.082 727.91 673.571 724.964 670.447L734.778 674.38C744.363 681.073 752.587 690.275 760.956 698.416L813.348 751.105C821.401 761.484 832.286 769.619 841.154 779.32C849.229 788.314 858.034 797.763 867.04 805.802C869.236 807.762 871.769 809.265 874.036 811.14L890.655 825.529L947.789 877.25L966.213 893.845L982.177 908.066C985.146 910.86 988.403 913.715 990.76 917.059C993.798 921.368 994.328 926.807 995.161 931.868C996.446 935.495 997.63 939.114 998.267 942.919Z"/>
	<path fill="#D62828" transform="scale(0.5 0.5)" d="M998.267 942.919C990.142 933.752 979.378 926.015 970.146 917.89L931.535 884.857L898.632 856.142L882.479 843.123C879.355 840.532 875.74 837.877 873.507 834.426C872.172 832.364 870.922 829.491 870.822 827C870.744 825.032 871.183 822.946 870.87 820.999C870.486 818.604 869.144 815.967 868.245 813.704C870.302 816.827 872.159 820.141 874.569 823.005C883.519 833.639 894.895 842.267 905.347 851.294L950 889.529L987.528 923.906C990.04 926.273 992.166 929.15 994.66 931.421L995.161 931.868C996.446 935.495 997.63 939.114 998.267 942.919Z"/>
	<path fill="#005D88" transform="scale(0.5 0.5)" d="M719.716 698.134L787.333 753.481L812 772.458C815.931 775.533 819.914 779.638 824.25 782.056L824.795 781.5C824.266 779.46 821.936 777.703 820.459 776.245C821.764 776.693 822.363 777.055 823.5 777.745L824.22 778.09C825.147 778.554 825.711 779.094 826.5 779.745L827.076 780.186C831.32 783.584 833.581 787.793 839.784 787.3L840.789 787.207C849.861 798.515 861.951 812.765 865.006 827.109C860.015 824.662 855.824 820.919 851.498 817.478L831.214 801.285L752.391 737.829L713.439 707.897C715.151 704.528 717.708 701.383 719.716 698.134Z"/>
	<path fill="#01648F" transform="scale(0.5 0.5)" d="M544.438 574.891C547.497 575.177 550.325 576.167 553.325 576.818L579.428 583.744C588.941 586.546 597.903 588.03 606.652 593.029C610.418 595.181 613.557 598.331 616.866 601.114L640.5 621.506L656.024 634.415C659.588 637.28 663.571 639.616 667.217 642.386C673.836 647.415 720.48 684.575 725.814 682L725.251 681.483C724.466 680.726 724.735 681.061 724.25 680.082C726.917 679.7 730.305 681.474 732.993 681.995L731.706 682.75C732.344 683.979 735.437 685.249 736.677 686.193C740.764 689.301 744.619 693.075 748.397 696.557L791.797 738.281L808.318 753.542L825.754 771.46C830.904 776.728 836.241 781.317 840.789 787.207L839.784 787.3C833.581 787.793 831.32 783.584 827.076 780.186L826.5 779.745C825.711 779.094 825.147 778.554 824.22 778.09L823.5 777.745C822.363 777.055 821.764 776.693 820.459 776.245C821.936 777.703 824.266 779.46 824.795 781.5L824.25 782.056C819.914 779.638 815.931 775.533 812 772.458L787.333 753.481L719.716 698.134C717.708 701.383 715.151 704.528 713.439 707.897L544.438 574.891Z"/>
	<path transform="scale(0.5 0.5)" d="M608.567 613.208C605.091 610.763 601.868 607.788 598.544 605.127C594.831 602.156 590.38 599.102 587.521 595.302C595.464 599.129 602.906 605.332 609.649 610.984L788.914 751.757L820.459 776.245C821.936 777.703 824.266 779.46 824.795 781.5L824.25 782.056C819.914 779.638 815.931 775.533 812 772.458L787.333 753.481L719.716 698.134L608.567 613.208Z"/>
	<path fill="#FCBF49" transform="scale(0.5 0.5)" d="M566.192 708.06C570.928 710.512 574.798 714.341 579.198 717.361L628.337 752.142L725.25 819.4L763.014 844.727C750.256 853.171 737.23 859.048 723.416 865.347C721.324 866.301 719.384 867.557 717.28 868.503C714.956 869.549 712.368 869.91 710.011 870.87C677.481 884.107 641.921 893.232 607.13 897.753C593.643 899.505 580.088 900.03 566.506 900.506C565.297 895.037 566.137 887.855 566.162 882.195L566.241 847.819L566.08 750.035L566.192 708.06Z"/>
	<path fill="#FCBF49" transform="scale(0.5 0.5)" d="M717.144 138.576C733.057 143.915 748.425 151.75 763.153 159.75C790.719 174.724 815.344 192.002 838.776 212.83C846.475 219.673 854.516 226.938 861.51 234.5C876.363 250.557 889.624 267.983 901.382 286.406C905.855 293.413 911.169 300.746 914.821 308.174C925.673 330.247 936.352 351.764 943.846 375.277C953.235 404.737 958.121 435.95 959.752 466.755C962.537 519.332 955.934 573.085 938.565 622.89C927.373 654.985 913.075 684.799 894.875 713.505C883.764 731.029 871.793 747.787 857.635 763.022C852.517 768.528 847.558 775.297 841.154 779.32C832.286 769.619 821.401 761.484 813.348 751.105C815.318 748.822 816.968 746.263 818.984 744C820.573 742.217 822.476 740.646 823.758 738.618C826.718 733.937 830.654 729.668 834.123 725.338L847.893 707.164C858.795 691.881 867.435 674.795 875.721 657.984C902.346 603.963 912.662 543.854 911.842 484C911.634 468.858 911.269 453.756 908.982 438.75C905.493 415.846 900.281 393.018 893.036 371L885.259 349.589C882.396 345.022 879.983 339.243 877.97 334.253C873.146 322.982 867.406 312.556 861.214 302.008C843.193 271.307 821.123 243.866 795.325 219.335C789.628 213.918 784.168 208.423 778.077 203.426L747.596 179.767C741.169 174.762 734.943 170.236 729.455 164.136C723.385 157.387 719.153 147.311 717.144 138.576Z"/>
	<path fill="#003049" transform="scale(0.5 0.5)" d="M296.3 245.059C298.148 242.944 300.463 241.456 302.548 239.594L309.691 232.647C369.282 178.481 445.753 143.225 525.935 134.688C539.204 133.275 552.1 131.78 565.495 132.447L565.776 377.025C555.115 369.319 542.91 361.632 530.951 356.212C520.682 351.558 510.118 348.317 499.5 344.642L476.841 335.95C461.009 330.664 442.803 328.252 426.156 327.901L409.769 327.981L394.885 329.069C393.445 329.179 391.148 329.665 389.844 329.147C387.27 328.124 384.676 325.627 382.52 323.883L368.339 312.071C366.054 309.974 364.114 307.436 361.75 305.463C357.715 302.094 353.182 299.458 348.84 296.536L319.624 276.773C319.125 273.369 317.391 268.415 317.75 265.099C318.661 265.374 318.452 265.187 319.01 265.691C322.018 268.402 326.516 269.225 330.39 270.123C327.013 267.287 323.016 266.386 319.721 263.842C318.921 263.225 318.222 262.801 317.341 262.318L317.331 261.597C315.689 259.527 312.938 257.741 310.842 256.099L296.3 245.059Z"/>
	<path fill="#D62828" transform="scale(0.5 0.5)" d="M470.627 639.191C473.912 642.455 478.249 644.547 482.078 647.096L494.019 655.647L539.25 688.323C548.206 694.788 557.97 700.692 566.192 708.06L566.08 750.035L566.241 847.819L566.162 882.195C566.137 887.855 565.297 895.037 566.506 900.506C528.914 901.53 491.126 898.286 454.5 889.593C420.909 881.62 387.904 868.327 358.116 850.889L335.498 836.184C305.433 815.786 278.881 792.393 255.61 764.404C248.501 755.854 242.19 746.755 235.844 737.643L215.206 706.603C220.463 708.279 226.009 710.405 231.336 711.712C249.397 716.146 269.291 715.458 287.736 714.603C295.785 714.229 303.999 712.923 311.972 711.762C337.386 708.062 363.049 701.284 386.73 691.255C402.283 684.669 417.387 676.39 431.927 667.838C439.352 663.471 446.303 658.695 453.303 653.694C459.754 649.084 465.245 645.134 470.627 639.191Z"/>
	<path fill="#003049" transform="scale(0.5 0.5)" d="M215.206 706.603C203.387 685.69 193.819 664.247 185.369 641.764C181.067 630.319 178.025 618.572 175.014 606.75C172.506 596.901 169.868 587.302 168.119 577.25C163.644 551.516 162.24 525.642 163.021 499.564L163.743 478.063C166.494 444.367 174.499 410.704 188.4 379.833C202.525 390.3 214.813 403.012 227.986 414.595L259.104 441.67L265.691 447.409C265.995 447.684 267.313 448.729 267.444 448.998C267.878 449.884 267.686 453.236 267.753 454.391C268.368 464.879 271.956 474.367 280.154 481.349C282.147 483.048 284.392 484.398 286.447 486.01L307.837 502.943L318.984 512.6L342.428 531.109L409.204 585.852L421.722 595.531L443.5 613.506L457.118 624.875C462.285 629.185 467.259 633.219 470.627 639.191C465.245 645.134 459.754 649.084 453.303 653.694C446.303 658.695 439.352 663.471 431.927 667.838C417.387 676.39 402.283 684.669 386.73 691.255C363.049 701.284 337.386 708.062 311.972 711.762C303.999 712.923 295.785 714.229 287.736 714.603C269.291 715.458 249.397 716.146 231.336 711.712C226.009 710.405 220.463 708.279 215.206 706.603Z"/>
	<path fill="#F77F00" transform="scale(0.5 0.5)" d="M510.829 118.119C537.402 113.62 563.988 112.717 590.916 113.831C624.344 115.214 656.738 119.838 688.907 129.14C698.165 131.817 708.368 134.398 717.088 138.514L717.144 138.576C719.153 147.311 723.385 157.387 729.455 164.136C734.943 170.236 741.169 174.762 747.596 179.767L778.077 203.426C784.168 208.423 789.628 213.918 795.325 219.335C821.123 243.866 843.193 271.307 861.214 302.008C867.406 312.556 873.146 322.982 877.97 334.253C879.983 339.243 882.396 345.022 885.259 349.589L893.036 371C900.281 393.018 905.493 415.846 908.982 438.75C911.269 453.756 911.634 468.858 911.842 484C912.662 543.854 902.346 603.963 875.721 657.984C867.435 674.795 858.795 691.881 847.893 707.164L834.123 725.338C830.654 729.668 826.718 733.937 823.758 738.618C822.476 740.646 820.573 742.217 818.984 744C816.968 746.263 815.318 748.822 813.348 751.105L760.956 698.416C752.587 690.275 744.363 681.073 734.778 674.38C733.053 671.033 729.875 668.051 727.292 665.344C721.75 659.536 717.54 654.624 710.075 651.234L715.171 648.353C722.088 643.641 726.819 637.073 728.299 628.789L728.414 628.117C728.571 626.192 728.439 624.345 728.301 622.421C727.293 620.271 727.033 619.868 727.339 617.547L727.383 615.5C725.299 612.029 722.058 609.353 719.029 606.726C715.63 603.779 712.223 600.628 708.495 598.108L690.389 587.091C685.451 583.778 678.555 577.326 672.91 575.836C673.846 553.656 670.927 532.647 662.774 511.901L657.656 499.934C656.149 496.645 654.399 493.749 652.524 490.669C655.243 490.803 657.554 490.722 660.25 490.169L660.973 490.026C664.159 489.343 666.944 487.554 670.068 486.774C672.846 486.081 676.135 486.645 679 486.38C682.314 486.073 685.037 484.375 687.605 482.385L725.407 515.5L725.521 516.423C726.022 519.669 729.535 522.238 732.12 523.972C733.976 525.216 736.987 526.775 739.316 526.24C741.203 525.806 743.295 523.809 744.929 523.556C745.705 523.437 751.852 526.878 753.129 527.479C751.826 526.388 746.152 522.568 745.95 521.332L745.932 520.661L745.288 519.041L745.267 518.124C744.958 513.595 742.935 511.799 739.795 508.908L732.144 504.163C728.749 501.843 725.189 500.438 722.461 497.224L722.288 497.039C720.604 495.606 718.275 494.65 716.447 493.317C710.883 489.259 705.566 484.264 699.418 481.125C699.133 481.849 698.964 482.253 698.456 482.86C697.038 481.696 693.527 478.671 692.943 476.932C692.894 476.787 693.061 476.65 693.12 476.509C695.266 471.364 696.433 467.102 695.726 461.511C694.814 454.296 688.695 445.388 681.799 442.599C678.714 441.351 676.386 441.812 673.586 439.633L673.14 439.278L655.348 425.817L621.576 400.524L620.25 399.534L619.491 400.25C621.683 403.443 625.547 406.055 628.422 408.682L649.042 428.013C650.95 429.963 652.929 431.925 654.64 434.053C656.874 436.831 657.948 439.456 661.299 441.054C661.973 441.375 662.466 441.732 663.019 442.229C659.537 441.264 657.045 440.947 653.731 442.813C651.159 444.261 645.859 447.06 644.07 449.266C641.337 451.086 638.964 452.605 637.558 455.69C636.562 454.732 635.831 453.042 635.128 451.828L630.242 443.606L620.834 430.091C609.522 415.174 596.159 401.253 581.748 389.296L565.776 377.025L565.495 132.447L565.286 114.987C547.821 115.335 529.603 115.98 512.424 119.441L510.829 118.119Z"/>
	<path fill="#E6EDE7" transform="scale(0.5 0.5)" d="M736.935 502.329C739.723 504.078 742.847 505.71 744.987 508.235C743.174 508.067 741.556 508.512 739.795 508.908L732.144 504.163C733.826 504.037 735.185 503.905 736.75 503.255L736.935 502.329Z"/>
	<path fill="#B8E2E3" transform="scale(0.5 0.5)" d="M739.795 508.908C741.556 508.512 743.174 508.067 744.987 508.235C746.273 511.31 748.339 515.041 747.338 518.478C747.145 519.138 746.694 519.63 746.291 520.165L745.932 520.661L745.288 519.041L745.267 518.124C744.958 513.595 742.935 511.799 739.795 508.908Z"/>
	<path fill="#E7EAE8" transform="scale(0.5 0.5)" d="M722.461 497.224C724.899 496.3 727.999 497.023 730.373 498.101C732.662 499.141 734.989 500.74 736.935 502.329L736.75 503.255C735.185 503.905 733.826 504.037 732.144 504.163C728.749 501.843 725.189 500.438 722.461 497.224Z"/>
	<defs>
		<linearGradient id="gradient_3" gradientUnits="userSpaceOnUse" x1="662.18756" y1="433.42093" x2="667.55243" y2="429.39917">
			<stop offset="0" stop-color="#FFFFE8"/>
			<stop offset="1" stop-color="#FBFAFB"/>
		</linearGradient>
	</defs>
	<path fill="url(#gradient_3)" transform="scale(0.5 0.5)" d="M655.862 423.28L667.536 431.854C670.063 433.677 672.905 434.866 674.804 437.417L675.253 438.008L675.502 438.38C674.72 438.656 673.862 438.88 673.14 439.278L655.348 425.817L655.564 425.385L655.862 423.28Z"/>
	<path fill="#EEF0E1" transform="scale(0.5 0.5)" d="M621.576 400.524C625.198 400.465 631.905 406.248 635.002 408.445L655.862 423.28L655.564 425.385L655.348 425.817L621.576 400.524Z"/>
	<path fill="#FDFDF9" transform="scale(0.5 0.5)" d="M675.502 438.38L676.049 438.398C676.952 438.373 677.649 438.169 678.519 437.967C683.122 436.899 690.163 438.887 694.024 441.387C699.34 444.83 703.008 450.318 704.325 456.499C705.753 463.194 703.917 469.559 700.982 475.565C700.489 476.576 699.194 478.46 699.021 479.5C698.94 479.983 699.219 480.704 699.418 481.125C699.133 481.849 698.964 482.253 698.456 482.86C697.038 481.696 693.527 478.671 692.943 476.932C692.894 476.787 693.061 476.65 693.12 476.509C695.266 471.364 696.433 467.102 695.726 461.511C694.814 454.296 688.695 445.388 681.799 442.599C678.714 441.351 676.386 441.812 673.586 439.633L673.14 439.278C673.862 438.88 674.72 438.656 675.502 438.38Z"/>
</svg>
