<?xml version="1.0" encoding="utf-8" ?>
<svg xmlns="http://www.w3.org/2000/svg" xmlns:xlink="http://www.w3.org/1999/xlink" width="512" height="512">
	<path transform="scale(0.5 0.5)" d="M-0 -0L1024 0L1024 1024L-0 1024L0 -0Z"/>
	<path fill="#003049" transform="scale(0.5 0.5)" d="M447.055 376.43L444.25 373.259L444.504 372.584C446.995 371.022 448.932 371.465 451.686 371.906C449.954 373.329 448.604 374.844 447.055 376.43Z"/>
	<path fill="#003049" transform="scale(0.5 0.5)" d="M448.083 378.04C449.659 376.957 450.842 375.872 452.079 374.409L452.465 373.945L453.434 373.989C453.485 375.892 453.729 377.64 452.75 379.343C451.239 380.197 449.922 380.072 448.25 380.045L447.519 379.258L448.083 378.04Z"/>
	<path fill="#003049" transform="scale(0.5 0.5)" d="M443.864 366.25L446.25 366.055C447 367.099 447.5 367.681 447.63 369C446.309 370.362 444.521 371.211 442.886 372.147C441.721 370.982 440.736 369.478 439.725 368.173L443.864 366.25Z"/>
	<path fill="#89181C" transform="scale(0.5 0.5)" d="M64.8054 314.25C68.6909 313.945 87.912 313.347 90.25 315.207C87.3563 316.863 81.8786 316.448 78.6102 316.506L59.7975 316.378C57.5134 316.292 54.5926 316.468 52.5479 315.398L52.4086 314.75C56.4201 314.119 60.741 314.33 64.8054 314.25Z"/>
	<path fill="#D62828" transform="scale(0.5 0.5)" d="M255.288 287.674C260.345 287.969 265.551 287.293 270.663 287.315L311.632 287.536C321.843 287.467 331.896 288.555 342.125 287.366C340.081 289.228 337.937 290.496 335.146 290.83C330.432 291.394 325.164 290.824 320.397 290.789L285.922 290.652L265.738 290.974C264.075 290.978 260.979 291.395 259.42 290.957C258.455 290.687 256.198 288.397 255.288 287.674Z"/>
	<path fill="#003049" transform="scale(0.5 0.5)" d="M178.966 237.375C181.629 236.418 184.411 235.558 187.224 235.192C191.948 234.576 197.321 235.108 202.13 235.074L236.368 234.965C236.11 236.246 235.965 237.616 235.284 238.75C236.742 239.58 238.787 239.291 240.438 239.289L253.444 239.27C254.916 239.265 256.782 238.943 258 239.755L272.022 239.765C274.786 239.771 277.831 239.516 280.539 240.05C272.116 240.885 263.32 240.395 254.853 240.402L212.448 240.378L195.524 240.393C193.382 240.416 190.648 240.124 188.56 240.51C187.398 240.725 185.594 241.626 184.783 242.515L178.966 237.375Z"/>
	<defs>
		<linearGradient id="gradient_0" gradientUnits="userSpaceOnUse" x1="477.306" y1="206.92575" x2="480.99686" y2="233.17227">
			<stop offset="0" stop-color="#F9F6C4"/>
			<stop offset="1" stop-color="white"/>
		</linearGradient>
	</defs>
	<path fill="url(#gradient_0)" transform="scale(0.5 0.5)" d="M457.119 211.669L457.468 211.452L458.573 210.032C459.539 209.067 461.212 209.449 462.468 209.46L482.787 219.403C490.239 223.222 497.039 226.349 503.639 231.589C495.854 231.995 487.938 231.405 480.137 231.356C471.423 231.301 462.47 232.007 453.812 231.045C457.197 230.485 460.709 230.009 464 229.014C469.306 227.409 474.301 225.153 479.689 223.686C476.356 222.668 473.286 221.222 470.138 219.742C468.004 216.338 460.83 213.495 457.119 211.669Z"/>
	<defs>
		<linearGradient id="gradient_1" gradientUnits="userSpaceOnUse" x1="293.79462" y1="283.24783" x2="294.19159" y2="276.48712">
			<stop offset="0" stop-color="#FFFEBA"/>
			<stop offset="1" stop-color="#FBFBE8"/>
		</linearGradient>
	</defs>
	<path fill="url(#gradient_1)" transform="scale(0.5 0.5)" d="M330.853 278.548C336.314 278.517 343.244 277.856 348.483 279.122L348.841 279.899L347.787 281.544C342.466 283.096 335.949 282.459 330.423 282.46L296.5 282.096L251 282.031C247.402 281.891 243.871 280.75 240.322 280.638C239.4 280.609 238.765 280.963 237.972 281.383L217 279.271L216.745 278.75L330.853 278.548Z"/>
	<path fill="#FEF6B6" transform="scale(0.5 0.5)" d="M89.802 169.109L185.3 168.912L215.144 168.636C220.059 168.623 225.23 168.286 230.106 168.897L247.62 186.351L246.325 188.16L236.742 178.807C235.287 177.314 233.53 175.793 232.491 173.986L231.555 172.929C226.425 171.799 219.55 172.274 214.257 172.421C210.134 171.788 205.595 172.064 201.427 172.027L179.303 171.884L89.3192 171.913C86.9929 171.213 84.1957 170.334 81.7554 170.261L81 170.255L81.0028 169.739C83.4942 169.748 86.4431 170.024 88.8524 169.383L89.802 169.109Z"/>
	<path fill="#F77F00" transform="scale(0.5 0.5)" d="M237.972 281.383C238.765 280.963 239.4 280.609 240.322 280.638C243.871 280.75 247.402 281.891 251 282.031L296.5 282.096L330.423 282.46C335.949 282.459 342.466 283.096 347.787 281.544L346.868 283.21C345.373 284.598 343.85 286.282 342.125 287.366C331.896 288.555 321.843 287.467 311.632 287.536L270.663 287.315C265.551 287.293 260.345 287.969 255.288 287.674C250.049 284.018 244.055 282.872 237.972 281.383Z"/>
	<path fill="#05507D" transform="scale(0.5 0.5)" d="M382.096 356.99C384.098 356.803 388.586 357.258 390.25 356.355C390.658 356.465 391.39 356.515 391.624 356.871L391.35 357.138C393.93 358.488 395.437 361.787 397.202 364.036C405.946 375.18 413.485 386.872 421.376 398.613C427.78 408.144 434.556 417.282 439.443 427.728C433.759 423.766 429.485 416.938 424.963 411.747L396.75 379.446L387.906 368.548C386.577 366.844 385.449 364.308 383.671 363.073C381.964 361.889 380.211 360.514 379.512 358.5L380.029 357.548L382.096 356.99Z"/>
	<path fill="#F77F00" transform="scale(0.5 0.5)" d="M55.5817 169.635C58.4878 168.834 62.2627 169.173 65.2785 169.112L89.802 169.109L88.8524 169.383C86.4431 170.024 83.4942 169.748 81.0028 169.739L81 170.255L81.7554 170.261C84.1957 170.334 86.9929 171.213 89.3192 171.913L179.303 171.884L201.427 172.027C205.595 172.064 210.134 171.788 214.257 172.421C219.55 172.274 226.425 171.799 231.555 172.929L232.491 173.986C223.387 174.955 214.145 174.953 204.998 175.031C199.991 175.073 194.73 175.431 189.747 175.044C186.441 175.979 180.89 175.269 177.313 175.309L131.794 175.407L72.3626 175.628L55.8992 175.687C55.5814 175.25 55.4099 175.078 55.25 174.494C54.7914 172.817 54.8956 171.168 55.5817 169.635Z"/>
	<path fill="#FCBF49" transform="scale(0.5 0.5)" d="M55.5817 169.635C58.4878 168.834 62.2627 169.173 65.2785 169.112L89.802 169.109L88.8524 169.383C86.4431 170.024 83.4942 169.748 81.0028 169.739L81 170.255L81.7554 170.261C84.1957 170.334 86.9929 171.213 89.3192 171.913L56.25 170.935L55.5817 169.635Z"/>
	<path fill="#05507D" transform="scale(0.5 0.5)" d="M444.572 352.47L522.059 352.085L557.434 352.522L635.548 352.968C649.411 353.289 663.199 353.269 676.994 354.826C667.472 357.85 656.519 355.607 646.75 355.53L627.25 355.949L613.414 355.635L595.516 356.059L521.25 355.7L443.2 356.226L443.153 356.142L444.192 354.914C443.479 353.831 444.373 353.782 444.572 352.47Z"/>
	<path fill="#003049" transform="scale(0.5 0.5)" d="M77.7347 490.779L192.306 491.052C193.805 492.077 195.154 493.118 196.991 493.407L198 493.549L198.27 494.25C195.489 496.234 192.051 496.452 188.735 496.617C181.833 496.959 174.784 496.539 167.875 496.329L125.519 496.674L74.5 496.17L55.5263 496.42C54.2165 496.422 51.6043 496.775 50.5 496.426C50.1258 496.308 49.8576 495.975 49.5363 495.75C49.7817 494.116 49.7326 493.081 50.75 491.755L77.7347 490.779Z"/>
	<defs>
		<linearGradient id="gradient_2" gradientUnits="userSpaceOnUse" x1="374.89651" y1="229.84651" x2="375.50943" y2="244.85097">
			<stop offset="0" stop-color="#003B60"/>
			<stop offset="1" stop-color="#0F74A0"/>
		</linearGradient>
	</defs>
	<path fill="url(#gradient_2)" transform="scale(0.5 0.5)" d="M236.368 234.965L314.914 237.573L456.195 237.476C459.058 238.265 463.778 237.607 466.818 237.598L512.261 236.45L515.596 236.75L516.137 237.5C515.628 238.67 515.569 239.542 514.25 239.964C510.271 241.236 503.984 240.512 499.804 240.508L470.569 240.508L360.489 240.496L329.136 240.037L295.402 240.043C290.72 240.061 285.136 240.706 280.539 240.05C277.831 239.516 274.786 239.771 272.022 239.765L258 239.755C256.782 238.943 254.916 239.265 253.444 239.27L240.438 239.289C238.787 239.291 236.742 239.58 235.284 238.75C235.965 237.616 236.11 236.246 236.368 234.965Z"/>
	<path fill="#003049" transform="scale(0.5 0.5)" d="M382.096 356.99L381.554 357.053L365.5 356.964L254.872 356.915L235.5 356.908C234.492 356.914 231.06 357.297 230.25 356.946C229.938 356.81 229.752 356.482 229.502 356.25C229.738 355.289 229.832 354.622 230.544 353.882C230.684 353.737 230.815 353.566 231 353.483C231.662 353.187 233.431 353.229 234.235 353.181L244.25 352.987L294.811 352.903L346.252 352.609L363.313 352.961L444.572 352.47C444.373 353.782 443.479 353.831 444.192 354.914L443.153 356.142L391.624 356.871C391.39 356.515 390.658 356.465 390.25 356.355C388.586 357.258 384.098 356.803 382.096 356.99Z"/>
	<path fill="#003049" transform="scale(0.5 0.5)" d="M317.116 235.639L296.85 235.152C295.195 235.097 292.09 235.67 290.776 234.75L291.25 234.264C294.235 232.136 303.163 233.382 306.75 233.367L361.625 233.193L450.758 234.006C456.297 234.072 461.911 233.131 467.5 233.147L490.098 234.237C494.903 234.362 500.423 233.728 505 235.064C507.344 235.747 509.889 235.729 512.261 236.45L466.818 237.598C463.778 237.607 459.058 238.265 456.195 237.476L314.914 237.573L329.489 237.257C329.024 236.756 307.273 236.849 304.5 236.877C303.17 236.891 301.45 237.279 300.21 236.797C298.713 236.214 296.381 236.502 294.75 236.5L294.857 236.107L304.75 236.242C306.612 236.232 309.165 235.626 310.904 236.212C312.452 236.735 314.407 236.489 316.048 236.5C320.312 236.528 325.122 236.94 329.302 236.247L318 236.042L317.116 235.639Z"/>
	<path fill="#F77F00" transform="scale(0.5 0.5)" d="M261.725 199.075L257.631 195.491C263.112 197.301 267.837 197.06 273.501 197.135L287.661 197.708L329.5 198.902L380.176 197.529L401.07 197.353C404.585 197.347 408.406 197.122 411.889 197.573C414.045 197.851 416.267 198.583 418.43 198.998C422.942 199.862 427.637 200.393 432.047 201.685C440.716 204.225 448.925 207.963 457.119 211.669C460.83 213.495 468.004 216.338 470.138 219.742L445.485 208.92C435.737 205.188 424.623 203.016 414.197 202.515L331.861 202.838L266.381 202.881L265.808 203.022C264.82 201.477 263.108 200.268 261.725 199.075Z"/>
	<defs>
		<linearGradient id="gradient_3" gradientUnits="userSpaceOnUse" x1="358.82544" y1="204.74048" x2="359.59851" y2="191.49588">
			<stop offset="0" stop-color="#F8E998"/>
			<stop offset="1" stop-color="#FFFDD6"/>
		</linearGradient>
	</defs>
	<path fill="url(#gradient_3)" transform="scale(0.5 0.5)" d="M246.325 188.16L247.62 186.351C248.75 187.281 251.19 189.853 252.474 190.178L256.75 194.198C257.385 194.023 257.935 193.786 258.549 193.574C261.625 192.509 267.424 193.24 270.769 193.174L333.561 193.08L380.111 193.016C389.94 193.036 400.084 192.698 409.833 194.057C418.679 195.29 427.637 197.705 436.218 200.159C445.334 202.765 453.866 205.372 462.468 209.46C461.212 209.449 459.539 209.067 458.573 210.032L457.468 211.452L457.119 211.669C448.925 207.963 440.716 204.225 432.047 201.685C427.637 200.393 422.942 199.862 418.43 198.998C416.267 198.583 414.045 197.851 411.889 197.573C408.406 197.122 404.585 197.347 401.07 197.353L380.176 197.529L329.5 198.902L287.661 197.708L273.501 197.135C267.837 197.06 263.112 197.301 257.631 195.491L261.725 199.075C263.108 200.268 264.82 201.477 265.808 203.022C264.421 203.05 263.682 202.757 262.434 202.231C256.577 197.812 251.371 193.54 246.325 188.16Z"/>
	<path fill="#003049" transform="scale(0.5 0.5)" d="M266.381 202.881C267.733 205.731 271.037 208.11 273.286 210.26L283.948 220.608L246.92 220.508L234.167 220.455C232.374 220.424 230.533 220.575 228.885 219.748L228.25 219.399C223.815 217.028 220.236 213.528 216.185 210.588C212.686 208.048 206.79 205.032 204.195 201.721C209.484 203.026 215.101 202.882 220.513 202.881L240.302 202.913L252.91 203.026C255.947 203.054 258.993 203.297 261.93 202.401L262.434 202.231C263.682 202.757 264.421 203.05 265.808 203.022L266.381 202.881Z"/>
	<path fill="#F77F00" transform="scale(0.5 0.5)" d="M184.783 242.515C182.131 243.546 176.679 242.787 173.637 242.736L152.344 242.574L51.9694 242.081L52.9864 231.146L75.856 230.98L121.815 230.885L146.489 230.932C151.546 230.939 156.853 230.637 161.873 231.306L162.75 231.431C168.799 232.23 173.662 234.454 178.966 237.375L184.783 242.515Z"/>
	<path fill="#F77F00" transform="scale(0.5 0.5)" d="M125.361 465.246L159.643 465.72C169.732 466.828 177.917 470.668 184.326 478.652L110.809 477.546L51.3388 477.469L51.0846 477.03L51.9191 465.985L125.361 465.246Z"/>
	<path fill="#008DB8" transform="scale(0.5 0.5)" d="M528.575 445.535C525.372 445.501 522.57 446.446 519.455 446.812C516.284 447.185 512.925 447.054 509.729 447.087C498.851 439.154 487.442 430.923 478.941 420.393L520.784 413.004L652.318 384.443L671.716 378.75C678.165 376.835 684.995 375.069 691.249 372.615C694.117 371.489 697.961 367.47 700.617 366.995C703.484 366.482 707.827 367.132 710.882 367.107L748.5 366.932C752.056 366.841 755.58 365.579 759.094 365.731C750.27 374.447 736.73 381.271 725.172 385.598C717.598 388.434 709.052 390.99 701.881 394.665L701.449 394.798C694.592 396.955 688.11 400.19 681.5 402.974L656.172 412.572L607.5 428.527C581.758 435.779 554.987 441.249 528.575 445.535Z"/>
	<path fill="#F77F00" transform="scale(0.5 0.5)" d="M97.4043 323.701C103.452 316.374 112.053 310.973 121.613 310.066L232.239 309.485C230.158 315.738 226.881 321.204 223.994 327.089C222.214 330.714 220.944 334.605 218.99 338.138C209.713 354.911 194.4 372.005 177.167 380.669C158.601 390.005 133.151 395.696 112.87 388.841C104.646 386.062 96.9392 380.252 93.1386 372.312C87.65 360.847 87.5476 345.121 92.0272 333.295C92.7075 331.499 93.6482 329.657 94.6715 328.034L97.4043 323.701Z"/>
	<path fill="#FCFEE4" transform="scale(0.5 0.5)" d="M97.4043 323.701L97.9343 323.568C103.955 322.188 111.13 322.851 117.322 322.87L153.5 323.146L211.539 323.404C213.848 323.454 216.23 322.862 218.5 323.014C219.717 323.095 220.827 323.609 221.94 324.053L222.778 324.364L223.274 324.571C222.494 326.65 221.554 330.024 219.469 331.068C217.442 332.083 213.19 331.221 210.868 331.179L185.091 330.679L150.706 330.858L114.75 330.606L94.6043 331.298C94.1566 330.007 94.4158 329.329 94.6715 328.034L97.4043 323.701Z"/>
	<path fill="#003049" transform="scale(0.5 0.5)" d="M468.519 279.494C472.487 278.832 477.247 279.11 481.255 279.535L496.702 279.538C497.082 280.453 497.554 281.283 498.034 282.148C505.427 282.693 513.304 282.329 520.571 283.495L523.25 283.849L523.541 284.5C522.11 285.584 519.316 285.198 517.493 285.25C517.424 286.152 517.404 285.747 517.499 286.469C530.566 287.09 544.461 288.348 557.04 292.233C558.023 292.537 560.642 293.046 561.379 293.651C563.826 294.136 565.779 294.929 567.651 296.623C569.196 296.474 571.105 296.141 572.637 296.405C574.788 296.777 577.329 298.435 579.409 299.233L590.585 303.07C596.755 305.41 602.812 308.298 608.647 311.378C611.904 313.098 615.586 314.854 618.441 317.198C620.914 319.227 625.144 322.255 625.749 325.328C645.938 329.311 665.833 335.853 684.896 343.556C683.047 340.98 681.1 338.954 678.743 336.837C680.377 337.694 682.303 338.925 684.095 339.361C687.753 340.252 692.277 340.031 696.05 340.179C703.585 340.474 711.06 340.744 718.519 341.953C727.128 343.348 734.898 345.551 743.257 347.775L753.144 350.016C750.267 350.312 747.249 349.746 744.355 349.594L727.74 348.907C711.029 348.367 694.123 348.982 677.489 346.98C674.702 346.644 672.007 345.761 669.25 345.262L652.75 342.549C637.675 340.029 622.285 338.127 606.99 337.719L511.164 337.494L329.75 337.464L275.146 337.499L238.937 337.072L253.678 312.456C258.265 311.725 263.229 312.009 267.869 311.97L291.581 311.808L378.212 312.032L409.376 311.851C414.541 311.761 419.877 311.913 425.014 311.386L425.452 311.338L425.847 310.347C431.201 297.976 442.77 289.855 454.929 285.165C458.405 282.893 462.548 281.388 466.176 279.247L467.903 279.631L468.519 279.494Z"/>
	<path fill="#FCBF49" transform="scale(0.5 0.5)" d="M567.651 296.623C569.196 296.474 571.105 296.141 572.637 296.405C574.788 296.777 577.329 298.435 579.409 299.233L590.585 303.07C596.755 305.41 602.812 308.298 608.647 311.378C611.904 313.098 615.586 314.854 618.441 317.198C620.914 319.227 625.144 322.255 625.749 325.328L550.946 313.982C553.648 312.909 556.43 312.823 559.298 312.589L560.722 312.895C562.689 313.206 565.101 312.887 566.729 311.7L567.574 311.072L569.25 310.28C569.954 309.787 570.208 309.02 570.38 308.22C571.221 304.326 569.712 299.803 567.651 296.623Z"/>
	<path fill="#F77F00" transform="scale(0.5 0.5)" d="M468.519 279.494C472.487 278.832 477.247 279.11 481.255 279.535L496.702 279.538C497.082 280.453 497.554 281.283 498.034 282.148C505.427 282.693 513.304 282.329 520.571 283.495L523.25 283.849L523.541 284.5C522.11 285.584 519.316 285.198 517.493 285.25C517.424 286.152 517.404 285.747 517.499 286.469C530.566 287.09 544.461 288.348 557.04 292.233C558.023 292.537 560.642 293.046 561.379 293.651C563.826 294.136 565.779 294.929 567.651 296.623C569.712 299.803 571.221 304.326 570.38 308.22C570.208 309.02 569.954 309.787 569.25 310.28L567.574 311.072L566.729 311.7C565.101 312.887 562.689 313.206 560.722 312.895L559.298 312.589C556.43 312.823 553.648 312.909 550.946 313.982L425.452 311.338L425.847 310.347C431.201 297.976 442.77 289.855 454.929 285.165C458.405 282.893 462.548 281.388 466.176 279.247L467.903 279.631L468.519 279.494Z"/>
	<path fill="#F8FEAA" transform="scale(0.5 0.5)" d="M489.333 284.547L505.172 284.144C507.238 284.168 509.567 284.01 511.579 284.421L504.127 284.75L503.611 285.815L489.29 285.733L489.333 284.547Z"/>
	<path fill="#FCFEE4" transform="scale(0.5 0.5)" d="M520.571 283.495L523.25 283.849L523.541 284.5C522.11 285.584 519.316 285.198 517.493 285.25C517.424 286.152 517.404 285.747 517.499 286.469L511.789 286.381C509.4 285.502 506.157 285.845 503.611 285.815L504.127 284.75L511.579 284.421L519.942 284.227L520.571 283.495Z"/>
	<path fill="#FCBF49" transform="scale(0.5 0.5)" d="M468.519 279.494C472.487 278.832 477.247 279.11 481.255 279.535L481.096 281.543L480.866 281.638C477.872 282.246 470.699 282.653 468.25 280.981L468.519 279.494Z"/>
	<path fill="#F8FEAA" transform="scale(0.5 0.5)" d="M481.255 279.535L496.702 279.538C497.082 280.453 497.554 281.283 498.034 282.148L481.096 281.543L481.255 279.535Z"/>
	<path fill="#FDB607" transform="scale(0.5 0.5)" d="M561.379 293.651C563.826 294.136 565.779 294.929 567.651 296.623C569.712 299.803 571.221 304.326 570.38 308.22C570.208 309.02 569.954 309.787 569.25 310.28L567.574 311.072L566.729 311.7C565.101 312.887 562.689 313.206 560.722 312.895L559.298 312.589C561.921 311.624 566.575 310.647 568.309 308.335C568.863 307.596 568.992 306.39 568.892 305.504C568.506 302.111 566.078 297.753 563.469 295.541L561.379 293.651Z"/>
	<path fill="#FEF6B6" transform="scale(0.5 0.5)" d="M466.019 285.568C469.46 283.545 484.773 284.506 489.333 284.547L489.29 285.733L503.611 285.815C506.157 285.845 509.4 285.502 511.789 286.381L485 286.485C478.721 286.513 472.18 286.979 466.019 285.568Z"/>
	<path fill="#003049" transform="scale(0.5 0.5)" d="M266.479 857.095L822.494 857.141C820.741 859.385 817.656 861.158 815.417 863.001C808.728 868.509 802.014 873.826 794.778 878.63C791.631 880.719 788.202 882.342 785.015 884.365L767.908 895.336C760.193 900.024 751.626 903.942 743.496 907.86C728.332 915.167 712.589 920.973 696.621 926.194L685.973 929.935L672.5 933.493C669.506 934.362 666.607 935.571 663.584 936.342L649.409 939.287C606.826 948.563 563.241 951.354 519.75 949.663C493.961 948.66 468.613 946.529 443.251 941.495C428.094 938.486 412.551 934.681 397.832 929.978L378.952 923.239C364.657 918.194 350.985 911.576 337.521 904.657C326.978 899.239 316.567 893.796 306.5 887.503L286.554 873.894C281.202 870.377 275.9 866.707 271.158 862.373C269.434 860.798 267.498 859.228 266.479 857.095Z"/>
	<path fill="#D62828" transform="scale(0.5 0.5)" d="M591.999 725.017L931.554 725.456L919.358 745.108C915.325 750.759 912.25 756.974 908.245 762.702L891.671 786.034L886.166 793.11C885.502 793.93 884.319 795.029 883.876 795.963C877.417 804.784 869.898 812.331 862.59 820.377L853.446 830.363C852.195 831.604 851.036 832.966 849.426 833.736L822.494 857.141L266.479 857.095C262.112 855.009 258.2 851.06 254.515 847.933C246.333 840.991 238.105 833.793 230.582 826.138L221.056 815.482L195.48 786.619C192.865 784.56 191.038 781.043 189.045 778.366L179.544 765.5C177.452 762.514 174.99 759.593 174.075 756C180.788 755.099 191.074 752.497 195.614 747.286C198.025 744.517 199.689 741.825 202.801 739.725L203.433 739.305C206.717 737.704 209.657 735.901 213.212 734.903C224.198 731.817 234.524 733.385 244.378 738.881L561.965 739.079L569.662 738.98L569.596 738.558C569.108 735.391 567.484 727.888 569.371 725.317C576.168 723.911 585.004 724.863 591.999 725.017Z"/>
	<path fill="#F77F00" transform="scale(0.5 0.5)" d="M591.999 725.017L931.554 725.456L919.358 745.108C910.426 743.905 900.603 744.555 891.562 744.453L829.25 744.445L772.569 744.175L650.585 744.212L608.5 744.077C606.661 744.106 604.836 744.467 603 744.477C600.112 744.493 597.204 744.091 594.298 744.069C586.794 744.015 579.039 744.482 571.572 743.864C571.232 742.6 571.155 741.299 571.029 740C569.777 738.921 564.002 739.302 561.965 739.079L569.662 738.98L569.596 738.558C569.108 735.391 567.484 727.888 569.371 725.317C576.168 723.911 585.004 724.863 591.999 725.017Z"/>
	<path fill="#003049" transform="scale(0.5 0.5)" d="M465.875 795.918L883.876 795.963C877.417 804.784 869.898 812.331 862.59 820.377L853.446 830.363C852.195 831.604 851.036 832.966 849.426 833.736C838.173 829.786 825.87 827.614 814.161 825.454C755.249 814.583 694.736 814.823 635.511 822.882L596.225 828.532C589.303 829.602 582.301 831.297 575.308 831.721C574.284 831.783 572.296 832.201 571.343 831.992C570.541 831.815 569.25 830.911 568.494 830.52L560.047 826.1C556.342 824.309 552.459 822.966 548.691 821.324C544.772 819.617 540.944 817.629 536.888 816.27L491 802.401C482.757 800.219 473.689 799.36 465.875 795.918Z"/>
	<path fill="#008DB8" transform="scale(0.5 0.5)" d="M203.433 739.305C206.717 737.704 209.657 735.901 213.212 734.903C224.198 731.817 234.524 733.385 244.378 738.881C246.982 741.39 249.578 743.893 251.954 746.624C255.671 750.897 259.302 755.94 264.663 758.2C268.33 759.746 272.288 760.302 276.131 761.252C286.994 763.939 297.675 765.861 308.848 766.948C320.452 768.076 332.545 768.283 343.881 771.224C357.636 774.792 371.275 778.236 384.583 783.298L398.162 788.75C403.745 791.295 408.175 795.274 414.429 796.232L441.846 795.56L458.351 795.077C460.847 795.102 463.59 794.794 465.875 795.918C473.689 799.36 482.757 800.219 491 802.401L536.888 816.27C540.944 817.629 544.772 819.617 548.691 821.324C552.459 822.966 556.342 824.309 560.047 826.1L568.494 830.52C569.25 830.911 570.541 831.815 571.343 831.992C572.296 832.201 574.284 831.783 575.308 831.721C582.301 831.297 589.303 829.602 596.225 828.532L635.511 822.882C694.736 814.823 755.249 814.583 814.161 825.454C825.87 827.614 838.173 829.786 849.426 833.736L822.494 857.141L266.479 857.095C262.112 855.009 258.2 851.06 254.515 847.933C246.333 840.991 238.105 833.793 230.582 826.138L221.056 815.482L195.48 786.619C192.865 784.56 191.038 781.043 189.045 778.366L179.544 765.5C177.452 762.514 174.99 759.593 174.075 756C180.788 755.099 191.074 752.497 195.614 747.286C198.025 744.517 199.689 741.825 202.801 739.725L203.433 739.305Z"/>
	<path fill="#003049" transform="scale(0.5 0.5)" d="M203.433 739.305C206.717 737.704 209.657 735.901 213.212 734.903C224.198 731.817 234.524 733.385 244.378 738.881C246.982 741.39 249.578 743.893 251.954 746.624C255.671 750.897 259.302 755.94 264.663 758.2C268.33 759.746 272.288 760.302 276.131 761.252C286.994 763.939 297.675 765.861 308.848 766.948C320.452 768.076 332.545 768.283 343.881 771.224C357.636 774.792 371.275 778.236 384.583 783.298L398.162 788.75C403.745 791.295 408.175 795.274 414.429 796.232L381.646 799.141C375.684 795.28 369.018 792.82 362.43 790.277C358.048 788.585 353.711 786.59 349.267 785.099C340.69 782.22 331.185 779.994 322.297 778.25C287.382 771.397 252.191 772.282 217.434 779.672C210.285 781.192 201.632 782.497 195.48 786.619C192.865 784.56 191.038 781.043 189.045 778.366L179.544 765.5C177.452 762.514 174.99 759.593 174.075 756C180.788 755.099 191.074 752.497 195.614 747.286C198.025 744.517 199.689 741.825 202.801 739.725L203.433 739.305Z"/>
	<path fill="#D62828" transform="scale(0.5 0.5)" d="M252.474 190.178L253.37 189.806C254.125 190.12 254.392 190.396 255.25 190.07C256.804 189.48 260.089 185.737 261.389 184.537C266.68 179.653 271.889 174.774 277.651 170.438C290.945 160.436 304.024 150.207 318.114 141.294C341.622 126.423 367.441 113.427 393.543 103.75L421.281 94.7207C447.756 86.492 475.064 80.2957 502.711 77.6339C550.624 73.0208 599.845 73.9262 647.115 83.6929C658.956 86.1394 670.544 89.7275 682.088 93.25C723.322 105.832 762.596 124.207 798 148.949C808.565 156.333 818.29 164.789 828.224 172.979L702.609 171.874L702.895 240.939L783.35 240.388L805.121 240.901L835.087 240.568L852.231 241.058L867.25 240.827C869.253 240.742 872.454 240.092 874.25 240.973C874.659 241.456 875.505 242.209 875.755 242.75C876.177 243.663 876.017 246.121 876.022 247.157L876.037 258.76L875.995 310.92C875.972 330.505 877.312 350.64 875.725 370.15C874.993 379.147 875.817 388.062 875.755 397.057C848.028 394.085 819.412 395.271 791.537 395.654L750.345 395.606L731.183 395.837L720.578 395.42C714.739 395.467 708.299 396.608 702.53 395.599L701.881 394.665C709.052 390.99 717.598 388.434 725.172 385.598C736.73 381.271 750.27 374.447 759.094 365.731C759.878 365.592 760.665 364.655 761.215 364.098C763.308 361.973 764.865 358.892 764.67 355.852C764.528 353.631 763.606 352.956 762.026 351.63L753.144 350.016L743.257 347.775C734.898 345.551 727.128 343.348 718.519 341.953C711.06 340.744 703.585 340.474 696.05 340.179C692.277 340.031 687.753 340.252 684.095 339.361C682.303 338.925 680.377 337.694 678.743 336.837C681.1 338.954 683.047 340.98 684.896 343.556C665.833 335.853 645.938 329.311 625.749 325.328C625.144 322.255 620.914 319.227 618.441 317.198C615.586 314.854 611.904 313.098 608.647 311.378C602.812 308.298 596.755 305.41 590.585 303.07L579.409 299.233C577.329 298.435 574.788 296.777 572.637 296.405C571.105 296.141 569.196 296.474 567.651 296.623C565.779 294.929 563.826 294.136 561.379 293.651C560.642 293.046 558.023 292.537 557.04 292.233C544.461 288.348 530.566 287.09 517.499 286.469C517.404 285.747 517.424 286.152 517.493 285.25C519.316 285.198 522.11 285.584 523.541 284.5L523.25 283.849L520.571 283.495C513.304 282.329 505.427 282.693 498.034 282.148C497.554 281.283 497.082 280.453 496.702 279.538L481.255 279.535C477.247 279.11 472.487 278.832 468.519 279.494L467.903 279.631L466.176 279.247C460.911 278.449 454.706 279.954 450.14 282.647C448.987 283.327 447.209 284.754 445.922 284.98C443.745 285.362 440.883 285.067 438.649 285.054L421.98 284.86L355.564 284.818C352.595 284.678 349.677 284.186 346.868 283.21L347.787 281.544L348.841 279.899L348.483 279.122C343.244 277.856 336.314 278.517 330.853 278.548C335.919 276.185 339.436 272.47 343.266 268.525L355.722 255.149C357.471 253.244 360.122 249.744 362.516 248.745C365.275 247.594 405.798 248.678 411.5 248.68L521.5 248.362C543.096 247.931 565.156 247.271 586.492 243.792C581.59 242.045 575.614 242.175 570.436 241.715L535.461 239.01L517.202 237.381C512.86 233.495 508.965 233.015 503.639 231.589C497.039 226.349 490.239 223.222 482.787 219.403L462.468 209.46C453.866 205.372 445.334 202.765 436.218 200.159C427.637 197.705 418.679 195.29 409.833 194.057C400.084 192.698 389.94 193.036 380.111 193.016L333.561 193.08L270.769 193.174C267.424 193.24 261.625 192.509 258.549 193.574C257.935 193.786 257.385 194.023 256.75 194.198L252.474 190.178Z"/>
	<path fill="#FDB607" transform="scale(0.5 0.5)" d="M837.735 353.463C838.674 355.779 839.869 357.152 841.622 358.855C842.44 359.65 842.24 359.162 842.276 360.25C841.408 360.397 840.835 360.544 840.079 361L840.11 361.984C840.141 363.898 839.801 365.368 838.419 366.75L837.292 366.864C834.856 365.12 834.119 361.808 833.291 359.082C834.954 357.333 836.32 355.41 837.735 353.463Z"/>
	<path fill="#F77F00" transform="scale(0.5 0.5)" d="M482.458 123.204C484.645 126.754 484.753 128.941 488.72 131.167L489.344 131.508C487.865 132.371 484.73 133.817 484.11 135.5C483.658 136.726 484.027 137.073 483.25 138.304C481.233 135.736 478.778 133.561 476.414 131.32L480.533 130.16C481.704 128.359 481.985 125.314 482.458 123.204Z"/>
	<path fill="#FCFEE4" transform="scale(0.5 0.5)" d="M496.702 279.538C505.811 279.398 515.565 278.992 524.586 280.322C522.553 280.774 521.6 280.661 520.206 282.262L520.571 283.495C513.304 282.329 505.427 282.693 498.034 282.148C497.554 281.283 497.082 280.453 496.702 279.538Z"/>
	<path fill="#FDB607" transform="scale(0.5 0.5)" d="M670.137 121.271C671.961 125.05 673.054 128.156 677.194 129.897L677.75 130.121L678.096 131C677.357 132.025 676.533 133.433 675.451 134.111C674.877 134.47 672.805 135.019 672.482 135.429C671.209 137.046 670.31 140.149 669.25 142.056C668.384 140.222 668.02 138.067 667.46 136.11C665.852 134.364 662.996 133.261 660.898 132.149C664.485 129.243 667.606 126.023 669.791 121.931L670.137 121.271Z"/>
	<path fill="#F77F00" transform="scale(0.5 0.5)" d="M386.582 150.167C388.337 157.45 391.063 160.346 397.197 164.189C394.914 165.776 392.176 167.462 390.555 169.75C388.754 172.292 387.669 175.886 386.539 178.786C384.86 174.868 382.957 168.942 378.806 167.049C376.977 166.215 375.953 165.819 374.938 164C376.088 162.106 378.951 161.449 380.98 160.702C383.855 157.454 385.093 154.178 386.582 150.167Z"/>
	<path fill="#FEFFF9" transform="scale(0.5 0.5)" d="M524.586 280.322L539.498 281.874C573.428 286.773 607.276 297.137 638.443 311.368L664.113 324.352C666.19 325.394 669.675 324.964 671.969 324.978L688.437 325.11L703.182 325.551C715.141 326.369 726.687 330.781 737.563 335.598C744.803 338.805 750.878 341.623 757.13 346.629C758.321 347.583 761.009 349.435 761.727 350.755L762.026 351.63L753.144 350.016L743.257 347.775C734.898 345.551 727.128 343.348 718.519 341.953C711.06 340.744 703.585 340.474 696.05 340.179C692.277 340.031 687.753 340.252 684.095 339.361C682.303 338.925 680.377 337.694 678.743 336.837C681.1 338.954 683.047 340.98 684.896 343.556C665.833 335.853 645.938 329.311 625.749 325.328C625.144 322.255 620.914 319.227 618.441 317.198C615.586 314.854 611.904 313.098 608.647 311.378C602.812 308.298 596.755 305.41 590.585 303.07L579.409 299.233C577.329 298.435 574.788 296.777 572.637 296.405C571.105 296.141 569.196 296.474 567.651 296.623C565.779 294.929 563.826 294.136 561.379 293.651C560.642 293.046 558.023 292.537 557.04 292.233C544.461 288.348 530.566 287.09 517.499 286.469C517.404 285.747 517.424 286.152 517.493 285.25C519.316 285.198 522.11 285.584 523.541 284.5L523.25 283.849L520.571 283.495L520.206 282.262C521.6 280.661 522.553 280.774 524.586 280.322Z"/>
	<path fill="#F77F00" transform="scale(0.5 0.5)" d="M702.895 240.939L702.609 171.874L828.224 172.979C833.803 177.082 838.824 181.893 844.01 186.47C880.798 218.938 911.803 259.219 935.092 302.33C937.276 306.372 939.925 310.388 941.911 314.5C942.732 316.2 943.2 318.055 944.015 319.75C944.729 321.236 945.78 322.541 946.534 324C947.88 326.602 948.764 329.534 949.912 332.235C951.769 336.607 953.89 340.629 955.409 345.164C960.804 358.445 966.448 371.59 970.623 385.33C995.75 468.031 996.074 555.608 969.525 638C965.872 649.337 962.336 660.639 957.694 671.629L931.554 725.456L591.999 725.017C585.004 724.863 576.168 723.911 569.371 725.317C567.484 727.888 569.108 735.391 569.596 738.558L569.662 738.98L561.965 739.079L244.378 738.881C234.524 733.385 224.198 731.817 213.212 734.903C209.657 735.901 206.717 737.704 203.433 739.305L202.801 739.725C199.689 741.825 198.025 744.517 195.614 747.286C191.074 752.497 180.788 755.099 174.075 756C169.817 750.648 166.494 745.075 163.392 738.991C142.446 702.596 125.401 662.764 115.654 621.868C109.419 592.538 106.312 564.071 106.327 534.092L144.25 534.162L210.061 534.071L416.074 534.002L459.136 533.969C463.486 533.959 467.869 534.026 472.209 533.718C473.194 533.648 475.202 533.758 476.087 533.404C477.188 532.964 478.766 531.444 479.766 530.688L487.543 524.938L504.664 513.536C513.352 507.506 522.043 500.912 531.158 495.56L531.943 495.106L532.75 493.94C532.081 491.508 527.891 487.477 526.159 485.319L509.882 464C506.442 459.498 500.837 454.026 499.14 448.73C502.465 450.519 506.68 456.394 509.201 459.363C514.598 451.867 519.301 447.696 528.575 445.535C554.987 441.249 581.758 435.779 607.5 428.527L656.172 412.572L681.5 402.974C688.11 400.19 694.592 396.955 701.449 394.798L701.881 394.665L702.53 395.599C708.299 396.608 714.739 395.467 720.578 395.42L731.183 395.837L750.345 395.606L791.537 395.654C819.412 395.271 848.028 394.085 875.755 397.057C875.817 388.062 874.993 379.147 875.725 370.15C877.312 350.64 875.972 330.505 875.995 310.92L876.037 258.76L876.022 247.157C876.017 246.121 876.177 243.663 875.755 242.75C875.505 242.209 874.659 241.456 874.25 240.973C872.454 240.092 869.253 240.742 867.25 240.827L852.231 241.058L835.087 240.568L805.121 240.901L783.35 240.388L702.895 240.939Z"/>
	<path fill="#FCBF49" transform="scale(0.5 0.5)" d="M115.654 621.868C117.97 620.792 122.271 621.449 124.936 621.401L155.583 621.194L302.11 621.312L686.853 621.654L641.578 669.128L605.788 705.822L593.127 718.916C592.182 719.968 590.199 721.56 589.55 722.75C589.336 723.142 589.35 723.62 589.25 724.055L591.999 725.017C585.004 724.863 576.168 723.911 569.371 725.317C567.484 727.888 569.108 735.391 569.596 738.558L569.662 738.98L561.965 739.079L244.378 738.881C234.524 733.385 224.198 731.817 213.212 734.903C209.657 735.901 206.717 737.704 203.433 739.305L202.801 739.725C199.689 741.825 198.025 744.517 195.614 747.286C191.074 752.497 180.788 755.099 174.075 756C169.817 750.648 166.494 745.075 163.392 738.991C142.446 702.596 125.401 662.764 115.654 621.868Z"/>
	<path fill="#D62828" transform="scale(0.5 0.5)" d="M163.392 738.991L189.553 738.977C194.027 738.946 199.003 738.694 203.433 739.305L202.801 739.725C199.689 741.825 198.025 744.517 195.614 747.286C191.074 752.497 180.788 755.099 174.075 756C169.817 750.648 166.494 745.075 163.392 738.991Z"/>
	<path fill="#FEF6B6" transform="scale(0.5 0.5)" d="M955.409 345.164C960.804 358.445 966.448 371.59 970.623 385.33C995.75 468.031 996.074 555.608 969.525 638C965.872 649.337 962.336 660.639 957.694 671.629L931.554 725.456L591.999 725.017L589.25 724.055C589.35 723.62 589.336 723.142 589.55 722.75C590.199 721.56 592.182 719.968 593.127 718.916L605.788 705.822L641.578 669.128L686.853 621.654L704.1 602.641L705.404 602.808L705.825 602C708.45 596.672 715.529 591.733 719.67 587.332L774.546 530.031L798.25 504.957L809.507 493.639C811.445 492.816 815.155 488.092 816.75 486.497L840.287 463.074L847.631 454.75L871.988 429.459L879.25 421.311L892.099 409.113L907.027 393.852C923.52 377.833 940.629 362.881 955.409 345.164Z"/>
</svg>
