<?xml version="1.0" encoding="utf-8" ?>
<svg xmlns="http://www.w3.org/2000/svg" xmlns:xlink="http://www.w3.org/1999/xlink" width="512" height="512">
	<path transform="scale(0.5 0.5)" d="M-0 -0L1024 0L1024 1024L-0 1024L0 -0Z"/>
	<path fill="#FEFEFA" transform="scale(0.5 0.5)" d="M394.978 141.75C396.223 141.547 396.371 141.433 397.475 142C397.477 143.695 397.557 143.888 396.588 145.25L394.997 145.389C393.952 144.359 394.071 144.236 393.929 142.75L394.978 141.75Z"/>
	<path fill="#FEFEFA" transform="scale(0.5 0.5)" d="M213.847 249.75C215.408 249.492 215.535 249.306 216.866 250.107C216.971 251.66 216.748 251.874 215.968 253.25L215.03 253.379C213.889 252.659 213.73 252.2 213.068 251L213.847 249.75Z"/>
	<path fill="#FEFEFA" transform="scale(0.5 0.5)" d="M361.465 220.75C362.94 220.542 363.039 220.356 364.25 221.175C364.468 222.785 364.42 222.828 363.617 224.25L361.998 224.636L360.726 223.775C360.505 222.03 360.4 222.131 361.465 220.75Z"/>
	<path fill="#FEFEFA" transform="scale(0.5 0.5)" d="M368.852 155.25L370.502 155.087L371.809 156.182C371.744 157.844 371.552 157.929 370.499 159.25L369.367 159.245C368.053 158.258 368.061 158.359 367.777 156.75L368.852 155.25Z"/>
	<path fill="#FEFEFA" transform="scale(0.5 0.5)" d="M264.781 216.75L266.75 216.699C267.638 217.691 267.8 218.184 267.957 219.5L266.75 221.031C266.177 221.257 265.606 221.307 265 221.398C264.644 221.003 264.463 220.859 264.25 220.31C263.705 218.906 264.055 217.916 264.781 216.75Z"/>
	<path fill="#FEFEFA" transform="scale(0.5 0.5)" d="M201.242 272.75L202.224 272.626C203.398 273.561 203.768 274.182 204.384 275.5L203.25 277.099C202.463 277.496 202.111 277.452 201.25 277.449L200.127 275.998C199.981 274.091 200.009 274.231 201.242 272.75Z"/>
	<path fill="#FEFEFA" transform="scale(0.5 0.5)" d="M289.313 178.25L291.25 178.082L292.719 179.75C292.761 181.253 292.227 181.438 291.25 182.53L290.219 182.912C289.046 182.432 288.898 182.024 288.148 180.977C288.136 179.341 288.181 179.453 289.313 178.25Z"/>
	<path fill="#F9F7AB" transform="scale(0.5 0.5)" d="M152.506 141.459L158.628 140.88L158.396 141.457C157.287 144.275 156.861 147.038 156.326 149.999C155.586 146.751 154.848 143.967 152.506 141.459Z"/>
	<path fill="#FEFEFA" transform="scale(0.5 0.5)" d="M254.177 256.75L254.85 256.78C256.125 257.1 256.745 257.952 257.387 259C256.905 260.664 256.227 261.219 254.938 262.25L253.88 262.166C252.628 261.093 252.19 260.545 251.617 259C252.333 257.422 252.669 257.48 254.177 256.75Z"/>
	<path fill="#FEFEFA" transform="scale(0.5 0.5)" d="M310.089 164.25L310.734 164.304C312.069 164.796 312.43 165.596 313.046 166.75C312.408 168.367 312.086 168.53 310.75 169.544C309.002 169.431 308.941 169.381 307.597 168.25L307.451 166.5C308.398 165.075 308.526 164.932 310.089 164.25Z"/>
	<path fill="#FEFEFA" transform="scale(0.5 0.5)" d="M513.853 200.25L515.502 200.068L516.985 201.75C516.736 202.43 516.47 202.936 516.084 203.562L515.648 204.25L516.613 205.25L516.25 206.099L512.25 205.45L511.576 204.5C512.012 202.505 512.336 201.642 513.853 200.25Z"/>
	<path fill="#FEFEFA" transform="scale(0.5 0.5)" d="M551.399 384.25C552.149 384.046 552.681 384.058 553.451 384.071C553.765 384.556 554.152 385.083 554.292 385.658C554.627 387.031 554.576 388.062 553.901 389.25L552.25 389.516C551.52 389.497 550.826 389.365 550.106 389.25L549.121 387C549.407 385.294 550.037 385.238 551.399 384.25Z"/>
	<path fill="#FDF5DA" transform="scale(0.5 0.5)" d="M472.633 245.912L459.249 244.107C463.613 243.29 467.834 242.53 472.284 242.345L472.604 244.25C473.372 244.767 473.962 244.908 474.868 245.078L474.877 245.194L472.633 245.912Z"/>
	<path fill="#FEFEFA" transform="scale(0.5 0.5)" d="M369.218 252.25L370.75 252.13C372.063 252.803 372.465 253.19 373.146 254.5C373.034 256.317 373.041 256.247 371.75 257.536C370.884 257.896 370.177 257.877 369.25 257.93C368.099 256.929 367.723 256.556 367.364 255C367.753 253.186 367.681 253.289 369.218 252.25Z"/>
	<path fill="#FEFEFA" transform="scale(0.5 0.5)" d="M709.019 365.75L709.885 365.844C710.359 366.786 710.749 367.536 710.974 368.577C711.197 369.606 710.835 369.06 711.867 369.829L712.75 369.66L712.986 370.5L710.649 373.25L709.244 373.563C708.029 373.584 707.816 371.703 706.75 370.789L707.75 370.398C707.844 369.621 707.82 369.095 707.697 368.303L707.556 367.5L709.019 365.75Z"/>
	<path fill="#FEFEFA" transform="scale(0.5 0.5)" d="M320.43 220.75L322.5 220.502L324.051 221.75C324.675 223.079 324.8 223.825 324.821 225.25L322.75 226.997C322.235 227.041 322.146 227.086 321.573 226.919C319.975 226.454 318.951 225.077 318.127 223.75C318.7 221.942 318.986 221.862 320.43 220.75Z"/>
	<path fill="#FEFEFA" transform="scale(0.5 0.5)" d="M469.853 278.25L470.776 278.123C472.224 278.083 473.039 278.48 474.144 279.385C474.795 280.912 474.693 281.911 474.518 283.5C473.536 284.952 473.363 285.064 471.75 285.762C470.213 285.793 469.201 285.6 468.093 284.448C467.195 283.515 466.987 281.95 467.387 280.75C467.901 279.21 468.525 279.029 469.853 278.25Z"/>
	<path fill="#FDFDED" transform="scale(0.5 0.5)" d="M762 321.407C763.397 319.863 765.382 319.111 767.492 318.908C768.514 318.809 768.844 318.717 769.651 319.416C771.402 320.93 771.414 323.622 771.454 325.75C770.551 326.893 770.198 326.772 768.743 326.935C767.619 327.061 766.631 326.921 765.527 326.7C764.164 324.989 763.023 323.343 762 321.407Z"/>
	<path fill="#FEFEFA" transform="scale(0.5 0.5)" d="M586.586 350.577C587.419 350.607 587.815 350.347 588.558 350.005C588.665 354.15 587.727 357.926 587.532 362C587.24 368.073 590.155 373.338 592.773 378.585C588.366 375.162 585.81 368.752 585.071 363.321C584.473 358.933 585.442 354.789 586.586 350.577Z"/>
	<path fill="#FEFEFA" transform="scale(0.5 0.5)" d="M907.082 225.463L933.923 216.25L935 214.896C936.186 215.367 936.314 215.779 937.09 216.75C935.406 219.134 930.984 219.686 928.273 220.535C921.734 222.583 914.877 224.374 908.609 227.107L907.787 227.439L907.082 225.463Z"/>
	<path fill="#FDF5DA" transform="scale(0.5 0.5)" d="M153.421 125.158C153.368 125.785 153.438 127.233 153.203 127.75C152.767 128.712 151.401 129.537 150.997 130.5C150.213 132.373 150.857 134.95 152.099 136.469C152.718 137.226 153.201 137.672 154.217 137.776C156.28 137.988 158.115 136.27 160.205 136.753C160.424 137.427 160.513 137.714 160.461 138.438C159.57 139.157 159.174 139.884 158.628 140.88L152.506 141.459C151.877 141.326 151.347 141.122 150.75 140.889C149.621 139.132 149.216 137.154 148.676 135.16C145.88 135.059 143.329 134.956 140.75 133.793C143.47 132.858 146.364 132.719 149.114 131.75L149.589 130.75C149.2 129.879 148.944 129.229 148.75 128.284C150.814 127.842 151.665 127.247 153.034 125.631L153.421 125.158Z"/>
	<path fill="#F9F7AB" transform="scale(0.5 0.5)" d="M740.094 143.75L740.633 143.759L741.003 144.592C742.895 148.642 745.467 149.83 749.392 151.23L747.25 151.941C745.534 152.492 744.539 152.968 743.109 154.1C742.902 155.446 742.667 156.481 742.131 157.75C741.226 156.921 740.572 156.312 739.348 155.99L738.612 155.836L738.386 155.381L738.06 154.75L737.761 154.087C736.61 152.081 734.435 151.26 732.351 150.599L731.711 150.404L733.892 149.788L735.881 149.267C738.093 148.492 738.888 146.458 739.772 144.479L740.094 143.75Z"/>
	<path fill="#FDFDED" transform="scale(0.5 0.5)" d="M772.039 334.85L770.896 332.75C771.789 330.564 774.199 329.673 776.25 328.773L777.098 328.394L777.61 328.172C779.787 333.19 782.177 337.062 785.424 341.48C783.793 341.44 782.18 341.008 780.583 340.677L775.185 337.803L772.039 334.85Z"/>
	<path fill="#5F0E0F" transform="scale(0.5 0.5)" d="M593.106 439.714C595.55 438.447 598.825 437.943 601.496 437.252C604.821 436.392 608.06 435.129 611.399 434.385C616.035 433.351 620.861 432.927 625.477 431.849C628.385 431.17 631.212 429.589 634.147 429.173C637.014 428.766 639.314 428.338 642.258 428.391L637.647 429.973C636.284 430.36 634.933 430.705 633.622 431.249C632.552 431.586 630.333 432.015 629.495 432.653L627.201 433.273C624.032 433.812 621.088 434.94 618.017 435.858C616.273 436.379 614.285 436.706 612.776 437.713L611.95 437.406L611.234 436.601C609.485 436.643 608.085 436.85 606.415 437.351C602.889 438.408 597.521 440.98 594.012 440.964C593.765 440.403 593.521 440.154 593.106 439.714Z"/>
	<path fill="#73DFC5" transform="scale(0.5 0.5)" d="M178.384 256.778L185.798 248.765C187.757 250.778 188.866 252.241 189.868 254.921L184.331 260.836L181.766 263.51L176.215 259.182L178.384 256.778Z"/>
	<path fill="#FDF5DA" transform="scale(0.5 0.5)" d="M178.384 256.778C180.823 257.825 182.792 258.528 184.331 260.836L181.766 263.51L176.215 259.182L178.384 256.778Z"/>
	<path fill="#27BDAB" transform="scale(0.5 0.5)" d="M196.324 238.555C196.682 239.366 197.123 240.191 197.343 241.049C198.218 242.341 198.819 242.814 200.034 243.747L200.428 244.108L192.151 252.496L189.868 254.921C188.866 252.241 187.757 250.778 185.798 248.765L196.324 238.555Z"/>
	<path fill="#13AB9C" transform="scale(0.5 0.5)" d="M192.151 252.496C192.446 250.611 192.751 248.296 193.751 246.646C195.008 244.572 196.878 243.602 197.343 241.049C198.218 242.341 198.819 242.814 200.034 243.747L200.428 244.108L192.151 252.496Z"/>
	<path fill="#F8652C" transform="scale(0.5 0.5)" d="M359.647 458.066L386.369 451.566L386.755 453.25L386.091 453.769L386.962 454.088C381.834 456.646 375.302 457.729 369.725 459.005L354.333 463.269C354.711 459.939 355.988 461.328 358.25 459.781C358.702 459.472 359.277 458.52 359.647 458.066Z"/>
	<path fill="#249CAA" transform="scale(0.5 0.5)" d="M196.324 238.555C200.492 234.634 204.404 230.104 208.929 226.628L213.44 231.265L200.428 244.108L200.034 243.747C198.819 242.814 198.218 242.341 197.343 241.049C197.123 240.191 196.682 239.366 196.324 238.555Z"/>
	<path fill="#13AB9C" transform="scale(0.5 0.5)" d="M151.838 292.891L152.758 295.603C149.994 301.769 146.714 307.555 143.254 313.353L138.984 320.167C138.752 320.53 137.879 321.608 137.847 321.938C137.82 322.221 137.998 322.485 138.074 322.759L132.539 324.562C134.146 321 136.287 317.801 138.139 314.373C141.974 307.276 146.119 298.615 151.838 292.891Z"/>
	<defs>
		<linearGradient id="gradient_0" gradientUnits="userSpaceOnUse" x1="457.51022" y1="202.76859" x2="448.17776" y2="202.18022">
			<stop offset="0" stop-color="#867353"/>
			<stop offset="1" stop-color="#8C8576"/>
		</linearGradient>
	</defs>
	<path fill="url(#gradient_0)" transform="scale(0.5 0.5)" d="M472.755 187.25L474.75 187.203C473.359 189.51 467.677 189.282 465.618 191.888C464.092 193.818 462.056 194.312 460 195.495C456.551 197.479 453.677 200.172 451.869 203.746C449.855 207.728 449.005 211.435 450.346 215.75C449.291 215.157 447.895 211.329 447.59 210.078C446.771 206.717 447.616 201.527 449.619 198.659C454.301 191.953 465.027 188.357 472.755 187.25Z"/>
	<path fill="#FDFDED" transform="scale(0.5 0.5)" d="M584.166 99.9092C584.382 103.282 584.559 106.609 586.55 109.501C587.432 110.782 589.376 113.068 590.666 113.904C591.397 114.378 594.693 114.472 595.732 114.619C594.385 115.163 589.721 116.866 588.904 117.873C588.465 118.415 588.073 120.435 587.828 121.169C587.482 122.21 587.277 123.126 586.516 123.952L585.75 123.18L583.399 119.25L581.75 121.026C580.19 117.992 577.917 116.23 575.24 114.243C576.308 113.105 579.329 112.183 580.842 111.25C582.981 108.045 583.459 103.644 584.166 99.9092Z"/>
	<path fill="#D62828" transform="scale(0.5 0.5)" d="M907.787 227.439C906.251 228.81 905.104 230.813 903.849 232.457C899.392 238.301 895.465 243.124 889.094 246.929C886.955 245.33 885.25 243.389 883.464 241.423C887.49 237.743 892.514 235.978 897.094 233.22C900.638 231.085 903.892 228.09 907.082 225.463L907.787 227.439Z"/>
	<path fill="#FEFEFA" transform="scale(0.5 0.5)" d="M557.984 347.43L561 348.057L561.4 348.75C556.233 353.333 549.055 354.474 542.716 356.726L520.143 364.456L519.88 360.679L557.984 347.43Z"/>
	<path fill="#FEFEFA" transform="scale(0.5 0.5)" d="M888.8 200.198C893.376 202.136 900.083 205.625 903.225 209.517C905.281 212.063 908.185 216.696 907.882 219.94L907.168 219.854L907.498 218.75L906.25 217.346C901.69 213.212 896.6 212.478 890.75 211.48C888.912 211.166 886.57 211.02 884.868 210.264C883.803 209.791 883.804 209.524 883.456 208.5C883.884 204.94 886.465 202.695 888.8 200.198Z"/>
	<path fill="#FDFDED" transform="scale(0.5 0.5)" d="M153.421 125.158C154.41 121.638 155.685 118.817 156.204 115.109C156.654 119.827 157.639 123.545 159.579 127.869C160.795 126.744 161.958 125.609 163.36 124.713C163.954 125.627 164.07 126.203 164.304 127.25C163.937 128.462 163.642 129.672 162.956 130.75C164.584 132.384 171.237 133.657 173.693 134.172L164.219 136.015C164.277 137.113 164.772 139.836 164.468 140.758C163.837 142.674 162.414 144.352 161.774 146.39L161.214 146.75L161.397 145.812C161.881 143.091 161.436 140.987 160.461 138.438C160.513 137.714 160.424 137.427 160.205 136.753C158.115 136.27 156.28 137.988 154.217 137.776C153.201 137.672 152.718 137.226 152.099 136.469C150.857 134.95 150.213 132.373 150.997 130.5C151.401 129.537 152.767 128.712 153.203 127.75C153.438 127.233 153.368 125.785 153.421 125.158Z"/>
	<path fill="#D62828" transform="scale(0.5 0.5)" d="M175.065 260.89L176.215 259.182L181.766 263.51L178.636 266.936C172.035 272.174 166.896 278.865 161.658 285.402C159.264 289.452 156.138 292.39 152.758 295.603L151.838 292.891L164.745 274.432C165.041 273.368 166.239 272.079 166.896 271.133C169.361 267.58 171.911 263.863 175.065 260.89Z"/>
	<path fill="#F8652C" transform="scale(0.5 0.5)" d="M642.258 428.391L694.662 412.341C694.422 412.853 694.101 413.895 693.75 414.288C692.694 415.469 690.624 415.827 689.25 416.492C686.838 417.659 685.349 419.71 682.676 420.632L653.099 430.216L640.52 434.096L639 433.207C637.731 432.357 637.837 431.399 637.647 429.973L642.258 428.391Z"/>
	<path fill="#D62828" transform="scale(0.5 0.5)" d="M301.424 475.113L324.723 467.612C336.436 463.884 347.52 460.379 359.647 458.066C359.277 458.52 358.702 459.472 358.25 459.781C355.988 461.328 354.711 459.939 354.333 463.269C347.51 467.37 337.804 469.179 330.132 471.37L317.701 475.266C313.65 476.347 309.708 476.908 305.798 478.543C302.477 479.615 299.882 480.106 296.395 479.805C295.422 479.721 294.723 479.844 293.784 480.071C295.788 477.01 298.082 476.2 301.424 475.113Z"/>
	<path fill="#D62828" transform="scale(0.5 0.5)" d="M780.583 340.677C782.18 341.008 783.793 341.44 785.424 341.48L785.6 341.993C788.358 347.771 801.206 349.875 806.933 351.655L799.584 354.179C786.128 357.858 775.301 354.068 763.492 347.378C769.208 346.09 774.954 344.271 779.92 341.104L780.583 340.677Z"/>
	<defs>
		<linearGradient id="gradient_1" gradientUnits="userSpaceOnUse" x1="558.85736" y1="198.98503" x2="564.66101" y2="188.25447">
			<stop offset="0" stop-color="#F3E8D6"/>
			<stop offset="1" stop-color="#FFFFFD"/>
		</linearGradient>
	</defs>
	<path fill="url(#gradient_1)" transform="scale(0.5 0.5)" d="M530.788 180.355C536.87 181.348 542.926 183.219 548.832 184.961C559.919 188.232 570.82 192.107 581.423 196.75C584.745 198.204 587.821 200.087 591.074 201.662C593.424 202.801 595.994 203.424 598.355 204.539C604.432 207.41 610.317 210.953 616.117 214.345C620.158 216.707 625.139 219.086 628.519 222.317C623.774 220.412 619.504 217.83 615.005 215.433L597.035 206.365C594.417 205.116 591.583 204.367 588.904 203.253C575.842 197.821 563.054 193.663 549.411 190.065C541.351 187.939 532.751 185.76 524.404 185.291L524.003 184.625L526.25 184.5C527.782 184.905 526.5 184.898 527.758 184.9L530.253 184.875C531.661 183.351 531.749 183.464 531.755 181.25L531.281 180.968L530.788 180.355Z"/>
	<path fill="#D62828" transform="scale(0.5 0.5)" d="M775.185 337.803L657.242 370.388C655.63 369.759 654.151 368.704 652.674 367.803L733.25 345.012C745.026 341.683 756.838 337.353 768.757 334.636C770.104 334.329 770.757 334.424 772.039 334.85L775.185 337.803Z"/>
	<path fill="#D62828" transform="scale(0.5 0.5)" d="M677.363 345.761C679.324 345.571 681.877 344.358 683.816 343.789L698.318 339.54L731.645 329.955L748.583 325.276C752.364 324.237 755.637 322.985 759.606 322.786C760.818 322.725 761.11 322.173 762 321.407C763.023 323.343 764.164 324.989 765.527 326.7C762.232 326.261 758.35 326.948 755.107 327.627C752.276 328.22 749.614 329.462 746.856 330.312L730.5 334.993L699.941 342.987L677.344 349.795C674.597 350.991 671.401 351.192 668.5 351.945L651.665 356.789C649.601 357.332 646.737 358.595 644.75 357.861L644.521 356.25C647.448 353.577 652.724 352.755 656.448 351.692L677.363 345.761Z"/>
	<path fill="#F77F00" transform="scale(0.5 0.5)" d="M388.729 454.225C392.122 451.771 396.928 451.266 400.898 450.325C403.713 449.657 405.489 448.964 408.503 449.33C405.414 453.687 402.716 460.211 398.332 463.255C394.546 465.885 387.349 466.345 382.816 467.655L361.774 474.061C359.283 474.886 356.725 476.385 354.25 476.982C353.067 476.26 353.071 476.318 352.665 475C353.813 471.637 355.135 467.83 357.197 464.919C362.002 463.785 366.526 462.082 371.267 460.764C376.072 459.428 385.677 458.502 388.729 454.225Z"/>
	<path fill="#F77F00" transform="scale(0.5 0.5)" d="M797.141 377.171C796.325 376.672 795.418 376.131 794.75 375.443C793.917 374.585 793.334 373.42 792.595 372.474C791.534 371.116 789.007 369.376 788.586 367.75C788.299 366.642 788.477 364.688 788.435 363.5C790.364 360.968 799.92 359.135 803.354 357.881C805.622 357.053 807.647 355.921 809.719 354.697L832.932 368.427L833.552 368.711L797.141 377.171Z"/>
	<path fill="#FDFDED" transform="scale(0.5 0.5)" d="M127.586 337.692C131.92 336.577 138.201 337.352 142.68 337.678L34.25 366.966L24.3278 369.564C22.8568 368.971 21.7226 367.749 20.5386 366.703C23.0263 365.327 26.7238 364.804 29.5063 363.95L49.9752 357.489C54.3678 356.275 59.236 355.581 63.498 354.166L91.5431 346.073L108.341 341.232C112.024 340.154 115.965 338.747 119.796 338.416L127.586 337.692Z"/>
	<path fill="#D62828" transform="scale(0.5 0.5)" d="M882.369 243.033C883.97 243.816 886.924 246.548 887.902 248.039C883.872 251.535 879.336 254.111 874.993 257.16C870.798 260.105 866.652 263.607 862.116 265.979C857.91 268.178 853.138 268.859 848.656 270.296C838.691 273.491 828.564 277.639 818.47 280.221C816.315 280.772 813.994 281.625 811.806 280.95L803.582 276.156C804.318 275.292 807.817 274.49 809 274.053L836 264.535C841.802 262.653 847.861 261.07 853.498 258.737C863.739 254.499 872.664 248.225 882.369 243.033Z"/>
	<path fill="#FDFDED" transform="scale(0.5 0.5)" d="M836.458 305.7L833.358 291.049L957.975 339.247C957.084 339.645 956.991 339.855 955.991 339.656C948.687 338.199 941.415 335.091 934.399 332.63L904.769 322.759L857.416 309.805L836.458 305.7Z"/>
	<path fill="#D8AB88" transform="scale(0.5 0.5)" d="M524.404 185.291L507.214 183.277C504.46 182.967 501.372 182.303 498.627 182.718C494.534 183.337 490.041 182.575 485.88 182.643C472.427 182.864 451.215 186.267 441.805 196.874C439.73 199.214 436.785 204.797 436.45 207.884C436.192 210.259 436.518 212.934 436.622 215.33C433.54 210.524 429.593 204.441 428.534 198.75C427.729 194.423 430.196 191.857 432.535 188.584C430.461 189.901 428.111 191.226 426.448 193.057C421.387 198.629 420.671 205.259 420.899 212.355L420.367 211.617C418.6 208.837 419.597 204.266 420.46 201.297C422.76 193.379 430.265 188.341 437.251 184.749C458.766 173.687 493.69 173.642 517.188 177.645C521.682 178.41 526.424 179.046 530.788 180.355L531.281 180.968L531.755 181.25C531.749 183.464 531.661 183.351 530.253 184.875L527.758 184.9C526.5 184.898 527.782 184.905 526.25 184.5L524.003 184.625L524.404 185.291Z"/>
	<path fill="#F77F00" transform="scale(0.5 0.5)" d="M346.989 268.485C353.087 271.654 356.919 274.554 359.935 280.925C351.4 282.257 342.608 281.92 334.013 282.909L310.645 286.561L274.834 292.795C265.979 294.491 257.283 296.029 248.586 298.448C239.609 301.309 230.329 303.44 221.103 305.339C216.189 306.35 211.278 307.648 206.276 308.134L232.417 299.601L346.989 268.485Z"/>
	<path fill="#F77F00" transform="scale(0.5 0.5)" d="M498.453 404.148L509.5 401.142C510.906 400.778 512.324 400.113 513.773 400.074C514.816 405 516.59 409.386 518.668 413.958C511.329 415.011 504.997 417.803 497.971 419.977L460.953 431.336L438.303 438.479C432.434 440.271 426.689 442.132 420.591 442.989L420.397 440.986C423.709 436.382 426.535 428.21 431.831 425.879C434.935 425.354 438.177 424.022 441.155 422.995L498.453 404.148Z"/>
	<path fill="#FEFEFA" transform="scale(0.5 0.5)" d="M621.9 392.25L622.449 392.812C621.16 397.529 619.957 404.36 621.351 409.106C622.425 412.764 624.919 416.522 626.318 420.203C622.112 417.306 619.758 413.206 616.416 409.461L520.073 436.038L507.395 440.288L513.004 430.637C513.63 429.523 514.497 427.356 515.318 426.507C515.727 426.084 517.895 425.538 518.519 425.304L533.436 420.278L597.45 399.912L621.9 392.25Z"/>
	<path fill="#FDFDED" transform="scale(0.5 0.5)" d="M138.074 322.759L313.743 262.827C316.654 261.969 321.336 260.074 324.28 259.986C327.398 259.893 343.728 266.697 346.989 268.485L232.417 299.601L206.276 308.134L132.002 330.597L115.597 335.674L74.0138 349.228C68.0661 351.09 62.2361 353.679 56.1118 354.811C64.1097 350.284 74.262 347.977 82.969 344.989L106.446 336.441C113.987 333.814 121.94 331.604 128.707 327.3C129.913 326.532 131.673 325.696 132.539 324.562L138.074 322.759Z"/>
	<path fill="#FDFDED" transform="scale(0.5 0.5)" d="M835.464 193.794C844.973 192.663 855.262 193.287 864.75 194.44C873.081 195.454 880.218 196.54 887.953 199.964C886.675 201.104 882.947 206.016 881.625 206.513C880.405 206.972 876.894 206.494 875.411 206.497C868.966 206.513 862.178 206.277 855.79 207.139C845.078 208.585 834.003 210.408 823.517 213.044L789.841 223.25C780.938 226.076 771.585 228.653 763.032 232.376C762.604 234.569 762.847 237.027 762.981 239.25C763.673 250.784 768.999 261.984 774.053 272.185L771.036 269.177C763.281 259.004 758.914 248.108 757.963 235.297L718.253 248.9C719.583 243.982 721.725 236.288 724.865 232.284C726.036 230.791 730.819 229.375 732.629 228.75L754.942 221.287C756.613 220.749 760.041 220.229 761.434 219.336C762.201 218.844 763.451 216.608 764.17 215.76C765.897 213.719 768.017 211.721 770.431 210.517C774.235 208.619 778.936 207.589 782.995 206.25C800.355 200.523 817.188 195.534 835.464 193.794Z"/>
	<path fill="#FDFDED" transform="scale(0.5 0.5)" d="M472.284 242.345L527.658 239.771C559.979 239.106 592.27 240.303 624.5 242.694L665.137 247.576C673.666 248.847 681.708 250.565 690.367 250.753C690.577 250.757 690.799 250.834 690.998 250.766C692.415 250.277 694.303 247.925 695.592 246.967C696.75 246.106 698.134 245.859 699.5 245.499C701.746 244.907 706.509 242.805 708.48 243.25L709.454 244.75C708.726 246.471 705.577 247.614 703.825 248.34L697.612 250.851C697.562 254.111 697.585 257.171 698.13 260.394L682.817 265.768C679.851 266.71 676.24 267.212 673.467 268.538C672.004 269.238 670.61 270.779 669.91 272.225L669.419 273.487C665.666 271.224 660.954 270.823 656.75 269.996L640.75 266.963L530.002 250.265L494.483 245.71C488.003 245.182 481.377 245.156 474.877 245.194L474.868 245.078C473.962 244.908 473.372 244.767 472.604 244.25L472.284 242.345Z"/>
	<path fill="#FDFDED" transform="scale(0.5 0.5)" d="M670.022 292.014L670.25 293.811C673.263 294.691 712.496 281.992 716.207 279.968L717.602 279.185C720.306 283.882 721.317 286.782 726.423 289.182C729.165 289.281 733.425 287.063 736.143 286.182L750.448 281.99C754.759 280.659 758.721 278.969 763.217 278.308L766.084 277.635C764.26 280.004 761.679 282.799 760.666 285.608C759.934 287.635 758.884 293.531 757.315 294.798C756.232 295.673 752.185 296.453 750.717 296.923L711.5 308.559L644.712 329.631L626.263 335.035L612.309 339.771C607.446 341.268 602.432 342.346 597.698 344.25C594.393 345.579 591.41 347.671 588.223 349.26L588.558 350.005C587.815 350.347 587.419 350.607 586.586 350.577C580.02 352.989 575.913 350.526 569.989 347.821L560.907 344.18L605.066 330.161C611.409 328.115 619.004 326.398 624.923 323.357C626.988 322.296 628.6 320.33 630.389 318.875L642.728 308.75L670.022 292.014Z"/>
	<path fill="#F77F00" transform="scale(0.5 0.5)" d="M474.877 245.194C481.377 245.156 488.003 245.182 494.483 245.71L530.002 250.265L640.75 266.963L656.75 269.996C660.954 270.823 665.666 271.224 669.419 273.487L669.898 284.987C670.055 287.015 670.759 290.158 670.022 292.014L642.728 308.75C639.263 308.38 636.029 306.508 632.863 305.136L616.454 298.078L588.786 287.086L524.662 263.299L472.633 245.912L474.877 245.194Z"/>
	<path fill="#D62828" transform="scale(0.5 0.5)" d="M629.495 432.653C630.333 432.015 632.552 431.586 633.622 431.249C633.178 433.564 631.5 434.422 629.664 435.788L630.759 437.1L624.431 438.873L620.797 439.842L620.77 439.82L617.004 441.226C614.616 442.069 612.343 442.787 609.841 443.244L608.085 443.891C608.189 444.58 608.249 445.225 608.5 445.877L609.348 446.397L609.95 446.844C607.992 447.465 606.004 448.232 603.98 448.579L603.979 448.831L600.243 449.664L591.304 452.389L588.174 453.426L579 456.234C576.042 457.553 572.761 458.351 569.655 459.275C568.898 459.118 568.373 459.002 567.708 458.578L567.25 458.255L566.5 459.25C564.957 459.415 564.138 458.931 562.824 458.243L566.966 456.925L567.512 455.757L563.064 457.075L556.079 459.148L543.54 462.462L534.855 464.451C534.887 465.626 534.917 466.597 534.641 467.75L531.406 470.25C531.578 471.09 531.464 470.763 531.663 471.256C525.156 473.956 518.609 475.433 511.87 477.306L492.62 482.92L475.653 487.045L468.25 489.494L427.453 500.147L392.5 510.533L355.594 520.365C353.618 520.939 347.798 522.097 346.483 523.537C345.524 523.747 344.119 524.264 343.17 524.121L343.035 524.107C339.978 523.501 334.092 525.396 330.91 526.125L302.109 532.814C297.389 529.638 294.251 525.093 290.991 520.561C294.429 518.972 298.797 518.346 302.492 517.288L325.84 510.78L346 505.893L427.23 483.948L463.487 473.314L520.195 458.576L564.524 446.695L593.106 439.714C593.521 440.154 593.765 440.403 594.012 440.964C597.521 440.98 602.889 438.408 606.415 437.351C608.085 436.85 609.485 436.643 611.234 436.601L611.95 437.406L612.776 437.713C614.285 436.706 616.273 436.379 618.017 435.858C621.088 434.94 624.032 433.812 627.201 433.273L629.495 432.653Z"/>
	<path fill="#F84B19" transform="scale(0.5 0.5)" d="M585.223 446L588.094 445.111L589.806 446.75L589.25 447.755L588.734 447.87L586.28 448.492L585.223 446Z"/>
	<path fill="#F77F00" transform="scale(0.5 0.5)" d="M577.405 448.182L585.223 446L586.28 448.492C583.751 449.145 581.365 449.696 578.766 450.028L577.405 448.182Z"/>
	<path fill="#F6E486" transform="scale(0.5 0.5)" d="M600.733 446.474C603.246 445.855 605.668 444.809 608.085 443.891C608.189 444.58 608.249 445.225 608.5 445.877L609.348 446.397L609.95 446.844C607.992 447.465 606.004 448.232 603.98 448.579L601.75 448.511L600.733 446.474Z"/>
	<path fill="#5F0E0F" transform="scale(0.5 0.5)" d="M579.013 450.359L580.659 450.909L581.004 451.958C576.502 453.065 571.802 453.978 567.512 455.757L563.064 457.075C562.512 456.004 562.061 455.791 561.089 455.128L561.094 455.109L570.926 451.882L579.013 450.359Z"/>
	<path fill="#F77F00" transform="scale(0.5 0.5)" d="M629.495 432.653C630.333 432.015 632.552 431.586 633.622 431.249C633.178 433.564 631.5 434.422 629.664 435.788L630.759 437.1L624.431 438.873L620.797 439.842L620.77 439.82L617.004 441.226C614.616 442.069 612.343 442.787 609.841 443.244L612.008 440.836C614.759 439.784 618.01 438.002 620.891 437.715C623.587 436.564 625.223 435.492 627.201 433.273L629.495 432.653Z"/>
	<path fill="#FCBF49" transform="scale(0.5 0.5)" d="M581.586 452.47C584.377 450.789 587.646 450.226 590.75 449.329L600.733 446.474L601.75 448.511L603.98 448.579L603.979 448.831L600.243 449.664L591.304 452.389L588.174 453.426L579 456.234C576.042 457.553 572.761 458.351 569.655 459.275C568.898 459.118 568.373 459.002 567.708 458.578L567.25 458.255L566.5 459.25C564.957 459.415 564.138 458.931 562.824 458.243L566.966 456.925L567.512 455.757C571.802 453.978 576.502 453.065 581.004 451.958L581.586 452.47Z"/>
	<path transform="scale(0.5 0.5)" d="M552.585 457.409C555.144 457.274 558.556 455.832 561.089 455.128C562.061 455.791 562.512 456.004 563.064 457.075L556.079 459.148L543.54 462.462L534.855 464.451L506.284 472.264C497.922 474.363 488.883 475.885 480.863 478.963C482.176 477.946 483.616 476.838 485.184 476.25C488.345 475.065 492.093 474.84 495.396 473.826L510.278 468.832L538.164 460.985L539.446 461.018L539.62 460.773L543.917 459.875L552.585 457.409Z"/>
	<path transform="scale(0.5 0.5)" d="M594.012 440.964C597.521 440.98 602.889 438.408 606.415 437.351C608.085 436.85 609.485 436.643 611.234 436.601L611.95 437.406L596.308 442.434C593.755 443.28 590.717 444.676 588.094 445.111L585.223 446L577.405 448.182L567.852 450.482L550.66 455.782L542.359 458.015C539.916 458.391 537.401 458.885 535.044 459.636L497.609 469.317L486.281 473.175C484.477 473.812 482.478 474.75 480.572 474.964C479.359 475.101 479.179 475.123 478.25 474.308L479.5 474.015C485.023 472.877 490.061 469.949 495.349 468.033C504.11 464.858 513.407 462.384 522.398 459.897L567.646 447.863L594.012 440.964Z"/>
	<path fill="#F77F00" transform="scale(0.5 0.5)" d="M836.458 305.7L857.416 309.805L904.769 322.759L934.399 332.63C941.415 335.091 948.687 338.199 955.991 339.656C956.991 339.855 957.084 339.645 957.975 339.247C961.485 340.242 964.783 341.896 968.134 343.321L985.182 350.764C989.424 352.698 993.896 354.162 997.855 356.668C1000.18 358.139 1001.84 359.744 1003.46 361.977C1003.53 364.887 1003.71 367.759 1003.16 370.632C999.173 374.29 993.673 376.976 988.839 379.34L988.799 379.19L988.003 378.625L989.5 377.878L990.5 377.5C991.878 376.732 990.613 377.239 992.003 376.625C992.803 376.271 993.369 376.14 994.048 375.547C995.503 374.276 997.192 374.315 998.253 372.625C995.962 370.329 992.879 368.791 989.977 367.405C988.235 368.239 986.915 368.531 984.979 368.613L984.385 368.631L990.165 365.932C986.955 365.327 982.471 364.89 979.442 366.195L979.058 365.471L978.489 364.844C975.708 364.669 972.995 363.858 970.283 363.243C963.155 361.627 955.828 359.348 948.671 358.119C931.155 355.11 912.816 356.87 895.185 357.452C890.075 357.621 884.747 357.091 879.684 357.691C872.353 358.559 865.027 360.441 858.006 362.66C854.765 360.634 850.749 359.14 847.228 357.614C838.608 353.88 829.455 350.465 820.363 348.093L823.008 345.398C833.701 334.393 836.669 320.651 836.458 305.7Z"/>
	<path transform="scale(0.5 0.5)" d="M858.006 362.66C865.027 360.441 872.353 358.559 879.684 357.691C884.747 357.091 890.075 357.621 895.185 357.452C912.816 356.87 931.155 355.11 948.671 358.119C955.828 359.348 963.155 361.627 970.283 363.243C972.995 363.858 975.708 364.669 978.489 364.844L979.058 365.471L979.442 366.195C982.471 364.89 986.955 365.327 990.165 365.932L984.385 368.631C979.807 370.491 975.205 372.479 970.5 373.989L948.211 380.635C946.305 381.157 939.483 382.605 938.574 383.796C934.256 386.939 929.659 389.229 924.973 391.754C912.04 399.792 896.642 404.204 882.536 409.662C874.151 412.906 866.007 416.792 857.417 419.467C850.241 421.62 817.556 431.617 814.344 436.015L663.312 486.597C658.226 488.364 652.8 489.361 647.939 491.675L637.291 495.092L560.9 523.623C557.21 524.239 553.627 525.658 550.066 526.792L534.212 531.75L514.491 537.361L471.219 551.583L427.26 565.287C426.443 564.721 423.641 562.844 423.181 562.021C422.759 561.267 422.684 558.958 422.478 558C421.562 553.724 419.691 550.738 417.172 547.267C408.261 551.116 398.95 552.842 389.581 555.286L372.281 560.059C368.15 560.998 365.144 560.027 361.607 557.668C353.58 552.314 348.766 542.549 347.369 533.239C346.909 530.168 347.196 527.13 346.591 524.057L346.483 523.537C347.798 522.097 353.618 520.939 355.594 520.365L392.5 510.533L427.453 500.147L468.25 489.494L475.653 487.045L492.62 482.92L511.87 477.306C518.609 475.433 525.156 473.956 531.663 471.256C531.464 470.763 531.578 471.09 531.406 470.25L534.641 467.75C534.917 466.597 534.887 465.626 534.855 464.451L543.54 462.462L556.079 459.148L563.064 457.075L567.512 455.757L566.966 456.925L562.824 458.243C564.138 458.931 564.957 459.415 566.5 459.25L567.25 458.255L567.708 458.578C568.373 459.002 568.898 459.118 569.655 459.275C572.761 458.351 576.042 457.553 579 456.234L588.174 453.426L591.304 452.389L600.243 449.664L603.979 448.831L603.98 448.579C606.004 448.232 607.992 447.465 609.95 446.844L609.348 446.397L608.5 445.877C608.249 445.225 608.189 444.58 608.085 443.891L609.841 443.244C612.343 442.787 614.616 442.069 617.004 441.226L620.77 439.82L620.797 439.842L624.431 438.873L630.759 437.1L629.664 435.788C631.5 434.422 633.178 433.564 633.622 431.249C634.933 430.705 636.284 430.36 637.647 429.973C637.837 431.399 637.731 432.357 639 433.207L640.52 434.096L653.099 430.216L682.676 420.632C685.349 419.71 686.838 417.659 689.25 416.492C690.624 415.827 692.694 415.469 693.75 414.288C694.101 413.895 694.422 412.853 694.662 412.341L797.141 377.171L833.552 368.711C837.817 368.623 841.909 367.256 845.98 366.11L858.006 362.66Z"/>
	<path fill="#901A17" transform="scale(0.5 0.5)" d="M588.174 453.426L591.304 452.389L594.194 454.889L589.6 455.879L588.174 453.426Z"/>
	<path fill="#FDFDED" transform="scale(0.5 0.5)" d="M379.757 528.75C380.703 528.867 380.195 528.737 381.25 529.241C382.016 530.724 382.11 531.238 381.859 532.889L380.25 533.672L379.67 533.349C378.333 532.414 378.15 531.798 378.031 530.25L379.757 528.75Z"/>
	<path fill="#9E1A13" transform="scale(0.5 0.5)" d="M600.243 449.664L603.013 450.471C603.955 450.78 603.589 450.673 604.643 450.788C605.611 450.893 606.274 451.121 607.168 451.487L594.194 454.889L591.304 452.389L600.243 449.664Z"/>
	<path fill="#9E1A13" transform="scale(0.5 0.5)" d="M579 456.234L588.174 453.426L589.6 455.879C581.852 457.766 572.836 461.009 564.871 461.097C566.358 460.302 568.06 459.827 569.655 459.275C572.761 458.351 576.042 457.553 579 456.234Z"/>
	<path fill="#9E1A13" transform="scale(0.5 0.5)" d="M449.571 521.66L461.469 518.691C461.341 520.445 461.928 520.888 462.858 522.34C458.016 523.653 452.269 526.751 447.252 526.302C449.019 524.643 449.361 524.005 449.571 521.66Z"/>
	<path fill="#321E1D" transform="scale(0.5 0.5)" d="M894.904 386.229L914.162 382.271C919.19 381.061 939.915 373.324 943.319 374.49C942.166 375.545 940.204 375.764 938.708 376.233L921.339 380.846C912.5 383.369 904.06 386.672 895.07 388.929C894.882 387.968 894.828 387.205 894.904 386.229Z"/>
	<path fill="#D62828" transform="scale(0.5 0.5)" d="M447.252 526.302L415 534.515L413.75 533.456L413.75 532.492C420.112 529.109 428.815 528.046 435.75 525.993L449.571 521.66C449.361 524.005 449.019 524.643 447.252 526.302Z"/>
	<path fill="#F77F00" transform="scale(0.5 0.5)" d="M567.512 455.757L566.966 456.925L562.824 458.243C564.138 458.931 564.957 459.415 566.5 459.25L567.25 458.255L567.708 458.578C568.373 459.002 568.898 459.118 569.655 459.275C568.06 459.827 566.358 460.302 564.871 461.097L547.068 466.764L539.271 468.859L531.663 471.256C531.464 470.763 531.578 471.09 531.406 470.25L534.641 467.75C534.917 466.597 534.887 465.626 534.855 464.451L543.54 462.462L556.079 459.148L563.064 457.075L567.512 455.757Z"/>
	<path fill="#D62828" transform="scale(0.5 0.5)" d="M548.399 463.778C548.117 464.932 547.653 465.743 547.068 466.764L539.271 468.859C541.549 465.15 544.502 464.824 548.399 463.778Z"/>
	<path fill="#5F0E0F" transform="scale(0.5 0.5)" d="M714.995 439.754L739.549 432.334C743.049 431.284 746.253 429.857 749.86 429.138C749.216 429.931 747.906 430.317 747 430.785C744.208 432.228 741.224 433.605 738.296 434.75C739.581 434.781 740.283 434.776 741.5 434.382C746.398 432.796 751.571 431.828 756.525 430.438L794.051 419.946C801.489 417.941 809.548 414.587 817.144 413.75C816.646 414.429 816.972 414.225 816.28 414.403L725.036 440.786L725.099 440.209C723.359 439.14 720.507 440.482 718.4 440.217L714.995 439.754Z"/>
	<path fill="#FDFDED" transform="scale(0.5 0.5)" d="M979.442 366.195C982.471 364.89 986.955 365.327 990.165 365.932L984.385 368.631C979.807 370.491 975.205 372.479 970.5 373.989L948.211 380.635C946.305 381.157 939.483 382.605 938.574 383.796C934.256 386.939 929.659 389.229 924.973 391.754C923.721 391.063 922.518 391.001 921.122 390.796C921.029 390.131 920.982 389.685 920.604 389.108L920.334 388.75L922.082 388.185L921.11 387.739L945.35 376.745L979.442 366.195Z"/>
	<path fill="#5F0E0F" transform="scale(0.5 0.5)" d="M922.082 388.185C926.155 387.604 929.934 385.235 933.988 384.605L938.574 383.796C934.256 386.939 929.659 389.229 924.973 391.754C923.721 391.063 922.518 391.001 921.122 390.796C921.029 390.131 920.982 389.685 920.604 389.108L920.334 388.75L922.082 388.185Z"/>
	<path fill="#D62828" transform="scale(0.5 0.5)" d="M714.995 439.754L718.4 440.217C720.507 440.482 723.359 439.14 725.099 440.209L725.036 440.786L634.816 466.512L609.07 473.542C605.702 474.335 600.34 473.754 597.439 475.516C596.411 476.14 595.468 476.951 594.262 477.25C592.905 477.586 591.437 477.394 590.045 477.672L572.412 481.878C561.722 484.52 550.723 488.661 539.749 489.665C549.106 484.245 559.758 482.356 570 479.507C572.604 478.782 575.091 477.719 577.715 477.019L594 473.008L629.87 462.633L639.469 460.126C641.124 459.506 642.871 459.129 644.581 458.686L714.995 439.754Z"/>
	<path fill="#D62828" transform="scale(0.5 0.5)" d="M925.754 362.401C933.394 361.059 940.664 359.46 948.5 360.048C951.821 360.298 955.174 361.586 958.406 362.391C960.984 363.033 963.66 363.348 966.217 364.021C963.057 364.688 959.482 364.555 956.461 365.497L937.149 369.374L928.596 371.229L917.682 373.712L868.386 385.839L862.501 387.264L693.232 429.276L657.669 438.57L630.148 445.322L617.683 448.544C614.364 449.632 610.656 451.118 607.168 451.487C606.274 451.121 605.611 450.893 604.643 450.788C603.589 450.673 603.955 450.78 603.013 450.471L600.243 449.664L603.979 448.831L603.98 448.579C606.004 448.232 607.992 447.465 609.95 446.844L609.348 446.397L608.5 445.877C608.249 445.225 608.189 444.58 608.085 443.891L609.841 443.244C612.343 442.787 614.616 442.069 617.004 441.226L620.77 439.82L620.797 439.842L624.431 438.873L630.759 437.1L629.664 435.788C631.5 434.422 633.178 433.564 633.622 431.249C634.933 430.705 636.284 430.36 637.647 429.973C637.837 431.399 637.731 432.357 639 433.207L640.52 434.096L653.099 430.216L652.428 430.875C650.947 432.206 648.786 432.304 646.968 432.927C644.95 433.619 643.161 434.414 641.059 434.896L641 435.255C642.015 435.252 642.248 435.499 643 434.755C644.134 434.812 644.93 434.814 646 435.255C646.686 434.978 646.961 434.739 647.5 434.255L649.755 434.25L649.75 432.755C652.004 432.667 653.931 433.355 656.216 433.45C660.773 432.611 665.241 431.068 669.734 429.922L707.25 419.523L723.344 414.32L755.789 405.241L785.5 398.024L822.374 387.672L853.413 380.085C873.939 374.835 894.299 368.635 915.104 364.606C918.688 363.912 922.122 362.919 925.754 362.401Z"/>
	<path fill="#F9F7AB" transform="scale(0.5 0.5)" d="M609.841 443.244C612.343 442.787 614.616 442.069 617.004 441.226C618.176 442.051 618.978 442.602 619.648 443.926L609.95 446.844L609.348 446.397L608.5 445.877C608.249 445.225 608.189 444.58 608.085 443.891L609.841 443.244Z"/>
	<path fill="#F6E486" transform="scale(0.5 0.5)" d="M624.431 438.873L625.628 440.271C627 440.302 628.237 440.342 629.574 440.001C630.729 439.706 631.404 439.758 632.574 439.858L619.648 443.926C618.978 442.602 618.176 442.051 617.004 441.226L620.77 439.82L620.797 439.842L624.431 438.873Z"/>
	<path fill="#F9F7AB" transform="scale(0.5 0.5)" d="M633.622 431.249C634.933 430.705 636.284 430.36 637.647 429.973C637.837 431.399 637.731 432.357 639 433.207L640.52 434.096L653.099 430.216L652.428 430.875C650.947 432.206 648.786 432.304 646.968 432.927C644.95 433.619 643.161 434.414 641.059 434.896L641 435.255C642.015 435.252 642.248 435.499 643 434.755C644.134 434.812 644.93 434.814 646 435.255C646.686 434.978 646.961 434.739 647.5 434.255L649.755 434.25L649.75 432.755C652.004 432.667 653.931 433.355 656.216 433.45L652.35 434.565C650.574 435.082 648.271 435.459 646.634 436.249L637.004 438.818C635.666 439.159 633.94 439.836 632.574 439.858C631.404 439.758 630.729 439.706 629.574 440.001C628.237 440.342 627 440.302 625.628 440.271L624.431 438.873L630.759 437.1L629.664 435.788C631.5 434.422 633.178 433.564 633.622 431.249Z"/>
	<path fill="#F84B19" transform="scale(0.5 0.5)" d="M633.622 431.249C634.933 430.705 636.284 430.36 637.647 429.973C637.837 431.399 637.731 432.357 639 433.207L640.52 434.096L630.759 437.1L629.664 435.788C631.5 434.422 633.178 433.564 633.622 431.249Z"/>
	<path fill="#FDFDED" transform="scale(0.5 0.5)" d="M858.006 362.66C865.027 360.441 872.353 358.559 879.684 357.691C884.747 357.091 890.075 357.621 895.185 357.452C912.816 356.87 931.155 355.11 948.671 358.119C955.828 359.348 963.155 361.627 970.283 363.243C972.995 363.858 975.708 364.669 978.489 364.844L979.058 365.471L966.217 364.021C963.66 363.348 960.984 363.033 958.406 362.391C955.174 361.586 951.821 360.298 948.5 360.048C940.664 359.46 933.394 361.059 925.754 362.401C922.122 362.919 918.688 363.912 915.104 364.606C894.299 368.635 873.939 374.835 853.413 380.085L822.374 387.672L785.5 398.024L755.789 405.241L723.344 414.32L707.25 419.523L669.734 429.922C665.241 431.068 660.773 432.611 656.216 433.45C653.931 433.355 652.004 432.667 649.75 432.755L649.755 434.25L647.5 434.255C646.961 434.739 646.686 434.978 646 435.255C644.93 434.814 644.134 434.812 643 434.755C642.248 435.499 642.015 435.252 641 435.255L641.059 434.896C643.161 434.414 644.95 433.619 646.968 432.927C648.786 432.304 650.947 432.206 652.428 430.875L653.099 430.216L682.676 420.632C685.349 419.71 686.838 417.659 689.25 416.492C690.624 415.827 692.694 415.469 693.75 414.288C694.101 413.895 694.422 412.853 694.662 412.341L797.141 377.171L833.552 368.711C837.817 368.623 841.909 367.256 845.98 366.11L858.006 362.66Z"/>
	<path fill="#D62828" transform="scale(0.5 0.5)" d="M859.665 406.2L905.043 392.689C910.189 391.101 916.33 390.004 921.11 387.739L922.082 388.185L920.334 388.75L920.604 389.108C920.982 389.685 921.029 390.131 921.122 390.796L877.122 404.808C869.838 408.011 861.426 411.274 853.569 412.78L845.034 415.601L623.906 483.386L570.535 502.442L451.562 536.715L442.95 538.869C436.331 540.768 429.673 542.836 422.873 543.935C420.927 544.25 418.806 544.813 416.844 544.694C416.024 543.186 415.616 542.225 415.544 540.5C416.071 539.609 416.556 539.24 417.479 538.832C422.609 536.568 428.671 535.555 434.064 534.016L474.317 521.891L489.539 518.058C492.981 517.767 496.831 516.199 500.155 515.179L520.352 509.128L572.602 495.627L575 495.06C579.014 494.12 582.76 492.59 586.718 491.501L613.452 484.387C615.957 483.623 619.689 482.986 621.44 481.059C618.251 481.008 615.225 482.216 612.159 482.956L588.5 488.961L555.182 496.457L478.868 517.305L468.91 520.412L462.858 522.34C461.928 520.888 461.341 520.445 461.469 518.691L469.517 516.122L481.962 512.637L842.106 411.652C842.408 411.17 855.074 407.569 856.495 407.131L859.665 406.2Z"/>
	<path fill="#FCBF49" transform="scale(0.5 0.5)" d="M118.334 626.066C130.7 612.932 147.308 602 162.5 592.446C183.472 579.256 205.009 567.087 227.922 557.477C250.124 548.165 273.483 541.418 296.9 535.986L299.709 538.039C304.064 541.27 307.78 545.447 311.695 549.189C326.95 563.774 340.511 579.141 353.198 595.989C354.971 598.345 357.123 600.391 358.865 602.75C360.488 604.948 361.662 607.451 363.271 609.678C372.514 622.468 381.94 635.374 389.941 649C413.432 689.007 431.479 731.984 443.178 776.853C447.34 792.816 451.147 808.896 453.422 825.255L458.01 897.176C417.633 892.205 376.492 880.928 339.33 864.375L313.864 851.567C288.427 838.258 264.539 821.065 242.75 802.469C226.432 788.542 210.54 773.676 196.632 757.293C177.535 734.798 160.837 709.88 145.906 684.5C137.832 670.775 131.113 656.611 124.828 641.988C122.562 636.715 120.048 631.555 118.334 626.066Z"/>
	<path fill="#F77F00" transform="scale(0.5 0.5)" d="M811.136 726.259C813.388 727.163 816.848 731.414 818.739 733.217C821.503 728.88 825.066 725.235 828.137 721.122L851.75 688.414L861.749 672.142C878.464 645.207 893.27 616.805 906.25 587.904C910.284 578.923 913.835 569.362 916.818 559.981C917.963 556.381 919.442 552.839 920.202 549.131L923.67 531.049C924.157 528.242 924.205 523.471 925.681 521.099L926.198 524.343C925.215 544.278 923.428 564.249 919.085 583.776C915.579 599.535 910.427 615.274 904.77 630.37C899.183 645.277 892.972 659.961 885.373 673.969C875.329 692.484 863.403 710.126 850.947 727.086C833.386 750.997 813.831 773.649 791.853 793.642C760.379 822.272 723.343 846.944 684.418 864.242C681.124 865.706 677.65 866.677 674.329 868.062C632.074 885.687 586.952 895.789 541.317 899.183L526.25 899.634C514.221 900.206 502.025 900.432 489.984 899.841L458.01 897.176L453.422 825.255C451.147 808.896 447.34 792.816 443.178 776.853C431.479 731.984 413.432 689.007 389.941 649C381.94 635.374 372.514 622.468 363.271 609.678C361.662 607.451 360.488 604.948 358.865 602.75C357.123 600.391 354.971 598.345 353.198 595.989C340.511 579.141 326.95 563.774 311.695 549.189C307.78 545.447 304.064 541.27 299.709 538.039L296.9 535.986L343.17 524.121C344.119 524.264 345.524 523.747 346.483 523.537L346.591 524.057C347.196 527.13 346.909 530.168 347.369 533.239C348.766 542.549 353.58 552.314 361.607 557.668C365.144 560.027 368.15 560.998 372.281 560.059L389.581 555.286C398.95 552.842 408.261 551.116 417.172 547.267C419.691 550.738 421.562 553.724 422.478 558C422.684 558.958 422.759 561.267 423.181 562.021C423.641 562.844 426.443 564.721 427.26 565.287L471.219 551.583C479.663 558.657 486.404 566.935 493.748 575.092C506.611 589.382 519.143 603.992 530.53 619.5L536.25 628.161L572.954 682.214L584.411 701.714L601.886 730.798L641.698 801.171C644.23 805.208 646.249 810.156 649.412 813.683C653.091 817.785 657.555 823.039 662.64 825.288C667.315 827.357 675.098 827.027 680.093 826.611C685.413 826.168 690.406 823.876 695.307 821.895C702.08 819.157 708.983 816.429 715.211 812.56C720.037 809.562 724.444 805.751 729.059 802.45C733.098 799.562 737.261 797.149 741.13 793.976L754.206 782.49C757.445 779.85 760.275 776.46 763.199 773.459C773.376 763.014 782.764 752.264 791.609 740.67L799.735 730.241C800.966 728.54 801.84 726.214 803.377 724.842L806.25 722.084C808.041 723.127 809.609 724.855 811.136 726.259Z"/>
	<path fill="#003049" transform="scale(0.5 0.5)" d="M118.334 626.066L104.22 576.457C100.401 561.786 98.336 546.305 96.7525 531.245C93.2706 498.131 93.5397 465.341 98.7063 432.398C101.254 416.155 104.555 401.028 110.4 385.599C112.634 379.703 114.625 373.574 117.817 368.116C122.858 365.464 128.85 363.884 134.244 362.078L176.93 349.199L214.178 338.229L251.707 328.799L261.329 325.943L314.326 314.683C336.737 309.633 359.124 302.828 381.773 299.171C400.542 296.14 420.226 294.288 439.201 296.128C472.918 299.398 504.082 316.414 533.5 332.079C539.695 335.378 545.703 338.623 551.541 342.547C553.855 344.103 556.188 345.238 557.984 347.43L519.88 360.679L520.143 364.456C517.726 365.318 514.591 366.856 512.036 366.903C511.29 367.501 511.135 367.794 510.694 368.67C507.662 374.692 498.674 373.798 494.727 378.971C493.495 380.585 493.092 382.863 492.865 384.831C492.318 389.576 493.066 394.24 494.47 398.774C495.246 401.281 496.508 402.48 498.453 404.148L441.155 422.995C438.177 424.022 434.935 425.354 431.831 425.879C426.535 428.21 423.709 436.382 420.397 440.986L420.591 442.989C418.175 446.804 415.724 452.613 412.25 455.408L410 455.841L409.57 455.25L409.957 454.51C410.725 452.932 410.223 450.921 410.008 449.246C409.039 448.897 409.541 448.903 408.503 449.33C405.489 448.964 403.713 449.657 400.898 450.325C396.928 451.266 392.122 451.771 388.729 454.225L386.962 454.088L386.091 453.769L386.755 453.25L386.369 451.566L359.647 458.066C347.52 460.379 336.436 463.884 324.723 467.612L301.424 475.113C298.082 476.2 295.788 477.01 293.784 480.071C287.777 486.798 283.15 493.887 283.572 503.412C283.755 507.533 285.649 516.126 288.75 518.954L290.945 520.611L290.991 520.561C294.251 525.093 297.389 529.638 302.109 532.814L330.91 526.125C334.092 525.396 339.978 523.501 343.035 524.107L343.17 524.121L296.9 535.986C273.483 541.418 250.124 548.165 227.922 557.477C205.009 567.087 183.472 579.256 162.5 592.446C147.308 602 130.7 612.932 118.334 626.066Z"/>
	<path fill="#FDFDED" transform="scale(0.5 0.5)" d="M512.036 366.903C511.609 366.246 511.384 365.724 511.11 365L511.304 364.583C512.678 362.466 517.554 361.447 519.88 360.679L520.143 364.456C517.726 365.318 514.591 366.856 512.036 366.903Z"/>
	<path fill="#FCBF49" transform="scale(0.5 0.5)" d="M410.92 444.254L420.397 440.986L420.591 442.989C418.175 446.804 415.724 452.613 412.25 455.408L410 455.841L409.57 455.25L409.957 454.51C410.725 452.932 410.223 450.921 410.008 449.246C409.039 448.897 409.541 448.903 408.503 449.33C405.489 448.964 403.713 449.657 400.898 450.325C396.928 451.266 392.122 451.771 388.729 454.225L386.962 454.088L386.091 453.769L386.755 453.25L386.369 451.566L410.92 444.254Z"/>
	<path fill="#D62828" transform="scale(0.5 0.5)" d="M984.385 368.631L984.979 368.613C986.915 368.531 988.235 368.239 989.977 367.405C992.879 368.791 995.962 370.329 998.253 372.625C997.192 374.315 995.503 374.276 994.048 375.547C993.369 376.14 992.803 376.271 992.003 376.625C990.613 377.239 991.878 376.732 990.5 377.5L989.5 377.878L988.003 378.625L988.799 379.19L988.839 379.34C973.1 388.538 955.916 396.212 939.168 403.4C931.228 406.808 922.093 409.507 914.714 413.985L921.325 444.885C926.033 470.444 928.416 498.436 926.198 524.343L925.681 521.099C924.205 523.471 924.157 528.242 923.67 531.049L920.202 549.131C919.442 552.839 917.963 556.381 916.818 559.981C913.835 569.362 910.284 578.923 906.25 587.904C893.27 616.805 878.464 645.207 861.749 672.142L851.75 688.414L828.137 721.122C825.066 725.235 821.503 728.88 818.739 733.217C816.848 731.414 813.388 727.163 811.136 726.259C809.609 724.855 808.041 723.127 806.25 722.084L803.377 724.842C801.84 726.214 800.966 728.54 799.735 730.241L791.609 740.67C782.764 752.264 773.376 763.014 763.199 773.459C760.275 776.46 757.445 779.85 754.206 782.49L741.13 793.976C737.261 797.149 733.098 799.562 729.059 802.45C724.444 805.751 720.037 809.562 715.211 812.56C708.983 816.429 702.08 819.157 695.307 821.895C690.406 823.876 685.413 826.168 680.093 826.611C675.098 827.027 667.315 827.357 662.64 825.288C657.555 823.039 653.091 817.785 649.412 813.683C646.249 810.156 644.23 805.208 641.698 801.171L601.886 730.798L584.411 701.714L572.954 682.214L536.25 628.161L530.53 619.5C519.143 603.992 506.611 589.382 493.748 575.092C486.404 566.935 479.663 558.657 471.219 551.583L514.491 537.361L534.212 531.75L550.066 526.792C553.627 525.658 557.21 524.239 560.9 523.623L637.291 495.092L647.939 491.675C652.8 489.361 658.226 488.364 663.312 486.597L814.344 436.015C817.556 431.617 850.241 421.62 857.417 419.467C866.007 416.792 874.151 412.906 882.536 409.662C896.642 404.204 912.04 399.792 924.973 391.754C929.659 389.229 934.256 386.939 938.574 383.796C939.483 382.605 946.305 381.157 948.211 380.635L970.5 373.989C975.205 372.479 979.807 370.491 984.385 368.631Z"/>
	<path fill="#F77F00" transform="scale(0.5 0.5)" d="M647.939 491.675C652.8 489.361 658.226 488.364 663.312 486.597C667.268 488.939 671.391 491.785 675.703 493.385C672.026 496.599 663.978 497.876 659.25 499.294L647.055 503.598C643.652 504.675 639.959 504.948 636.493 505.835C634.197 506.422 632.04 507.448 629.75 508.016L603.446 514.356C599.383 515.358 594.848 516.984 590.75 517.515C589.555 517.67 588.351 517.53 587.164 517.706C584.574 518.089 581.722 519.561 579.14 520.246C573.743 521.678 568.073 522.676 562.573 523.639C561.673 523.796 561.99 523.744 560.9 523.623L637.291 495.092L647.939 491.675Z"/>
	<path fill="#F8652C" transform="scale(0.5 0.5)" d="M637.291 495.092L647.939 491.675C647.247 493.288 646.976 494.199 645.25 494.994C643.195 495.94 640.969 496.004 638.755 495.927L637.291 495.092Z"/>
	<path fill="#FDF5DA" transform="scale(0.5 0.5)" d="M861.519 422.711L862.119 422.595L885.102 415.956L877.951 433.615L770.858 465.03L742.04 474.536L710.519 483.968L684.811 491.862C681.818 492.643 678.684 492.666 675.703 493.385C671.391 491.785 667.268 488.939 663.312 486.597L814.344 436.015C817.556 431.617 850.241 421.62 857.417 419.467C858.131 420.157 858.58 420.566 859.534 420.869L859.244 421.227C858.819 421.79 858.549 422.367 858.25 423L859.25 422.255L860 422.377L861.2 422.006L861.519 422.711Z"/>
	<defs>
		<linearGradient id="gradient_2" gradientUnits="userSpaceOnUse" x1="837.39136" y1="435.66153" x2="849.04285" y2="415.59052">
			<stop offset="0" stop-color="#99160C"/>
			<stop offset="1" stop-color="#D22F24"/>
		</linearGradient>
	</defs>
	<path fill="url(#gradient_2)" transform="scale(0.5 0.5)" d="M814.344 436.015C817.556 431.617 850.241 421.62 857.417 419.467C858.131 420.157 858.58 420.566 859.534 420.869L859.244 421.227C858.819 421.79 858.549 422.367 858.25 423L859.25 422.255L860 422.377L861.2 422.006L861.519 422.711L814.344 436.015Z"/>
</svg>
