<?xml version="1.0" encoding="utf-8" ?>
<svg xmlns="http://www.w3.org/2000/svg" xmlns:xlink="http://www.w3.org/1999/xlink" width="512" height="512">
	<path transform="scale(0.5 0.5)" d="M-0 -0L1024 0L1024 1024L-0 1024L0 -0Z"/>
	<path fill="#FEFFF2" transform="scale(0.5 0.5)" d="M976.548 295.25L977.756 295.074C978.747 295.696 978.964 295.626 979.442 296.75L977.25 299.955L976.061 299.917C974.794 299.1 974.638 299.179 974.245 297.75C974.99 296.113 974.954 296.053 976.548 295.25Z"/>
	<path fill="#FEFFF2" transform="scale(0.5 0.5)" d="M742.907 56.75L744.26 56.4859C745.35 57.0221 745.649 57.4906 746.25 58.5317C746.067 60.1059 745.97 60.1113 744.844 61.25C744.261 61.365 743.594 61.3572 743 61.3953C741.942 60.2051 741.76 60.0552 741.52 58.5L742.907 56.75Z"/>
	<path fill="#FEFFF2" transform="scale(0.5 0.5)" d="M76.6808 182.75L77.5606 182.489C79.144 182.687 79.8924 183.3 81.0948 184.25C80.8582 185.734 80.3989 186.104 79.4676 187.25C79.1332 187.371 78.8306 187.504 78.4603 187.508C76.8435 187.523 76.4144 186.991 75.25 186.003C75.1025 184.539 75.8876 183.935 76.6808 182.75Z"/>
	<path fill="#1D6B83" transform="scale(0.5 0.5)" d="M447.212 474.62C451.881 474.595 461.567 473.481 465.217 476.321L465.411 479C465.107 479.258 464.872 479.631 464.5 479.773C463.131 480.298 452.765 479.558 450.714 479.332L449.242 479.069L455.699 478.75L456.387 477.75C456.88 476.709 456.893 476.295 456.62 475.25C453.916 475.229 450.788 475.482 448.158 474.861L447.212 474.62Z"/>
	<path fill="#F77F00" transform="scale(0.5 0.5)" d="M494.09 598.57C491.038 599.135 487.626 598.911 484.505 599.027L462.868 599.444L485.468 594.54C486.112 596.447 486.129 596.989 487.75 598.272C489.838 598.335 492.028 598.259 494.09 598.57Z"/>
	<path fill="#06BBE5" transform="scale(0.5 0.5)" d="M112.912 399.852C110.408 400.037 107.236 399.884 104.829 399.162C104.62 397.817 104.587 397.789 105.25 396.609L129.347 396.039L129.816 397.75L135.602 398.054L112.912 399.852Z"/>
	<path fill="#1D6B83" transform="scale(0.5 0.5)" d="M178.04 514.971L220.857 515.394L227.745 515.75C226.29 516.913 225.8 516.813 223.994 516.989L194.25 516.983C188.889 516.977 182.805 517.537 177.572 516.391L178.04 514.971Z"/>
	<path fill="#D62828" transform="scale(0.5 0.5)" d="M969.398 510.54C969.396 508.464 969.013 505.518 969.807 503.607L969.804 507.25C971.147 508.498 975.699 507.976 977.75 507.908C985.592 507.646 995.016 506.434 1002.75 507.76L1002.75 508.458C1000.53 510.25 994.567 509.863 991.626 510.223L977.301 510.791C974.655 511.117 972.04 510.802 969.398 510.54Z"/>
	<path fill="#FEFFF2" transform="scale(0.5 0.5)" d="M187.613 139.75L188.192 139.718L191.25 143.528C192.436 144.449 194.455 143.362 195.881 143.25C195.211 144.429 194.471 145.555 194.166 146.891C195.211 147.714 196.255 148.374 197.395 149.052L197.25 149.741C195.83 149.647 194.893 149.369 193.583 150L192.52 153.75L191.983 154.259C190.684 153.649 189.627 152.648 188.513 151.75C187.18 151.585 185.942 152.343 184.75 152.866L184.475 152.25L186.032 148.25L185.544 147.25L182.75 146.327L182.684 145.707C184.239 145.397 185.989 145.248 187.324 144.347L187.613 139.75Z"/>
	<path fill="#003049" transform="scale(0.5 0.5)" d="M40.245 286.25C41.9587 286.179 43.5252 285.777 44.979 286.75C44.9393 288.371 45.2495 290.276 44.25 291.561L25.1118 289.571C22.996 289.274 20.5837 288.799 18.6692 287.831L18.6783 286.75C20.8628 286.085 23.9672 286.474 26.2589 286.467L40.245 286.25Z"/>
	<path fill="#FCBF49" transform="scale(0.5 0.5)" d="M492.581 593.529L493.155 593.595C496.263 593.92 501.916 592.846 504.503 593.906C506.787 594.843 509.211 597.042 511.158 598.567L501.179 598.593L494.09 598.57C492.028 598.259 489.838 598.335 487.75 598.272C486.129 596.989 486.112 596.447 485.468 594.54C487.493 594.016 489.623 593.99 491.703 593.85L492.581 593.529Z"/>
	<path fill="#06BBE5" transform="scale(0.5 0.5)" d="M118.151 631.692L118.821 632.289L107.604 635.558L107.25 636.255L108.75 636.5C109.866 635.669 110.436 635.855 111.75 635.5C112.429 635.316 113.008 635.452 113.712 635.188C114.459 634.907 115.081 634.972 115.86 634.926C116.887 634.865 115.856 634.904 117.25 634.5L119 634.25L119.5 633.878L121.737 633.851L121.579 634.524L87.5853 641.691L72 645.146C69.4374 645.717 66.8383 646.637 64.1962 646.364C76.6632 641.466 89.7821 639.042 102.75 635.956L118.151 631.692Z"/>
	<path fill="#FEFFF2" transform="scale(0.5 0.5)" d="M897.41 79.5887L898.576 85.6839C900.687 85.8322 902.506 86.0521 904.51 86.75C903.28 87.738 902.147 88.503 901.506 90C902.135 91.1276 902.828 91.6375 903.854 92.3631C904.43 92.7701 904.195 92.4735 904.454 93.25C902.684 93.1728 900.376 93.0088 898.895 94L898.319 99.2822L893.5 95.069L890.552 95.8233C890.748 94.4308 891.614 93.1672 892.275 91.9442C891.528 90.5636 890.594 90.4437 889.192 89.8015C889.614 89.2843 890.156 88.8453 890.457 88.25C891.357 86.4737 890.061 85.8983 892 84.3648L894.25 84.7259C895.653 83.246 896.474 81.3819 897.41 79.5887Z"/>
	<path fill="#003049" transform="scale(0.5 0.5)" d="M177.572 516.391C176.178 515.623 175.117 514.254 174.026 513.095C172.791 508.357 173.361 502.482 173.393 497.573C173.436 491.034 172.255 480.599 174.969 474.75C175.466 474.305 176.187 473.447 176.75 473.155C178.161 472.422 181.969 472.73 183.675 472.68L212.75 472.524C216.154 472.424 219.6 471.957 223 471.687L223.307 472.25C219.629 473.845 214.644 473.885 210.687 474.101L179.75 474.494C178.499 474.51 177.412 474.329 176.529 475.308C175.851 476.06 175.463 476.892 175.301 477.89C174.688 481.695 175.155 486.184 175.129 490.047C175.087 496.329 174.663 502.839 175.053 509.097C175.238 512.068 175.827 513.085 178.04 514.971L177.572 516.391Z"/>
	<path fill="#F14A00" transform="scale(0.5 0.5)" d="M657.646 509.134C673.984 510.442 690.517 512.81 706.513 516.325C712.416 517.622 718.431 518.778 724.107 520.895L724.471 521.355C721.857 521.169 719.263 520.311 716.669 519.859L700.743 517.318L671.196 513.369C664.49 512.591 657.452 511.547 650.712 511.379L653.375 510.896L652.5 510.5L652.25 509.835C653.999 509.814 655.533 509.726 657.227 509.256L657.646 509.134Z"/>
	<path fill="#1D5979" transform="scale(0.5 0.5)" d="M220.857 515.394C225.938 514.769 231.455 514.922 236.584 514.794L278.691 514.971C293.21 515.079 307.964 514.044 322.431 514.981L322.754 516.153L223.994 516.989C225.8 516.813 226.29 516.913 227.745 515.75L220.857 515.394Z"/>
	<path fill="#D62828" transform="scale(0.5 0.5)" d="M217.814 482.989L231.105 483.778L230.611 505.842L217.899 505.636L217.814 482.989Z"/>
	<path fill="#D62828" transform="scale(0.5 0.5)" d="M196.1 482.75L196.921 482.702L197.506 483.25L197.823 506.581C194.21 506.178 190.749 505.858 187.113 506.104L186.25 506.167C185.31 506.353 185.431 506.482 184.509 506C185.158 502.628 184.709 499.3 184.609 495.899L184.567 483.363L196.1 482.75Z"/>
	<path fill="#1D6B83" transform="scale(0.5 0.5)" d="M322.431 514.981L539.127 514.656L539.768 515.117L544.745 515.25C543.01 516.36 540.857 515.824 538.842 516.054L322.754 516.153L322.431 514.981Z"/>
	<path fill="#0295CA" transform="scale(0.5 0.5)" d="M449.242 479.069L419.368 478.759L391.25 478.742C388.877 478.717 384.331 479.242 382.276 478.356C381.56 478.047 380.674 475.391 380.319 474.578L447.212 474.62L448.158 474.861C450.788 475.482 453.916 475.229 456.62 475.25C456.893 476.295 456.88 476.709 456.387 477.75L455.699 478.75L449.242 479.069Z"/>
	<path fill="#003049" transform="scale(0.5 0.5)" d="M29.4567 674.228L79.1786 674.447L78.9027 680.75L76.75 680.951L28.1782 681.385C27.7981 679.203 27.3244 677.027 27.809 674.831L29.4567 674.228Z"/>
	<path fill="#FB4306" transform="scale(0.5 0.5)" d="M650.712 511.379C648.724 511.715 645.496 511.043 643.37 510.885L622 509.2L583.25 507.169C578.677 506.989 572.716 507.679 568.321 506.71C564.999 505.978 559.517 503.236 556.612 501.45L657.646 509.134L657.227 509.256C655.533 509.726 653.999 509.814 652.25 509.835L652.5 510.5L653.375 510.896L650.712 511.379Z"/>
	<defs>
		<linearGradient id="gradient_0" gradientUnits="userSpaceOnUse" x1="970.01239" y1="462.21277" x2="1000.5142" y2="470.32629">
			<stop offset="0" stop-color="#FC4500"/>
			<stop offset="1" stop-color="#F46B00"/>
		</linearGradient>
	</defs>
	<path fill="url(#gradient_0)" transform="scale(0.5 0.5)" d="M970.36 457.573C974.436 457.547 995.878 456.553 998.307 458.046C999.954 459.059 1002.03 461.841 1002.41 463.75C1003.16 467.458 1002 469.841 1000.01 472.844C998.919 473.674 997.726 474.552 996.394 474.952C993.878 475.708 990.51 475.259 987.872 475.232L971.548 475.08L970.36 457.573Z"/>
	<path fill="#D62828" transform="scale(0.5 0.5)" d="M246.213 483.769L271.441 483.607L271.586 499.706C271.599 501.671 272 504.607 271.25 506.4L268.125 506.475L242.547 506.549L242.543 490.063C242.54 488.298 242.133 485.417 243 483.969L246.213 483.769Z"/>
	<path fill="#D62828" transform="scale(0.5 0.5)" d="M485.52 487.94L524.6 489.344C524.76 494.553 524.659 499.949 525.501 505.097L525.615 505.764L485.853 505.476C485.27 503.813 485.555 501.649 485.548 499.863L485.52 487.94Z"/>
	<path fill="#D62828" transform="scale(0.5 0.5)" d="M62.4234 529.002L93.8813 530.174L101.756 530.161L153.265 530.963L153.703 531.508C155.568 535.925 158.105 539.047 161.187 542.668C158.158 541.877 154.869 542.161 151.75 541.984L133.021 540.862C118.396 540.047 103.458 538.546 89.1089 535.633C84.7022 535.008 80.5755 533.711 76.25 532.786C73.6234 532.225 71.0033 532.155 68.4911 531.11L62.4234 529.002Z"/>
	<path fill="#FB4306" transform="scale(0.5 0.5)" d="M668.606 519.967C676.611 519.98 685.12 521.502 693.066 522.494C710.618 524.683 728.151 526.954 745.464 530.594C746.258 530.761 745.861 530.559 746.533 531.25C728.622 527.907 709.751 527.491 691.595 526.69L651.966 524.618L624.665 524.139L599.193 523.783C596.428 523.715 593.272 524.061 590.582 523.663C588.335 523.33 584.844 519.893 582.691 518.656C581.202 517.801 579.517 517.209 577.916 516.595L604.862 517.496L651.831 518.56C657.235 518.845 663.363 518.702 668.606 519.967Z"/>
	<path fill="#D62828" transform="scale(0.5 0.5)" d="M604.862 517.496L651.831 518.56C657.235 518.845 663.363 518.702 668.606 519.967C664.067 520.346 659.212 519.995 654.635 520.007L626.5 519.94C620.822 519.856 613.612 520.732 608.25 519.17L608.003 518.625C609.146 518.584 610.159 518.613 611.255 518.25C608.895 518.314 607.116 518.37 604.862 517.496Z"/>
	<path fill="#D62828" transform="scale(0.5 0.5)" d="M388.34 481.995L423.613 482.179L424.269 506.287L388.882 506.132C387.892 504.749 388.375 485.313 388.34 481.995Z"/>
	<path fill="#D62828" transform="scale(0.5 0.5)" d="M525.06 484.307L508.083 479.976C498.946 477.996 489.834 476.936 480.546 476.05C475.257 475.545 470.359 474.857 465 474.756C471.544 472.689 477.041 474.515 483.588 475.065C497.101 476.201 510.307 477.637 523.663 480.054C529.753 480.367 535.705 481.291 541.75 481.982L576.25 486.77L606.5 493.001L640.929 499.049L662.912 502.899L680.857 507.75L680.75 508.283C675.711 507.45 670.842 505.83 665.852 505.011L630.186 500.41L571.25 493.594L554.88 492.227C551.911 491.935 548.847 491.331 545.877 491.321C541.652 491.308 537.664 488.907 533.837 487.338C530.976 486.164 527.973 485.345 525.06 484.307Z"/>
	<path fill="#D62828" transform="scale(0.5 0.5)" d="M428.454 482.433L465.952 482.442L465.994 506.594L429.077 506.196L428.454 482.433Z"/>
	<path fill="#003049" transform="scale(0.5 0.5)" d="M527.449 668.671C530.334 672.372 531.981 677.025 531.347 681.812C530.681 686.84 526.998 691.53 523 694.527C520.097 696.703 516.944 697.536 513.439 698.173C507.554 697.051 501.671 696.608 496.173 694.019C493.061 692.554 489.076 690.253 487.985 686.756C487.155 684.095 486.561 680.99 487.904 678.411C490.163 676.962 492.534 674.526 495.014 673.594C499.556 671.888 505.959 671.775 510.798 671.175L527.449 668.671Z"/>
	<path fill="#F14A00" transform="scale(0.5 0.5)" d="M190.636 414.524C195.857 413.673 204.209 414.305 209.226 415.86L209.672 415.958C210.971 419.859 212.524 423.856 213.068 427.948C213.874 433.997 212.459 439.664 211.25 445.543L208.676 457.381L183.498 457.105C183.581 442.901 188.961 429.612 192.354 416L190.636 414.524Z"/>
	<path fill="#F77F00" transform="scale(0.5 0.5)" d="M141.018 283.004L169.192 282.969C165.012 288.761 162.859 295.779 164.042 302.925C164.957 308.45 168.286 314.987 172.93 318.404L176.484 320.443C165.163 320.433 154.626 320.896 143.57 318.024C142.197 317.225 140.973 315.976 139.971 314.75C135.016 308.683 135.278 298.851 136.355 291.578L136.485 290.75C136.999 287.297 138.784 285.509 141.018 283.004Z"/>
	<path fill="#F77F00" transform="scale(0.5 0.5)" d="M138.822 658.286C144.91 656.956 151.064 656.309 157.232 655.51C162.302 654.853 167.528 653.939 172.649 654.083C166.168 663.868 163.008 672.622 165.377 684.5C166.016 687.704 167.89 694.429 170.456 696.71C166.133 697.425 161.252 697.017 156.86 697.007C151.895 696.997 146.068 697.624 141.343 695.956C138.397 692.544 136.556 689.363 135.582 684.891L135.393 684C134.498 679.935 134.171 675.956 134.827 671.818L134.965 671C135.693 666.478 137.229 662.543 138.822 658.286Z"/>
	<path fill="#F14A00" transform="scale(0.5 0.5)" d="M201.37 530.148L207.49 530.62C209.827 534.451 210.444 540.824 211.076 545.26C212.434 554.802 213.533 564.357 213.922 573.995L186.669 573.717C185.055 571.828 184.126 568.323 183.366 565.926C180.666 557.418 179.251 548.951 179.588 540L180.4 530.348L201.37 530.148Z"/>
	<defs>
		<linearGradient id="gradient_1" gradientUnits="userSpaceOnUse" x1="708.82697" y1="565.04498" x2="699.67303" y2="515.45502">
			<stop offset="0" stop-color="#E64001"/>
			<stop offset="1" stop-color="#FFA705"/>
		</linearGradient>
	</defs>
	<path fill="url(#gradient_1)" transform="scale(0.5 0.5)" d="M667.641 542.944L617.145 542.91L607.57 542.689C606.934 542.664 605.258 542.804 604.741 542.562C604.096 542.259 603.087 540.98 602.527 540.448C600.501 538.523 598.485 536.64 596.28 534.917L595.741 534.503L709.206 535.451C722.468 535.311 735.429 536.255 748.585 537.822C752.389 538.275 756.055 539.394 759.852 539.771C777.239 541.494 795.325 542.119 812.436 545.75L812.42 546.281L667.641 542.944Z"/>
	<path fill="#F14A00" transform="scale(0.5 0.5)" d="M141.343 695.956L138.565 695.694C128.311 694.597 117.912 690.787 107.873 688.417C100.561 686.69 92.8477 685.97 85.6783 683.758C84.1227 683.278 81.4281 682.439 80.502 681.084C79.5927 679.754 80.0364 675.757 80.3434 674.218L80.4959 673.5C80.7267 672.362 80.8556 670.983 81.584 670.039C83.7631 667.212 110.004 663.996 115.5 662.979L138.822 658.286C137.229 662.543 135.693 666.478 134.965 671L134.827 671.818C134.171 675.956 134.498 679.935 135.393 684L135.582 684.891C136.556 689.363 138.397 692.544 141.343 695.956Z"/>
	<path fill="#D62828" transform="scale(0.5 0.5)" d="M27.0308 516.61C30.8892 517.492 35.1693 516.995 39.1152 516.988L54.8517 517.148L115.522 517.454L134.414 517.485C139.18 517.494 143.855 517.283 148.525 518.422C148.544 521.708 150.192 522.811 151.528 525.629L153.265 530.963L101.756 530.161L93.8813 530.174L62.4234 529.002C54.4138 527.456 46.0497 526.697 38.4764 523.616L38.308 523.612C33.9201 522.364 29.4524 520.665 27.0308 516.61Z"/>
	<path fill="#F6F8E0" transform="scale(0.5 0.5)" d="M38.4764 523.616L103.308 524.357C102.753 525.182 101.886 526.246 101.745 527.25C101.614 528.182 101.985 529.272 101.756 530.161L93.8813 530.174L62.4234 529.002C54.4138 527.456 46.0497 526.697 38.4764 523.616Z"/>
	<path fill="#FEFFF2" transform="scale(0.5 0.5)" d="M103.308 524.357L134.85 524.433C138.636 524.416 142.457 523.73 146.25 524.018C148.021 524.152 149.867 525.006 151.528 525.629L153.265 530.963L101.756 530.161C101.985 529.272 101.614 528.182 101.745 527.25C101.886 526.246 102.753 525.182 103.308 524.357Z"/>
	<path fill="#FCBF49" transform="scale(0.5 0.5)" d="M823.691 597.017C825.658 597.216 827.95 596.711 829.946 596.604C831.94 596.497 833.88 596.916 835.881 596.821C840.707 596.591 845.944 595.509 850.687 596.539L746.098 602.043C740.936 602.969 735.341 602.498 730.103 602.588C725.762 602.662 721.407 603.142 717.07 603.074L692.229 604.406L408.777 613.007L401.598 613.76C404.043 611.588 406.494 609.775 409.254 608.02L409.706 607.749C410.856 607.048 411.814 606.617 413.182 606.502C417.934 606.101 423.13 606.95 427.954 606.949L474.457 606.898L511.139 605.631L570.416 603.722L624.852 602.735L688.378 601.451C690.686 600.859 693.372 601.062 695.75 600.975L710.442 600.552L745.738 599.546L801.868 597.945C809.048 597.713 816.595 598.099 823.691 597.017Z"/>
	<path fill="#003049" transform="scale(0.5 0.5)" d="M169.192 282.969L192.123 282.988C195.416 282.957 201.32 282.124 204.219 283.582L204.5 284.366C211.873 284.603 218.874 286.879 225.259 290.594C225.697 290.848 226.174 291.029 226.628 291.254C228.321 292.089 228.796 294.264 229.765 295.784C230.835 297.462 231.111 299.05 231.819 300.849C232.804 303.349 232.567 306.246 232.564 308.899C225.247 309.709 217.929 309.416 210.6 309.941C207.488 310.164 204.316 310.037 201.618 311.763L201.135 313.061L201.484 315.933C201.604 316.888 201.593 316.498 201.441 317.488C200.327 318.837 199.619 320.166 197.75 320.443L176.484 320.443L172.93 318.404C168.286 314.987 164.957 308.45 164.042 302.925C162.859 295.779 165.012 288.761 169.192 282.969Z"/>
	<path fill="#F14A00" transform="scale(0.5 0.5)" d="M143.57 318.024C140.301 317.844 136.796 316.406 133.605 315.595L107.845 309.334L66.4613 300.005C62.6971 299.205 58.7946 299.071 55.0692 298.148C52.8946 297.61 50.3089 296.739 48.5347 295.35C46.8321 294.018 46.1063 291.985 45.9245 289.887C45.6509 286.73 46.7723 285.739 48.7713 283.499L141.018 283.004C138.784 285.509 136.999 287.297 136.485 290.75L136.355 291.578C135.278 298.851 135.016 308.683 139.971 314.75C140.973 315.976 142.197 317.225 143.57 318.024Z"/>
	<path fill="#FEFFF2" transform="scale(0.5 0.5)" d="M25.4115 487.358C27.3783 485.471 29.1636 483.741 31.7192 482.655C43.7154 477.558 58.012 475.714 70.7833 473.357C100.46 467.881 130.275 463.093 160.421 461.092C153.752 469.062 150.217 477.762 147.506 487.731L25.4115 487.358Z"/>
	<path fill="#D62828" transform="scale(0.5 0.5)" d="M201.135 313.061C205.071 314.667 209.47 314.629 213.563 315.866C214.466 316.139 214.06 316.054 215.101 316.093C219.851 321.012 222.025 326.641 224.099 333.063C229.145 350.711 230.56 369.295 221.428 385.95L219.11 389.969L218.444 389.097L171.975 389.524L201.441 317.488C201.593 316.498 201.604 316.888 201.484 315.933L201.135 313.061Z"/>
	<path fill="#F77F00" transform="scale(0.5 0.5)" d="M21.9123 510.556C20.4661 508.705 20.0525 506.311 20.0465 504C20.031 497.988 21.1127 491.786 25.4115 487.358L147.506 487.731C145.747 494.616 146.374 500.909 146.187 507.902C147.032 511.446 148.073 514.796 148.525 518.422C143.855 517.283 139.18 517.494 134.414 517.485L115.522 517.454L54.8517 517.148L39.1152 516.988C35.1693 516.995 30.8892 517.492 27.0308 516.61C25.0203 514.758 23.5115 512.757 21.9123 510.556Z"/>
	<path fill="#FEFFF2" transform="scale(0.5 0.5)" d="M21.9123 510.556C22.006 509.541 22.0655 508.691 22.4782 507.75C26.061 507.08 30.1832 507.524 33.841 507.531L54.6136 507.532L146.187 507.902C147.032 511.446 148.073 514.796 148.525 518.422C143.855 517.283 139.18 517.494 134.414 517.485L115.522 517.454L54.8517 517.148L39.1152 516.988C35.1693 516.995 30.8892 517.492 27.0308 516.61C25.0203 514.758 23.5115 512.757 21.9123 510.556Z"/>
	<path fill="#F77F00" transform="scale(0.5 0.5)" d="M386.095 560.967C368.586 558.669 350.893 555.934 333.221 555.474L271.88 555.38C261.917 555.438 251.449 556.087 241.547 555.25L241.45 554.105C241.496 552.452 242.019 550.56 243.25 549.485L356.609 549.136L412.428 548.575L484.799 548.836C493.347 548.822 548.325 547.887 552.231 549.795L552.06 551.977C547.081 559.09 541.325 565.344 535.678 571.891C531.875 576.301 528.101 581.342 523.375 584.804L512.76 582.518C500.642 577.956 487.254 576.277 474.5 574.429C469.77 573.744 465.2 572.624 460.407 572.329C459.272 571.872 457.222 571.889 455.925 571.723L443.5 570.446L427 567.854C420.262 566.82 413.775 566.118 407.161 564.27L386.095 560.967Z"/>
	<defs>
		<linearGradient id="gradient_2" gradientUnits="userSpaceOnUse" x1="312.11047" y1="623.03522" x2="304.16092" y2="584.02991">
			<stop offset="0" stop-color="#0069A0"/>
			<stop offset="1" stop-color="#05C3F0"/>
		</linearGradient>
	</defs>
	<path fill="url(#gradient_2)" transform="scale(0.5 0.5)" d="M386.095 560.967L407.161 564.27C413.775 566.118 420.262 566.82 427 567.854L443.5 570.446L455.925 571.723C457.222 571.889 459.272 571.872 460.407 572.329C465.2 572.624 469.77 573.744 474.5 574.429C487.254 576.277 500.642 577.956 512.76 582.518L470.141 584.833L384.706 585.084L350.474 584.917C344.961 584.923 338.938 584.528 333.486 585.322C322.19 586.966 311.069 590.446 300.039 593.316L246.483 607.549L230.5 611.402C217.176 615.123 204.076 619.405 190.492 622.204L157.323 627.587C145.462 629.817 133.536 632.934 121.579 634.524L121.737 633.851L119.5 633.878L119 634.25L117.25 634.5C115.856 634.904 116.887 634.865 115.86 634.926C115.081 634.972 114.459 634.907 113.712 635.188C113.008 635.452 112.429 635.316 111.75 635.5C110.436 635.855 109.866 635.669 108.75 636.5L107.25 636.255L107.604 635.558L118.821 632.289L118.151 631.692L179.244 615.156C180.327 614.38 182.749 613.903 184.075 613.515L193.974 610.286L226.479 597.884L261.5 587.519C284.849 580.627 308.02 574.205 331.986 569.735C342.27 567.816 352.578 567.206 362.902 565.866L377.936 563.237C379.439 563.03 383.079 563.333 384.25 562.767C384.78 562.511 385.634 561.417 386.095 560.967Z"/>
	<path fill="#003049" transform="scale(0.5 0.5)" d="M386.095 560.967L407.161 564.27C401.72 564.748 396.208 565.914 390.834 566.914L366.126 571.949L346.25 577.49L320.25 583.297L307.164 587.331C273.049 596.639 238.98 606.055 204.267 612.758L187.5 615.506C184.797 615.834 181.784 616.412 179.244 615.156C180.327 614.38 182.749 613.903 184.075 613.515L193.974 610.286L226.479 597.884L261.5 587.519C284.849 580.627 308.02 574.205 331.986 569.735C342.27 567.816 352.578 567.206 362.902 565.866L377.936 563.237C379.439 563.03 383.079 563.333 384.25 562.767C384.78 562.511 385.634 561.417 386.095 560.967Z"/>
	<path fill="#F77F00" transform="scale(0.5 0.5)" d="M751.671 607.712C753.53 607.308 756.156 607.597 758.104 607.557C754.683 608.988 750.262 609.069 746.571 609.4L730.288 611.045L681.75 616.894L645.024 620.385L556 631.307L495.78 638.25L399.519 649.406L362.875 650.506C361.178 650.561 359.299 650.665 358.039 649.5C359.869 646.642 365.433 643.699 368.258 641.453L387.982 625.202C390.772 622.996 393.989 620.002 397.257 618.64C411.568 619.774 426.907 618.388 441.269 617.898L513.317 615.717L751.671 607.712Z"/>
	<path fill="#003049" transform="scale(0.5 0.5)" d="M172.649 654.083C183.902 651.96 196.327 653.298 207.75 653.397L243.155 653.243C245.114 653.267 255.456 654.011 256.566 653.479C256.79 653.371 257.59 652.187 257.762 651.971C259.195 650.167 261.344 646.633 263.173 645.322C265.33 643.777 282.075 644.441 285.847 644.393L354.876 644.132C356.126 645.01 357.867 645.873 358.496 647.25C357.927 648.532 357.37 649.156 356.019 649.647C351.632 651.241 347.861 653.347 343.636 655.245L313.021 669.368C304.446 673.125 295.383 676.089 286.594 679.326C275.171 683.533 264.039 687.867 252.211 690.98C232.882 696.067 213.172 697.492 193.282 697.402C185.874 697.369 177.969 698.022 170.735 696.672L170.456 696.71C167.89 694.429 166.016 687.704 165.377 684.5C163.008 672.622 166.168 663.868 172.649 654.083Z"/>
	<path fill="#003049" transform="scale(0.5 0.5)" d="M539.127 514.656L555.84 514.866C557.717 514.925 560.519 514.647 562.298 515.078C564.345 515.574 568.327 519.381 569.935 520.916L570.355 521.337C575.817 525.054 584.581 534.318 586.351 540.804L586.393 541.422L213.293 540.316C211.737 537.819 209.998 531.529 207.49 530.62L201.37 530.148L180.4 530.348C179.331 527.28 179.447 523.123 179.056 519.842L212.602 519.939L564.667 518.176C560.327 515.106 544.958 516.982 538.842 516.054C540.857 515.824 543.01 516.36 544.745 515.25L539.768 515.117L539.127 514.656Z"/>
	<path fill="#003049" transform="scale(0.5 0.5)" d="M135.602 398.054C200.762 396.152 266.581 396.546 331.307 405.222L360.058 409.987C378.908 413.527 400.837 418.18 415.211 431.725L418.676 435.328C426.179 444.863 433.703 454.573 438.987 465.559C432.859 466.153 426.303 465.552 420.103 465.628L391 466.338L369.383 465.6L264.585 465.177L236.25 465.409C230.35 465.441 223.991 464.99 218.166 465.962C217.219 466.12 217.723 466.178 216.755 465.75L217.578 465.151C218.716 464.384 220.168 464.113 221.509 464.023C227.333 463.633 233.302 463.972 239.144 463.966L273.759 463.876L320.114 463.862L349.5 463.984C352.474 464.101 355.47 464.757 358.391 465.316C351.172 460.086 344.598 454.033 336.504 450.122C308.538 436.609 277.184 431.839 247.25 424.514C234.889 421.49 222.392 417.223 209.672 415.958L209.226 415.86C204.209 414.305 195.857 413.673 190.636 414.524C188.295 412.198 178.068 412.079 174.402 411.592L153.569 408.226L127.75 404.489C122.62 403.513 117.468 402.531 112.912 399.852L135.602 398.054Z"/>
	<path fill="#D62828" transform="scale(0.5 0.5)" d="M510.124 805.75C511.993 805.434 514.071 805.79 515.974 805.842L533.75 806.771L576.509 807.274L643.17 807.081L766.678 807.164L808.045 807.47C817.371 807.496 827.309 808.492 836.306 805.916L794.777 844.595C783.175 854.307 771.267 862.253 758.525 870.284C748.555 876.567 738.727 882.647 728.05 887.75C727.245 888.135 725.408 889.077 724.585 889.113C722.105 889.224 715.109 884.455 712.605 883.155L683.5 868.585L602.811 834.9L569.083 822.415L559.257 819.607L524.685 808.419C519.906 807.111 514.793 807.395 510.124 805.75Z"/>
	<path fill="#06BBE5" transform="scale(0.5 0.5)" d="M171.975 389.524L218.444 389.097L219.11 389.969L219.679 391.294L254.884 392.659L324.915 395.591C345.593 397.175 366.064 399.294 385.706 406.412C388.645 407.477 391.48 409.052 394.344 410.324L394.861 410.602C398.991 412.88 402.87 416.146 406.25 419.419C407.582 420.709 410.176 424.156 411.615 424.889C412.775 425.48 417.181 425.102 418.783 425.233L463.436 428.74L521.564 435.896L539.103 438.813L598.405 449.031C653.449 459.755 707.944 473.912 761 492.038C791.004 502.289 820.454 513.58 848.5 528.46C862.644 535.965 876.591 543.524 887.926 555.068C889.811 556.988 892.034 558.93 893.559 561.153C896.299 565.147 899.505 571.915 898.805 576.811C895.806 567.398 891.59 562.302 883.631 556.763C881.567 555.866 879.893 555.338 877.643 555.165C868.112 552.664 858.881 549.044 849.503 546.063L816.25 535.942L781.473 524.971L671.598 496.818L650.828 492.822L633.808 488.75L597.5 481.547C566.836 475.984 535.748 472.566 504.73 469.781C482.78 467.811 461.059 465.614 438.987 465.559C433.703 454.573 426.179 444.863 418.676 435.328L415.211 431.725C400.837 418.18 378.908 413.527 360.058 409.987L331.307 405.222C266.581 396.546 200.762 396.152 135.602 398.054L129.816 397.75L129.347 396.039L169.192 393.703L171.975 389.524Z"/>
	<path fill="#FEFFF2" transform="scale(0.5 0.5)" d="M171.975 389.524L218.444 389.097L219.11 389.969L219.679 391.294L254.884 392.659L324.915 395.591C345.593 397.175 366.064 399.294 385.706 406.412C388.645 407.477 391.48 409.052 394.344 410.324L394.861 410.602C398.991 412.88 402.87 416.146 406.25 419.419C407.582 420.709 410.176 424.156 411.615 424.889C412.775 425.48 417.181 425.102 418.783 425.233L463.436 428.74L521.564 435.896L539.103 438.813L598.405 449.031C653.449 459.755 707.944 473.912 761 492.038C791.004 502.289 820.454 513.58 848.5 528.46C862.644 535.965 876.591 543.524 887.926 555.068C889.811 556.988 892.034 558.93 893.559 561.153C896.299 565.147 899.505 571.915 898.805 576.811C895.806 567.398 891.59 562.302 883.631 556.763C883.129 555.8 882.679 555.048 881.94 554.25C878.798 553.752 876.322 552.365 873.5 550.994L857.251 542.706C852.841 540.616 848.241 539.081 843.742 537.22C840.039 535.688 836.546 533.716 832.808 532.241L795.89 518.563L777.946 511.478L718.43 491.502C664.326 474.395 609.201 462.345 553.28 452.907L501.031 444.541L439.793 436.808C432.772 436.082 425.741 436.293 418.676 435.328L415.211 431.725C400.837 418.18 378.908 413.527 360.058 409.987L331.307 405.222C266.581 396.546 200.762 396.152 135.602 398.054L129.816 397.75L129.347 396.039L169.192 393.703L171.975 389.524Z"/>
	<path fill="#003049" transform="scale(0.5 0.5)" d="M552.06 551.977L697.207 552.246L798.492 553.064L855 554.637C862.466 554.967 869.82 557.076 877.289 556.234L877.643 555.165C879.893 555.338 881.567 555.866 883.631 556.763C891.59 562.302 895.806 567.398 898.805 576.811C897.748 583.324 894.06 589.86 888.701 593.756L887.908 594.281C886.01 594.832 884.097 595.351 882.127 595.565C878.012 596.014 873.875 595.654 869.75 595.791C866.987 595.883 852.663 597.612 850.687 596.539C845.944 595.509 840.707 596.591 835.881 596.821C833.88 596.916 831.94 596.497 829.946 596.604C827.95 596.711 825.658 597.216 823.691 597.017C822.891 596.372 822.326 596.02 821.279 595.895C816.472 595.324 811.398 596.103 806.547 595.898L729.25 595.952L591.913 597.831L554.049 598.598L520.5 599.346C517.855 599.276 513.511 599.583 511.158 598.567C509.211 597.042 506.787 594.843 504.503 593.906C501.916 592.846 496.263 593.92 493.155 593.595L492.581 593.529C493.845 592.815 495.448 592.343 496.889 592.192C500.245 591.841 503.455 590.873 506.75 590.218C510.661 589.44 514.731 588.885 518.569 587.816C520.471 587.286 522.408 586.551 523.375 584.804C528.101 581.342 531.875 576.301 535.678 571.891C541.325 565.344 547.081 559.09 552.06 551.977Z"/>
	<path fill="#D62828" transform="scale(0.5 0.5)" d="M254.686 757.25C262.065 755.992 270.919 756.863 278.46 756.859L373.956 759.831L432.162 759.681L685.917 759.639L819.794 759.438L868.677 759.382C871.335 759.286 874.057 759.296 876.363 757.805L876.75 757.528L876.844 758.25L860.644 778.527C855.037 785.75 847.745 792.618 840.696 798.406C831.659 800.424 821.043 799.057 811.811 799.011L763.249 799.007L533.667 798.666L503.945 798.752C498.696 798.826 492.009 799.867 486.989 798.709L486.25 798.526C480.996 797.309 476.04 795.243 470.967 793.436L449.848 786.741L362.974 766.463L332.655 761.931C322.318 760.409 311.776 759.529 301.336 759.067L273.398 758.429C267.751 758.364 259.952 759.146 254.686 757.25Z"/>
	<path fill="#FEFFF2" transform="scale(0.5 0.5)" d="M469.793 87.0284C487.935 83.4009 506.114 80.1072 524.561 78.3769C563.489 74.7257 602.546 76.3501 641 83.5365L663.472 88.7419C688.048 94.7001 711.728 102.458 734.75 112.99C756.008 122.716 776.608 134.731 796.076 147.629C818.099 162.22 837.828 179.76 856.006 198.861C877.347 221.285 896.124 245.884 911.995 272.492L917.475 281.944C918.293 283.497 918.757 285.229 919.626 286.75C920.604 288.461 922.04 289.991 922.907 291.75C923.474 292.9 923.669 294.17 924.189 295.333L935.231 318.071C947.944 347.943 956.841 379.349 963.31 411.126L962.5 411.871C953.511 411.101 944.979 408.137 936.451 405.384C921.696 400.619 907.27 395.175 893.121 388.866C870.142 378.621 849.734 365.401 829.591 350.427C820.709 343.824 811.463 337.152 803.115 329.874C792.328 320.469 782.711 310.444 772.997 300C769.809 296.573 766.354 293.433 763.305 289.868C755.883 281.189 749.037 271.413 742.561 262L715.506 220L693.364 188.732L677.95 170.512C664.465 154.814 650.18 139.507 633.025 127.748C617.958 117.42 602.063 109.977 584.364 105.25C573.558 102.364 562.564 100.752 551.523 99.1044L500.676 92.8093L485.25 91.2154C482.199 90.9165 479.193 91.0069 476.159 90.4242C474.359 90.0784 472.379 89.1225 470.929 88.0166C470.487 87.6796 470.223 87.4183 469.793 87.0284Z"/>
	<path fill="#D62828" transform="scale(0.5 0.5)" d="M527.449 668.671C523.449 664.47 518.645 662.558 513.261 660.764C503.875 657.637 494.014 656.273 484.614 653.234L529.799 653.508L576.989 653.544C610.522 653.662 643.97 655.385 677.437 652.286C712.377 649.051 747.009 642.417 781.514 636.259L781.6 636.738C782.242 640.476 782.272 644.282 782.887 648.013C784.166 655.78 787.795 662.778 794.382 667.342C797.082 669.213 799.836 670.266 803 671.075L803.972 671.334C810.539 673.038 816.806 671.507 823.449 671.601L883.122 672.092L910.783 672.148C915.293 672.305 920.022 672.339 924.443 673.308C925.089 672.241 924.885 672.811 925.067 671.602L927.701 669.96C925.555 674.187 924.188 678.651 922.078 682.861L898.659 724.965C894.755 731.228 890.906 737.786 886.072 743.381C885.46 744.088 883.96 746.135 883.136 746.368C879.986 747.261 874.476 746.606 871.113 746.576L844.287 746.415L703.904 746.203L626.374 746.471L508.865 746.447L303.708 746.849L243.75 746.969C238.677 742.322 234.916 736.656 231.071 731C226.937 724.919 222.536 718.819 218.947 712.399L213.942 702.321L254.651 701.533L400.346 701.477L459.706 701.476C470.728 701.493 481.747 701.695 492.75 700.959C497.533 700.639 502.282 700.519 507 699.593L513.439 698.173C516.944 697.536 520.097 696.703 523 694.527C526.998 691.53 530.681 686.84 531.347 681.812C531.981 677.025 530.334 672.372 527.449 668.671Z"/>
	<path fill="#D62828" transform="scale(0.5 0.5)" d="M204.219 283.582C208.232 278.74 210.425 272.825 213.291 267.295C215.521 262.991 218.306 258.736 221.014 254.711C230.489 240.627 240.104 226.48 251.014 213.441C264.946 196.788 281.198 181.479 297.888 167.665C304.947 170.358 312.413 171.824 319.362 174.579L327.889 178.422L338.241 182.063L386.548 203.278L445.556 231.584L471.41 247.011C474.904 249.139 478.883 250.721 482.25 252.963C484.067 254.173 485.662 255.708 487.5 256.914L498.941 263.855C504.23 267.339 509.122 271.355 514.233 275.083C520.328 279.53 526.656 283.821 532.4 288.725L548.401 303.08C550.691 305.278 552.821 307.993 555.25 309.988C556.085 310.674 557.089 311.055 557.916 311.75C560.271 313.731 562.311 316.32 564.5 318.499L573.43 327.327L600.244 357.932L599.578 357.841C591.701 356.805 583.533 357.024 575.599 356.997C570.992 356.981 565.897 356.579 561.347 357.227C557.934 357.713 553.808 358.977 551.014 361.014C544.983 365.409 540.44 373.713 539.582 381.1C538.971 386.361 539.491 392.299 539.521 397.625L539.646 426.75C539.697 429.482 540.787 435.713 539.815 438C539.674 438.331 539.34 438.542 539.103 438.813L521.564 435.896L463.436 428.74L418.783 425.233C417.181 425.102 412.775 425.48 411.615 424.889C410.176 424.156 407.582 420.709 406.25 419.419C402.87 416.146 398.991 412.88 394.861 410.602L394.344 410.324C391.48 409.052 388.645 407.477 385.706 406.412C366.064 399.294 345.593 397.175 324.915 395.591L254.884 392.659L219.679 391.294L219.11 389.969L221.428 385.95C230.56 369.295 229.145 350.711 224.099 333.063C222.025 326.641 219.851 321.012 215.101 316.093C214.06 316.054 214.466 316.139 213.563 315.866C209.47 314.629 205.071 314.667 201.135 313.061L201.618 311.763C204.316 310.037 207.488 310.164 210.6 309.941C217.929 309.416 225.247 309.709 232.564 308.899C232.567 306.246 232.804 303.349 231.819 300.849C231.111 299.05 230.835 297.462 229.765 295.784C228.796 294.264 228.321 292.089 226.628 291.254C226.174 291.029 225.697 290.848 225.259 290.594C218.874 286.879 211.873 284.603 204.5 284.366L204.219 283.582Z"/>
	<path fill="#06BBE5" transform="scale(0.5 0.5)" d="M315.889 318.83C318.686 318.764 320.727 319.476 323.323 320.399C324.281 320.74 326.289 321.664 327.25 321.587C328.317 321.502 329.727 320.96 330.788 320.692C335.276 325.394 339.489 330.296 343.341 335.537C347.664 341.419 350.86 347.946 354.94 353.953C356.887 356.82 359.315 359.321 361.346 362.126L376.816 383.935C381.428 390.117 386.513 395.954 390.534 402.558C391.586 404.285 393.1 406.258 393.399 408.254C387.187 401.235 382.069 393.794 376.572 386.25L360.726 364.752L348.47 347.124C344.799 341.785 341.097 335.653 335.517 332.178C332.184 329.663 329.222 326.602 325.849 324.171C322.797 321.972 319.272 320.439 315.889 318.83Z"/>
	<path fill="#FEFFF2" transform="scale(0.5 0.5)" d="M232.564 308.899C237.736 310.359 245.396 309.529 250.806 309.554L289.765 309.692C296.362 309.783 303.216 309.553 309.75 310.434L310.731 310.557C317.886 311.507 325.824 315.416 330.788 320.692C329.727 320.96 328.317 321.502 327.25 321.587C326.289 321.664 324.281 320.74 323.323 320.399C320.727 319.476 318.686 318.764 315.889 318.83C310.023 317.23 304.17 316.704 298.117 316.361L268.694 315.949L231.212 315.541C226.512 315.53 219.478 314.614 215.101 316.093C214.06 316.054 214.466 316.139 213.563 315.866C209.47 314.629 205.071 314.667 201.135 313.061L201.618 311.763C204.316 310.037 207.488 310.164 210.6 309.941C217.929 309.416 225.247 309.709 232.564 308.899Z"/>
	<path fill="#003049" transform="scale(0.5 0.5)" d="M215.101 316.093C219.478 314.614 226.512 315.53 231.212 315.541L268.694 315.949L298.117 316.361C304.17 316.704 310.023 317.23 315.889 318.83C319.272 320.439 322.797 321.972 325.849 324.171C329.222 326.602 332.184 329.663 335.517 332.178C329.474 333.226 323.382 333.197 317.268 333.319L287.84 333.292L224.099 333.063C222.025 326.641 219.851 321.012 215.101 316.093Z"/>
	<path transform="scale(0.5 0.5)" d="M335.517 332.178C341.097 335.653 344.799 341.785 348.47 347.124L360.726 364.752L376.572 386.25C382.069 393.794 387.187 401.235 393.399 408.254C393.736 408.922 394.16 409.598 394.344 410.324C391.48 409.052 388.645 407.477 385.706 406.412C366.064 399.294 345.593 397.175 324.915 395.591L254.884 392.659L219.679 391.294L219.11 389.969L221.428 385.95C230.56 369.295 229.145 350.711 224.099 333.063L287.84 333.292L317.268 333.319C323.382 333.197 329.474 333.226 335.517 332.178Z"/>
	<path fill="#F77F00" transform="scale(0.5 0.5)" d="M461.356 89.105L469.793 87.0284C470.223 87.4183 470.487 87.6796 470.929 88.0166C472.379 89.1225 474.359 90.0784 476.159 90.4242C479.193 91.0069 482.199 90.9165 485.25 91.2154L500.676 92.8093L551.523 99.1044C562.564 100.752 573.558 102.364 584.364 105.25C602.063 109.977 617.958 117.42 633.025 127.748C650.18 139.507 664.465 154.814 677.95 170.512L693.364 188.732L715.506 220L742.561 262C749.037 271.413 755.883 281.189 763.305 289.868C766.354 293.433 769.809 296.573 772.997 300C782.711 310.444 792.328 320.469 803.115 329.874C811.463 337.152 820.709 343.824 829.591 350.427C849.734 365.401 870.142 378.621 893.121 388.866C907.27 395.175 921.696 400.619 936.451 405.384C944.979 408.137 953.511 411.101 962.5 411.871L963.31 411.126L968.746 455.06C968.865 456.125 969.408 456.996 969.538 458.049C970.074 462.376 970.204 467.005 970 471.357L969.367 472L969.461 474.011L970.936 475.25C970.587 475.833 970.084 476.349 969.891 477C969.675 477.726 969.956 479.678 969.975 480.497L970.234 490.341L969.807 503.607C969.013 505.518 969.396 508.464 969.398 510.54C965.964 556.951 956.181 602.576 938.871 645.785C935.718 653.654 932.491 662.997 927.701 669.96L925.067 671.602C924.885 672.811 925.089 672.241 924.443 673.308C920.022 672.339 915.293 672.305 910.783 672.148L883.122 672.092L823.449 671.601C816.806 671.507 810.539 673.038 803.972 671.334L803 671.075C799.836 670.266 797.082 669.213 794.382 667.342C787.795 662.778 784.166 655.78 782.887 648.013C782.272 644.282 782.242 640.476 781.6 636.738L781.514 636.259C790.479 634.807 799.749 631.8 808.475 629.221C825.432 624.209 842.337 618.76 858.5 611.545C868.975 606.868 879.107 601.718 887.908 594.281L888.701 593.756C894.06 589.86 897.748 583.324 898.805 576.811C899.505 571.915 896.299 565.147 893.559 561.153C892.034 558.93 889.811 556.988 887.926 555.068C876.591 543.524 862.644 535.965 848.5 528.46C820.454 513.58 791.004 502.289 761 492.038C707.944 473.912 653.449 459.755 598.405 449.031L539.103 438.813C539.34 438.542 539.674 438.331 539.815 438C540.787 435.713 539.697 429.482 539.646 426.75L539.521 397.625C539.491 392.299 538.971 386.361 539.582 381.1C540.44 373.713 544.983 365.409 551.014 361.014C553.808 358.977 557.934 357.713 561.347 357.227C565.897 356.579 570.992 356.981 575.599 356.997C583.533 357.024 591.701 356.805 599.578 357.841L600.244 357.932L573.43 327.327L564.5 318.499C562.311 316.32 560.271 313.731 557.916 311.75C557.089 311.055 556.085 310.674 555.25 309.988C552.821 307.993 550.691 305.278 548.401 303.08L532.4 288.725C526.656 283.821 520.328 279.53 514.233 275.083C509.122 271.355 504.23 267.339 498.941 263.855L487.5 256.914C485.662 255.708 484.067 254.173 482.25 252.963C478.883 250.721 474.904 249.139 471.41 247.011L445.556 231.584L386.548 203.278L338.241 182.063L327.889 178.422L319.362 174.579C312.413 171.824 304.947 170.358 297.888 167.665C302.411 164.307 306.585 160.428 311.164 157.172C347.66 131.226 388.939 110.603 431.588 97.003L461.356 89.105Z"/>
	<path fill="#FCBF49" transform="scale(0.5 0.5)" d="M461.356 89.105L469.793 87.0284C470.223 87.4183 470.487 87.6796 470.929 88.0166C472.379 89.1225 474.359 90.0784 476.159 90.4242C479.193 91.0069 482.199 90.9165 485.25 91.2154L500.676 92.8093L551.523 99.1044C562.564 100.752 573.558 102.364 584.364 105.25C602.063 109.977 617.958 117.42 633.025 127.748C650.18 139.507 664.465 154.814 677.95 170.512L693.364 188.732L715.506 220L742.561 262C749.037 271.413 755.883 281.189 763.305 289.868C766.354 293.433 769.809 296.573 772.997 300C782.711 310.444 792.328 320.469 803.115 329.874C811.463 337.152 820.709 343.824 829.591 350.427C849.734 365.401 870.142 378.621 893.121 388.866C907.27 395.175 921.696 400.619 936.451 405.384C944.979 408.137 953.511 411.101 962.5 411.871L963.31 411.126L968.746 455.06C968.865 456.125 969.408 456.996 969.538 458.049C970.074 462.376 970.204 467.005 970 471.357L969.367 472L969.461 474.011C967.387 474.509 964.546 474.072 962.365 474.008L947.25 473.593L908.707 473.068C902.826 472.958 896.029 473.388 890.251 472.233C886.717 471.526 882.653 468.787 879.5 467.018C873.636 463.728 867.978 459.187 865.256 452.854C861.674 444.521 863.499 433.035 863.517 424.093L863.173 402.805C863.072 398.678 863.271 394.016 862.234 390.016C861.667 387.829 860.227 385.646 858.957 383.8C855.113 378.215 850.641 375.296 844.731 372.303C842.791 371.321 840.454 370.006 838.302 369.641C835.338 369.138 832.34 369.779 829.336 369.176C795.242 362.335 765.297 345.909 736.157 327.53L724.927 320.787L687.024 293.759L676.35 284.703L653.252 265.641L630.54 243.444L604.501 217.429L588.323 199.101L554.869 163.917C541.571 149.833 528.236 135.766 513.395 123.25C506.734 117.632 499.596 112.752 492.546 107.697C487.462 104.053 482.468 100.163 477.122 96.8997C472.199 93.8944 466.644 91.3936 461.356 89.105Z"/>
</svg>
