<?xml version="1.0" encoding="utf-8" ?>
<svg xmlns="http://www.w3.org/2000/svg" xmlns:xlink="http://www.w3.org/1999/xlink" width="512" height="512">
	<path transform="scale(0.5 0.5)" d="M0 1023.5L0 -0L1024 0L1024 1024L1018.14 1024L902.501 1024L894.443 1024L865.427 1024L831.069 1024L721.634 1024L713.885 1024L635.09 1024L530.129 1024L521.933 1024L513.042 1024L503.906 1024L397.63 1024L325.068 1024L261.432 1024L180 1024L179.625 1024L49.534 1024.03L14.1515 1024.03C10.3919 1024.03 3.17509 1024.94 0 1023.5Z"/>
	<path fill="#FCFCFB" transform="scale(0.5 0.5)" d="M674.579 219.75L675.48 219.808L677.25 222.379L679.25 222.667L679.622 223.25C677.675 224.81 676.822 225.374 675.859 227.75L675.581 228.163C674.951 225.532 674.369 224.357 672.149 222.686L671.674 222.338C672.766 221.57 673.632 220.683 674.579 219.75Z"/>
	<path fill="#FDF1AD" transform="scale(0.5 0.5)" d="M252.701 420.591L258.039 413.874C258.721 414.971 259.585 415.12 260.744 415.54L256.308 420.75L256.582 421.638L255.699 422.03L252.701 420.591Z"/>
	<path fill="#FDFADB" transform="scale(0.5 0.5)" d="M180.256 359.798L182.5 359.088L182.799 359.472C183.301 360.074 183.867 360.535 184.465 361.034C183.529 361.904 182.73 362.325 182.581 363.696C182.484 364.589 182.892 365.386 183.178 366.208C183.448 366.984 183.365 366.653 183.349 367.597L182.75 368.267L182.963 368.684C183.26 369.356 183.29 369.925 183.344 370.645L183.24 370.685L182.819 372.353C181.611 371.012 180.415 368.523 179.916 366.776C179.253 364.455 179.019 361.922 180.256 359.798Z"/>
	<path fill="#C1F3FA" transform="scale(0.5 0.5)" d="M376.09 128.75L376.433 128.909L377.143 131C378.109 132.755 379.694 132.693 381.5 133.182L381.626 133.75C379.898 134.156 378.417 134.467 376.914 135.438C376.105 137.095 375.997 138.943 375.767 140.75C375.163 139.059 374.942 137.176 374.609 135.411L368.808 132.905L373.75 132.007C375.306 131.463 375.461 130.151 376.09 128.75Z"/>
	<path fill="#C1F3FA" transform="scale(0.5 0.5)" d="M298.853 208.75L299.598 208.838C301.486 211.889 303.28 211.796 306.492 212.635L301.143 214.009C299.905 214.703 299.608 218.783 299.317 220.25L299.087 220.469C298.366 218.546 298.167 216.522 297.872 214.5C296.417 213.327 294.861 213.852 293.25 212.963C295.12 211.486 296.827 211.205 298.499 209.193L298.853 208.75Z"/>
	<path fill="#FEFAEB" transform="scale(0.5 0.5)" d="M202.344 393.37L195.683 383.779C194.987 382.763 193.75 381.506 193.75 380.273L196.25 379.497C197.518 380.014 197.744 380.85 198.383 382C200.537 385.88 203.278 389.177 206.039 392.633C205.121 392.698 204.883 392.889 203.991 393.153L202.344 393.37Z"/>
	<path fill="#FCFCFB" transform="scale(0.5 0.5)" d="M197.045 363.804C198.658 365.742 199.884 367.646 201.115 369.832C195.558 370.643 188.937 371.187 183.344 370.645C183.29 369.925 183.26 369.356 182.963 368.684L182.75 368.267L183.349 367.597L185.336 368.184C188.011 368.801 193.461 368.995 195.75 367.531C196.149 365.812 195.599 365.11 194.964 363.496L197.045 363.804Z"/>
	<path fill="#FDF1AD" transform="scale(0.5 0.5)" d="M831.11 71.3667C833.114 69.1912 835.235 67.2636 838.063 66.2491C840.78 65.2747 842.189 66.1292 844.6 67.2604C843.053 69.8838 839.06 71.2445 836.398 72.6214C835.074 73.1187 833.887 73.3508 832.5 73.5392C831.631 72.8331 831.526 72.3786 831.11 71.3667Z"/>
	<path fill="#F77F00" transform="scale(0.5 0.5)" d="M844.6 67.2604C846.6 66.7144 849.013 67.9858 850.762 68.9795C852.681 70.0696 854.148 71.6369 855.452 73.393L836.398 72.6214C839.06 71.2445 843.053 69.8838 844.6 67.2604Z"/>
	<path fill="#A3110B" transform="scale(0.5 0.5)" d="M231.568 587.556C236.123 587.69 240.926 586.057 245.596 585.877C241.61 588.045 237.308 588.967 232.94 590.043C227.676 591.34 222.731 592.522 217.333 593.193C219.086 591.502 221.403 590.783 223.208 589.013L231.568 587.556Z"/>
	<path fill="#F77F00" transform="scale(0.5 0.5)" d="M240.313 583.059C245.876 582.806 252.199 581.691 257.698 582.057C253.906 583.999 249.736 584.963 245.596 585.877C240.926 586.057 236.123 587.69 231.568 587.556C231.09 586.888 230.818 586.16 230.487 585.411L240.313 583.059Z"/>
	<path fill="#3EA6C6" transform="scale(0.5 0.5)" d="M903.09 264.296C905.769 264.235 908.524 264.255 911.135 263.61C913.149 263.113 915.076 263.183 917.13 263.009C915.249 263.592 913.353 263.944 912.03 265.5C911.417 269.881 910.386 274.563 910.453 278.985C909.725 279.685 910.131 279.42 909.25 279.801C908.885 276.025 907.879 271.562 906.369 268.085L903.09 264.296Z"/>
	<path fill="#62B5D6" transform="scale(0.5 0.5)" d="M159.09 57.75C160.383 58.0538 161.169 60.4497 162.075 61.4541C163.702 63.2574 164.48 63.5194 166.75 63.7084L166.817 64.25C165.371 64.2783 164.34 64.3392 162.982 64.9347C159.337 69.0019 160.148 76.028 159.883 81.25L159.77 82.6898C157.669 78.7191 159.728 72.2109 158.331 67.8209C157.669 65.7372 155.86 64.429 153.975 63.5311L153.52 63.3237L153.391 62.75L153.831 62.7105C155.995 62.232 157.468 60.0856 158.657 58.3778L159.09 57.75Z"/>
	<path fill="#D62828" transform="scale(0.5 0.5)" d="M77.5869 583.25L78.392 583.308L79.491 584.75L79.0636 585.75L40.75 594.409L38.75 594.431C40.5151 592.479 45.7023 592.125 48.25 591.478C51.0998 590.754 53.802 589.508 56.6397 588.75C59.6425 587.948 62.7707 587.68 65.7749 586.884L77.5869 583.25Z"/>
	<path fill="#095D8B" transform="scale(0.5 0.5)" d="M906.369 268.085C907.879 271.562 908.885 276.025 909.25 279.801C910.131 279.42 909.725 279.685 910.453 278.985C910.801 281.453 910.519 284.39 910.492 286.897C910.43 292.622 910.247 298.481 909.26 304.127L907.485 287.75C907.052 282.33 907.479 275.231 905.073 270.284C904.747 269.614 904.722 269.238 904.709 268.5C905.255 268.255 905.784 268.191 906.369 268.085Z"/>
	<path fill="#D62828" transform="scale(0.5 0.5)" d="M829.526 75.014L831.11 71.3667C831.526 72.3786 831.631 72.8331 832.5 73.5392C833.887 73.3508 835.074 73.1187 836.398 72.6214L855.452 73.393L856.009 75.4387C849.453 76.106 842.931 76.0702 836.353 76.0357C833.88 76.0228 831.48 76.5864 829.526 75.014Z"/>
	<path transform="scale(0.5 0.5)" d="M184.465 361.034C187.99 360.994 191.363 360.635 194.249 362.967L194.964 363.496C195.599 365.11 196.149 365.812 195.75 367.531C193.461 368.995 188.011 368.801 185.336 368.184L183.349 367.597C183.365 366.653 183.448 366.984 183.178 366.208C182.892 365.386 182.484 364.589 182.581 363.696C182.73 362.325 183.529 361.904 184.465 361.034Z"/>
	<path fill="#381214" transform="scale(0.5 0.5)" d="M856.009 75.4387C855.468 76.9583 856.6 77.1862 857.245 78.75L856.75 79.5289L828.365 79.3983L829.526 75.014C831.48 76.5864 833.88 76.0228 836.353 76.0357C842.931 76.0702 849.453 76.106 856.009 75.4387Z"/>
	<path fill="#62B5D6" transform="scale(0.5 0.5)" d="M903.09 264.296C901.045 263.094 898.805 262.231 896.629 261.293C899.162 260.721 902.136 260.534 904.442 259.329C907.293 257.839 907.858 254.945 908.843 252.097L910.388 254.938C910.93 255.903 912.211 258.38 913.027 258.907C914.87 260.099 919.96 260.807 922.25 261.459L917.13 263.009C915.076 263.183 913.149 263.113 911.135 263.61C908.524 264.255 905.769 264.235 903.09 264.296Z"/>
	<path fill="#FDF1AD" transform="scale(0.5 0.5)" d="M206.039 392.633L213.935 404.118C221.966 403.829 229.658 402.471 237.57 401.269C242.768 400.48 248.195 400.027 253.266 398.644L255.25 399.317C252.491 400.562 249.447 400.894 246.5 401.445L228.94 404.965L227.809 405.082C222.275 405.108 214.811 404.501 209.695 406.402L209.41 406.461L209.959 404.5C207.918 400.554 204.955 396.959 202.344 393.37L203.991 393.153C204.883 392.889 205.121 392.698 206.039 392.633Z"/>
	<path fill="#FCFCFB" transform="scale(0.5 0.5)" d="M174.379 382.398C174.988 382.405 174.732 382.438 175.382 382.279C179.929 381.163 187.382 380.246 190.04 376C188.901 375.05 187.024 374.56 185.621 374.021L197.161 373.234C199.82 372.96 202.907 372.046 205.515 372.75C206.269 373.406 207.033 374.209 208.027 374.448C210.477 375.039 212.354 375.961 214.525 377.248C213.81 378.004 213.298 378.432 212.349 378.864C209.73 377.97 207.791 377.286 204.966 377.75L204.962 377.085C197.772 378.558 190.287 379.194 183.191 381C179.168 382.023 175.446 383.837 171.5 384.96C169.054 385.657 166.576 385.878 164.167 386.754C165.121 386.019 166.318 385.622 167.299 384.88C168.245 384.165 168.816 383.799 170.001 383.559L174.379 382.398Z"/>
	<path fill="#FCFCFB" transform="scale(0.5 0.5)" d="M203.38 575.613C208.37 572.873 215.274 572.181 220.817 571.12L241.818 566.64C242.728 567.754 243.245 568.482 243.102 569.979L242.803 572.117L216.644 575.28C212.665 575.787 208.491 576.789 204.5 576.89L203.38 575.613Z"/>
	<path fill="#A3110B" transform="scale(0.5 0.5)" d="M193.81 96.1246C197.202 93.9323 200.943 94.7942 204.869 95.0183C206.076 95.9077 208.736 97.3864 209.081 98.89L209.082 99.0125C208.719 99.6879 208.607 100.023 208.464 100.75L209.963 102.75L209.663 103.689C205.345 104.813 200.448 105.121 196 104.938C193.472 104.834 192.905 104.651 191.25 102.87C190.895 100.009 192.28 98.4477 193.81 96.1246Z"/>
	<path fill="#FDF1AD" transform="scale(0.5 0.5)" d="M193.81 96.1246C197.202 93.9323 200.943 94.7942 204.869 95.0183C206.076 95.9077 208.736 97.3864 209.081 98.89L209.082 99.0125C206.105 99.7432 196.963 100.57 194.415 99.25L193.81 96.1246Z"/>
	<path fill="#FCBF49" transform="scale(0.5 0.5)" d="M86.0922 232.285C90.6439 229.944 97.8103 229.098 102.819 230.65C104.803 231.264 106.469 232.45 108.049 233.755C108.905 234.758 109.755 235.711 110.473 236.819C105.371 237.356 100.27 237.982 95.1367 238.112C92.7839 238.172 90.5729 237.689 88.25 237.602C85.5633 237.502 82.7687 237.884 80.0611 237.908C81.6276 235.318 83.6093 233.885 86.0922 232.285Z"/>
	<path fill="#FCCEA2" transform="scale(0.5 0.5)" d="M86.0922 232.285C90.6439 229.944 97.8103 229.098 102.819 230.65C104.803 231.264 106.469 232.45 108.049 233.755C106.165 234.77 100.624 235.327 98.26 235.428C93.8811 235.617 93.305 235.529 90 232.577C88.4882 232.807 87.5142 233.04 86.0922 232.285Z"/>
	<path fill="#D62828" transform="scale(0.5 0.5)" d="M110.473 236.819C111.812 238.803 113.571 240.868 114.025 243.25L113.523 244.25C110.726 244.667 107.823 244.472 105.001 244.438L77.1176 244.929C77.5534 242.49 78.8865 240.066 80.0611 237.908C82.7687 237.884 85.5633 237.502 88.25 237.602C90.5729 237.689 92.7839 238.172 95.1367 238.112C100.27 237.982 105.371 237.356 110.473 236.819Z"/>
	<path fill="#D62828" transform="scale(0.5 0.5)" d="M211.562 585.552L240.313 583.059L230.487 585.411C230.818 586.16 231.09 586.888 231.568 587.556L223.208 589.013C221.403 590.783 219.086 591.502 217.333 593.193C211.935 594.397 205.99 595.872 200.438 595.548C199.265 595.518 199.08 595.555 198.127 594.897C197.494 593.742 197.086 592.891 196.987 591.559C196.815 589.224 197.623 588.119 199.028 586.397L211.562 585.552Z"/>
	<path fill="#FDF1AD" transform="scale(0.5 0.5)" d="M230.487 585.411C230.818 586.16 231.09 586.888 231.568 587.556L223.208 589.013C221.283 589.297 207.471 590.697 206.591 591.87L202.5 591.959C201.223 590.893 201.155 590.79 200.709 589.187C204.627 585.816 214.578 587.982 219.5 587.37C223.149 586.917 226.763 585.86 230.487 585.411Z"/>
	<path fill="#D62828" transform="scale(0.5 0.5)" d="M133.67 397.217L134.849 398.155L109.33 407.342L72.3147 418.645C65.799 421.262 58.3074 422.815 51.4443 424.224C57.0038 417.902 69.6117 415.535 77.3198 413.284L89.9388 408.983L92.4243 408.085L111.859 402.578C116.016 401.894 120.122 400.483 124.223 399.497C127.375 398.74 130.685 398.526 133.67 397.217Z"/>
	<path fill="#003049" transform="scale(0.5 0.5)" d="M254.244 397.996C257.986 399.441 261.182 400.62 265.252 400.803C260.365 400.944 255.839 402.729 251.506 404.903C247.186 407.347 241.732 408.514 236.945 409.765C228.076 412.083 219.232 413.983 210.502 416.831C210.501 415.529 210.133 412.847 210.529 411.712C210.388 411.13 210.229 409.692 209.93 409.25C209.184 408.145 208.922 408.872 208.575 407.25L209.41 406.461L209.695 406.402C214.811 404.501 222.275 405.108 227.809 405.082L228.94 404.965L246.5 401.445C249.447 400.894 252.491 400.562 255.25 399.317L253.266 398.644L254.244 397.996Z"/>
	<path fill="#095D8B" transform="scale(0.5 0.5)" d="M209.41 406.461L209.695 406.402C214.811 404.501 222.275 405.108 227.809 405.082C222.594 406.515 217.232 407.942 212.611 410.824C211.622 411.441 212.365 411.007 211.07 411.466L210.529 411.712C210.388 411.13 210.229 409.692 209.93 409.25C209.184 408.145 208.922 408.872 208.575 407.25L209.41 406.461Z"/>
	<path fill="#FEFAEB" transform="scale(0.5 0.5)" d="M241.818 566.64L318.188 555.396C322.332 554.975 327.682 553.438 331.692 554.511L242.803 572.117L243.102 569.979C243.245 568.482 242.728 567.754 241.818 566.64Z"/>
	<path fill="#FEFAEB" transform="scale(0.5 0.5)" d="M97.6983 385.71C99.0685 383.457 103.002 379.886 105.453 378.75C106.965 378.049 108.615 377.766 110.155 377.135C125.132 370.999 140.494 365.851 155.992 361.173C162.816 359.114 169.596 356.545 176.658 355.362C179.987 354.804 183.944 354.623 187.174 355.699L188 355.995C192.586 357.609 194.17 360.053 197.045 363.804L194.964 363.496L194.249 362.967C191.363 360.635 187.99 360.994 184.465 361.034C183.867 360.535 183.301 360.074 182.799 359.472L182.5 359.088L180.256 359.798C179.236 360.348 178.591 360.482 177.47 360.562C175.59 360.695 174.148 361.415 172.43 362.088L172.352 362.1L131.25 374.999L120.418 377.901L109.074 381.916C106.945 382.563 104.65 382.573 102.53 383.25C100.923 383.764 99.2127 385.432 97.6983 385.71Z"/>
	<path fill="#003049" transform="scale(0.5 0.5)" d="M204.39 687.067L229.75 681.016C233.014 680.367 236.376 680.241 239.643 679.587L263.211 674.666C267.346 673.854 271.287 672.73 275.545 672.864C267.206 677.428 256.473 678.312 247.25 680.35L225.565 685.863L210.093 688.717L68.25 719.369C66.5014 719.74 65.5825 719.838 63.8138 719.434C68.5791 717.525 73.7563 716.589 78.7609 715.512L96.4531 711.596L133.5 703.048L168.633 695.132L190.75 690.017C195.329 688.976 199.722 687.709 204.39 687.067Z"/>
	<path fill="#D62828" transform="scale(0.5 0.5)" d="M555.801 71.447C556.36 75.3983 556.943 79.2295 555.993 83.1743L458.991 83.0222C458.179 79.2607 458.2 75.562 458.371 71.7409C464.934 72.5741 472.275 71.09 478.95 71.1596L555.801 71.447Z"/>
	<path fill="#003049" transform="scale(0.5 0.5)" d="M188.135 590.64L188.471 590.577C190.143 590.422 193.054 590.073 194.25 591.183C194.47 593.182 194.64 594.591 193.933 596.5C190.952 599.828 173.058 603.08 168.133 604.285L144.005 610.731L136.703 612.229L111.185 619.186L102.89 620.953L91 624.454L48.3771 634.356C46.0287 635.244 44.2274 636.276 41.755 635.25C45.5487 633.603 48.9965 631.327 52.8571 629.784C61.0094 626.525 69.4122 624.256 77.7523 621.579L88.7999 617.591C92.0388 616.581 95.3887 616.005 98.5928 614.88C101.727 613.779 104.705 612.273 107.886 611.318L139.496 603.327L149.984 600.135L163.645 596.971C171.738 594.751 179.877 592.152 188.135 590.64Z"/>
	<path fill="#003049" transform="scale(0.5 0.5)" d="M97.6983 385.71C99.2127 385.432 100.923 383.764 102.53 383.25C104.65 382.573 106.945 382.563 109.074 381.916L120.418 377.901L131.25 374.999L172.352 362.1C172.301 364.632 171.663 367.101 171.716 369.61C171.761 371.722 172.845 373.79 172.75 375.894C172.713 376.714 172.322 377.499 172.032 378.25C171.644 379.255 171.413 379.682 171.5 380.753C170.337 381.311 169.594 381.208 168.5 381.755L167.502 382.002L167 382.377L166.002 382.524L165.5 383L164.502 383.086C163.829 383.279 163.812 383.411 163.502 383.852L164.245 384.75L161.469 385.769C160.677 386.112 160.131 386.256 159.25 386.245C158.478 385.479 158.402 385.382 157.25 385.368L153.25 385.573C152.849 386.895 153.363 389.448 152 389.999L150.6 390.261C140.135 391.553 129.754 395.302 119.907 398.973C117.622 399.824 113.503 400.84 111.859 402.578L92.4243 408.085L93.6929 397.062C94.1047 393.792 94.9843 387.802 97.6983 385.71Z"/>
	<path fill="#003049" transform="scale(0.5 0.5)" d="M581.292 418.625C582.06 418.461 582.908 418.541 583.693 418.542C584.822 418.543 586.55 420.766 587.421 421.622C589.617 423.777 591.431 426.302 593.647 428.393L611.888 445.191C603.437 448.206 594.253 450.007 585.5 451.99L565.082 456.721L542.706 461.92L541.553 446.884C541.119 440.992 541.115 436.501 538.858 430.981C543.651 430.108 547.931 427.659 552.542 426.153C561.807 423.125 571.726 420.454 581.292 418.625Z"/>
	<path fill="#D62828" transform="scale(0.5 0.5)" d="M88.5455 497.007L111.033 443.515C111.658 442.231 113.171 438.731 114.18 437.907C115.238 437.043 121.328 436.423 123 435.999L144.256 429.511L139.59 454.64C138.353 462.796 137.929 470.765 138.004 479L136.416 480.57C127.149 485.087 116.42 487.194 106.65 490.506C100.806 492.488 94.5089 495.904 88.5455 497.007Z"/>
	<path fill="#003049" transform="scale(0.5 0.5)" d="M136.416 480.57C135.377 486.722 131.149 493.158 128.514 498.75C124.181 507.943 120.081 517.241 115.051 526.095C113.731 528.418 112.382 531.637 110.061 533.128C107.084 535.041 102.795 536.068 99.4656 537.25C83.435 542.94 66.8718 547.005 50.4477 551.343C47.0787 552.233 43.5521 553.869 40.1166 554.25C39.3999 553.334 39.3815 553.055 39.5363 551.904C39.9383 548.915 42.6086 545.44 44.1362 542.886C46.9382 538.202 50.1044 533.333 53.6314 529.154C60.4599 521.062 69.4202 513.596 77.4365 506.654C80.8865 503.666 85.9082 500.635 88.5455 497.007C94.5089 495.904 100.806 492.488 106.65 490.506C116.42 487.194 127.149 485.087 136.416 480.57Z"/>
	<path fill="#F77F00" transform="scale(0.5 0.5)" d="M498.635 30.6726C502.987 30.3679 507.541 29.8258 511.893 30.1643C521.776 30.9328 532.325 35.1403 539.811 41.6677C548.74 49.4537 553.763 59.9675 555.801 71.447L478.95 71.1596C472.275 71.09 464.934 72.5741 458.371 71.7409C459.644 62.2751 462.789 55.6155 468.571 48.1087C476.273 37.7414 486.231 33.0015 498.635 30.6726Z"/>
	<path fill="#FDFADB" transform="scale(0.5 0.5)" d="M498.635 30.6726L499.881 31.25C501.679 36.21 503.386 42.8082 501.187 47.8911C499.103 52.7071 493.813 57.8527 488.891 59.7697C484.537 61.4652 480.995 61.153 476.807 59.25C473.716 57.8458 470.298 55.5485 469.2 52.1495C468.786 50.8672 468.694 49.4442 468.571 48.1087C476.273 37.7414 486.231 33.0015 498.635 30.6726Z"/>
	<path fill="#F77F00" transform="scale(0.5 0.5)" d="M297.638 662.511L273.245 636.405C266.334 628.872 257.703 620.953 252.47 612.171L288.419 601.581C294.357 599.926 300.41 598.817 306.143 596.472L306.895 596.161L310.24 598.628C314.237 602.076 317.351 608.159 320.774 612.335L336.83 631.564C339.582 634.843 342.688 638.057 345.084 641.606C346.104 643.118 346.552 644.298 346.709 646.114L324.749 653.022L313.942 657.352C308.719 659.682 305.211 661.882 299.358 662.195C298.439 662.245 298.802 662.188 297.908 662.511L297.638 662.511Z"/>
	<path fill="#F77F00" transform="scale(0.5 0.5)" d="M155.181 640.623C155.45 640.498 156.434 640.551 156.75 640.544C160.567 646.104 163.286 653.096 166.237 659.191L180.372 687.179L113.119 696.431C108.363 696.703 103.528 696.711 98.8554 697.712L98.1184 697.875C92.8861 683.861 90.0029 670.525 89.8533 655.556C95.3572 654.958 100.115 653.303 105.469 652.113L155.181 640.623Z"/>
	<path fill="#003049" transform="scale(0.5 0.5)" d="M222.869 559.798L118.5 589.445L117.639 588.995C117.473 587.094 117.444 585.541 118.362 583.787C119.145 582.29 120.324 581.791 121.837 581.24C129.755 578.356 138.362 576.551 146.493 574.303L193.676 560.898L296.358 531.313L330.75 520.992L378.578 508.157C378.542 510.955 377.986 513.545 377.416 516.271C373.775 528.361 369.115 539.886 357.416 546.203C352.979 548.598 347.79 551.135 343 552.596L342.273 552.822C339.466 553.663 334.505 555.076 331.692 554.511C327.682 553.438 322.332 554.975 318.188 555.396L241.818 566.64L220.817 571.12C215.274 572.181 208.37 572.873 203.38 575.613L202.732 575.023L198.264 575.778L196.163 576.878L195.749 577.337C194.209 579.087 193.344 580.636 192.395 582.75L191.5 583.355C190.22 582.616 190.158 582.518 189.817 581L189.658 579.717L189.038 579.128L134.497 593.649L115.053 598.963C115.718 597.981 117.737 595.67 117.937 594.643C119.729 594.989 120.868 594.933 122.608 594.384L169.378 581.276C178.025 578.975 186.209 577.675 194.555 574.129L194.563 574.047L197.534 572.49L198.041 571.261C195.016 570.919 191.28 573.376 188.5 574.505C184.837 575.993 180.335 577.543 176.5 578.397C174.278 578.892 171.982 578.955 169.757 579.471L168.477 578.746C171.459 577.98 174.569 577.421 177.5 576.501L198.227 568.951L214.5 564.083C217.497 563.174 220.8 562.467 223.227 560.369L222.869 559.798Z"/>
	<path fill="#003049" transform="scale(0.5 0.5)" d="M346.709 646.114C358.388 645.676 371.286 642.203 382.884 644.618C387.067 646.818 392.01 646.213 396.589 647.092C402.936 648.311 433.045 655.585 435.928 660.405L435.664 660.495C433.031 663.754 428.327 665.531 424.771 667.726C423.201 668.694 421.835 669.956 420.25 670.906L397.125 683.853C393.523 686.002 390.343 688.695 386.84 690.981C378.972 696.116 370.904 700.731 362.5 704.934C356.095 708.138 348.392 711.078 341.5 713.032L340.883 713.211C338.43 713.871 335.524 713.713 333 713.709C327.999 713.7 322.824 713.965 318.042 712.343C314.725 711.217 311.243 710.606 307.93 709.428C301.38 707.099 291.846 701.265 288.575 694.961C286.854 691.645 285.998 688.057 285.835 684.337C285.947 679.773 286.693 673.472 289.236 669.567L289.612 669.026C291.504 666.26 294.562 665.17 297.023 663.049L297.638 662.511L297.908 662.511C298.802 662.188 298.439 662.245 299.358 662.195C305.211 661.882 308.719 659.682 313.942 657.352L324.749 653.022L346.709 646.114Z"/>
	<path fill="#0F9DCA" transform="scale(0.5 0.5)" d="M297.908 662.511C299.178 663.628 301.127 664.054 302.783 664.119C304.722 664.195 306.623 663.524 308.53 663.25L326.093 660.917C337.522 659.287 349.246 659.308 360.764 659.427L393.25 660.104L411.144 660.062L428.088 660.573C400.923 662.859 374.023 667.115 347.139 671.497C326.62 674.841 305.662 677.852 285.835 684.337C285.947 679.773 286.693 673.472 289.236 669.567L289.612 669.026C291.504 666.26 294.562 665.17 297.023 663.049L297.638 662.511L297.908 662.511Z"/>
	<path fill="#FDFADB" transform="scale(0.5 0.5)" d="M346.709 646.114C358.388 645.676 371.286 642.203 382.884 644.618C387.067 646.818 392.01 646.213 396.589 647.092C402.936 648.311 433.045 655.585 435.928 660.405L435.664 660.495L428.088 660.573L411.144 660.062L393.25 660.104L360.764 659.427C349.246 659.308 337.522 659.287 326.093 660.917L308.53 663.25C306.623 663.524 304.722 664.195 302.783 664.119C301.127 664.054 299.178 663.628 297.908 662.511C298.802 662.188 298.439 662.245 299.358 662.195C305.211 661.882 308.719 659.682 313.942 657.352L324.749 653.022L346.709 646.114Z"/>
	<path fill="#003049" transform="scale(0.5 0.5)" d="M221.314 897.238L291.25 897.161L382.867 896.898L421.614 896.879C426.61 896.86 432.031 897.478 436.964 896.924C441.331 896.434 445.519 893.803 449.358 891.79L478.244 874.868C480.764 873.335 484.694 870.223 487.5 869.544C491.428 868.594 496.689 869.5 500.817 869.354L560.916 868.926C569.058 868.905 577.45 869.313 585.552 868.76C592.538 872.186 599.29 876.538 605.958 880.557L620.51 888.983L631.458 895.475C632.284 895.943 633.685 897.039 634.536 897.266C635.796 897.601 637.832 897.349 639.207 897.37L651.826 897.314L692.25 896.979L771.129 897.424L803.202 897.585C795.995 906.854 786.401 913.719 777.332 921.002C771.09 926.647 763.422 930.932 756.263 935.308C752.223 937.779 748.505 940.569 744.08 942.352C734.37 939.951 724.758 936.685 715.257 933.557C704.779 930.107 694.648 926.87 684.473 922.593L617.615 922.968L508.508 922.9L461.92 922.983C457.293 923.001 451.516 922.181 447.003 922.831C445.362 923.067 442.096 926.042 440.565 927.024L420.11 939.899C418.225 941.133 416.169 942.049 414.25 943.218L399.37 952.75C396.826 954.233 394.031 955.31 391.475 956.812L373.901 968.016C368.737 971.152 363.44 972.947 359.02 977.196L326.922 964.005C314.305 958.512 301.65 952.969 289.5 946.499C284.524 943.848 279.842 940.66 275.019 937.75C263.212 930.626 251.928 923.413 241 914.965C233.728 909.343 227.221 904.352 221.314 897.238Z"/>
	<path fill="#D62828" transform="scale(0.5 0.5)" d="M857.411 399.709C863.004 394.626 868.403 389.274 872.337 382.767C880.028 391.046 886.625 400.754 892.862 410.158C900.331 421.422 907.499 432.807 913.675 444.843C922.743 462.517 929.814 481.499 935.062 500.652L941.373 527.465C942.241 531.769 942.717 536.189 943.811 540.441L505.15 540.503C504.918 540.43 504.452 539.528 504.272 539.244L495.771 524.601L673.163 475.697C678.375 473.635 683.688 472.193 689 470.462L728.469 458.285C753.099 450.67 777.28 442.28 800.825 431.768C808.147 428.5 815.439 425.377 822.5 421.55C834.592 414.995 846.046 407.437 857.411 399.709Z"/>
	<path fill="#FDFADB" transform="scale(0.5 0.5)" d="M857.411 399.709C855.401 402.873 852.068 405.446 849.302 407.969C830.202 425.388 805.936 436.892 782.073 446.281C777.211 448.194 772.209 450.555 767.103 451.69C763.234 452.549 760.165 454.116 756.5 455.41L745.056 459.098C742.244 459.984 739.346 460.352 736.53 461.163L722 465.427C713.495 467.89 705.121 470.915 696.5 472.982C689.232 474.725 681.176 475.611 673.73 476.165L673.163 475.697C678.375 473.635 683.688 472.193 689 470.462L728.469 458.285C753.099 450.67 777.28 442.28 800.825 431.768C808.147 428.5 815.439 425.377 822.5 421.55C834.592 414.995 846.046 407.437 857.411 399.709Z"/>
	<path fill="#003049" transform="scale(0.5 0.5)" d="M461.205 369.318C466.98 369.778 472.809 367.96 478.5 367.037C483.195 366.276 487.849 366.038 492.5 364.927C496.452 363.983 500.26 363.985 504.25 363.498L528.16 360.197L601.278 351.175L657.27 348.077C669.953 347.695 682.702 347.119 695.391 347.685L726.918 349.944L744.399 351.447C751.332 352.363 758.69 355.2 765.632 355.156L766.108 355.146C781.956 356.944 796.974 360.591 812.5 364.096L846.132 371.851C851.065 373.193 856.063 374.919 860.829 376.776C863.539 377.832 868.574 381.243 871.101 380.918L871.331 381.879C867.205 382.993 861.009 380.482 856.676 379.927L813.139 375.775C802.895 375.021 792.28 375.548 781.996 375.455L766.35 374.981L701.516 376.776L633.52 381.491C590.628 386.325 548.077 394.347 505.843 403.144L482.226 408.671L457.067 413.365L410.584 423.524C414.054 424.472 417.732 424.645 421.266 425.336C432.958 427.624 446.053 430.64 456.225 437.091C458.624 438.611 460.602 440.421 462.446 442.563C463.629 443.937 464.853 445.89 466.373 446.859L533 428.977C534.811 428.652 535.428 429.522 536.75 430.572L536.622 431.119L529.448 433.684L533.309 434.25C532.853 435.329 532.479 435.233 531.455 435.657C528.06 437.065 524.422 438.006 520.915 439.108C516.418 440.522 512.275 442.131 507.481 442.031C503.011 443.164 498.921 444.677 494.659 446.428L403.39 471.419C398.02 473.529 390.894 476.349 385.089 476.463C378.715 478.012 371.944 479.362 365.806 481.681L326.797 493.213L308.393 498.202L278.895 506.05L256.241 512.393L231.678 519.079C228.755 519.942 225.996 521.44 223.044 522.161C221.853 522.452 221.639 522.545 220.589 522C220.68 520.65 220.895 519.49 221.187 518.17L221.341 517.426C217.435 519.174 212.18 519.158 207.913 520.132L181.673 526.795L122.75 543.192L115.528 544.301C119.075 535.121 121.908 525.594 125.802 516.548L136.715 491.575C138.298 488.304 140.924 485.241 142.209 481.909C143.563 478.398 143.793 473.88 144.631 470.147C145.072 468.181 145.488 466.848 147.372 465.843C154.037 462.289 162.345 461.371 169.498 459.123L182.119 454.587L221.985 440.403C229.184 437.672 235.873 436.363 242.517 432.122L243.152 431.711C245.084 431.795 247.531 430.828 249.471 430.413C261.115 427.922 272.466 424.088 283.84 420.605L348 401.027L373.987 393.756L461.205 369.318Z"/>
	<path fill="#3EA6C6" transform="scale(0.5 0.5)" d="M278.824 458.103L278.459 458.585C277.866 459.336 278.098 459.064 277.255 459.75L280.442 460.713L265.989 464.839C265.671 463.565 265.762 464.209 265.714 462.909C267.973 462.662 268.043 462.391 269.668 460.753C272.556 459.613 275.818 458.921 278.824 458.103Z"/>
	<path fill="#62B5D6" transform="scale(0.5 0.5)" d="M154.614 492.064C156.197 492.821 165.348 490.182 167.616 489.733L166.826 493.285L153.312 498.254L154.614 492.064Z"/>
	<path fill="#62B5D6" transform="scale(0.5 0.5)" d="M308.803 449.46L309.461 449.509C311.691 449.637 312.818 449.352 314.848 448.505C315.686 448.155 316.116 448.168 316.985 448.393L317.375 449.252L316.734 449.292C315.243 449.427 316.762 449.248 315.255 449.75L314.5 449.877C313.31 450.291 313.178 450.745 311.75 450.755L311.031 451.198L311.448 451.704L280.442 460.713L277.255 459.75C278.098 459.064 277.866 459.336 278.459 458.585L278.824 458.103L308.803 449.46Z"/>
	<defs>
		<linearGradient id="gradient_0" gradientUnits="userSpaceOnUse" x1="341.40097" y1="449.11578" x2="330.09903" y2="435.88422">
			<stop offset="0" stop-color="#1984A5"/>
			<stop offset="1" stop-color="#44C5DA"/>
		</linearGradient>
	</defs>
	<path fill="url(#gradient_0)" transform="scale(0.5 0.5)" d="M308.803 449.46L336.861 441.691C341.652 440.343 346.002 438.498 350.965 437.697L351.872 437.9C352.939 438.123 353.69 438.003 354.751 437.745L355 438C354.107 438.395 353.478 438.569 352.503 438.628L352.797 439.409L311.448 451.704L311.031 451.198L311.75 450.755C313.178 450.745 313.31 450.291 314.5 449.877L315.255 449.75C316.762 449.248 315.243 449.427 316.734 449.292L317.375 449.252L316.985 448.393C316.116 448.168 315.686 448.155 314.848 448.505C312.818 449.352 311.691 449.637 309.461 449.509L308.803 449.46Z"/>
	<path fill="#3EA6C6" transform="scale(0.5 0.5)" d="M167.616 489.733L224.848 473.939C226.889 474.147 228.033 473.795 229.38 475.412L166.826 493.285L167.616 489.733Z"/>
	<path fill="#FEFAEB" transform="scale(0.5 0.5)" d="M466.373 446.859L533 428.977C534.811 428.652 535.428 429.522 536.75 430.572L536.622 431.119L529.448 433.684L519.34 436.296C517.05 436.955 514.574 438.129 512.25 438.519C510.41 438.828 509.662 438.417 507.799 439.208L493.598 443.408L389.306 472.492L381.43 474.345L364.911 478.904L321.397 491.458C319.245 492.003 317.015 492.46 314.944 493.263C308.089 494.446 301.477 497.161 294.749 498.966C291.629 499.803 288.474 500.477 285.398 501.472C284.824 501.657 283.073 502.063 282.678 502.396L252.615 510.275L231.838 516.16C228.749 516.951 224.902 518.317 221.739 518.222L221.371 516.418C221.641 516.037 222.345 515.262 222.75 515.073C223.774 514.594 225.722 514.445 226.876 514.193L235.031 512.089L284.957 498.169L402.535 464.608L466.373 446.859Z"/>
	<path fill="#FEFAEB" transform="scale(0.5 0.5)" d="M154.614 492.064C155.408 489.359 156.827 486.92 159.106 485.194C161.492 483.389 166.212 482.623 169.107 481.819L187.868 476.464L222.942 465.372L290.686 445.978C312.06 439.616 333.526 431.884 355.377 427.447C367.604 424.964 380.105 424.464 392.535 424.445C395.378 424.441 398.966 424.04 401.717 424.634C396.963 426.397 391.195 427.244 386.226 428.405L371.641 432.364C366.615 435.272 361.336 437.058 355.765 438.642C355.206 438.8 353.251 439.511 352.797 439.409L352.503 438.628C353.478 438.569 354.107 438.395 355 438L354.751 437.745C353.69 438.003 352.939 438.123 351.872 437.9L350.965 437.697C346.002 438.498 341.652 440.343 336.861 441.691L308.803 449.46L278.824 458.103C275.818 458.921 272.556 459.613 269.668 460.753C268.043 462.391 267.973 462.662 265.714 462.909C265.762 464.209 265.671 463.565 265.989 464.839L236.883 473.193C234.894 473.756 231.291 475.498 229.38 475.412C228.033 473.795 226.889 474.147 224.848 473.939L167.616 489.733C165.348 490.182 156.197 492.821 154.614 492.064Z"/>
	<path fill="#0F9DCA" transform="scale(0.5 0.5)" d="M350.965 437.697C357.49 435.333 364.796 433.392 371.641 432.364C366.615 435.272 361.336 437.058 355.765 438.642C355.206 438.8 353.251 439.511 352.797 439.409L352.503 438.628C353.478 438.569 354.107 438.395 355 438L354.751 437.745C353.69 438.003 352.939 438.123 351.872 437.9L350.965 437.697Z"/>
	<path fill="#0F9DCA" transform="scale(0.5 0.5)" d="M224.848 473.939L269.668 460.753C268.043 462.391 267.973 462.662 265.714 462.909C265.762 464.209 265.671 463.565 265.989 464.839L236.883 473.193C234.894 473.756 231.291 475.498 229.38 475.412C228.033 473.795 226.889 474.147 224.848 473.939Z"/>
	<path fill="#FDFADB" transform="scale(0.5 0.5)" d="M346.187 326.029L347.065 325.83C349.698 325.185 352.301 323.445 354.763 322.261L366.04 317.264L402.076 301.639C404.304 300.595 406.269 299.074 408.5 298.047L422.824 292.193C427.629 290.002 433.133 287.122 438.25 285.939C441.169 285.264 444.294 285.125 447.265 284.714L472.931 281.825L506.977 278.874C550.358 277.153 595.244 282.526 637.21 293.616C649.672 296.909 661.941 301.402 674.035 305.844C677.906 307.266 682.338 309.94 686.289 310.658C690.078 311.346 694.611 310.88 698.5 311.053C704.334 311.313 710.338 312.065 716.127 312.895C726.235 314.344 736.638 315.921 746.556 318.299C759.908 321.5 772.624 325.847 785.5 330.516C800.269 335.872 815.094 342.325 828.615 350.346C831.425 352.013 833.945 354.137 836.75 355.825C844.495 360.487 852.323 364.848 859.708 370.1C863.819 373.024 868.411 376.574 871.101 380.918C868.574 381.243 863.539 377.832 860.829 376.776C856.063 374.919 851.065 373.193 846.132 371.851L812.5 364.096C796.974 360.591 781.956 356.944 766.108 355.146L765.632 355.156C758.69 355.2 751.332 352.363 744.399 351.447L726.918 349.944L695.391 347.685C682.702 347.119 669.953 347.695 657.27 348.077L601.278 351.175L528.16 360.197L504.25 363.498C500.26 363.985 496.452 363.983 492.5 364.927C487.849 366.038 483.195 366.276 478.5 367.037C472.809 367.96 466.98 369.778 461.205 369.318L373.987 393.756L348 401.027L283.84 420.605C272.466 424.088 261.115 427.922 249.471 430.413C247.531 430.828 245.084 431.795 243.152 431.711L252.701 420.591L255.699 422.03L256.582 421.638L256.308 420.75L260.744 415.54C259.585 415.12 258.721 414.971 258.039 413.874C259.716 410.974 261.839 408.431 264.054 405.936C265.214 404.63 266.978 403.246 267.25 401.539L265.252 400.803C261.182 400.62 257.986 399.441 254.244 397.996C250.729 396.236 247.516 393.929 243.982 392.193C238.127 389.318 231.964 387.279 225.948 384.802C221.357 382.911 217.024 380.59 212.349 378.864C213.298 378.432 213.81 378.004 214.525 377.248L228.215 381.884C227.519 381.103 226.925 380.487 226.548 379.5C231.565 373.831 237.916 369.587 243.775 364.857C275.698 339.088 310.808 320.668 348.994 305.951L346.187 326.029Z"/>
	<path transform="scale(0.5 0.5)" d="M724.782 326.175C738.075 326.134 751.226 325.397 764.458 327.394C768.746 328.041 772.868 329.526 776.974 330.87C787.565 334.336 797.107 338.732 807.127 343.506L822.845 350.704L779.318 348.146C773.182 343.953 765.952 341.128 759.109 338.34C754.071 336.287 748.978 333.967 743.801 332.321C737.479 330.31 730.895 328.776 724.782 326.175Z"/>
	<path transform="scale(0.5 0.5)" d="M260.744 415.54C266.638 409.695 272.647 402.599 280.058 398.714C285.505 395.859 291.937 394.565 297.812 392.849L307.924 389.372L323.036 385.16L351.662 375.742L380.45 366.929C392.657 363.069 404.437 359.077 417.024 356.463C424.501 354.91 433.207 354.431 440.832 354.462C453.134 354.513 466.918 354.72 478.73 358.293L256.582 421.638L256.308 420.75L260.744 415.54Z"/>
	<path fill="#0F9DCA" transform="scale(0.5 0.5)" d="M461.205 369.318L513.029 352.158C525.747 348.302 539.009 345.656 552 342.896L594.383 335.298L622.588 331.007C641.643 328.987 660.91 328.275 680.057 328.047C688.428 327.947 698.077 326.892 706.284 328.632C709.008 329.209 711.619 331.238 714.256 332.215C716.472 333.036 718.863 333.222 721.083 334.087C726.483 336.192 731.523 339.035 736.75 341.501C746.522 346.11 756.538 350.05 766.108 355.146L765.632 355.156C758.69 355.2 751.332 352.363 744.399 351.447L726.918 349.944L695.391 347.685C682.702 347.119 669.953 347.695 657.27 348.077L601.278 351.175L528.16 360.197L504.25 363.498C500.26 363.985 496.452 363.983 492.5 364.927C487.849 366.038 483.195 366.276 478.5 367.037C472.809 367.96 466.98 369.778 461.205 369.318Z"/>
	<path fill="#D62828" transform="scale(0.5 0.5)" d="M346.187 326.029L345.765 327.102C348.98 327.903 355.54 323.703 358.997 322.683C375.402 317.842 391.823 312.771 408.554 309.111L452.25 301.712L496.924 296.737C534.665 294.238 573.602 297.407 610.716 304.367L632.857 309.173C637.787 310.282 642.37 310.966 647.094 312.912C603.607 315.805 561.603 323.99 519.5 334.955L495 342.055C490.043 343.66 484.867 346.061 479.75 346.992C471.716 348.453 462.435 347.677 454.215 347.883C441.043 348.212 427.485 348.101 414.481 350.362C411.748 350.837 409.171 351.821 406.5 352.527L392.86 356.008L318.447 379.057L285.414 388.993C280.434 390.561 275.426 391.891 270.737 394.222C269.301 394.936 265.541 397.2 264.105 397.07C262.75 396.947 259.582 395.003 258.159 394.367L249.979 391.037C245.798 389.102 241.755 386.742 237.5 384.994C234.604 383.803 230.884 383.347 228.215 381.884C227.519 381.103 226.925 380.487 226.548 379.5C231.565 373.831 237.916 369.587 243.775 364.857C275.698 339.088 310.808 320.668 348.994 305.951L346.187 326.029Z"/>
	<path fill="#F77F00" transform="scale(0.5 0.5)" d="M505.15 540.503L943.811 540.441L946.096 568.101C947.173 586.824 947.338 605.863 945.402 624.534C943.563 642.269 940.03 659.686 935.822 676.994L923.943 717.497C921.835 716.473 918.126 717.045 915.75 717.05L891.5 717.449L876.709 717.018L822.796 717.006L564.791 717.069L534.75 716.667L448.024 716.902L376.735 716.98C372.541 716.863 366.298 717.13 362.65 715.014C372.161 712.716 380.685 708.627 389.306 704.061C403.463 696.563 416.531 687.861 426.583 675.202C429.046 672.467 430.982 669.676 433.166 666.75C434.456 665.021 436.114 663.6 436.778 661.5L435.928 660.405C433.045 655.585 402.936 648.311 396.589 647.092C392.01 646.213 387.067 646.818 382.884 644.618C385.214 644.854 387.51 644.778 389.845 644.726L379.761 630.575L360.468 603.623C356.584 598.298 352.06 593.14 348.773 587.431L435.008 564.567C442.958 569.371 449.449 575.999 456.234 582.274L484.027 608.512L491.468 615.797C492.87 617.237 494.195 619.036 495.894 620.095C501.166 618.194 506.507 617.429 511.946 616.246L549.466 609.129L505.15 540.503Z"/>
	<path fill="#FCBF49" transform="scale(0.5 0.5)" d="M221.314 897.238L220.963 897.168C218.164 895.702 215.367 892.578 213.088 890.409L200.922 878.497C172.329 848.707 148.507 815.596 129.055 779.212C121.89 765.809 115.254 752.222 110.066 737.924L128.458 735.796C128.132 738.548 127.791 741.646 128.034 744.405C128.619 751.053 131.777 756.461 136.899 760.534C138.812 762.056 140.499 763.642 143.093 763.555C146.085 763.454 149.103 761.612 152.047 760.929L186 753.598L235.836 742.15L254.94 738.393L310.659 726.27L341.882 719.368C348.821 717.792 355.552 715.802 362.65 715.014C366.298 717.13 372.541 716.863 376.735 716.98L448.024 716.902L534.75 716.667L564.791 717.069L822.796 717.006L876.709 717.018L891.5 717.449L915.75 717.05C918.126 717.045 921.835 716.473 923.943 717.497L915.221 740.121C903.756 766.356 889.549 791.181 873.752 815.021C867.285 824.781 860.965 834.504 853.722 843.722L838.632 861.128C830.377 871.007 821.986 880.488 812.517 889.239C809.494 892.033 806.501 895.143 803.202 897.585L771.129 897.424L692.25 896.979L651.826 897.314L639.207 897.37C637.832 897.349 635.796 897.601 634.536 897.266C633.685 897.039 632.284 895.943 631.458 895.475L620.51 888.983L605.958 880.557C599.29 876.538 592.538 872.186 585.552 868.76C577.45 869.313 569.058 868.905 560.916 868.926L500.817 869.354C496.689 869.5 491.428 868.594 487.5 869.544C484.694 870.223 480.764 873.335 478.244 874.868L449.358 891.79C445.519 893.803 441.331 896.434 436.964 896.924C432.031 897.478 426.61 896.86 421.614 896.879L382.867 896.898L291.25 897.161L221.314 897.238Z"/>
</svg>
