<?xml version="1.0" encoding="utf-8" ?>
<svg xmlns="http://www.w3.org/2000/svg" xmlns:xlink="http://www.w3.org/1999/xlink" width="512" height="512">
	<path transform="scale(0.5 0.5)" d="M0 183.339L0 -0L1024 0L1024 1024L-0 1024L0 201.669L0 183.339Z"/>
	<path fill="#2C2523" transform="scale(0.5 0.5)" d="M0 183.339C0.678123 186.388 0.51481 189.53 0.527481 192.64C0.539704 195.64 0.80084 198.758 0 201.669L0 183.339Z"/>
	<path fill="#FDFDF9" transform="scale(0.5 0.5)" d="M87.1432 932.75L88.75 932.371C89.9842 933.175 90.134 933.104 90.5215 934.5L89.4377 936.25L88.25 936.942L87.3496 936.25C86.5826 934.499 86.5621 934.566 87.1432 932.75Z"/>
	<path fill="#FDFDF9" transform="scale(0.5 0.5)" d="M819.375 273.75C820.514 273.616 819.938 273.573 821.099 273.916C821.647 275.191 821.563 275.909 821.442 277.25L820.25 277.913L818.25 277.784C817.679 276.506 817.839 275.835 818.043 274.5L819.375 273.75Z"/>
	<path fill="#FDFDF9" transform="scale(0.5 0.5)" d="M753.298 31.75L755.5 31.5529L756.508 32.5C756.549 34.215 756.647 34.3721 755.667 35.75C754.945 35.9215 754.239 35.9101 753.5 35.9395L752.654 34.956C752.545 33.3654 752.275 33.0366 753.298 31.75Z"/>
	<path fill="#FDFDF9" transform="scale(0.5 0.5)" d="M938.134 218.25L939.158 218.253L940.507 220C940.482 221.884 940.314 221.979 939.25 223.422L938.835 223.41C937.358 223.122 937.243 222.944 936.46 221.75C936.753 219.853 936.849 219.68 938.134 218.25Z"/>
	<path fill="#3F0907" transform="scale(0.5 0.5)" d="M642.207 189.418C643.291 189.193 644.484 189.065 645.364 188.35C648.779 185.572 654.28 185.551 658.545 185.537L658.886 188.031L642.207 189.418Z"/>
	<path fill="#FEDB94" transform="scale(0.5 0.5)" d="M917.361 111.52C923.147 110.236 930.376 108.057 936.25 108.485L936.601 109.25C933.736 111.883 923.104 114.41 919.064 114.572L919.646 113.523C920.434 113.173 920.06 113.282 920.928 113.134L923.503 112.625L923.508 112.003C922.82 111.824 922.223 111.67 921.505 111.75C920.14 111.902 919.191 111.881 917.826 111.616L917.361 111.52Z"/>
	<path fill="#FCBF49" transform="scale(0.5 0.5)" d="M901.546 123.634C903.237 123.624 904.857 123.469 906.436 124.173C905.883 125.619 905.809 126.951 904.25 127.557L901.038 128.38L894.726 129.708C894.03 128.359 894.009 127.529 893.975 126.051L894.561 125.158C896.907 124.471 899.113 123.953 901.546 123.634Z"/>
	<path fill="#F77F00" transform="scale(0.5 0.5)" d="M805.705 135.362C807.19 134.972 808.717 134.626 810.145 134.055C813.063 132.888 816.04 132.722 819.125 132.282L830.094 130.167C828.719 132.614 827.492 133.591 824.689 134.364C819.867 135.692 810.386 136.909 805.705 135.362Z"/>
	<path fill="#F77F00" transform="scale(0.5 0.5)" d="M454.149 222.215C455.25 222.039 456.209 221.903 457.219 221.405C461.222 219.43 465.249 219.913 469.436 220.867C471.202 220.952 473.072 220.921 474.786 221.36L474.5 221.755L484.735 222.091C487.158 222.136 491.983 220.91 494 222.255C497.705 222.235 502.884 221.555 506.313 222.911L454.149 222.215Z"/>
	<path fill="#FDFDF9" transform="scale(0.5 0.5)" d="M640.33 66.25C640.805 66.0827 641.241 65.9009 641.755 65.8587C642.878 65.7665 643.909 66.2602 644.734 66.9859C646.535 68.5706 646.383 70.0539 646.441 72.25C645.579 73.7385 644.828 74.3448 643.378 75.25L642.448 75.4951C640.958 75.6086 639.816 74.6537 638.838 73.6533C637.687 72.4766 637.544 71.3253 637.475 69.75C638.08 68.0033 638.89 67.3659 640.33 66.25Z"/>
	<path fill="#FDFDF9" transform="scale(0.5 0.5)" d="M84.6782 109.75L85.1627 109.675C85.7143 111.295 86.2086 112.516 87.25 113.882L90.8966 114.049C90.2729 114.845 89.5046 115.461 88.75 116.129C88.0745 117.554 88.088 118.206 88.3814 119.778C88.5776 120.829 88.7355 121.192 88.4901 122.25C86.5747 122.599 85.421 122.513 83.5781 121.885L83.457 121.553L80.0247 121.656L79.3565 121.75C80.0738 120.941 81.1157 120.018 81.362 118.942C81.5276 118.219 79.0817 115.74 78.4687 115C79.4203 114.468 78.9973 114.643 79.9252 114.333L82.25 113.462C83.6152 112.76 84.1445 111.576 84.561 110.175L84.6782 109.75Z"/>
	<path fill="#3F0907" transform="scale(0.5 0.5)" d="M895.416 120.267C903.365 119.133 910.926 115.919 918.95 114.931C917.944 116.227 915.22 116.888 913.612 117.071C912.826 117.161 912.336 117.142 911.574 117.433C907.908 118.83 903.305 118.367 900.245 121.25C901.365 121.439 900.614 121.354 901.609 121.382C903.485 121.435 905.318 122.777 907.316 123.076C907.809 123.15 908.263 123.392 908.75 123.5L911.253 123.375L911.125 122.006L911.744 122.253C913.744 122.692 916.324 122.279 918.395 122.199C923.62 121.998 928.549 121.753 933.663 123.073C931.311 123.757 928.911 124.475 926.456 124.643C922.794 124.892 908.154 123.122 906.436 124.173C904.857 123.469 903.237 123.624 901.546 123.634L900.933 123.187C900.538 122.877 899.877 122.245 899.413 122.048C897.832 121.378 896.96 121.349 895.416 120.267Z"/>
	<path fill="#FDFDF9" transform="scale(0.5 0.5)" d="M101.539 219.25C102.927 219.284 101.857 220.691 103.25 221.151C104.687 221.625 106.076 220.035 107.932 221L107.563 225.5C108.856 226.618 110.248 227.354 111.75 228.158C110.334 229.372 108.411 228.657 106.75 229.573C106.486 231.166 105.936 232.709 105.464 234.25L104.809 234.324C103.384 232.678 102.691 229.959 101.907 227.928L95.7892 229.727C96.5227 228 99.6467 226.61 100.167 225.107C100.526 224.071 99.8906 222.714 100.15 221.75C100.35 221.008 101.147 219.954 101.539 219.25Z"/>
	<path fill="#FDFDF9" transform="scale(0.5 0.5)" d="M150.834 315.25C151.604 315.095 152.146 315.093 152.939 315.204C155.131 315.51 157.191 316.871 158.356 318.75C159.377 320.395 159.511 322.332 158.958 324.156C158.192 326.679 156.213 327.659 154.038 328.864C153.188 328.964 152.337 329.094 151.486 328.924C149.72 328.571 147.978 327.162 147.117 325.596C145.957 323.484 145.763 321.072 146.672 318.83C147.467 316.868 148.948 315.962 150.834 315.25Z"/>
	<path fill="#066192" transform="scale(0.5 0.5)" d="M569.941 363.582L570.559 362.598C575.647 361.422 581.318 361.715 586.528 361.514L619.492 361.045L619.263 361.843L620.753 362.125L620.75 363L619.683 363.125C624.869 363.688 630.464 362.555 635.518 363.541C630.571 364.376 624.918 363.916 619.907 363.923L591.287 364.002L577.319 364.747C575.047 364.947 572.519 365.62 570.285 365.25L569.941 363.582Z"/>
	<path fill="#FCBF49" transform="scale(0.5 0.5)" d="M104.219 386.628C105.546 386.58 105.683 386.299 106.75 387.189C105.669 388.654 99.6979 389.688 97.7539 390.218C82.2215 394.453 66.8371 397.772 50.9109 400.173L48.25 400.01L47.5217 399C49.2478 397.303 55.2096 397.1 57.75 396.51L68.0534 393.82L104.219 386.628Z"/>
	<path fill="#F77F00" transform="scale(0.5 0.5)" d="M867.042 127.064C870.028 127.194 874.645 124.576 877.878 123.987C880.913 123.435 884.492 123.689 887.59 123.671C890.203 121.841 892.327 120.957 895.416 120.267C896.96 121.349 897.832 121.378 899.413 122.048C899.877 122.245 900.538 122.877 900.933 123.187L901.546 123.634C899.113 123.953 896.907 124.471 894.561 125.158L893.975 126.051C894.009 127.529 894.03 128.359 894.726 129.708C890.488 130.528 886.526 131.19 882.203 130.797C878.947 130.501 868.938 129.406 867.042 127.064Z"/>
	<path fill="#FDFDF9" transform="scale(0.5 0.5)" d="M825.859 127.756C831.439 126.623 839.33 123.836 844.793 124.693C842.372 127.078 831.07 128.581 830.094 130.167L819.125 132.282C816.04 132.722 813.063 132.888 810.145 134.055C808.717 134.626 807.19 134.972 805.705 135.362L804.994 135.362C803.723 134.552 803.261 134.152 802.562 132.75C802.697 131.957 802.851 131.389 803.392 130.765C805.801 127.986 808.328 128.431 811.5 127.441C813.947 126.676 815.828 125.349 818.45 125.079C821.655 125.461 823.474 125.322 825.859 127.756Z"/>
	<path fill="#2C2523" transform="scale(0.5 0.5)" d="M818.45 125.079C821.655 125.461 823.474 125.322 825.859 127.756L815.557 128.964L818.45 125.079Z"/>
	<path fill="#FDFDF9" transform="scale(0.5 0.5)" d="M172.982 43.75C174.271 43.4934 175.696 43.4677 176.975 43.7939C179.67 44.4816 181.184 46.0482 182.413 48.5C183.282 50.2331 183.329 52.6432 182.61 54.4322C181.608 56.924 179.828 58.235 177.439 59.25C176.2 59.4334 174.877 59.6681 173.651 59.3028C171.517 58.6664 169.221 56.7772 168.281 54.75C167.35 52.7431 167.373 50.3928 168.142 48.3375C168.981 46.0913 170.942 44.791 172.982 43.75Z"/>
	<path fill="#992218" transform="scale(0.5 0.5)" d="M477.074 327.564L477.25 328.881L476.908 329.303C474.983 331.741 474.745 333.886 473.655 336.632C471.661 341.658 466.577 347.019 461.987 349.806L461.44 350.146L459.092 348.893C458.944 348.512 458.636 348.159 458.647 347.75C458.695 345.799 461.504 341.415 462.371 339.491C464.111 335.631 464.98 332.135 465.027 327.941L476.442 328.546L477.074 327.564Z"/>
	<path fill="#FCBF49" transform="scale(0.5 0.5)" d="M540.072 439.117C546.041 438.034 551.883 437.992 557.922 437.755L573.889 437C573.148 439.023 572.466 441.014 571.395 442.892C560.527 444.019 549.249 444.954 538.318 445.082C536.299 445.105 532.811 445.602 530.989 444.75C531.203 442.646 531.548 440.944 533.25 439.531L540.072 439.117Z"/>
	<path fill="#FDFDF9" transform="scale(0.5 0.5)" d="M867.042 127.064C866.909 125.582 867.231 124.528 867.663 123.14C871.121 119.374 876.252 118.689 881.101 118.25C881.811 116.921 882.367 116.315 883.75 115.651C885.018 115.043 886.477 114.052 887.807 114.556C887.446 115.492 887.184 116.247 887.108 117.25C890.003 117.217 893.204 116.207 896.048 115.616C903.122 114.146 910.171 112.317 917.361 111.52L917.826 111.616C919.191 111.881 920.14 111.902 921.505 111.75C922.223 111.67 922.82 111.824 923.508 112.003L923.503 112.625L920.928 113.134C920.06 113.282 920.434 113.173 919.646 113.523L919.064 114.572L918.95 114.931C910.926 115.919 903.365 119.133 895.416 120.267C892.327 120.957 890.203 121.841 887.59 123.671C884.492 123.689 880.913 123.435 877.878 123.987C874.645 124.576 870.028 127.194 867.042 127.064Z"/>
	<path fill="#680C0B" transform="scale(0.5 0.5)" d="M699.623 182.084C705.099 181.382 710.644 181.349 716.15 181L733.216 180.161C735.735 180.131 738.714 179.873 740.945 181.25L740.5 182.006L736.642 182.25C736.859 182.985 736.647 182.663 737.365 183.156C735.851 183.969 733.052 183.875 731.25 184.065L729.602 184.057L717.555 184.567C716.08 184.617 713.729 184.403 712.398 184.94L658.886 188.031L658.545 185.537L681.313 183.494L699.623 182.084Z"/>
	<path fill="#992218" transform="scale(0.5 0.5)" d="M681.313 183.494L699.623 182.084L699.6 182.895L700.21 182.79C701.852 182.558 703.598 182.519 705.253 182.625L705 183C703.538 183.035 702.639 183.102 701.25 183.5L698.627 183.627L698.998 184.034C698.552 184.381 695.721 184.252 695 184.378L693.755 184.75C691.514 185.083 679.282 185.42 677.881 184.25C679.113 184.332 680.166 183.883 681.313 183.494Z"/>
	<path fill="#D62828" transform="scale(0.5 0.5)" d="M699.623 182.084C705.099 181.382 710.644 181.349 716.15 181L733.216 180.161C735.735 180.131 738.714 179.873 740.945 181.25L740.5 182.006L736.642 182.25C736.859 182.985 736.647 182.663 737.365 183.156C735.851 183.969 733.052 183.875 731.25 184.065L729.602 184.057C730.334 183.525 729.937 183.858 730.745 183L730.25 182.415C728.033 183.408 724.898 182.555 722.5 182.922C717.068 183.753 711.323 182.366 706 183.385C703.643 183.837 701.393 183.927 698.998 184.034L698.627 183.627L701.25 183.5C702.639 183.102 703.538 183.035 705 183L705.253 182.625C703.598 182.519 701.852 182.558 700.21 182.79L699.6 182.895L699.623 182.084Z"/>
	<path fill="#F77F00" transform="scale(0.5 0.5)" d="M782.521 447.155C784.45 446.511 786.758 446.89 788.777 446.955L799.804 447.085L853.667 447.656L855.63 448.25C855.385 449.707 855.037 450.901 853.72 451.746L853.322 451.953L819.892 452.032C807.287 452.126 794.197 452.537 782.521 447.155Z"/>
	<path fill="#D62828" transform="scale(0.5 0.5)" d="M114.35 384.95C112.964 381.184 113.868 374.59 113.981 370.494L162.094 377.941C159.182 378.043 157.514 377.939 154.994 379.553L154.243 379.995C149.694 379.785 145.614 382.099 141.097 381.141C138.747 380.643 134.689 381.905 132.229 382.245L119.461 383.649C117.723 383.887 115.846 383.973 114.35 384.95Z"/>
	<path fill="#D62828" transform="scale(0.5 0.5)" d="M49.8736 437.557C49.9492 433.875 51.0557 430.336 51.5524 426.7L54.0111 406.577C57.7863 408.697 62.1863 409.521 66.2344 411.009C71.3463 412.889 76.1344 415.274 81.344 417.003C73.8823 421.794 65.7502 425.243 58.2336 429.892C56.4722 430.981 53.8122 432.29 52.4463 433.817C51.4962 434.879 50.6638 436.364 49.8736 437.557Z"/>
	<path fill="#FCBF49" transform="scale(0.5 0.5)" d="M689.471 413.037L730.662 413.004L742.176 413.215C743.159 413.28 745.01 413.251 745.843 413.642C747.137 414.248 748.914 416.237 750.055 417.198C755.079 421.428 760.041 425.675 764.701 430.312C766.3 431.904 767.585 433.159 768.46 435.281C760.481 431.64 754.344 424.295 746.671 420.278L746 419.94C743.022 418.42 736.915 419.363 733.489 419.326L689.633 419.236L689.471 413.037Z"/>
	<path fill="#FCBF49" transform="scale(0.5 0.5)" d="M398.576 463.369L399.491 463.485C404.45 464.085 409.441 463.998 414.427 464.035C416.625 464.051 419.451 463.68 421.5 464.448C423.742 467.892 422.501 477.618 422.475 481.782L397.173 482.646C396.524 476.677 396.823 470.099 397.17 464.1L398.576 463.369Z"/>
	<path fill="#003049" transform="scale(0.5 0.5)" d="M540.072 439.117C540.29 438.371 540.562 437.481 541.034 436.856C542.848 434.458 547.232 432.629 549.972 431.464C559.281 427.51 569.487 425.429 579.443 423.876L613.348 419.785C622.886 419.04 632.677 418.997 642.162 417.889C645.063 417.55 647.905 417.649 650.82 417.717C645.327 418.888 639.429 418.831 633.839 419.59C626.568 420.576 620.519 425.699 616.266 431.443L615.905 431.94C604.477 432.779 592.882 432.911 581.515 434.373C579.852 434.587 576.988 434.638 575.5 435.448C574.995 435.723 574.328 436.577 573.889 437L557.922 437.755C551.883 437.992 546.041 438.034 540.072 439.117Z"/>
	<path fill="#F77F00" transform="scale(0.5 0.5)" d="M888.36 354.076C895.354 355.819 902.709 359.221 909.75 360.187C910.289 359.59 910.689 359.075 911.061 358.36C926.218 365.891 938.989 374.744 951.951 385.626C943.075 384.698 934.239 384.439 925.322 384.272C920.678 384.185 915.598 384.783 911.04 383.787C907.284 382.966 903.533 380.939 900.688 378.371C893.971 372.308 888.701 363.15 888.36 354.076Z"/>
	<path fill="#FCBF49" transform="scale(0.5 0.5)" d="M114.621 414.529L115.126 413.786C116.025 412.83 116.871 412.514 118.143 412.42C122.361 412.108 127.229 412.992 131.581 413.012L172.295 413.016L407.436 412.996C414.495 413 422.672 412.245 429.582 413.432C434.122 413.361 440.549 412.41 444.875 413.45L445.632 413.555L446 414.389L446.893 415.25L446.935 444.987C446.925 452.417 446.225 460.666 448.11 467.89C449.663 473.84 453.779 480.056 458.076 484.422C459.866 486.241 461.795 487.759 464.1 488.891C469.578 491.58 475.819 493.014 481.632 494.811C488.435 496.913 496.256 500.313 503.337 500.954C504.76 501.083 506.197 501.896 507.587 502.278C511.069 503.235 514.506 504.249 517.892 505.514C518.049 506.665 518.029 507.352 517.631 508.428C517.248 509.465 517.256 509.387 516.25 509.836L489.175 502.284C478.513 499.524 465.622 497.507 457.386 489.642C451.605 484.121 445.765 476.46 443.138 468.837C440.702 461.77 442.025 451.523 441.98 444L441.494 417.998L434.666 417.958L406.586 417.7L277.345 417.065L153.633 417.186L125.892 416.857C122.658 416.765 118.273 417.127 115.25 415.998L114.621 414.529Z"/>
	<path fill="#003049" transform="scale(0.5 0.5)" d="M112.072 427.484C113.49 425.623 114.825 424.466 116.789 423.2C141.163 425.711 165.74 424.34 190.199 424.499L234.792 425.297L250.225 424.586L297.338 424.761L350.45 422.991L375.122 422.945L399.248 422.21L392.466 430.311C386.471 430.762 365.862 429.315 362.317 433.202C361.052 434.251 358.88 434.933 357.25 434.959C350.78 435.066 344.403 433.255 338 433.044L311.94 432.958L247.358 431.885L236.115 431.874C232.413 431.733 228.771 431.273 225.089 431.894C220.789 431.271 216.263 431.48 211.922 431.47L191.044 431.456L115.757 430.654C114.879 429.622 113.983 428.356 112.731 427.768L112.072 427.484Z"/>
	<path fill="#FCBF49" transform="scale(0.5 0.5)" d="M276.454 368.445L398.769 358.83C394.282 356.604 390.638 354.446 387.115 350.849C386.733 345.919 385.389 325.249 387.965 322.034L388.424 321.5C390.847 318.506 393.032 316.045 397 315.157C402.308 313.969 408.421 314.543 413.876 314.555L438.982 314.48C446.649 314.431 454.84 313.536 462.431 314.218C464.798 314.431 466.762 315.151 468.75 316.45C473.013 319.235 475.977 322.483 477.074 327.564L476.442 328.546L465.027 327.941C461.683 323.404 457.631 320.723 452.003 319.834C448.347 319.257 444.443 319.488 440.75 319.478L422.344 319.454C416.791 319.44 411.02 318.77 405.509 319.353C402.853 319.634 399.411 320.225 397.25 321.876C394.228 324.185 391.578 329.254 391.111 332.946C390.661 336.496 391.069 347.145 393.426 349.969C394.878 351.707 399.057 355.178 401.144 355.955C401.712 356.166 403.489 355.953 404.139 355.952L414.266 355.904L455.875 354.275L470.18 353.795C473.124 353.736 476.097 353.499 479 354.067L479.867 355.5L479.25 356.459L433.925 359.4L406.821 361.208C404.093 361.449 401 361.28 398.358 361.807C391.695 364.005 384.162 363.476 377.25 364.157L353.505 366.859L336.052 367.889L277.999 373.341L208.321 378.591C202.243 379.722 195.95 379.137 189.84 380.261C185.398 381.215 180.989 380.986 176.481 381.067C173.454 381.122 170.591 381.513 167.512 381.432L114.472 385.515L114.35 384.95C115.846 383.973 117.723 383.887 119.461 383.649L132.229 382.245C134.689 381.905 138.747 380.643 141.097 381.141C145.614 382.099 149.694 379.785 154.243 379.995L154.994 379.553C157.514 377.939 159.182 378.043 162.094 377.941L207.811 374.563L221.172 373.395C222.356 372.979 224.076 373.042 225.367 372.913L236.251 371.923L276.454 368.445Z"/>
	<path fill="#003049" transform="scale(0.5 0.5)" d="M455.875 354.275L414.266 355.904L404.139 355.952C403.489 355.953 401.712 356.166 401.144 355.955C399.057 355.178 394.878 351.707 393.426 349.969C391.069 347.145 390.661 336.496 391.111 332.946C391.578 329.254 394.228 324.185 397.25 321.876C399.411 320.225 402.853 319.634 405.509 319.353C411.02 318.77 416.791 319.44 422.344 319.454L440.75 319.478C444.443 319.488 448.347 319.257 452.003 319.834C457.631 320.723 461.683 323.404 465.027 327.941C464.98 332.135 464.111 335.631 462.371 339.491C461.504 341.415 458.695 345.799 458.647 347.75C458.636 348.159 458.944 348.512 459.092 348.893L461.44 350.146C460.587 350.966 459.845 351.679 458.749 352.171C457.639 352.67 455.124 352.949 454.5 353.864L455.875 354.275Z"/>
	<path fill="#003049" transform="scale(0.5 0.5)" d="M446.935 444.987L483.738 444.893C487.527 444.952 492.095 444.487 495.776 445.263C497.943 445.72 499.745 446.752 501.645 447.843C508.076 451.534 513.558 456.244 515.757 463.613C517.093 468.089 516.982 472.848 516.997 477.47L517.008 498.589C517.083 500.95 517.709 503.169 517.892 505.514C514.506 504.249 511.069 503.235 507.587 502.278C506.197 501.896 504.76 501.083 503.337 500.954C496.256 500.313 488.435 496.913 481.632 494.811C475.819 493.014 469.578 491.58 464.1 488.891C461.795 487.759 459.866 486.241 458.076 484.422C453.779 480.056 449.663 473.84 448.11 467.89C446.225 460.666 446.925 452.417 446.935 444.987Z"/>
	<path fill="#D62828" transform="scale(0.5 0.5)" d="M225.089 431.894C228.771 431.273 232.413 431.733 236.115 431.874L247.358 431.885L311.94 432.958L338 433.044C344.403 433.255 350.78 435.066 357.25 434.959C358.88 434.933 361.052 434.251 362.317 433.202C365.773 436.7 369.59 439.303 373.429 442.299L388.327 454.215C391.878 457.104 394.883 460.665 398.576 463.369L397.17 464.1C396.823 470.099 396.524 476.677 397.173 482.646L397.482 500.878C397.066 499.778 397.27 500.164 396.695 499.209L396.211 498.426L395.933 497.849C395.014 496.323 392.803 495.063 391.314 494.149L380.883 487.965C362.868 477.498 343.504 469.232 324.051 461.874L313.932 457.681C306.022 454.713 297.588 452.489 289.5 450.023L273.5 444.977L247.263 437.615L234.857 434.364C231.746 433.617 228.664 433.171 225.633 432.094L225.089 431.894Z"/>
	<defs>
		<linearGradient id="gradient_0" gradientUnits="userSpaceOnUse" x1="711.59241" y1="371.15787" x2="713.78973" y2="340.96146">
			<stop offset="0" stop-color="#05101E"/>
			<stop offset="1" stop-color="#042E43"/>
		</linearGradient>
	</defs>
	<path fill="url(#gradient_0)" transform="scale(0.5 0.5)" d="M567.547 346.802C574.601 346.946 581.757 346.129 588.846 346.072L645.169 346.096L795.205 347.972L835.134 349.377L848.824 349.896C850.757 350.011 853.083 349.905 854.913 350.438L855.515 350.855L857.367 352L857.605 364.698L810.845 364.479C808.843 364.517 806.746 363.699 804.69 363.546C800.203 363.214 795.608 363.39 791.111 363.425L635.518 363.541C630.464 362.555 624.869 363.688 619.683 363.125L620.75 363L620.753 362.125L619.263 361.843L619.492 361.045L586.528 361.514C581.318 361.715 575.647 361.422 570.559 362.598L569.941 363.582L569.852 363.429C569.385 362.07 568.942 360.973 568.25 359.718L565.125 359.27L541.5 362.41C538.959 362.818 536.435 362.873 533.866 362.967L564.43 355.284L564.899 354.836C565.706 354.183 566.358 353.9 566.948 353.018L567.255 352.5C568.063 351.474 567.753 349.614 567.755 348.25C566.459 348.334 565.524 348.084 564.304 347.716L563.827 347.569L567.547 346.802Z"/>
	<defs>
		<linearGradient id="gradient_1" gradientUnits="userSpaceOnUse" x1="717.37872" y1="358.45618" x2="717.15308" y2="365.54483">
			<stop offset="0" stop-color="#04669D"/>
			<stop offset="1" stop-color="#057EB7"/>
		</linearGradient>
	</defs>
	<path fill="url(#gradient_1)" transform="scale(0.5 0.5)" d="M619.492 361.045L766.872 361.18L808.408 360.986C811.996 361.073 815.8 360.79 819.334 361.353L813.567 363.613L810.845 364.479C808.843 364.517 806.746 363.699 804.69 363.546C800.203 363.214 795.608 363.39 791.111 363.425L635.518 363.541C630.464 362.555 624.869 363.688 619.683 363.125L620.75 363L620.753 362.125L619.263 361.843L619.492 361.045Z"/>
	<path fill="#066192" transform="scale(0.5 0.5)" d="M564.43 355.284C575.006 352.691 585.101 353.041 595.849 352.776L632.867 352.366L667.5 352.429L703.233 352.045L755.25 352.493L766.5 352.976L786.79 352.25L787.227 352.718C788.83 353.995 791.861 353.951 793.835 354.1C802.579 354.764 811.443 353.033 820.022 354.848L826.734 356.38L565.125 359.27L541.5 362.41C538.959 362.818 536.435 362.873 533.866 362.967L564.43 355.284Z"/>
	<path fill="#FCBF49" transform="scale(0.5 0.5)" d="M489.645 325.123C490.009 323.256 489.949 321.157 491.5 320.004C510.311 319.764 529.299 319.151 547.034 326.508C551.237 328.251 555.051 330.707 559.096 332.759C569 336.313 580.416 335.046 590.841 335.093L623.858 335.228L783.069 337.368L832.388 340.465C840.951 341.142 849.793 341.502 858.264 342.844C876.349 345.708 894.604 350.2 911.061 358.36C910.689 359.075 910.289 359.59 909.75 360.187C902.709 359.221 895.354 355.819 888.36 354.076L854.913 350.438C853.083 349.905 850.757 350.011 848.824 349.896L835.134 349.377L795.205 347.972L645.169 346.096L588.846 346.072C581.757 346.129 574.601 346.946 567.547 346.802L563.827 347.569L518.561 353.573L518.265 353.974L504.989 356.834C501.615 357.459 498.139 357.486 494.75 358.032C492.383 358.414 489.351 359.523 487.007 358.965C486.323 358.078 485.819 357.432 485.479 356.346C483.961 351.497 487.057 329.284 489.645 325.123Z"/>
	<path fill="#003049" transform="scale(0.5 0.5)" d="M489.645 325.123C493.475 326.295 498.947 325.614 502.968 325.594C516.648 325.528 530.777 324.404 543.868 329.18C548.699 330.942 553.308 334.061 557.685 336.734C560.264 338.892 562.928 342.161 565.576 343.993C559.458 345.051 520.637 351.195 518.561 353.573L518.265 353.974L504.989 356.834C501.615 357.459 498.139 357.486 494.75 358.032C492.383 358.414 489.351 359.523 487.007 358.965C486.323 358.078 485.819 357.432 485.479 356.346C483.961 351.497 487.057 329.284 489.645 325.123Z"/>
	<path fill="#003049" transform="scale(0.5 0.5)" d="M548.849 522.043L548.486 521.665C546.343 519.49 543.636 518.445 541.047 516.898C534.61 513.051 525.999 508.151 521.364 502.123L521.497 459.075L692.951 453.688L692.961 493.824L616.528 494.044L601.002 493.929C596.954 493.776 592.496 492.979 588.5 493.64C584.241 494.344 579.09 497.208 575.982 500.193C572.008 504.011 567.323 511.876 567.088 517.449C567.018 519.108 567.395 520.874 567.673 522.504L548.849 522.043Z"/>
	<path fill="#003049" transform="scale(0.5 0.5)" d="M758.678 523.608C758.296 519.952 758.502 515.942 757.74 512.379C756.851 508.225 753.651 503.015 750.638 500.105C747.78 497.345 743.708 495.132 739.841 494.205C735.084 493.065 729.509 493.558 724.638 493.529L697.956 493.587L697.52 453.615L746.025 453.649L773.5 453.818C779.534 453.833 785.745 453.284 791.75 453.919C795.901 454.357 800.231 455.418 804.351 456.203C811.337 457.536 818.706 457.167 825.796 457.126C836.364 457.065 846.708 457.181 857.148 455.3L857.123 505.21C857.134 513.4 857.56 521.808 856.366 529.935L855.168 529.659L766.857 523.474L758.678 523.608Z"/>
	<path transform="scale(0.5 0.5)" d="M766.857 523.474C765.923 518.128 767.809 509.353 771.045 504.75C774.737 499.497 780.569 496.024 786.859 495.219C798.047 493.785 809.519 494.397 820.75 494.355C825.527 494.337 830.23 493.855 835 494.354L835.762 494.427C841.059 494.979 847.061 498.342 850.281 502.567C851.269 503.863 851.081 506.364 851.194 508.007C851.566 513.381 851.46 519.047 852.473 524.336C852.671 525.369 852.909 527.441 853.475 528.25C853.8 528.715 854.706 529.274 855.168 529.659L766.857 523.474Z"/>
	<path fill="#003049" transform="scale(0.5 0.5)" d="M689.471 413.037C688.069 408.966 689.006 401.959 689.006 397.539L960.078 394.511C963.315 396.216 965.479 397.63 967.774 400.529L959.131 411.871C952.873 419.813 946.034 427.676 938.948 434.883C935.602 438.285 932.275 442.057 927.994 444.281C923.189 446.776 917.612 447.442 912.287 447.909L853.667 447.656L799.804 447.085L788.777 446.955C786.758 446.89 784.45 446.511 782.521 447.155C781.811 447.012 780.292 445.733 779.602 445.245C775.601 442.412 771.83 438.832 768.46 435.281C767.585 433.159 766.3 431.904 764.701 430.312C760.041 425.675 755.079 421.428 750.055 417.198C748.914 416.237 747.137 414.248 745.843 413.642C745.01 413.251 743.159 413.28 742.176 413.215L730.662 413.004L689.471 413.037Z"/>
	<path fill="#003049" transform="scale(0.5 0.5)" d="M398.358 361.807L398.611 362.222L405.747 376.982L380.187 376.551C374.707 376.55 368.91 376.252 363.471 376.887L363.941 396.753C379.639 397.53 395.354 396.507 411.064 396.617C416.696 396.656 422.843 396.261 428.383 397.309C435.404 398.637 441.61 401.557 448.25 403.994L474.324 412.686C469.17 413.259 464.082 413.074 458.918 412.776C454.757 412.535 450.515 412.059 446.475 413.307L445.632 413.555L444.875 413.45C440.549 412.41 434.122 413.361 429.582 413.432C422.672 412.245 414.495 413 407.436 412.996L172.295 413.016L131.581 413.012C127.229 412.992 122.361 412.108 118.143 412.42C116.871 412.514 116.025 412.83 115.126 413.786L114.621 414.529C112.82 411.639 114.251 402.618 114.415 399.176L114.472 385.515L167.512 381.432C170.591 381.513 173.454 381.122 176.481 381.067C180.989 380.986 185.398 381.215 189.84 380.261C195.95 379.137 202.243 379.722 208.321 378.591L277.999 373.341L336.052 367.889L353.505 366.859L377.25 364.157C384.162 363.476 391.695 364.005 398.358 361.807Z"/>
	<path fill="#D62828" transform="scale(0.5 0.5)" d="M807.374 178.291L886.12 175.75C884.268 177.374 876.246 177.07 873.617 177.35L811.971 182.832L810.371 183.471C809.247 187.594 808.516 191.429 808.027 195.681L874.148 193.815L966.912 191.677L875.815 198.561L805.487 205.303C803.793 206.503 800.934 208.32 799.738 210.016C802.363 210.751 805.035 211.004 807.713 211.461L862.059 212.677C870.646 212.975 879.78 212.638 888.25 213.957C877.86 215.582 867.395 215.231 856.943 215.915L750.497 222.075L737.301 222.221L706.606 222.982C703.752 223.018 699.494 223.618 696.77 222.967L551.529 223.378L506.313 222.911C502.884 221.555 497.705 222.235 494 222.255C491.983 220.91 487.158 222.136 484.735 222.091L474.5 221.755L474.786 221.36C473.072 220.921 471.202 220.952 469.436 220.867C465.249 219.913 461.222 219.43 457.219 221.405C456.209 221.903 455.25 222.039 454.149 222.215L390.25 220.131C396.441 218.668 402.584 218.44 408.833 217.44L473.092 208.702L604.553 193.392L642.207 189.418L658.886 188.031L712.398 184.94C713.729 184.403 716.08 184.617 717.555 184.567L729.602 184.057L731.25 184.065C733.052 183.875 735.851 183.969 737.365 183.156L741.363 182.791L807.374 178.291Z"/>
	<path fill="#FEDB94" transform="scale(0.5 0.5)" d="M791.311 198.449L799.139 197.827L799.842 198.5L798.864 200.705L790.895 201.432L791.263 200.623C791.733 199.668 791.504 199.478 791.311 198.449Z"/>
	<path fill="#FCBF49" transform="scale(0.5 0.5)" d="M799.139 197.827C801.664 197.394 804.196 197.409 806.75 197.36L807.783 198.2L807.75 199.612C805.394 200.697 801.468 200.586 798.864 200.705L799.842 198.5L799.139 197.827Z"/>
	<path fill="#FAF0B0" transform="scale(0.5 0.5)" d="M768.753 199.565L791.311 198.449C791.504 199.478 791.733 199.668 791.263 200.623L790.895 201.432L766.683 202.999L769 202.262L770 201.941L771.5 201.755C773.096 201.105 773.793 201.497 775.5 201.377L780.25 201.255L779.839 200.34C776.642 200.167 772.608 200.733 769.587 199.834L768.753 199.565Z"/>
	<defs>
		<linearGradient id="gradient_2" gradientUnits="userSpaceOnUse" x1="799.66138" y1="207.9908" x2="785.21875" y2="210.34308">
			<stop offset="0" stop-color="#2D0E05"/>
			<stop offset="1" stop-color="#4C1911"/>
		</linearGradient>
	</defs>
	<path fill="url(#gradient_2)" transform="scale(0.5 0.5)" d="M807.713 211.461C803.204 211.749 798.641 211.594 794.122 211.538C791.477 211.505 788.591 211.686 785.995 211.273C784.387 211.017 782.973 210.075 782.034 208.75C783.973 207.497 787.917 207.327 790.25 206.894L805.487 205.303C803.793 206.503 800.934 208.32 799.738 210.016C802.363 210.751 805.035 211.004 807.713 211.461Z"/>
	<path fill="#FDFDF9" transform="scale(0.5 0.5)" d="M751.593 200.046C753.439 200.308 755.897 199.88 757.82 199.797L768.753 199.565L769.587 199.834C772.608 200.733 776.642 200.167 779.839 200.34L780.25 201.255L775.5 201.377C773.793 201.497 773.096 201.105 771.5 201.755L770 201.941L769 202.262L766.683 202.999L734.703 206.566L734.291 206.805C732.811 207.637 732.108 207.729 730.468 207.924L729.498 208.093C728.392 208.274 727.367 208.307 726.25 208.335L726.34 209.839L727 210.25L727.328 209.571L728.5 210.25L728.75 209.255L729.702 209.42L730.75 211L732.774 211.204C734.01 211.328 733.409 211.19 734.236 211.549C735.959 212.297 738.948 211.066 740.245 212.25C738.449 213.477 735.11 213.341 732.913 213.033L732.417 212.899L699.047 214.003L544.776 219.036L513.771 217.961C512.352 217.725 510.446 217.621 509.28 216.715L508.75 216.263C507.999 216.282 507.417 216.324 506.694 216.078C506.147 215.891 506.279 215.823 505.625 216.002L505 216.255L504.745 215.759L505.161 214.84C507.559 214.936 509.403 214.255 511.615 213.464L720.918 201.943L751.593 200.046Z"/>
	<path fill="#F77F00" transform="scale(0.5 0.5)" d="M732.417 212.899L732.273 212.337C726.783 210.847 720.764 211.771 715.171 211.413C710.597 211.121 705.616 209.706 701 209.044L734.703 206.566L734.291 206.805C732.811 207.637 732.108 207.729 730.468 207.924L729.498 208.093C728.392 208.274 727.367 208.307 726.25 208.335L726.34 209.839L727 210.25L727.328 209.571L728.5 210.25L728.75 209.255L729.702 209.42L730.75 211L732.774 211.204C734.01 211.328 733.409 211.19 734.236 211.549C735.959 212.297 738.948 211.066 740.245 212.25C738.449 213.477 735.11 213.341 732.913 213.033L732.417 212.899Z"/>
	<defs>
		<linearGradient id="gradient_3" gradientUnits="userSpaceOnUse" x1="579.92261" y1="147.72174" x2="624.5954" y2="265.30185">
			<stop offset="0" stop-color="#FF9F00"/>
			<stop offset="1" stop-color="#E55127"/>
		</linearGradient>
	</defs>
	<path fill="url(#gradient_3)" transform="scale(0.5 0.5)" d="M741.363 182.791C743.332 183.301 744.993 183.977 746.984 183.268C749.992 182.198 754.376 183.282 757.785 182.621C759.206 182.345 760.582 182.683 761.997 182.555L770.75 181.585C772.727 181.457 773.955 181.715 775.912 181.14C777.739 180.603 780.694 180.963 782.751 180.667C784.962 180.348 786.978 180.846 789.221 180.195C790.912 179.704 792.763 180.27 794.497 180.123C795.206 180.063 795.783 179.597 796.5 179.511C799.01 179.211 801.246 179.78 803.905 179.288C805.339 179.022 806.796 179.025 808.25 179C808.313 180.218 808.471 181.087 808.755 182.25L808.913 183.17L809.255 184L809.036 184.5C808.521 185.789 808.285 187.149 808.003 188.502L807.855 189.158C807.702 189.932 807.737 189.638 807.878 190.5C806.662 192.452 808.321 194.75 807 196.5L806.078 196.431C805.258 196.374 804.565 196.43 803.75 196.5L802.914 196.547C801.879 196.626 802.284 196.557 801.25 197L800.5 196.877C799.433 196.773 798.349 196.907 797.265 196.801C796.727 196.748 796.55 196.676 796.003 197.002L795.5 197.5C792.659 197.368 790.235 197.34 787.456 197.896C785.233 198.341 782.676 197.42 780.5 197.877C779.443 198.1 780.132 198.574 778.672 198.37C777.195 198.163 778.304 198.255 777 198.377L773.25 198.384C771.181 198.384 767.167 197.643 765.5 198.755C762.832 198.747 760.153 198.669 757.5 198.877L756.789 198.87C755.672 198.87 755.012 199.209 754 199.377L753.477 199.317C751.854 199.158 750.184 199.486 748.5 199.377C747.445 199.309 746.732 199.261 745.755 199.75C746.663 200.155 746.218 200.118 746.956 200.012C748.588 199.777 749.965 199.829 751.593 200.046L720.918 201.943L511.615 213.464C509.403 214.255 507.559 214.936 505.161 214.84L504.745 215.759L505 216.255L505.625 216.002C506.279 215.823 506.147 215.891 506.694 216.078C507.417 216.324 507.999 216.282 508.75 216.263L509.28 216.715C510.446 217.621 512.352 217.725 513.771 217.961L496.151 217.859L482.519 217.406C480.326 217.369 477.806 217.06 475.696 217.711C473.655 219.849 472.413 220.671 469.436 220.867C465.249 219.913 461.222 219.43 457.219 221.405C456.209 221.903 455.25 222.039 454.149 222.215L390.25 220.131C396.441 218.668 402.584 218.44 408.833 217.44L473.092 208.702L604.553 193.392L642.207 189.418L658.886 188.031L712.398 184.94C713.729 184.403 716.08 184.617 717.555 184.567L729.602 184.057L731.25 184.065C733.052 183.875 735.851 183.969 737.365 183.156L741.363 182.791Z"/>
	<path fill="#FAF0B0" transform="scale(0.5 0.5)" d="M475.696 217.711C474.61 217.508 473.651 217.291 472.624 216.879C476.288 214.186 505.637 213.465 511.615 213.464C509.403 214.255 507.559 214.936 505.161 214.84L504.745 215.759L505 216.255L505.625 216.002C506.279 215.823 506.147 215.891 506.694 216.078C507.417 216.324 507.999 216.282 508.75 216.263L509.28 216.715C510.446 217.621 512.352 217.725 513.771 217.961L496.151 217.859L482.519 217.406C480.326 217.369 477.806 217.06 475.696 217.711Z"/>
	<path fill="#F77F00" transform="scale(0.5 0.5)" d="M81.344 417.003L112.072 427.484L112.731 427.768C113.983 428.356 114.879 429.622 115.757 430.654L191.044 431.456L211.922 431.47C216.263 431.48 220.789 431.271 225.089 431.894L225.633 432.094C228.664 433.171 231.746 433.617 234.857 434.364L247.263 437.615L273.5 444.977L289.5 450.023C297.588 452.489 306.022 454.713 313.932 457.681L324.051 461.874C343.504 469.232 362.868 477.498 380.883 487.965L391.314 494.149C392.803 495.063 395.014 496.323 395.933 497.849L396.211 498.426L396.695 499.209C397.27 500.164 397.066 499.778 397.482 500.878C397.439 504.775 397.678 508.95 396.948 512.774C392.717 516.304 382.766 515.991 377.292 516.69C376.464 516.796 373.828 516.904 373.337 517.443C369.22 517.813 364.555 517.683 360.607 518.828L361.051 523.053L467.105 520.932C468.27 529.574 469.325 538.636 463.845 546.202C460.884 550.29 457.217 551.308 453 553.518C451.436 554.337 449.966 555.536 448.25 556.005C444.816 556.944 436.756 556.636 435.387 560.75L435.904 562C434.603 563.003 430.043 562.439 428.311 562.206L427.602 562.099C425.824 561.863 424.257 562.597 422.624 563.2L421.887 563.463L421.449 563.632C421.57 566.116 422.667 567.085 423.416 569.25L421.757 569.076C418.418 569.374 414.887 569.456 411.609 570.107C407.27 570.968 402.998 572.78 398.623 573.797C393.551 574.976 387.871 575.336 382.976 576.935C381.443 577.435 380.345 578.018 379.111 579.047C378.98 581.238 379.76 583.179 380.414 585.24L381.12 585.379C385.094 586.182 388.787 587.74 392.576 589.14C401.693 592.509 410.758 596.894 419.952 599.862C420.87 600.158 420.518 600.024 421.448 600.663L421.981 653.423L398.5 654.846C396.473 654.92 391.511 655.502 389.772 654.914C388.741 654.566 385.913 651.141 384.922 650.25C372.87 639.406 357.096 631.851 342.621 624.794C312.305 610.014 280.666 597.225 247.19 591.821C237.939 590.328 228.388 589.835 219.042 589.263C208.482 588.616 197.806 588.058 187.231 588.672C148.27 590.931 108.961 600.065 74.4566 618.728C71.4315 620.364 66.3355 621.466 64.1834 624.178L63.5771 625L63.1592 625.549L62.9228 625.89C61.7368 625.881 62.3045 625.802 61.2165 626.104C51.1521 587.144 45.3504 547.533 45.188 507.25C45.0947 484.102 47.0381 460.518 49.8736 437.557C50.6638 436.364 51.4962 434.879 52.4463 433.817C53.8122 432.29 56.4722 430.981 58.2336 429.892C65.7502 425.243 73.8823 421.794 81.344 417.003Z"/>
	<path transform="scale(0.5 0.5)" d="M353.845 553.917L352.183 552.815C344.526 547.53 334.783 545.594 326.952 540.558C325.232 539.451 318.585 542.327 315.705 541.27C313.718 540.541 312.879 538.182 311.842 536.443C312.363 534.483 313.314 532.819 314.274 531.052L323 530.611C323.524 531.005 324.046 531.437 324.718 531.542C327.005 531.901 330.696 530.793 332.933 530.207C339.725 528.429 346.811 526.58 352.982 523.156L353.701 522.75C354.422 523.708 354.269 526.344 354.348 527.623L354.387 538.891L353.845 553.917Z"/>
	<path fill="#003049" transform="scale(0.5 0.5)" d="M354.348 527.623C354.348 524.859 354.013 521.067 355.702 518.75C357.552 518.273 358.75 518.448 360.607 518.828L361.051 523.053L467.105 520.932C468.27 529.574 469.325 538.636 463.845 546.202C460.884 550.29 457.217 551.308 453 553.518C451.436 554.337 449.966 555.536 448.25 556.005C444.816 556.944 436.756 556.636 435.387 560.75L435.904 562C434.603 563.003 430.043 562.439 428.311 562.206L427.602 562.099C425.824 561.863 424.257 562.597 422.624 563.2L421.887 563.463L421.449 563.632C421.57 566.116 422.667 567.085 423.416 569.25L421.757 569.076C420.247 569.061 417.499 569.365 416.176 568.719C405.244 563.381 393.345 561.901 381.505 559.877L354.478 554.082L353.845 553.917L354.387 538.891L354.348 527.623Z"/>
	<path fill="#FDFDF9" transform="scale(0.5 0.5)" d="M354.348 527.623C354.348 524.859 354.013 521.067 355.702 518.75C357.552 518.273 358.75 518.448 360.607 518.828L361.051 523.053L361.099 552.359C360.501 552.604 359.905 552.878 359.25 552.928C357.626 553.053 356.315 553.038 355.131 551.949C354.124 547.602 354.416 543.324 354.387 538.891L354.348 527.623Z"/>
	<path fill="#FCBF49" transform="scale(0.5 0.5)" d="M354.387 538.891C354.416 543.324 354.124 547.602 355.131 551.949C356.315 553.038 357.626 553.053 359.25 552.928C359.905 552.878 360.501 552.604 361.099 552.359L422.25 560.604C422.411 561.854 421.931 562.499 421.449 563.632C421.57 566.116 422.667 567.085 423.416 569.25L421.757 569.076C420.247 569.061 417.499 569.365 416.176 568.719C405.244 563.381 393.345 561.901 381.505 559.877L354.478 554.082L353.845 553.917L354.387 538.891Z"/>
	<path fill="#D62828" transform="scale(0.5 0.5)" d="M967.774 400.529C970.334 409.787 971.707 419.502 973.053 429L977.134 463.388C978.765 484.331 979.567 505.77 978.395 526.778C977.461 543.519 975.522 559.901 973.036 576.476C971.319 587.917 969.592 599.367 966.978 610.646C965.888 615.348 964.255 619.91 962.992 624.569C958.793 640.048 954.152 655.542 948.543 670.584L936.707 698.356C929.779 714.195 922.664 730.201 914.1 745.241C879.174 806.575 831.918 860.641 774.882 902.358C758.072 914.653 741.311 925.88 722.735 935.385C723.701 924.711 722.492 913.029 721.594 902.359L720.191 885.477C717.243 861.881 711.43 837.889 703.123 815.606C697.962 801.761 691.594 788.364 685.224 775.045C683.501 771.441 681.387 768.081 679.529 764.554L673.752 753.245L663.16 736.537C647.031 711.479 628.447 688.164 607.572 666.875C604.035 663.268 598.618 656.28 594.012 654.718L592.913 654.321L591.496 653.754L557.687 655.94C554.939 656.112 548.905 655.825 546.954 657.479C543.971 662.044 544.913 669.04 542.102 674.173L541.617 674.25L540.5 672.408C540.007 670.739 539.379 669.184 538.372 667.75C528.908 654.282 507.664 657.994 493.542 655.452L492.822 655.319L482.594 654.271L421.981 653.423L421.448 600.663C420.518 600.024 420.87 600.158 419.952 599.862C410.758 596.894 401.693 592.509 392.576 589.14C388.787 587.74 385.094 586.182 381.12 585.379L380.414 585.24C379.76 583.179 378.98 581.238 379.111 579.047C380.345 578.018 381.443 577.435 382.976 576.935C387.871 575.336 393.551 574.976 398.623 573.797C402.998 572.78 407.27 570.968 411.609 570.107C414.887 569.456 418.418 569.374 421.757 569.076L423.416 569.25C422.667 567.085 421.57 566.116 421.449 563.632L421.887 563.463L422.624 563.2C424.257 562.597 425.824 561.863 427.602 562.099L428.311 562.206C430.043 562.439 434.603 563.003 435.904 562L435.387 560.75C436.756 556.636 444.816 556.944 448.25 556.005C449.966 555.536 451.436 554.337 453 553.518C457.217 551.308 460.884 550.29 463.845 546.202C469.325 538.636 468.27 529.574 467.105 520.932L361.051 523.053L360.607 518.828C364.555 517.683 369.22 517.813 373.337 517.443C373.828 516.904 376.464 516.796 377.292 516.69C382.766 515.991 392.717 516.304 396.948 512.774C404.761 511.682 413.393 511.423 421.25 512.137C421.736 513.397 421.396 514.637 421.199 515.93C423.008 517.225 429.096 516.516 431.707 516.528L458.734 516.983L511.492 518.753L548.849 522.043L567.673 522.504L758.678 523.608L766.857 523.474L855.168 529.659L856.366 529.935C857.56 521.808 857.134 513.4 857.123 505.21L857.148 455.3C857.317 453.955 857.332 453.336 856.75 452.101L853.322 451.953L853.72 451.746C855.037 450.901 855.385 449.707 855.63 448.25L853.667 447.656L912.287 447.909C917.612 447.442 923.189 446.776 927.994 444.281C932.275 442.057 935.602 438.285 938.948 434.883C946.034 427.676 952.873 419.813 959.131 411.871L967.774 400.529Z"/>
	<path fill="#FDFDF9" transform="scale(0.5 0.5)" d="M718.243 722.25L719.48 722.141C720.649 723.216 721.02 723.624 721.364 725.25L720.217 726.75L719.566 726.821C718.275 726.843 717.642 726.135 716.75 725.342C716.965 723.826 717.347 723.453 718.243 722.25Z"/>
	<path transform="scale(0.5 0.5)" d="M396.948 512.774C404.761 511.682 413.393 511.423 421.25 512.137C421.736 513.397 421.396 514.637 421.199 515.93C423.008 517.225 429.096 516.516 431.707 516.528L458.734 516.983L511.492 518.753L548.849 522.043L567.673 522.504L758.678 523.608L766.857 523.474L855.168 529.659L856.366 529.935L892.119 533.827C905.772 535.646 917.338 537.609 930.217 542.714C932.774 543.727 935.503 544.417 937.981 545.602C943.421 548.204 949.977 553.61 953.907 558.284C954.897 559.462 955.735 560.583 956.358 562C955.719 562.809 956.029 562.48 955.467 563.021C956.534 564.29 957.142 565.116 957.526 566.742L956.987 567.982C950.97 579.784 944.009 586.465 931.281 590.601C911.777 596.939 890.552 599.753 870.115 600.59C866.775 600.727 862.876 601.269 859.579 600.806C858.874 610.194 857.907 616.915 850.378 623.364C847.324 625.981 843.765 628.36 839.75 629.058L839.051 629.184C829.602 630.751 819.188 629.952 809.592 629.968L756.618 630.01L756.4 614.963C753.625 618.511 750.726 622.336 747.296 625.276C731.593 638.738 708.764 643.978 688.75 646.488L615.737 652.257L598.305 653.24C596.254 653.363 593.44 653.189 591.496 653.754L557.687 655.94C554.939 656.112 548.905 655.825 546.954 657.479C543.971 662.044 544.913 669.04 542.102 674.173L541.617 674.25L540.5 672.408C540.007 670.739 539.379 669.184 538.372 667.75C528.908 654.282 507.664 657.994 493.542 655.452L492.822 655.319L482.594 654.271L421.981 653.423L421.448 600.663C420.518 600.024 420.87 600.158 419.952 599.862C410.758 596.894 401.693 592.509 392.576 589.14C388.787 587.74 385.094 586.182 381.12 585.379L380.414 585.24C379.76 583.179 378.98 581.238 379.111 579.047C380.345 578.018 381.443 577.435 382.976 576.935C387.871 575.336 393.551 574.976 398.623 573.797C402.998 572.78 407.27 570.968 411.609 570.107C414.887 569.456 418.418 569.374 421.757 569.076L423.416 569.25C422.667 567.085 421.57 566.116 421.449 563.632L421.887 563.463L422.624 563.2C424.257 562.597 425.824 561.863 427.602 562.099L428.311 562.206C430.043 562.439 434.603 563.003 435.904 562L435.387 560.75C436.756 556.636 444.816 556.944 448.25 556.005C449.966 555.536 451.436 554.337 453 553.518C457.217 551.308 460.884 550.29 463.845 546.202C469.325 538.636 468.27 529.574 467.105 520.932L361.051 523.053L360.607 518.828C364.555 517.683 369.22 517.813 373.337 517.443C373.828 516.904 376.464 516.796 377.292 516.69C382.766 515.991 392.717 516.304 396.948 512.774Z"/>
	<path fill="#066192" transform="scale(0.5 0.5)" d="M744.491 543.476C748.547 542.17 754.935 542.896 759.254 542.834L811.397 543.043L822.266 543.747C819.15 544.26 815.774 544.058 812.614 544.068L812.25 545C814.922 545.008 817.767 545.183 820.421 544.923C821.237 544.843 821.969 544.994 822.771 545.125L817.783 545.54L770.615 545.521C760.951 545.542 750.726 546.237 741.146 544.995C742.331 544.577 743.378 544.051 744.491 543.476Z"/>
	<path fill="#066192" transform="scale(0.5 0.5)" d="M755.726 553.899L545.283 555.608C549.543 554.11 556.441 550.126 560.8 550.6C566.391 551.209 572.07 550.678 577.685 550.776L625.689 551.021L741.687 551.383L801.219 551.06C797.237 552.003 793.095 551.247 789.058 551.558L777.104 552.068L776.75 552.755C778.633 552.735 780.393 552.915 782.25 553L784 552.878C786.011 552.777 787.982 553.006 790 552.878L793.219 552.871C794.846 552.871 797.072 552.645 798.497 553.391L769.785 553.402C765.593 553.412 759.667 552.679 755.726 553.899Z"/>
	<defs>
		<linearGradient id="gradient_4" gradientUnits="userSpaceOnUse" x1="714.3736" y1="507.67316" x2="698.97296" y2="600.65912">
			<stop offset="0" stop-color="#06363D"/>
			<stop offset="1" stop-color="#0459A5"/>
		</linearGradient>
	</defs>
	<path fill="url(#gradient_4)" transform="scale(0.5 0.5)" d="M830.8 536.561L871.5 537.013C895.874 537.85 920.417 539.226 941.964 552.125C946.592 554.895 950.931 559.274 954.963 562.846L955.106 562.989L631.793 562.963C630.247 563.537 626.788 563.167 624.976 563.206L596.68 563.1L519.5 562.518C516.266 562.417 513.04 561.806 509.823 561.761L477.25 561.573C470.289 561.526 463.421 561.874 456.502 560.842L456.502 560.121L631.369 559.052L711.465 558.999L835.477 558.122L896.211 558.521C904.552 558.508 913.669 559.287 921.882 558.07C923.56 557.821 924.216 557.656 925.26 556.301L924.849 555.25C921.31 554.097 916.585 554.662 912.858 554.595L889.25 554.195L811.126 554.278L755.726 553.899C759.667 552.679 765.593 553.412 769.785 553.402L798.497 553.391C797.072 552.645 794.846 552.871 793.219 552.871L790 552.878C787.982 553.006 786.011 552.777 784 552.878L782.25 553C780.393 552.915 778.633 552.735 776.75 552.755L777.104 552.068L789.058 551.558C793.095 551.247 797.237 552.003 801.219 551.06C812.073 550.278 823.357 551.014 834.25 551.049L891.654 550.933C896.637 550.921 917.166 552.094 920.25 549.847C920.387 548.753 920.366 548.713 919.823 547.75L818.37 545.619L817.783 545.54L822.771 545.125C821.969 544.994 821.237 544.843 820.421 544.923C817.767 545.183 814.922 545.008 812.25 545L812.614 544.068C815.774 544.058 819.15 544.26 822.266 543.747L811.397 543.043C812.002 543.015 816.609 542.938 816.75 542.799C817.562 541.997 816.851 541.555 818.25 540.86L819.139 542L819.629 542.78L829.351 543.375C829.344 541.429 829.266 539.643 828.865 537.733L828.759 537.25L830.8 536.561Z"/>
	<defs>
		<linearGradient id="gradient_5" gradientUnits="userSpaceOnUse" x1="664.23907" y1="574.79999" x2="660.55804" y2="500.08212">
			<stop offset="0" stop-color="#E65800"/>
			<stop offset="1" stop-color="#F79C29"/>
		</linearGradient>
	</defs>
	<path fill="url(#gradient_5)" transform="scale(0.5 0.5)" d="M396.948 512.774C404.761 511.682 413.393 511.423 421.25 512.137C421.736 513.397 421.396 514.637 421.199 515.93C423.008 517.225 429.096 516.516 431.707 516.528L458.734 516.983L511.492 518.753L548.849 522.043L567.673 522.504L758.678 523.608L766.857 523.474L855.168 529.659L856.366 529.935L892.119 533.827C905.772 535.646 917.338 537.609 930.217 542.714C932.774 543.727 935.503 544.417 937.981 545.602C943.421 548.204 949.977 553.61 953.907 558.284C954.897 559.462 955.735 560.583 956.358 562C955.719 562.809 956.029 562.48 955.467 563.021L955.106 562.989L954.963 562.846C950.931 559.274 946.592 554.895 941.964 552.125C920.417 539.226 895.874 537.85 871.5 537.013L830.8 536.561L828.759 537.25L828.865 537.733C829.266 539.643 829.344 541.429 829.351 543.375L819.629 542.78L819.139 542L818.25 540.86C816.851 541.555 817.562 541.997 816.75 542.799C816.609 542.938 812.002 543.015 811.397 543.043L759.254 542.834C754.935 542.896 748.547 542.17 744.491 543.476C743.378 544.051 742.331 544.577 741.146 544.995L565.542 545.356L565.054 544.5C566.075 542.929 567.556 542.456 569.229 541.647C571.314 540.639 572.905 539.576 573.629 537.27C573.941 536.275 573.98 535.982 573.404 535.038C572.162 533.004 568.105 531.36 566.01 530.365C562.17 528.542 558.002 526.555 553.873 525.479C548.891 524.181 543.959 524.188 538.879 523.741L506.033 521.672C500.192 521.543 493.902 521.887 488.141 521.053L467.105 520.932L361.051 523.053L360.607 518.828C364.555 517.683 369.22 517.813 373.337 517.443C373.828 516.904 376.464 516.796 377.292 516.69C382.766 515.991 392.717 516.304 396.948 512.774Z"/>
	<path fill="#FCBF49" transform="scale(0.5 0.5)" d="M373.337 517.443L373.472 517.961L370.75 518.755L371.437 518.813C372.587 518.934 371.889 518.813 372.711 519.094C374.1 519.568 375.382 518.803 376.547 519.735C378.857 521.582 385.349 520.711 388.372 520.74C389.465 520.751 390.462 521.084 391.539 520.909C392.381 520.771 393.172 520.398 394 520.255C397.033 519.731 409.425 521.314 411 519.755C412.844 519.824 414.74 519.997 416.578 519.817C417.691 519.708 419.115 520.037 420 519.378C422.837 519.191 425.686 519.245 428.528 519.249C429.27 519.25 430.841 519.059 431.5 519.255C432.316 519.498 431.971 520.034 433.062 519.945C436.052 519.701 439.139 519.658 442.125 519.951C443.712 520.106 445.396 519.869 447 519.878L449.172 519.87C457.854 519.87 466.861 520.604 475.5 519.878C476.924 519.758 476.913 520.237 478 520.5C479.678 520.905 482.889 520.361 484.793 520.361C486.04 520.361 487.02 520.51 488.141 521.053L467.105 520.932L361.051 523.053L360.607 518.828C364.555 517.683 369.22 517.813 373.337 517.443Z"/>
	<path fill="#003049" transform="scale(0.5 0.5)" d="M744.491 543.476C742.188 542.81 739.17 542.614 737.193 541.318L737.493 540.464C742.547 537.504 820.407 536.642 830.8 536.561L828.759 537.25L828.865 537.733C829.266 539.643 829.344 541.429 829.351 543.375L819.629 542.78L819.139 542L818.25 540.86C816.851 541.555 817.562 541.997 816.75 542.799C816.609 542.938 812.002 543.015 811.397 543.043L759.254 542.834C754.935 542.896 748.547 542.17 744.491 543.476Z"/>
	<path fill="#003049" transform="scale(0.5 0.5)" d="M482.594 654.271C483.483 654.217 483.726 654.172 484.556 653.75C484.629 653.366 485.073 651.77 484.982 651.5C484.813 651.005 484.205 650.744 484.036 650.25C483.745 649.398 483.891 647.433 483.85 646.482L483.576 636.96L484.038 570.462L538.444 570.038L551.335 570.527L611.314 570.874L634.734 570.969C639.17 570.978 644.462 570.38 648.707 571.669C662.823 575.957 675.295 583.457 689.929 586.591C702.196 589.217 714.368 588.569 726.834 588.55L764.634 588.637L793.35 588.647C801.011 588.718 809.133 589.077 816.75 588.333C833.154 586.731 847.246 576.791 862.947 573.004C878.579 569.232 895.63 570.176 911.601 570.172L940.564 569.628C943.012 569.579 945.541 569.635 947.973 569.373C950.645 569.087 954.542 567.058 956.987 567.982C950.97 579.784 944.009 586.465 931.281 590.601C911.777 596.939 890.552 599.753 870.115 600.59C866.775 600.727 862.876 601.269 859.579 600.806C856.693 599.693 853.51 600.088 850.457 600.138L833.719 600.363L693.286 599.456C687.55 599.415 681.766 598.423 676.095 598.492C670.559 598.559 665.665 600.632 660.297 601.648C654.318 602.778 648.317 602.94 642.256 603.058L571.506 603.413L530.031 603.45L517.463 603.532C515.173 603.556 512.542 603.395 510.38 604.245C508.387 605.029 506.506 606.894 504.845 608.216C499.711 612.302 496.333 619.314 494.495 625.5L494.231 626.371C491.557 635.466 493.506 645.92 492.822 655.319L482.594 654.271Z"/>
	<path transform="scale(0.5 0.5)" d="M492.822 655.319C493.506 645.92 491.557 635.466 494.231 626.371L494.495 625.5C496.333 619.314 499.711 612.302 504.845 608.216C506.506 606.894 508.387 605.029 510.38 604.245C512.542 603.395 515.173 603.556 517.463 603.532L530.031 603.45L571.506 603.413L642.256 603.058C648.317 602.94 654.318 602.778 660.297 601.648C665.665 600.632 670.559 598.559 676.095 598.492C681.766 598.423 687.55 599.415 693.286 599.456L833.719 600.363L850.457 600.138C853.51 600.088 856.693 599.693 859.579 600.806C858.874 610.194 857.907 616.915 850.378 623.364C847.324 625.981 843.765 628.36 839.75 629.058L839.051 629.184C829.602 630.751 819.188 629.952 809.592 629.968L756.618 630.01L756.4 614.963C753.625 618.511 750.726 622.336 747.296 625.276C731.593 638.738 708.764 643.978 688.75 646.488L615.737 652.257L598.305 653.24C596.254 653.363 593.44 653.189 591.496 653.754L557.687 655.94C554.939 656.112 548.905 655.825 546.954 657.479C543.971 662.044 544.913 669.04 542.102 674.173L541.617 674.25L540.5 672.408C540.007 670.739 539.379 669.184 538.372 667.75C528.908 654.282 507.664 657.994 493.542 655.452L492.822 655.319Z"/>
	<path fill="#FCBF49" transform="scale(0.5 0.5)" d="M61.2165 626.104C62.3045 625.802 61.7368 625.881 62.9228 625.89L63.1592 625.549L63.5771 625L64.1834 624.178C66.3355 621.466 71.4315 620.364 74.4566 618.728C108.961 600.065 148.27 590.931 187.231 588.672C197.806 588.058 208.482 588.616 219.042 589.263C228.388 589.835 237.939 590.328 247.19 591.821C280.666 597.225 312.305 610.014 342.621 624.794C357.096 631.851 372.87 639.406 384.922 650.25C385.913 651.141 388.741 654.566 389.772 654.914C391.511 655.502 396.473 654.92 398.5 654.846L421.981 653.423L482.594 654.271L492.822 655.319L493.542 655.452C507.664 657.994 528.908 654.282 538.372 667.75C539.379 669.184 540.007 670.739 540.5 672.408L541.617 674.25L542.102 674.173C544.913 669.04 543.971 662.044 546.954 657.479C548.905 655.825 554.939 656.112 557.687 655.94L591.496 653.754L592.913 654.321L594.012 654.718C598.618 656.28 604.035 663.268 607.572 666.875C628.447 688.164 647.031 711.479 663.16 736.537L673.752 753.245L679.529 764.554C681.387 768.081 683.501 771.441 685.224 775.045C691.594 788.364 697.962 801.761 703.123 815.606C711.43 837.889 717.243 861.881 720.191 885.477L721.594 902.359C722.492 913.029 723.701 924.711 722.735 935.385C704.159 944.957 684.621 953.891 664.872 960.71C654.478 964.298 643.369 966.496 633.173 970.43L628.75 971.865C606.792 977.452 584.148 980.777 561.649 983.109C526.346 986.767 490.598 987.097 455.294 983.06C390.951 975.701 328.739 953.627 273.761 919.548L254.257 906.25L231.362 889.626L210.854 871.647C159.243 825.024 117.607 766.414 88.79 703.189C77.4273 678.259 67.5862 652.808 61.2165 626.104Z"/>
	<path fill="#FDFDF9" transform="scale(0.5 0.5)" d="M360.875 669.565C361.094 667.221 360.369 664.51 360.927 662.264C361.218 661.095 361.543 659.977 361.739 658.779L361.817 658.25C362.82 656.796 363.428 656.312 365 655.504C366.72 655.613 367.568 655.411 368.942 656.5L369.004 660.667C368.507 665.377 367.501 684.732 369.541 688.191C369.533 689.1 369.373 690.139 369.068 691C368.587 692.356 368.499 692.396 367.25 692.942C365.707 692.654 364.732 692.25 363.562 691.168C361.866 689.601 359.968 687.416 359.907 685.049C361.531 680.248 360.899 674.593 360.875 669.565Z"/>
	<path transform="scale(0.5 0.5)" d="M359.907 685.049L359.054 685.79C351.741 681.244 344.112 678.289 336.02 675.418L336.28 669.547C337.868 668.633 339.803 668.239 341.5 667.524C345.04 666.033 348.397 664.121 351.994 662.75C354.526 661.785 357.114 661.159 359.388 659.625L359.75 659.368C359.713 659.792 359.648 660.245 359.75 660.667C360.503 663.77 360.74 666.322 360.875 669.565C360.899 674.593 361.531 680.248 359.907 685.049Z"/>
	<path fill="#003049" transform="scale(0.5 0.5)" d="M369.004 660.667L421.955 657.585C426.341 660.369 432.222 663.452 433.287 669.042C434.267 674.183 433.742 680.696 430.599 685C427.349 689.451 422.823 690.784 417.672 691.94C414.955 692.55 413.334 692.135 411.438 694.285L385.375 690.643C379.991 689.955 374.799 689.62 369.541 688.191C367.501 684.732 368.507 665.377 369.004 660.667Z"/>
	<path transform="scale(0.5 0.5)" d="M421.955 657.585L449.778 655.861C465.782 655.5 482.083 656.09 498 657.499C507.154 658.309 516.393 658.649 525.25 661.302C528.802 662.367 531.709 663.222 534.526 665.803C536.796 667.883 538.551 670.323 540.095 672.971L540.923 675.5C538.099 680.748 533.778 682.836 528.278 684.477C521.374 686.537 513.908 687.301 506.804 688.326L463.032 693.328C455.612 693.949 448.064 694.147 440.731 695.509C430.721 695.832 421.346 696.004 411.438 694.285C413.334 692.135 414.955 692.55 417.672 691.94C422.823 690.784 427.349 689.451 430.599 685C433.742 680.696 434.267 674.183 433.287 669.042C432.222 663.452 426.341 660.369 421.955 657.585Z"/>
	<path fill="#F77F00" transform="scale(0.5 0.5)" d="M540.5 672.408L541.617 674.25L542.102 674.173C544.913 669.04 543.971 662.044 546.954 657.479C548.905 655.825 554.939 656.112 557.687 655.94L591.496 653.754L592.913 654.321L594.012 654.718C598.618 656.28 604.035 663.268 607.572 666.875C628.447 688.164 647.031 711.479 663.16 736.537L673.752 753.245L679.529 764.554C681.387 768.081 683.501 771.441 685.224 775.045C691.594 788.364 697.962 801.761 703.123 815.606C711.43 837.889 717.243 861.881 720.191 885.477L721.594 902.359C722.492 913.029 723.701 924.711 722.735 935.385C704.159 944.957 684.621 953.891 664.872 960.71C654.478 964.298 643.369 966.496 633.173 970.43C633.935 963.424 632.226 956.567 630.811 949.769C627.088 931.881 621.269 914.827 614.25 898.007C610.623 889.315 607.21 880.43 602.97 872C601.698 869.469 599.991 867.285 598.682 864.82C597.419 862.443 596.596 859.874 595.266 857.486C589.728 847.545 583.219 838.036 577.014 828.508L560.379 803.425C535.47 769.039 505.007 738.77 472.012 712.2L455.385 699.312C454.368 698.573 452.389 696.711 451.259 696.348C448.238 695.38 444.564 696.669 441.242 695.673L440.731 695.509C448.064 694.147 455.612 693.949 463.032 693.328L506.804 688.326C513.908 687.301 521.374 686.537 528.278 684.477C533.778 682.836 538.099 680.748 540.923 675.5L540.095 672.971L540.5 672.408Z"/>
</svg>
